<svg width="1200" height="500" xmlns="http://www.w3.org/2000/svg" xmlns:xlink="http://www.w3.org/1999/xlink"><g transform="translate(50,50)"><g transform="translate(0,390)" fill="none" font-size="10" font-family="sans-serif" text-anchor="middle"><path class="domain" stroke="currentColor" d="M0.5,6V0.5H1100.5V6"></path><g class="tick" opacity="1" transform="translate(0.5,0)"><line stroke="currentColor" y2="6"></line><text fill="currentColor" y="9" dy="0.71em" transform="rotate(-90)" style="text-anchor: end;">00:00</text></g><g class="tick" opacity="1" transform="translate(20.142857142857142,0)"><line stroke="currentColor" y2="6"></line><text fill="currentColor" y="9" dy="0.71em" transform="rotate(-90)" style="text-anchor: end;">03:00</text></g><g class="tick" opacity="1" transform="translate(39.785714285714285,0)"><line stroke="currentColor" y2="6"></line><text fill="currentColor" y="9" dy="0.71em" transform="rotate(-90)" style="text-anchor: end;">06:00</text></g><g class="tick" opacity="1" transform="translate(59.42857142857142,0)"><line stroke="currentColor" y2="6"></line><text fill="currentColor" y="9" dy="0.71em" transform="rotate(-90)" style="text-anchor: end;">09:00</text></g><g class="tick" opacity="1" transform="translate(79.07142857142857,0)"><line stroke="currentColor" y2="6"></line><text fill="currentColor" y="9" dy="0.71em" transform="rotate(-90)" style="text-anchor: end;">12:00</text></g><g class="tick" opacity="1" transform="translate(98.71428571428572,0)"><line stroke="currentColor" y2="6"></line><text fill="currentColor" y="9" dy="0.71em" transform="rotate(-90)" style="text-anchor: end;">15:00</text></g><g class="tick" opacity="1" transform="translate(118.35714285714285,0)"><line stroke="currentColor" y2="6"></line><text fill="currentColor" y="9" dy="0.71em" transform="rotate(-90)" style="text-anchor: end;">18:00</text></g><g class="tick" opacity="1" transform="translate(138,0)"><line stroke="currentColor" y2="6"></line><text fill="currentColor" y="9" dy="0.71em" transform="rotate(-90)" style="text-anchor: end;">21:00</text></g><g class="tick" opacity="1" transform="translate(157.64285714285714,0)"><line stroke="currentColor" y2="6"></line><text fill="currentColor" y="9" dy="0.71em" transform="rotate(-90)" style="text-anchor: end;">00:00</text></g><g class="tick" opacity="1" transform="translate(177.2857142857143,0)"><line stroke="currentColor" y2="6"></line><text fill="currentColor" y="9" dy="0.71em" transform="rotate(-90)" style="text-anchor: end;">03:00</text></g><g class="tick" opacity="1" transform="translate(196.92857142857144,0)"><line stroke="currentColor" y2="6"></line><text fill="currentColor" y="9" dy="0.71em" transform="rotate(-90)" style="text-anchor: end;">06:00</text></g><g class="tick" opacity="1" transform="translate(216.57142857142856,0)"><line stroke="currentColor" y2="6"></line><text fill="currentColor" y="9" dy="0.71em" transform="rotate(-90)" style="text-anchor: end;">09:00</text></g><g class="tick" opacity="1" transform="translate(236.2142857142857,0)"><line stroke="currentColor" y2="6"></line><text fill="currentColor" y="9" dy="0.71em" transform="rotate(-90)" style="text-anchor: end;">12:00</text></g><g class="tick" opacity="1" transform="translate(255.85714285714286,0)"><line stroke="currentColor" y2="6"></line><text fill="currentColor" y="9" dy="0.71em" transform="rotate(-90)" style="text-anchor: end;">15:00</text></g><g class="tick" opacity="1" transform="translate(275.5,0)"><line stroke="currentColor" y2="6"></line><text fill="currentColor" y="9" dy="0.71em" transform="rotate(-90)" style="text-anchor: end;">18:00</text></g><g class="tick" opacity="1" transform="translate(295.1428571428571,0)"><line stroke="currentColor" y2="6"></line><text fill="currentColor" y="9" dy="0.71em" transform="rotate(-90)" style="text-anchor: end;">21:00</text></g><g class="tick" opacity="1" transform="translate(314.7857142857143,0)"><line stroke="currentColor" y2="6"></line><text fill="currentColor" y="9" dy="0.71em" transform="rotate(-90)" style="text-anchor: end;">00:00</text></g><g class="tick" opacity="1" transform="translate(334.4285714285714,0)"><line stroke="currentColor" y2="6"></line><text fill="currentColor" y="9" dy="0.71em" transform="rotate(-90)" style="text-anchor: end;">03:00</text></g><g class="tick" opacity="1" transform="translate(354.0714285714286,0)"><line stroke="currentColor" y2="6"></line><text fill="currentColor" y="9" dy="0.71em" transform="rotate(-90)" style="text-anchor: end;">06:00</text></g><g class="tick" opacity="1" transform="translate(373.7142857142857,0)"><line stroke="currentColor" y2="6"></line><text fill="currentColor" y="9" dy="0.71em" transform="rotate(-90)" style="text-anchor: end;">09:00</text></g><g class="tick" opacity="1" transform="translate(393.3571428571429,0)"><line stroke="currentColor" y2="6"></line><text fill="currentColor" y="9" dy="0.71em" transform="rotate(-90)" style="text-anchor: end;">12:00</text></g><g class="tick" opacity="1" transform="translate(413,0)"><line stroke="currentColor" y2="6"></line><text fill="currentColor" y="9" dy="0.71em" transform="rotate(-90)" style="text-anchor: end;">15:00</text></g><g class="tick" opacity="1" transform="translate(432.6428571428571,0)"><line stroke="currentColor" y2="6"></line><text fill="currentColor" y="9" dy="0.71em" transform="rotate(-90)" style="text-anchor: end;">18:00</text></g><g class="tick" opacity="1" transform="translate(452.2857142857143,0)"><line stroke="currentColor" y2="6"></line><text fill="currentColor" y="9" dy="0.71em" transform="rotate(-90)" style="text-anchor: end;">21:00</text></g><g class="tick" opacity="1" transform="translate(471.9285714285714,0)"><line stroke="currentColor" y2="6"></line><text fill="currentColor" y="9" dy="0.71em" transform="rotate(-90)" style="text-anchor: end;">00:00</text></g><g class="tick" opacity="1" transform="translate(491.5714285714286,0)"><line stroke="currentColor" y2="6"></line><text fill="currentColor" y="9" dy="0.71em" transform="rotate(-90)" style="text-anchor: end;">03:00</text></g><g class="tick" opacity="1" transform="translate(511.2142857142857,0)"><line stroke="currentColor" y2="6"></line><text fill="currentColor" y="9" dy="0.71em" transform="rotate(-90)" style="text-anchor: end;">06:00</text></g><g class="tick" opacity="1" transform="translate(530.8571428571429,0)"><line stroke="currentColor" y2="6"></line><text fill="currentColor" y="9" dy="0.71em" transform="rotate(-90)" style="text-anchor: end;">09:00</text></g><g class="tick" opacity="1" transform="translate(550.5,0)"><line stroke="currentColor" y2="6"></line><text fill="currentColor" y="9" dy="0.71em" transform="rotate(-90)" style="text-anchor: end;">12:00</text></g><g class="tick" opacity="1" transform="translate(570.1428571428572,0)"><line stroke="currentColor" y2="6"></line><text fill="currentColor" y="9" dy="0.71em" transform="rotate(-90)" style="text-anchor: end;">15:00</text></g><g class="tick" opacity="1" transform="translate(589.7857142857142,0)"><line stroke="currentColor" y2="6"></line><text fill="currentColor" y="9" dy="0.71em" transform="rotate(-90)" style="text-anchor: end;">18:00</text></g><g class="tick" opacity="1" transform="translate(609.4285714285714,0)"><line stroke="currentColor" y2="6"></line><text fill="currentColor" y="9" dy="0.71em" transform="rotate(-90)" style="text-anchor: end;">21:00</text></g><g class="tick" opacity="1" transform="translate(629.0714285714286,0)"><line stroke="currentColor" y2="6"></line><text fill="currentColor" y="9" dy="0.71em" transform="rotate(-90)" style="text-anchor: end;">00:00</text></g><g class="tick" opacity="1" transform="translate(648.7142857142858,0)"><line stroke="currentColor" y2="6"></line><text fill="currentColor" y="9" dy="0.71em" transform="rotate(-90)" style="text-anchor: end;">03:00</text></g><g class="tick" opacity="1" transform="translate(668.3571428571428,0)"><line stroke="currentColor" y2="6"></line><text fill="currentColor" y="9" dy="0.71em" transform="rotate(-90)" style="text-anchor: end;">06:00</text></g><g class="tick" opacity="1" transform="translate(688,0)"><line stroke="currentColor" y2="6"></line><text fill="currentColor" y="9" dy="0.71em" transform="rotate(-90)" style="text-anchor: end;">09:00</text></g><g class="tick" opacity="1" transform="translate(707.6428571428572,0)"><line stroke="currentColor" y2="6"></line><text fill="currentColor" y="9" dy="0.71em" transform="rotate(-90)" style="text-anchor: end;">12:00</text></g><g class="tick" opacity="1" transform="translate(727.2857142857142,0)"><line stroke="currentColor" y2="6"></line><text fill="currentColor" y="9" dy="0.71em" transform="rotate(-90)" style="text-anchor: end;">15:00</text></g><g class="tick" opacity="1" transform="translate(746.9285714285714,0)"><line stroke="currentColor" y2="6"></line><text fill="currentColor" y="9" dy="0.71em" transform="rotate(-90)" style="text-anchor: end;">18:00</text></g><g class="tick" opacity="1" transform="translate(766.5714285714286,0)"><line stroke="currentColor" y2="6"></line><text fill="currentColor" y="9" dy="0.71em" transform="rotate(-90)" style="text-anchor: end;">21:00</text></g><g class="tick" opacity="1" transform="translate(786.2142857142858,0)"><line stroke="currentColor" y2="6"></line><text fill="currentColor" y="9" dy="0.71em" transform="rotate(-90)" style="text-anchor: end;">00:00</text></g><g class="tick" opacity="1" transform="translate(805.8571428571428,0)"><line stroke="currentColor" y2="6"></line><text fill="currentColor" y="9" dy="0.71em" transform="rotate(-90)" style="text-anchor: end;">03:00</text></g><g class="tick" opacity="1" transform="translate(825.5,0)"><line stroke="currentColor" y2="6"></line><text fill="currentColor" y="9" dy="0.71em" transform="rotate(-90)" style="text-anchor: end;">06:00</text></g><g class="tick" opacity="1" transform="translate(845.1428571428572,0)"><line stroke="currentColor" y2="6"></line><text fill="currentColor" y="9" dy="0.71em" transform="rotate(-90)" style="text-anchor: end;">09:00</text></g><g class="tick" opacity="1" transform="translate(864.7857142857142,0)"><line stroke="currentColor" y2="6"></line><text fill="currentColor" y="9" dy="0.71em" transform="rotate(-90)" style="text-anchor: end;">12:00</text></g><g class="tick" opacity="1" transform="translate(884.4285714285714,0)"><line stroke="currentColor" y2="6"></line><text fill="currentColor" y="9" dy="0.71em" transform="rotate(-90)" style="text-anchor: end;">15:00</text></g><g class="tick" opacity="1" transform="translate(904.0714285714286,0)"><line stroke="currentColor" y2="6"></line><text fill="currentColor" y="9" dy="0.71em" transform="rotate(-90)" style="text-anchor: end;">18:00</text></g><g class="tick" opacity="1" transform="translate(923.7142857142858,0)"><line stroke="currentColor" y2="6"></line><text fill="currentColor" y="9" dy="0.71em" transform="rotate(-90)" style="text-anchor: end;">21:00</text></g><g class="tick" opacity="1" transform="translate(943.3571428571428,0)"><line stroke="currentColor" y2="6"></line><text fill="currentColor" y="9" dy="0.71em" transform="rotate(-90)" style="text-anchor: end;">00:00</text></g><g class="tick" opacity="1" transform="translate(963,0)"><line stroke="currentColor" y2="6"></line><text fill="currentColor" y="9" dy="0.71em" transform="rotate(-90)" style="text-anchor: end;">03:00</text></g><g class="tick" opacity="1" transform="translate(982.6428571428572,0)"><line stroke="currentColor" y2="6"></line><text fill="currentColor" y="9" dy="0.71em" transform="rotate(-90)" style="text-anchor: end;">06:00</text></g><g class="tick" opacity="1" transform="translate(1002.2857142857142,0)"><line stroke="currentColor" y2="6"></line><text fill="currentColor" y="9" dy="0.71em" transform="rotate(-90)" style="text-anchor: end;">09:00</text></g><g class="tick" opacity="1" transform="translate(1021.9285714285714,0)"><line stroke="currentColor" y2="6"></line><text fill="currentColor" y="9" dy="0.71em" transform="rotate(-90)" style="text-anchor: end;">12:00</text></g><g class="tick" opacity="1" transform="translate(1041.5714285714284,0)"><line stroke="currentColor" y2="6"></line><text fill="currentColor" y="9" dy="0.71em" transform="rotate(-90)" style="text-anchor: end;">15:00</text></g><g class="tick" opacity="1" transform="translate(1061.2142857142858,0)"><line stroke="currentColor" y2="6"></line><text fill="currentColor" y="9" dy="0.71em" transform="rotate(-90)" style="text-anchor: end;">18:00</text></g><g class="tick" opacity="1" transform="translate(1080.857142857143,0)"><line stroke="currentColor" y2="6"></line><text fill="currentColor" y="9" dy="0.71em" transform="rotate(-90)" style="text-anchor: end;">21:00</text></g><g class="tick" opacity="1" transform="translate(1100.5,0)"><line stroke="currentColor" y2="6"></line><text fill="currentColor" y="9" dy="0.71em" transform="rotate(-90)" style="text-anchor: end;">00:00</text></g></g><g fill="none" font-size="10" font-family="sans-serif" text-anchor="end"><path class="domain" stroke="currentColor" d="M-6,390.5H0.5V0.5H-6"></path><g class="tick" opacity="1" transform="translate(0,390.5)"><line stroke="currentColor" x2="-6"></line><text fill="currentColor" x="-9" dy="0.32em">0.0</text></g><g class="tick" opacity="1" transform="translate(0,351.5)"><line stroke="currentColor" x2="-6"></line><text fill="currentColor" x="-9" dy="0.32em">0.1</text></g><g class="tick" opacity="1" transform="translate(0,312.5)"><line stroke="currentColor" x2="-6"></line><text fill="currentColor" x="-9" dy="0.32em">0.2</text></g><g class="tick" opacity="1" transform="translate(0,273.5)"><line stroke="currentColor" x2="-6"></line><text fill="currentColor" x="-9" dy="0.32em">0.3</text></g><g class="tick" opacity="1" transform="translate(0,234.5)"><line stroke="currentColor" x2="-6"></line><text fill="currentColor" x="-9" dy="0.32em">0.4</text></g><g class="tick" opacity="1" transform="translate(0,195.5)"><line stroke="currentColor" x2="-6"></line><text fill="currentColor" x="-9" dy="0.32em">0.5</text></g><g class="tick" opacity="1" transform="translate(0,156.5)"><line stroke="currentColor" x2="-6"></line><text fill="currentColor" x="-9" dy="0.32em">0.6</text></g><g class="tick" opacity="1" transform="translate(0,117.50000000000001)"><line stroke="currentColor" x2="-6"></line><text fill="currentColor" x="-9" dy="0.32em">0.7</text></g><g class="tick" opacity="1" transform="translate(0,78.49999999999999)"><line stroke="currentColor" x2="-6"></line><text fill="currentColor" x="-9" dy="0.32em">0.8</text></g><g class="tick" opacity="1" transform="translate(0,39.49999999999999)"><line stroke="currentColor" x2="-6"></line><text fill="currentColor" x="-9" dy="0.32em">0.9</text></g><g class="tick" opacity="1" transform="translate(0,0.5)"><line stroke="currentColor" x2="-6"></line><text fill="currentColor" x="-9" dy="0.32em">1.0</text></g></g><path fill="none" stroke="steelblue" stroke-width="1" d="M1.091,390L7.639,390L14.187,390L20.734,390L27.282,390L33.829,390L40.377,390L46.925,390L53.472,350.037L60.02,256.33L66.567,169.513L73.115,288.025L79.663,310.073L86.21,292.159L92.758,354.171L99.306,356.927L105.853,390L112.401,390L118.948,390L125.496,390L132.044,390L138.591,390L145.139,390L151.687,390L158.234,390L164.782,390L171.329,390L177.877,390L184.425,390L190.972,390L197.52,390L204.067,390L210.615,384.488L217.163,264.598L223.71,264.598L230.258,288.025L236.806,24.805L243.353,170.891L249.901,315.586L256.448,369.329L262.996,390L269.544,390L276.091,390L282.639,390L289.187,390L295.734,390L302.282,390L308.829,390L315.377,390L321.925,390L328.472,390L335.02,390L341.567,390L348.115,390L354.663,390L361.21,390L367.758,374.842L374.306,307.317L380.853,294.915L387.401,310.073L393.948,274.244L400.496,282.513L407.044,318.342L413.591,365.195L420.139,390L426.687,390L433.234,390L439.782,390L446.329,390L452.877,390L459.425,390L465.972,390L472.52,390L479.067,390L485.615,390L492.163,390L498.71,390L505.258,390L511.806,390L518.353,390L524.901,384.488L531.448,333.5L537.996,321.098L544.544,283.891L551.091,252.196L557.639,322.476L564.187,366.573L570.734,374.842L577.282,390L583.829,390L590.377,390L596.925,390L603.472,390L610.02,390L616.567,390L623.115,390L629.663,390L636.21,390L642.758,390L649.306,390L655.853,390L662.401,390L668.948,390L675.496,390L682.044,362.439L688.591,325.232L695.139,278.379L701.687,288.025L708.234,294.915L714.782,243.927L721.329,294.915L727.877,383.11L734.425,390L740.972,390L747.52,390L754.067,390L760.615,390L767.163,390L773.71,390L780.258,390L786.806,390L793.353,390L799.901,390L806.448,390L812.996,390L819.544,390L826.091,390L832.639,390L839.187,361.061L845.734,235.659L852.282,217.745L858.829,230.147L865.377,271.488L871.925,205.342L878.472,304.561L885.02,362.439L891.567,390L898.115,390L904.663,390L911.21,390L917.758,390L924.306,390L930.853,390L937.401,390L943.948,390L950.496,390L957.044,390L963.591,390L970.139,390L976.687,390L983.234,390L989.782,390L996.329,365.195L1002.877,184.658L1009.425,64.768L1015.972,126.794L1022.52,0L1029.067,187.428L1035.615,288.025L1042.163,343.133L1048.71,390L1055.258,390L1061.806,390L1068.353,390L1074.901,390L1081.448,390L1087.996,390L1094.544,390"></path><g><circle cx="1.0912698412698412" cy="390" r="2" fill="steelblue"></circle><circle cx="7.638888888888888" cy="390" r="2" fill="steelblue"></circle><circle cx="14.186507936507935" cy="390" r="2" fill="steelblue"></circle><circle cx="20.734126984126984" cy="390" r="2" fill="steelblue"></circle><circle cx="27.28174603174603" cy="390" r="2" fill="steelblue"></circle><circle cx="33.829365079365076" cy="390" r="2" fill="steelblue"></circle><circle cx="40.37698412698413" cy="390" r="2" fill="steelblue"></circle><circle cx="46.92460317460318" cy="390" r="2" fill="steelblue"></circle><circle cx="53.47222222222222" cy="350.0367478180983" r="2" fill="steelblue"></circle><circle cx="60.01984126984127" cy="256.32981166743224" r="2" fill="steelblue"></circle><circle cx="66.56746031746032" cy="169.51309141019752" r="2" fill="steelblue"></circle><circle cx="73.11507936507937" cy="288.02480477721633" r="2" fill="steelblue"></circle><circle cx="79.66269841269842" cy="310.0734956361966" r="2" fill="steelblue"></circle><circle cx="86.21031746031746" cy="292.1589343132751" r="2" fill="steelblue"></circle><circle cx="92.75793650793652" cy="354.1708773541571" r="2" fill="steelblue"></circle><circle cx="99.30555555555556" cy="356.9269637115296" r="2" fill="steelblue"></circle><circle cx="105.85317460317461" cy="390" r="2" fill="steelblue"></circle><circle cx="112.40079365079364" cy="390" r="2" fill="steelblue"></circle><circle cx="118.94841269841271" cy="390" r="2" fill="steelblue"></circle><circle cx="125.49603174603175" cy="390" r="2" fill="steelblue"></circle><circle cx="132.04365079365078" cy="390" r="2" fill="steelblue"></circle><circle cx="138.59126984126985" cy="390" r="2" fill="steelblue"></circle><circle cx="145.13888888888889" cy="390" r="2" fill="steelblue"></circle><circle cx="151.68650793650795" cy="390" r="2" fill="steelblue"></circle><circle cx="158.23412698412696" cy="390" r="2" fill="steelblue"></circle><circle cx="164.78174603174602" cy="390" r="2" fill="steelblue"></circle><circle cx="171.3293650793651" cy="390" r="2" fill="steelblue"></circle><circle cx="177.87698412698413" cy="390" r="2" fill="steelblue"></circle><circle cx="184.42460317460316" cy="390" r="2" fill="steelblue"></circle><circle cx="190.97222222222223" cy="390" r="2" fill="steelblue"></circle><circle cx="197.51984126984127" cy="390" r="2" fill="steelblue"></circle><circle cx="204.06746031746033" cy="390" r="2" fill="steelblue"></circle><circle cx="210.61507936507937" cy="384.4878272852549" r="2" fill="steelblue"></circle><circle cx="217.1626984126984" cy="264.5980707395498" r="2" fill="steelblue"></circle><circle cx="223.71031746031747" cy="264.5980707395498" r="2" fill="steelblue"></circle><circle cx="230.2579365079365" cy="288.02480477721633" r="2" fill="steelblue"></circle><circle cx="236.80555555555557" cy="24.804777216352793" r="2" fill="steelblue"></circle><circle cx="243.35317460317458" cy="170.89113458888377" r="2" fill="steelblue"></circle><circle cx="249.90079365079364" cy="315.58566835094166" r="2" fill="steelblue"></circle><circle cx="256.4484126984127" cy="369.329352319706" r="2" fill="steelblue"></circle><circle cx="262.99603174603175" cy="390" r="2" fill="steelblue"></circle><circle cx="269.5436507936508" cy="390" r="2" fill="steelblue"></circle><circle cx="276.0912698412698" cy="390" r="2" fill="steelblue"></circle><circle cx="282.63888888888886" cy="390" r="2" fill="steelblue"></circle><circle cx="289.18650793650795" cy="390" r="2" fill="steelblue"></circle><circle cx="295.734126984127" cy="390" r="2" fill="steelblue"></circle><circle cx="302.2817460317461" cy="390" r="2" fill="steelblue"></circle><circle cx="308.82936507936506" cy="390" r="2" fill="steelblue"></circle><circle cx="315.3769841269841" cy="390" r="2" fill="steelblue"></circle><circle cx="321.9246031746032" cy="390" r="2" fill="steelblue"></circle><circle cx="328.47222222222223" cy="390" r="2" fill="steelblue"></circle><circle cx="335.01984126984127" cy="390" r="2" fill="steelblue"></circle><circle cx="341.5674603174603" cy="390" r="2" fill="steelblue"></circle><circle cx="348.11507936507934" cy="390" r="2" fill="steelblue"></circle><circle cx="354.66269841269843" cy="390" r="2" fill="steelblue"></circle><circle cx="361.21031746031747" cy="390" r="2" fill="steelblue"></circle><circle cx="367.7579365079365" cy="374.8415250344511" r="2" fill="steelblue"></circle><circle cx="374.30555555555554" cy="307.3174092788241" r="2" fill="steelblue"></circle><circle cx="380.8531746031746" cy="294.9150206706477" r="2" fill="steelblue"></circle><circle cx="387.4007936507937" cy="310.0734956361966" r="2" fill="steelblue"></circle><circle cx="393.9484126984127" cy="274.2443729903537" r="2" fill="steelblue"></circle><circle cx="400.49603174603175" cy="282.51263206247125" r="2" fill="steelblue"></circle><circle cx="407.04365079365084" cy="318.3417547083142" r="2" fill="steelblue"></circle><circle cx="413.5912698412698" cy="365.1952227836472" r="2" fill="steelblue"></circle><circle cx="420.13888888888886" cy="390" r="2" fill="steelblue"></circle><circle cx="426.68650793650795" cy="390" r="2" fill="steelblue"></circle><circle cx="433.234126984127" cy="390" r="2" fill="steelblue"></circle><circle cx="439.7817460317461" cy="390" r="2" fill="steelblue"></circle><circle cx="446.32936507936506" cy="390" r="2" fill="steelblue"></circle><circle cx="452.8769841269841" cy="390" r="2" fill="steelblue"></circle><circle cx="459.4246031746032" cy="390" r="2" fill="steelblue"></circle><circle cx="465.97222222222223" cy="390" r="2" fill="steelblue"></circle><circle cx="472.51984126984127" cy="390" r="2" fill="steelblue"></circle><circle cx="479.0674603174603" cy="390" r="2" fill="steelblue"></circle><circle cx="485.61507936507934" cy="390" r="2" fill="steelblue"></circle><circle cx="492.16269841269843" cy="390" r="2" fill="steelblue"></circle><circle cx="498.71031746031747" cy="390" r="2" fill="steelblue"></circle><circle cx="505.2579365079365" cy="390" r="2" fill="steelblue"></circle><circle cx="511.80555555555554" cy="390" r="2" fill="steelblue"></circle><circle cx="518.3531746031746" cy="390" r="2" fill="steelblue"></circle><circle cx="524.9007936507937" cy="384.4878272852549" r="2" fill="steelblue"></circle><circle cx="531.4484126984127" cy="333.5002296738631" r="2" fill="steelblue"></circle><circle cx="537.9960317460317" cy="321.09784106568674" r="2" fill="steelblue"></circle><circle cx="544.5436507936508" cy="283.89067524115757" r="2" fill="steelblue"></circle><circle cx="551.0912698412699" cy="252.19568213137347" r="2" fill="steelblue"></circle><circle cx="557.6388888888889" cy="322.475884244373" r="2" fill="steelblue"></circle><circle cx="564.1865079365078" cy="366.5732659623335" r="2" fill="steelblue"></circle><circle cx="570.734126984127" cy="374.8415250344511" r="2" fill="steelblue"></circle><circle cx="577.281746031746" cy="390" r="2" fill="steelblue"></circle><circle cx="583.8293650793651" cy="390" r="2" fill="steelblue"></circle><circle cx="590.3769841269841" cy="390" r="2" fill="steelblue"></circle><circle cx="596.9246031746031" cy="390" r="2" fill="steelblue"></circle><circle cx="603.4722222222223" cy="390" r="2" fill="steelblue"></circle><circle cx="610.0198412698413" cy="390" r="2" fill="steelblue"></circle><circle cx="616.5674603174604" cy="390" r="2" fill="steelblue"></circle><circle cx="623.1150793650794" cy="390" r="2" fill="steelblue"></circle><circle cx="629.6626984126983" cy="390" r="2" fill="steelblue"></circle><circle cx="636.2103174603175" cy="390" r="2" fill="steelblue"></circle><circle cx="642.7579365079365" cy="390" r="2" fill="steelblue"></circle><circle cx="649.3055555555555" cy="390" r="2" fill="steelblue"></circle><circle cx="655.8531746031746" cy="390" r="2" fill="steelblue"></circle><circle cx="662.4007936507936" cy="390" r="2" fill="steelblue"></circle><circle cx="668.9484126984127" cy="390" r="2" fill="steelblue"></circle><circle cx="675.4960317460318" cy="390" r="2" fill="steelblue"></circle><circle cx="682.0436507936508" cy="362.4391364262747" r="2" fill="steelblue"></circle><circle cx="688.5912698412699" cy="325.2319706017455" r="2" fill="steelblue"></circle><circle cx="695.1388888888889" cy="278.3785025264125" r="2" fill="steelblue"></circle><circle cx="701.6865079365078" cy="288.02480477721633" r="2" fill="steelblue"></circle><circle cx="708.234126984127" cy="294.9150206706477" r="2" fill="steelblue"></circle><circle cx="714.781746031746" cy="243.92742305925583" r="2" fill="steelblue"></circle><circle cx="721.3293650793651" cy="294.9150206706477" r="2" fill="steelblue"></circle><circle cx="727.8769841269841" cy="383.10978410656867" r="2" fill="steelblue"></circle><circle cx="734.4246031746031" cy="390" r="2" fill="steelblue"></circle><circle cx="740.9722222222223" cy="390" r="2" fill="steelblue"></circle><circle cx="747.5198412698413" cy="390" r="2" fill="steelblue"></circle><circle cx="754.0674603174604" cy="390" r="2" fill="steelblue"></circle><circle cx="760.6150793650794" cy="390" r="2" fill="steelblue"></circle><circle cx="767.1626984126983" cy="390" r="2" fill="steelblue"></circle><circle cx="773.7103174603175" cy="390" r="2" fill="steelblue"></circle><circle cx="780.2579365079365" cy="390" r="2" fill="steelblue"></circle><circle cx="786.8055555555555" cy="390" r="2" fill="steelblue"></circle><circle cx="793.3531746031746" cy="390" r="2" fill="steelblue"></circle><circle cx="799.9007936507936" cy="390" r="2" fill="steelblue"></circle><circle cx="806.4484126984127" cy="390" r="2" fill="steelblue"></circle><circle cx="812.9960317460318" cy="390" r="2" fill="steelblue"></circle><circle cx="819.5436507936508" cy="390" r="2" fill="steelblue"></circle><circle cx="826.0912698412699" cy="390" r="2" fill="steelblue"></circle><circle cx="832.6388888888889" cy="390" r="2" fill="steelblue"></circle><circle cx="839.1865079365078" cy="361.0610932475884" r="2" fill="steelblue"></circle><circle cx="845.734126984127" cy="235.65916398713827" r="2" fill="steelblue"></circle><circle cx="852.281746031746" cy="217.74460266421679" r="2" fill="steelblue"></circle><circle cx="858.8293650793651" cy="230.1469912723932" r="2" fill="steelblue"></circle><circle cx="865.3769841269841" cy="271.48828663298116" r="2" fill="steelblue"></circle><circle cx="871.9246031746031" cy="205.3422140560404" r="2" fill="steelblue"></circle><circle cx="878.4722222222223" cy="304.56132292145156" r="2" fill="steelblue"></circle><circle cx="885.0198412698413" cy="362.4391364262747" r="2" fill="steelblue"></circle><circle cx="891.5674603174604" cy="390" r="2" fill="steelblue"></circle><circle cx="898.1150793650794" cy="390" r="2" fill="steelblue"></circle><circle cx="904.6626984126983" cy="390" r="2" fill="steelblue"></circle><circle cx="911.2103174603175" cy="390" r="2" fill="steelblue"></circle><circle cx="917.7579365079365" cy="390" r="2" fill="steelblue"></circle><circle cx="924.3055555555555" cy="390" r="2" fill="steelblue"></circle><circle cx="930.8531746031746" cy="390" r="2" fill="steelblue"></circle><circle cx="937.4007936507936" cy="390" r="2" fill="steelblue"></circle><circle cx="943.9484126984127" cy="390" r="2" fill="steelblue"></circle><circle cx="950.4960317460318" cy="390" r="2" fill="steelblue"></circle><circle cx="957.0436507936508" cy="390" r="2" fill="steelblue"></circle><circle cx="963.5912698412699" cy="390" r="2" fill="steelblue"></circle><circle cx="970.1388888888889" cy="390" r="2" fill="steelblue"></circle><circle cx="976.6865079365078" cy="390" r="2" fill="steelblue"></circle><circle cx="983.234126984127" cy="390" r="2" fill="steelblue"></circle><circle cx="989.781746031746" cy="390" r="2" fill="steelblue"></circle><circle cx="996.3293650793651" cy="365.1952227836472" r="2" fill="steelblue"></circle><circle cx="1002.8769841269841" cy="184.6577859439596" r="2" fill="steelblue"></circle><circle cx="1009.4246031746031" cy="64.7680293982545" r="2" fill="steelblue"></circle><circle cx="1015.9722222222223" cy="126.7937528709233" r="2" fill="steelblue"></circle><circle cx="1022.5198412698413" cy="0" r="2" fill="steelblue"></circle><circle cx="1029.0674603174602" cy="187.42765273311898" r="2" fill="steelblue"></circle><circle cx="1035.6150793650793" cy="288.02480477721633" r="2" fill="steelblue"></circle><circle cx="1042.1626984126983" cy="343.1327514928801" r="2" fill="steelblue"></circle><circle cx="1048.7103174603176" cy="390" r="2" fill="steelblue"></circle><circle cx="1055.2579365079366" cy="390" r="2" fill="steelblue"></circle><circle cx="1061.8055555555557" cy="390" r="2" fill="steelblue"></circle><circle cx="1068.3531746031747" cy="390" r="2" fill="steelblue"></circle><circle cx="1074.9007936507937" cy="390" r="2" fill="steelblue"></circle><circle cx="1081.4484126984125" cy="390" r="2" fill="steelblue"></circle><circle cx="1087.9960317460318" cy="390" r="2" fill="steelblue"></circle><circle cx="1094.5436507936508" cy="390" r="2" fill="steelblue"></circle></g></g></svg>