<svg width="1200" height="500" xmlns="http://www.w3.org/2000/svg" xmlns:xlink="http://www.w3.org/1999/xlink"><g transform="translate(50,50)"><g transform="translate(0,390)" fill="none" font-size="10" font-family="sans-serif" text-anchor="middle"><path class="domain" stroke="currentColor" d="M0.5,6V0.5H1100.5V6"></path><g class="tick" opacity="1" transform="translate(0.5,0)"><line stroke="currentColor" y2="6"></line><text fill="currentColor" y="9" dy="0.71em" transform="rotate(-90)" style="text-anchor: end;">00:00</text></g><g class="tick" opacity="1" transform="translate(46.33333333333333,0)"><line stroke="currentColor" y2="6"></line><text fill="currentColor" y="9" dy="0.71em" transform="rotate(-90)" style="text-anchor: end;">01:00</text></g><g class="tick" opacity="1" transform="translate(92.16666666666666,0)"><line stroke="currentColor" y2="6"></line><text fill="currentColor" y="9" dy="0.71em" transform="rotate(-90)" style="text-anchor: end;">02:00</text></g><g class="tick" opacity="1" transform="translate(138,0)"><line stroke="currentColor" y2="6"></line><text fill="currentColor" y="9" dy="0.71em" transform="rotate(-90)" style="text-anchor: end;">03:00</text></g><g class="tick" opacity="1" transform="translate(183.83333333333331,0)"><line stroke="currentColor" y2="6"></line><text fill="currentColor" y="9" dy="0.71em" transform="rotate(-90)" style="text-anchor: end;">04:00</text></g><g class="tick" opacity="1" transform="translate(229.66666666666669,0)"><line stroke="currentColor" y2="6"></line><text fill="currentColor" y="9" dy="0.71em" transform="rotate(-90)" style="text-anchor: end;">05:00</text></g><g class="tick" opacity="1" transform="translate(275.5,0)"><line stroke="currentColor" y2="6"></line><text fill="currentColor" y="9" dy="0.71em" transform="rotate(-90)" style="text-anchor: end;">06:00</text></g><g class="tick" opacity="1" transform="translate(321.33333333333337,0)"><line stroke="currentColor" y2="6"></line><text fill="currentColor" y="9" dy="0.71em" transform="rotate(-90)" style="text-anchor: end;">07:00</text></g><g class="tick" opacity="1" transform="translate(367.16666666666663,0)"><line stroke="currentColor" y2="6"></line><text fill="currentColor" y="9" dy="0.71em" transform="rotate(-90)" style="text-anchor: end;">08:00</text></g><g class="tick" opacity="1" transform="translate(413,0)"><line stroke="currentColor" y2="6"></line><text fill="currentColor" y="9" dy="0.71em" transform="rotate(-90)" style="text-anchor: end;">09:00</text></g><g class="tick" opacity="1" transform="translate(458.83333333333337,0)"><line stroke="currentColor" y2="6"></line><text fill="currentColor" y="9" dy="0.71em" transform="rotate(-90)" style="text-anchor: end;">10:00</text></g><g class="tick" opacity="1" transform="translate(504.66666666666663,0)"><line stroke="currentColor" y2="6"></line><text fill="currentColor" y="9" dy="0.71em" transform="rotate(-90)" style="text-anchor: end;">11:00</text></g><g class="tick" opacity="1" transform="translate(550.5,0)"><line stroke="currentColor" y2="6"></line><text fill="currentColor" y="9" dy="0.71em" transform="rotate(-90)" style="text-anchor: end;">12:00</text></g><g class="tick" opacity="1" transform="translate(596.3333333333333,0)"><line stroke="currentColor" y2="6"></line><text fill="currentColor" y="9" dy="0.71em" transform="rotate(-90)" style="text-anchor: end;">13:00</text></g><g class="tick" opacity="1" transform="translate(642.1666666666667,0)"><line stroke="currentColor" y2="6"></line><text fill="currentColor" y="9" dy="0.71em" transform="rotate(-90)" style="text-anchor: end;">14:00</text></g><g class="tick" opacity="1" transform="translate(688,0)"><line stroke="currentColor" y2="6"></line><text fill="currentColor" y="9" dy="0.71em" transform="rotate(-90)" style="text-anchor: end;">15:00</text></g><g class="tick" opacity="1" transform="translate(733.8333333333333,0)"><line stroke="currentColor" y2="6"></line><text fill="currentColor" y="9" dy="0.71em" transform="rotate(-90)" style="text-anchor: end;">16:00</text></g><g class="tick" opacity="1" transform="translate(779.6666666666667,0)"><line stroke="currentColor" y2="6"></line><text fill="currentColor" y="9" dy="0.71em" transform="rotate(-90)" style="text-anchor: end;">17:00</text></g><g class="tick" opacity="1" transform="translate(825.5,0)"><line stroke="currentColor" y2="6"></line><text fill="currentColor" y="9" dy="0.71em" transform="rotate(-90)" style="text-anchor: end;">18:00</text></g><g class="tick" opacity="1" transform="translate(871.3333333333333,0)"><line stroke="currentColor" y2="6"></line><text fill="currentColor" y="9" dy="0.71em" transform="rotate(-90)" style="text-anchor: end;">19:00</text></g><g class="tick" opacity="1" transform="translate(917.1666666666667,0)"><line stroke="currentColor" y2="6"></line><text fill="currentColor" y="9" dy="0.71em" transform="rotate(-90)" style="text-anchor: end;">20:00</text></g><g class="tick" opacity="1" transform="translate(963,0)"><line stroke="currentColor" y2="6"></line><text fill="currentColor" y="9" dy="0.71em" transform="rotate(-90)" style="text-anchor: end;">21:00</text></g><g class="tick" opacity="1" transform="translate(1008.8333333333333,0)"><line stroke="currentColor" y2="6"></line><text fill="currentColor" y="9" dy="0.71em" transform="rotate(-90)" style="text-anchor: end;">22:00</text></g><g class="tick" opacity="1" transform="translate(1054.6666666666667,0)"><line stroke="currentColor" y2="6"></line><text fill="currentColor" y="9" dy="0.71em" transform="rotate(-90)" style="text-anchor: end;">23:00</text></g><g class="tick" opacity="1" transform="translate(1100.5,0)"><line stroke="currentColor" y2="6"></line><text fill="currentColor" y="9" dy="0.71em" transform="rotate(-90)" style="text-anchor: end;">00:00</text></g></g><g fill="none" font-size="10" font-family="sans-serif" text-anchor="end"><path class="domain" stroke="currentColor" d="M-6,390.5H0.5V0.5H-6"></path><g class="tick" opacity="1" transform="translate(0,390.5)"><line stroke="currentColor" x2="-6"></line><text fill="currentColor" x="-9" dy="0.32em">0.0</text></g><g class="tick" opacity="1" transform="translate(0,351.5)"><line stroke="currentColor" x2="-6"></line><text fill="currentColor" x="-9" dy="0.32em">0.1</text></g><g class="tick" opacity="1" transform="translate(0,312.5)"><line stroke="currentColor" x2="-6"></line><text fill="currentColor" x="-9" dy="0.32em">0.2</text></g><g class="tick" opacity="1" transform="translate(0,273.5)"><line stroke="currentColor" x2="-6"></line><text fill="currentColor" x="-9" dy="0.32em">0.3</text></g><g class="tick" opacity="1" transform="translate(0,234.5)"><line stroke="currentColor" x2="-6"></line><text fill="currentColor" x="-9" dy="0.32em">0.4</text></g><g class="tick" opacity="1" transform="translate(0,195.5)"><line stroke="currentColor" x2="-6"></line><text fill="currentColor" x="-9" dy="0.32em">0.5</text></g><g class="tick" opacity="1" transform="translate(0,156.5)"><line stroke="currentColor" x2="-6"></line><text fill="currentColor" x="-9" dy="0.32em">0.6</text></g><g class="tick" opacity="1" transform="translate(0,117.50000000000001)"><line stroke="currentColor" x2="-6"></line><text fill="currentColor" x="-9" dy="0.32em">0.7</text></g><g class="tick" opacity="1" transform="translate(0,78.49999999999999)"><line stroke="currentColor" x2="-6"></line><text fill="currentColor" x="-9" dy="0.32em">0.8</text></g><g class="tick" opacity="1" transform="translate(0,39.49999999999999)"><line stroke="currentColor" x2="-6"></line><text fill="currentColor" x="-9" dy="0.32em">0.9</text></g><g class="tick" opacity="1" transform="translate(0,0.5)"><line stroke="currentColor" x2="-6"></line><text fill="currentColor" x="-9" dy="0.32em">1.0</text></g></g><path fill="none" stroke="steelblue" stroke-width="1" d="M7.639,390L53.472,390L99.306,390L145.139,390L190.972,390L236.806,390L282.639,390L328.472,390L374.306,342.441L420.139,152.189L465.972,17.438L511.806,0L557.639,103.06L603.472,179.155L649.306,351.953L695.139,339.27L740.972,390L786.806,390L832.639,390L878.472,390L924.306,390L970.139,390L1015.972,390L1061.806,390"></path><g><circle cx="7.638888888888888" cy="390" r="2" fill="steelblue"></circle><circle cx="53.47222222222222" cy="390" r="2" fill="steelblue"></circle><circle cx="99.30555555555556" cy="390" r="2" fill="steelblue"></circle><circle cx="145.13888888888889" cy="390" r="2" fill="steelblue"></circle><circle cx="190.97222222222223" cy="390" r="2" fill="steelblue"></circle><circle cx="236.80555555555557" cy="390" r="2" fill="steelblue"></circle><circle cx="282.63888888888886" cy="390" r="2" fill="steelblue"></circle><circle cx="328.47222222222223" cy="390" r="2" fill="steelblue"></circle><circle cx="374.30555555555554" cy="342.44095768464695" r="2" fill="steelblue"></circle><circle cx="420.13888888888886" cy="152.18893540912973" r="2" fill="steelblue"></circle><circle cx="465.97222222222223" cy="17.438315515629448" r="2" fill="steelblue"></circle><circle cx="511.80555555555554" cy="0" r="2" fill="steelblue"></circle><circle cx="557.6388888888889" cy="103.06044469737" r="2" fill="steelblue"></circle><circle cx="603.4722222222223" cy="179.15491240193487" r="2" fill="steelblue"></circle><circle cx="649.3055555555555" cy="351.95276614771757" r="2" fill="steelblue"></circle><circle cx="695.1388888888889" cy="339.2703548636234" r="2" fill="steelblue"></circle><circle cx="740.9722222222223" cy="390" r="2" fill="steelblue"></circle><circle cx="786.8055555555555" cy="390" r="2" fill="steelblue"></circle><circle cx="832.6388888888889" cy="390" r="2" fill="steelblue"></circle><circle cx="878.4722222222223" cy="390" r="2" fill="steelblue"></circle><circle cx="924.3055555555555" cy="390" r="2" fill="steelblue"></circle><circle cx="970.1388888888889" cy="390" r="2" fill="steelblue"></circle><circle cx="1015.9722222222223" cy="390" r="2" fill="steelblue"></circle><circle cx="1061.8055555555557" cy="390" r="2" fill="steelblue"></circle></g></g></svg>