<svg width="1200" height="500" xmlns="http://www.w3.org/2000/svg" xmlns:xlink="http://www.w3.org/1999/xlink"><g transform="translate(50,50)"><g transform="translate(0,390)" fill="none" font-size="10" font-family="sans-serif" text-anchor="middle"><path class="domain" stroke="currentColor" d="M0.5,6V0.5H1100.5V6"></path><g class="tick" opacity="1" transform="translate(0.5,0)"><line stroke="currentColor" y2="6"></line><text fill="currentColor" y="9" dy="0.71em" transform="rotate(-90)" style="text-anchor: end;">00:00</text></g><g class="tick" opacity="1" transform="translate(23.416666666666664,0)"><line stroke="currentColor" y2="6"></line><text fill="currentColor" y="9" dy="0.71em" transform="rotate(-90)" style="text-anchor: end;">01:00</text></g><g class="tick" opacity="1" transform="translate(46.33333333333333,0)"><line stroke="currentColor" y2="6"></line><text fill="currentColor" y="9" dy="0.71em" transform="rotate(-90)" style="text-anchor: end;">02:00</text></g><g class="tick" opacity="1" transform="translate(69.25,0)"><line stroke="currentColor" y2="6"></line><text fill="currentColor" y="9" dy="0.71em" transform="rotate(-90)" style="text-anchor: end;">03:00</text></g><g class="tick" opacity="1" transform="translate(92.16666666666666,0)"><line stroke="currentColor" y2="6"></line><text fill="currentColor" y="9" dy="0.71em" transform="rotate(-90)" style="text-anchor: end;">04:00</text></g><g class="tick" opacity="1" transform="translate(115.08333333333334,0)"><line stroke="currentColor" y2="6"></line><text fill="currentColor" y="9" dy="0.71em" transform="rotate(-90)" style="text-anchor: end;">05:00</text></g><g class="tick" opacity="1" transform="translate(138,0)"><line stroke="currentColor" y2="6"></line><text fill="currentColor" y="9" dy="0.71em" transform="rotate(-90)" style="text-anchor: end;">06:00</text></g><g class="tick" opacity="1" transform="translate(160.91666666666669,0)"><line stroke="currentColor" y2="6"></line><text fill="currentColor" y="9" dy="0.71em" transform="rotate(-90)" style="text-anchor: end;">07:00</text></g><g class="tick" opacity="1" transform="translate(183.83333333333331,0)"><line stroke="currentColor" y2="6"></line><text fill="currentColor" y="9" dy="0.71em" transform="rotate(-90)" style="text-anchor: end;">08:00</text></g><g class="tick" opacity="1" transform="translate(206.75,0)"><line stroke="currentColor" y2="6"></line><text fill="currentColor" y="9" dy="0.71em" transform="rotate(-90)" style="text-anchor: end;">09:00</text></g><g class="tick" opacity="1" transform="translate(229.66666666666669,0)"><line stroke="currentColor" y2="6"></line><text fill="currentColor" y="9" dy="0.71em" transform="rotate(-90)" style="text-anchor: end;">10:00</text></g><g class="tick" opacity="1" transform="translate(252.58333333333331,0)"><line stroke="currentColor" y2="6"></line><text fill="currentColor" y="9" dy="0.71em" transform="rotate(-90)" style="text-anchor: end;">11:00</text></g><g class="tick" opacity="1" transform="translate(275.5,0)"><line stroke="currentColor" y2="6"></line><text fill="currentColor" y="9" dy="0.71em" transform="rotate(-90)" style="text-anchor: end;">12:00</text></g><g class="tick" opacity="1" transform="translate(298.41666666666663,0)"><line stroke="currentColor" y2="6"></line><text fill="currentColor" y="9" dy="0.71em" transform="rotate(-90)" style="text-anchor: end;">13:00</text></g><g class="tick" opacity="1" transform="translate(321.33333333333337,0)"><line stroke="currentColor" y2="6"></line><text fill="currentColor" y="9" dy="0.71em" transform="rotate(-90)" style="text-anchor: end;">14:00</text></g><g class="tick" opacity="1" transform="translate(344.25,0)"><line stroke="currentColor" y2="6"></line><text fill="currentColor" y="9" dy="0.71em" transform="rotate(-90)" style="text-anchor: end;">15:00</text></g><g class="tick" opacity="1" transform="translate(367.16666666666663,0)"><line stroke="currentColor" y2="6"></line><text fill="currentColor" y="9" dy="0.71em" transform="rotate(-90)" style="text-anchor: end;">16:00</text></g><g class="tick" opacity="1" transform="translate(390.08333333333337,0)"><line stroke="currentColor" y2="6"></line><text fill="currentColor" y="9" dy="0.71em" transform="rotate(-90)" style="text-anchor: end;">17:00</text></g><g class="tick" opacity="1" transform="translate(413,0)"><line stroke="currentColor" y2="6"></line><text fill="currentColor" y="9" dy="0.71em" transform="rotate(-90)" style="text-anchor: end;">18:00</text></g><g class="tick" opacity="1" transform="translate(435.91666666666663,0)"><line stroke="currentColor" y2="6"></line><text fill="currentColor" y="9" dy="0.71em" transform="rotate(-90)" style="text-anchor: end;">19:00</text></g><g class="tick" opacity="1" transform="translate(458.83333333333337,0)"><line stroke="currentColor" y2="6"></line><text fill="currentColor" y="9" dy="0.71em" transform="rotate(-90)" style="text-anchor: end;">20:00</text></g><g class="tick" opacity="1" transform="translate(481.75,0)"><line stroke="currentColor" y2="6"></line><text fill="currentColor" y="9" dy="0.71em" transform="rotate(-90)" style="text-anchor: end;">21:00</text></g><g class="tick" opacity="1" transform="translate(504.66666666666663,0)"><line stroke="currentColor" y2="6"></line><text fill="currentColor" y="9" dy="0.71em" transform="rotate(-90)" style="text-anchor: end;">22:00</text></g><g class="tick" opacity="1" transform="translate(527.5833333333334,0)"><line stroke="currentColor" y2="6"></line><text fill="currentColor" y="9" dy="0.71em" transform="rotate(-90)" style="text-anchor: end;">23:00</text></g><g class="tick" opacity="1" transform="translate(550.5,0)"><line stroke="currentColor" y2="6"></line><text fill="currentColor" y="9" dy="0.71em" transform="rotate(-90)" style="text-anchor: end;">00:00</text></g><g class="tick" opacity="1" transform="translate(573.4166666666667,0)"><line stroke="currentColor" y2="6"></line><text fill="currentColor" y="9" dy="0.71em" transform="rotate(-90)" style="text-anchor: end;">01:00</text></g><g class="tick" opacity="1" transform="translate(596.3333333333333,0)"><line stroke="currentColor" y2="6"></line><text fill="currentColor" y="9" dy="0.71em" transform="rotate(-90)" style="text-anchor: end;">02:00</text></g><g class="tick" opacity="1" transform="translate(619.25,0)"><line stroke="currentColor" y2="6"></line><text fill="currentColor" y="9" dy="0.71em" transform="rotate(-90)" style="text-anchor: end;">03:00</text></g><g class="tick" opacity="1" transform="translate(642.1666666666667,0)"><line stroke="currentColor" y2="6"></line><text fill="currentColor" y="9" dy="0.71em" transform="rotate(-90)" style="text-anchor: end;">04:00</text></g><g class="tick" opacity="1" transform="translate(665.0833333333333,0)"><line stroke="currentColor" y2="6"></line><text fill="currentColor" y="9" dy="0.71em" transform="rotate(-90)" style="text-anchor: end;">05:00</text></g><g class="tick" opacity="1" transform="translate(688,0)"><line stroke="currentColor" y2="6"></line><text fill="currentColor" y="9" dy="0.71em" transform="rotate(-90)" style="text-anchor: end;">06:00</text></g><g class="tick" opacity="1" transform="translate(710.9166666666667,0)"><line stroke="currentColor" y2="6"></line><text fill="currentColor" y="9" dy="0.71em" transform="rotate(-90)" style="text-anchor: end;">07:00</text></g><g class="tick" opacity="1" transform="translate(733.8333333333333,0)"><line stroke="currentColor" y2="6"></line><text fill="currentColor" y="9" dy="0.71em" transform="rotate(-90)" style="text-anchor: end;">08:00</text></g><g class="tick" opacity="1" transform="translate(756.75,0)"><line stroke="currentColor" y2="6"></line><text fill="currentColor" y="9" dy="0.71em" transform="rotate(-90)" style="text-anchor: end;">09:00</text></g><g class="tick" opacity="1" transform="translate(779.6666666666667,0)"><line stroke="currentColor" y2="6"></line><text fill="currentColor" y="9" dy="0.71em" transform="rotate(-90)" style="text-anchor: end;">10:00</text></g><g class="tick" opacity="1" transform="translate(802.5833333333333,0)"><line stroke="currentColor" y2="6"></line><text fill="currentColor" y="9" dy="0.71em" transform="rotate(-90)" style="text-anchor: end;">11:00</text></g><g class="tick" opacity="1" transform="translate(825.5,0)"><line stroke="currentColor" y2="6"></line><text fill="currentColor" y="9" dy="0.71em" transform="rotate(-90)" style="text-anchor: end;">12:00</text></g><g class="tick" opacity="1" transform="translate(848.4166666666667,0)"><line stroke="currentColor" y2="6"></line><text fill="currentColor" y="9" dy="0.71em" transform="rotate(-90)" style="text-anchor: end;">13:00</text></g><g class="tick" opacity="1" transform="translate(871.3333333333333,0)"><line stroke="currentColor" y2="6"></line><text fill="currentColor" y="9" dy="0.71em" transform="rotate(-90)" style="text-anchor: end;">14:00</text></g><g class="tick" opacity="1" transform="translate(894.25,0)"><line stroke="currentColor" y2="6"></line><text fill="currentColor" y="9" dy="0.71em" transform="rotate(-90)" style="text-anchor: end;">15:00</text></g><g class="tick" opacity="1" transform="translate(917.1666666666667,0)"><line stroke="currentColor" y2="6"></line><text fill="currentColor" y="9" dy="0.71em" transform="rotate(-90)" style="text-anchor: end;">16:00</text></g><g class="tick" opacity="1" transform="translate(940.0833333333333,0)"><line stroke="currentColor" y2="6"></line><text fill="currentColor" y="9" dy="0.71em" transform="rotate(-90)" style="text-anchor: end;">17:00</text></g><g class="tick" opacity="1" transform="translate(963,0)"><line stroke="currentColor" y2="6"></line><text fill="currentColor" y="9" dy="0.71em" transform="rotate(-90)" style="text-anchor: end;">18:00</text></g><g class="tick" opacity="1" transform="translate(985.9166666666667,0)"><line stroke="currentColor" y2="6"></line><text fill="currentColor" y="9" dy="0.71em" transform="rotate(-90)" style="text-anchor: end;">19:00</text></g><g class="tick" opacity="1" transform="translate(1008.8333333333333,0)"><line stroke="currentColor" y2="6"></line><text fill="currentColor" y="9" dy="0.71em" transform="rotate(-90)" style="text-anchor: end;">20:00</text></g><g class="tick" opacity="1" transform="translate(1031.75,0)"><line stroke="currentColor" y2="6"></line><text fill="currentColor" y="9" dy="0.71em" transform="rotate(-90)" style="text-anchor: end;">21:00</text></g><g class="tick" opacity="1" transform="translate(1054.6666666666667,0)"><line stroke="currentColor" y2="6"></line><text fill="currentColor" y="9" dy="0.71em" transform="rotate(-90)" style="text-anchor: end;">22:00</text></g><g class="tick" opacity="1" transform="translate(1077.5833333333333,0)"><line stroke="currentColor" y2="6"></line><text fill="currentColor" y="9" dy="0.71em" transform="rotate(-90)" style="text-anchor: end;">23:00</text></g><g class="tick" opacity="1" transform="translate(1100.5,0)"><line stroke="currentColor" y2="6"></line><text fill="currentColor" y="9" dy="0.71em" transform="rotate(-90)" style="text-anchor: end;">00:00</text></g></g><g fill="none" font-size="10" font-family="sans-serif" text-anchor="end"><path class="domain" stroke="currentColor" d="M-6,390.5H0.5V0.5H-6"></path><g class="tick" opacity="1" transform="translate(0,390.5)"><line stroke="currentColor" x2="-6"></line><text fill="currentColor" x="-9" dy="0.32em">0.0</text></g><g class="tick" opacity="1" transform="translate(0,351.5)"><line stroke="currentColor" x2="-6"></line><text fill="currentColor" x="-9" dy="0.32em">0.1</text></g><g class="tick" opacity="1" transform="translate(0,312.5)"><line stroke="currentColor" x2="-6"></line><text fill="currentColor" x="-9" dy="0.32em">0.2</text></g><g class="tick" opacity="1" transform="translate(0,273.5)"><line stroke="currentColor" x2="-6"></line><text fill="currentColor" x="-9" dy="0.32em">0.3</text></g><g class="tick" opacity="1" transform="translate(0,234.5)"><line stroke="currentColor" x2="-6"></line><text fill="currentColor" x="-9" dy="0.32em">0.4</text></g><g class="tick" opacity="1" transform="translate(0,195.5)"><line stroke="currentColor" x2="-6"></line><text fill="currentColor" x="-9" dy="0.32em">0.5</text></g><g class="tick" opacity="1" transform="translate(0,156.5)"><line stroke="currentColor" x2="-6"></line><text fill="currentColor" x="-9" dy="0.32em">0.6</text></g><g class="tick" opacity="1" transform="translate(0,117.50000000000001)"><line stroke="currentColor" x2="-6"></line><text fill="currentColor" x="-9" dy="0.32em">0.7</text></g><g class="tick" opacity="1" transform="translate(0,78.49999999999999)"><line stroke="currentColor" x2="-6"></line><text fill="currentColor" x="-9" dy="0.32em">0.8</text></g><g class="tick" opacity="1" transform="translate(0,39.49999999999999)"><line stroke="currentColor" x2="-6"></line><text fill="currentColor" x="-9" dy="0.32em">0.9</text></g><g class="tick" opacity="1" transform="translate(0,0.5)"><line stroke="currentColor" x2="-6"></line><text fill="currentColor" x="-9" dy="0.32em">1.0</text></g></g><path fill="none" stroke="steelblue" stroke-width="1" d="M4.042,390L26.972,389.994L49.901,390L72.83,390L95.76,390L118.689,390L141.619,389.994L164.548,389.726L187.477,353.761L210.407,186.555L233.343,184.164L256.272,84.724L278.826,81.702L301.755,88.932L324.691,195.343L347.62,250.057L370.556,379.356L393.486,390L416.415,390L439.344,389.994L462.274,390L485.203,389.994L508.133,390L531.062,390L553.991,390L576.921,390L599.85,389.994L622.78,390L645.709,389.994L668.638,390L691.568,390L714.497,389.765L737.427,350.781L760.362,211.797L783.292,187.142L806.227,98.05L829.157,91.261L852.093,0L875.022,173.461L897.576,338.294L920.505,386.326L943.435,389.992L966.364,390L989.293,390L1012.223,390L1035.152,390L1058.088,390L1081.017,390"></path><g><circle cx="4.04224537037037" cy="390" r="2" fill="steelblue"></circle><circle cx="26.97164351851852" cy="389.9944079947036" r="2" fill="steelblue"></circle><circle cx="49.901041666666664" cy="390" r="2" fill="steelblue"></circle><circle cx="72.83043981481481" cy="390" r="2" fill="steelblue"></circle><circle cx="95.75983796296296" cy="390" r="2" fill="steelblue"></circle><circle cx="118.68923611111111" cy="390" r="2" fill="steelblue"></circle><circle cx="141.61863425925924" cy="389.9944079947036" r="2" fill="steelblue"></circle><circle cx="164.5480324074074" cy="389.7259920438423" r="2" fill="steelblue"></circle><circle cx="187.47743055555554" cy="353.761051237816" r="2" fill="steelblue"></circle><circle cx="210.4068287037037" cy="186.55468082684598" r="2" fill="steelblue"></circle><circle cx="233.3425925925926" cy="184.16411464103058" r="2" fill="steelblue"></circle><circle cx="256.27199074074076" cy="84.72437723153838" r="2" fill="steelblue"></circle><circle cx="278.8258101851852" cy="81.70189976431762" r="2" fill="steelblue"></circle><circle cx="301.75520833333337" cy="88.93234817234328" r="2" fill="steelblue"></circle><circle cx="324.69097222222223" cy="195.34250689636926" r="2" fill="steelblue"></circle><circle cx="347.6203703703704" cy="250.05742040762723" r="2" fill="steelblue"></circle><circle cx="370.55613425925924" cy="379.35562962822854" r="2" fill="steelblue"></circle><circle cx="393.4855324074074" cy="390" r="2" fill="steelblue"></circle><circle cx="416.41493055555554" cy="390" r="2" fill="steelblue"></circle><circle cx="439.3443287037037" cy="389.9944079947036" r="2" fill="steelblue"></circle><circle cx="462.27372685185185" cy="390" r="2" fill="steelblue"></circle><circle cx="485.203125" cy="389.9944079947036" r="2" fill="steelblue"></circle><circle cx="508.13252314814815" cy="390" r="2" fill="steelblue"></circle><circle cx="531.0619212962963" cy="390" r="2" fill="steelblue"></circle><circle cx="553.9913194444443" cy="390" r="2" fill="steelblue"></circle><circle cx="576.9207175925925" cy="390" r="2" fill="steelblue"></circle><circle cx="599.8501157407406" cy="389.9944079947036" r="2" fill="steelblue"></circle><circle cx="622.7795138888888" cy="390" r="2" fill="steelblue"></circle><circle cx="645.708912037037" cy="389.9944079947036" r="2" fill="steelblue"></circle><circle cx="668.6383101851851" cy="390" r="2" fill="steelblue"></circle><circle cx="691.5677083333333" cy="390" r="2" fill="steelblue"></circle><circle cx="714.4971064814814" cy="389.765136020244" r="2" fill="steelblue"></circle><circle cx="737.4265046296296" cy="350.7805129002204" r="2" fill="steelblue"></circle><circle cx="760.3622685185185" cy="211.7969670093623" r="2" fill="steelblue"></circle><circle cx="783.2916666666666" cy="187.1418334954532" r="2" fill="steelblue"></circle><circle cx="806.2274305555557" cy="98.05010898571234" r="2" fill="steelblue"></circle><circle cx="829.1568287037038" cy="91.26141601203939" r="2" fill="steelblue"></circle><circle cx="852.0925925925926" cy="0" r="2" fill="steelblue"></circle><circle cx="875.0219907407408" cy="173.46103009451585" r="2" fill="steelblue"></circle><circle cx="897.5758101851851" cy="338.2935801203107" r="2" fill="steelblue"></circle><circle cx="920.5052083333333" cy="386.3260567067154" r="2" fill="steelblue"></circle><circle cx="943.4346064814814" cy="389.99161199205537" r="2" fill="steelblue"></circle><circle cx="966.3640046296296" cy="390" r="2" fill="steelblue"></circle><circle cx="989.2934027777777" cy="390" r="2" fill="steelblue"></circle><circle cx="1012.2228009259259" cy="390" r="2" fill="steelblue"></circle><circle cx="1035.1521990740741" cy="390" r="2" fill="steelblue"></circle><circle cx="1058.0879629629628" cy="390" r="2" fill="steelblue"></circle><circle cx="1081.017361111111" cy="390" r="2" fill="steelblue"></circle></g><path fill="none" stroke="orange" stroke-width="1" d="M3.819,390L26.736,390L49.653,390L72.569,390L95.486,390L118.403,390L141.319,390L164.236,390L187.153,347.322L210.069,247.251L232.986,154.537L255.903,281.098L278.819,304.645L301.736,285.513L324.653,351.737L347.569,354.681L370.486,390L393.403,390L416.319,390L439.236,390L462.153,390L485.069,390L507.986,390L530.903,390L553.819,390L576.736,390L599.653,390L622.569,390L645.486,390L668.403,390L691.319,390L714.236,390L737.153,384.113L760.069,256.081L782.986,256.081L805.903,281.098L828.819,0L851.736,156.009L874.653,310.531L897.569,367.925L920.486,390L943.403,390L966.319,390L989.236,390L1012.153,390L1035.069,390L1057.986,390L1080.903,390"></path><g><circle cx="3.819444444444444" cy="390" r="2" fill="orange"></circle><circle cx="26.73611111111111" cy="390" r="2" fill="orange"></circle><circle cx="49.65277777777778" cy="390" r="2" fill="orange"></circle><circle cx="72.56944444444444" cy="390" r="2" fill="orange"></circle><circle cx="95.48611111111111" cy="390" r="2" fill="orange"></circle><circle cx="118.40277777777779" cy="390" r="2" fill="orange"></circle><circle cx="141.31944444444443" cy="390" r="2" fill="orange"></circle><circle cx="164.23611111111111" cy="390" r="2" fill="orange"></circle><circle cx="187.15277777777777" cy="347.32236519376625" r="2" fill="orange"></circle><circle cx="210.06944444444443" cy="247.2506697860458" r="2" fill="orange"></circle><circle cx="232.98611111111111" cy="154.53718727595185" r="2" fill="orange"></circle><circle cx="255.90277777777777" cy="281.0984491151277" r="2" fill="orange"></circle><circle cx="278.81944444444446" cy="304.64473038753255" r="2" fill="orange"></circle><circle cx="301.73611111111114" cy="285.5133768537036" r="2" fill="orange"></circle><circle cx="324.65277777777777" cy="351.7372929323422" r="2" fill="orange"></circle><circle cx="347.56944444444446" cy="354.68057809139276" r="2" fill="orange"></circle><circle cx="370.48611111111114" cy="390" r="2" fill="orange"></circle><circle cx="393.40277777777777" cy="390" r="2" fill="orange"></circle><circle cx="416.31944444444446" cy="390" r="2" fill="orange"></circle><circle cx="439.23611111111114" cy="390" r="2" fill="orange"></circle><circle cx="462.15277777777777" cy="390" r="2" fill="orange"></circle><circle cx="485.06944444444446" cy="390" r="2" fill="orange"></circle><circle cx="507.98611111111114" cy="390" r="2" fill="orange"></circle><circle cx="530.9027777777778" cy="390" r="2" fill="orange"></circle><circle cx="553.8194444444445" cy="390" r="2" fill="orange"></circle><circle cx="576.7361111111111" cy="390" r="2" fill="orange"></circle><circle cx="599.6527777777777" cy="390" r="2" fill="orange"></circle><circle cx="622.5694444444445" cy="390" r="2" fill="orange"></circle><circle cx="645.4861111111111" cy="390" r="2" fill="orange"></circle><circle cx="668.4027777777777" cy="390" r="2" fill="orange"></circle><circle cx="691.3194444444445" cy="390" r="2" fill="orange"></circle><circle cx="714.2361111111111" cy="390" r="2" fill="orange"></circle><circle cx="737.1527777777777" cy="384.1134296818988" r="2" fill="orange"></circle><circle cx="760.0694444444445" cy="256.0805252631976" r="2" fill="orange"></circle><circle cx="782.9861111111111" cy="256.0805252631976" r="2" fill="orange"></circle><circle cx="805.9027777777777" cy="281.0984491151277" r="2" fill="orange"></circle><circle cx="828.8194444444445" cy="0" r="2" fill="orange"></circle><circle cx="851.7361111111111" cy="156.00882985547716" r="2" fill="orange"></circle><circle cx="874.6527777777777" cy="310.5313007056338" r="2" fill="orange"></circle><circle cx="897.5694444444445" cy="367.9253613071205" r="2" fill="orange"></circle><circle cx="920.4861111111111" cy="390" r="2" fill="orange"></circle><circle cx="943.4027777777777" cy="390" r="2" fill="orange"></circle><circle cx="966.3194444444445" cy="390" r="2" fill="orange"></circle><circle cx="989.2361111111111" cy="390" r="2" fill="orange"></circle><circle cx="1012.1527777777777" cy="390" r="2" fill="orange"></circle><circle cx="1035.0694444444443" cy="390" r="2" fill="orange"></circle><circle cx="1057.986111111111" cy="390" r="2" fill="orange"></circle><circle cx="1080.9027777777778" cy="390" r="2" fill="orange"></circle></g></g></svg>