<svg width="1200" height="500" xmlns="http://www.w3.org/2000/svg" xmlns:xlink="http://www.w3.org/1999/xlink"><g transform="translate(50,50)"><g transform="translate(0,390)" fill="none" font-size="10" font-family="sans-serif" text-anchor="middle"><path class="domain" stroke="currentColor" d="M0.5,6V0.5H1100.5V6"></path><g class="tick" opacity="1" transform="translate(0.5,0)"><line stroke="currentColor" y2="6"></line><text fill="currentColor" y="9" dy="0.71em" transform="rotate(-90)" style="text-anchor: end;">00:00</text></g><g class="tick" opacity="1" transform="translate(20.142857142857142,0)"><line stroke="currentColor" y2="6"></line><text fill="currentColor" y="9" dy="0.71em" transform="rotate(-90)" style="text-anchor: end;">03:00</text></g><g class="tick" opacity="1" transform="translate(39.785714285714285,0)"><line stroke="currentColor" y2="6"></line><text fill="currentColor" y="9" dy="0.71em" transform="rotate(-90)" style="text-anchor: end;">06:00</text></g><g class="tick" opacity="1" transform="translate(59.42857142857142,0)"><line stroke="currentColor" y2="6"></line><text fill="currentColor" y="9" dy="0.71em" transform="rotate(-90)" style="text-anchor: end;">09:00</text></g><g class="tick" opacity="1" transform="translate(79.07142857142857,0)"><line stroke="currentColor" y2="6"></line><text fill="currentColor" y="9" dy="0.71em" transform="rotate(-90)" style="text-anchor: end;">12:00</text></g><g class="tick" opacity="1" transform="translate(98.71428571428572,0)"><line stroke="currentColor" y2="6"></line><text fill="currentColor" y="9" dy="0.71em" transform="rotate(-90)" style="text-anchor: end;">15:00</text></g><g class="tick" opacity="1" transform="translate(118.35714285714285,0)"><line stroke="currentColor" y2="6"></line><text fill="currentColor" y="9" dy="0.71em" transform="rotate(-90)" style="text-anchor: end;">18:00</text></g><g class="tick" opacity="1" transform="translate(138,0)"><line stroke="currentColor" y2="6"></line><text fill="currentColor" y="9" dy="0.71em" transform="rotate(-90)" style="text-anchor: end;">21:00</text></g><g class="tick" opacity="1" transform="translate(157.64285714285714,0)"><line stroke="currentColor" y2="6"></line><text fill="currentColor" y="9" dy="0.71em" transform="rotate(-90)" style="text-anchor: end;">00:00</text></g><g class="tick" opacity="1" transform="translate(177.2857142857143,0)"><line stroke="currentColor" y2="6"></line><text fill="currentColor" y="9" dy="0.71em" transform="rotate(-90)" style="text-anchor: end;">03:00</text></g><g class="tick" opacity="1" transform="translate(196.92857142857144,0)"><line stroke="currentColor" y2="6"></line><text fill="currentColor" y="9" dy="0.71em" transform="rotate(-90)" style="text-anchor: end;">06:00</text></g><g class="tick" opacity="1" transform="translate(216.57142857142856,0)"><line stroke="currentColor" y2="6"></line><text fill="currentColor" y="9" dy="0.71em" transform="rotate(-90)" style="text-anchor: end;">09:00</text></g><g class="tick" opacity="1" transform="translate(236.2142857142857,0)"><line stroke="currentColor" y2="6"></line><text fill="currentColor" y="9" dy="0.71em" transform="rotate(-90)" style="text-anchor: end;">12:00</text></g><g class="tick" opacity="1" transform="translate(255.85714285714286,0)"><line stroke="currentColor" y2="6"></line><text fill="currentColor" y="9" dy="0.71em" transform="rotate(-90)" style="text-anchor: end;">15:00</text></g><g class="tick" opacity="1" transform="translate(275.5,0)"><line stroke="currentColor" y2="6"></line><text fill="currentColor" y="9" dy="0.71em" transform="rotate(-90)" style="text-anchor: end;">18:00</text></g><g class="tick" opacity="1" transform="translate(295.1428571428571,0)"><line stroke="currentColor" y2="6"></line><text fill="currentColor" y="9" dy="0.71em" transform="rotate(-90)" style="text-anchor: end;">21:00</text></g><g class="tick" opacity="1" transform="translate(314.7857142857143,0)"><line stroke="currentColor" y2="6"></line><text fill="currentColor" y="9" dy="0.71em" transform="rotate(-90)" style="text-anchor: end;">00:00</text></g><g class="tick" opacity="1" transform="translate(334.4285714285714,0)"><line stroke="currentColor" y2="6"></line><text fill="currentColor" y="9" dy="0.71em" transform="rotate(-90)" style="text-anchor: end;">03:00</text></g><g class="tick" opacity="1" transform="translate(354.0714285714286,0)"><line stroke="currentColor" y2="6"></line><text fill="currentColor" y="9" dy="0.71em" transform="rotate(-90)" style="text-anchor: end;">06:00</text></g><g class="tick" opacity="1" transform="translate(373.7142857142857,0)"><line stroke="currentColor" y2="6"></line><text fill="currentColor" y="9" dy="0.71em" transform="rotate(-90)" style="text-anchor: end;">09:00</text></g><g class="tick" opacity="1" transform="translate(393.3571428571429,0)"><line stroke="currentColor" y2="6"></line><text fill="currentColor" y="9" dy="0.71em" transform="rotate(-90)" style="text-anchor: end;">12:00</text></g><g class="tick" opacity="1" transform="translate(413,0)"><line stroke="currentColor" y2="6"></line><text fill="currentColor" y="9" dy="0.71em" transform="rotate(-90)" style="text-anchor: end;">15:00</text></g><g class="tick" opacity="1" transform="translate(432.6428571428571,0)"><line stroke="currentColor" y2="6"></line><text fill="currentColor" y="9" dy="0.71em" transform="rotate(-90)" style="text-anchor: end;">18:00</text></g><g class="tick" opacity="1" transform="translate(452.2857142857143,0)"><line stroke="currentColor" y2="6"></line><text fill="currentColor" y="9" dy="0.71em" transform="rotate(-90)" style="text-anchor: end;">21:00</text></g><g class="tick" opacity="1" transform="translate(471.9285714285714,0)"><line stroke="currentColor" y2="6"></line><text fill="currentColor" y="9" dy="0.71em" transform="rotate(-90)" style="text-anchor: end;">00:00</text></g><g class="tick" opacity="1" transform="translate(491.5714285714286,0)"><line stroke="currentColor" y2="6"></line><text fill="currentColor" y="9" dy="0.71em" transform="rotate(-90)" style="text-anchor: end;">03:00</text></g><g class="tick" opacity="1" transform="translate(511.2142857142857,0)"><line stroke="currentColor" y2="6"></line><text fill="currentColor" y="9" dy="0.71em" transform="rotate(-90)" style="text-anchor: end;">06:00</text></g><g class="tick" opacity="1" transform="translate(530.8571428571429,0)"><line stroke="currentColor" y2="6"></line><text fill="currentColor" y="9" dy="0.71em" transform="rotate(-90)" style="text-anchor: end;">09:00</text></g><g class="tick" opacity="1" transform="translate(550.5,0)"><line stroke="currentColor" y2="6"></line><text fill="currentColor" y="9" dy="0.71em" transform="rotate(-90)" style="text-anchor: end;">12:00</text></g><g class="tick" opacity="1" transform="translate(570.1428571428572,0)"><line stroke="currentColor" y2="6"></line><text fill="currentColor" y="9" dy="0.71em" transform="rotate(-90)" style="text-anchor: end;">15:00</text></g><g class="tick" opacity="1" transform="translate(589.7857142857142,0)"><line stroke="currentColor" y2="6"></line><text fill="currentColor" y="9" dy="0.71em" transform="rotate(-90)" style="text-anchor: end;">18:00</text></g><g class="tick" opacity="1" transform="translate(609.4285714285714,0)"><line stroke="currentColor" y2="6"></line><text fill="currentColor" y="9" dy="0.71em" transform="rotate(-90)" style="text-anchor: end;">21:00</text></g><g class="tick" opacity="1" transform="translate(629.0714285714286,0)"><line stroke="currentColor" y2="6"></line><text fill="currentColor" y="9" dy="0.71em" transform="rotate(-90)" style="text-anchor: end;">00:00</text></g><g class="tick" opacity="1" transform="translate(648.7142857142858,0)"><line stroke="currentColor" y2="6"></line><text fill="currentColor" y="9" dy="0.71em" transform="rotate(-90)" style="text-anchor: end;">03:00</text></g><g class="tick" opacity="1" transform="translate(668.3571428571428,0)"><line stroke="currentColor" y2="6"></line><text fill="currentColor" y="9" dy="0.71em" transform="rotate(-90)" style="text-anchor: end;">06:00</text></g><g class="tick" opacity="1" transform="translate(688,0)"><line stroke="currentColor" y2="6"></line><text fill="currentColor" y="9" dy="0.71em" transform="rotate(-90)" style="text-anchor: end;">09:00</text></g><g class="tick" opacity="1" transform="translate(707.6428571428572,0)"><line stroke="currentColor" y2="6"></line><text fill="currentColor" y="9" dy="0.71em" transform="rotate(-90)" style="text-anchor: end;">12:00</text></g><g class="tick" opacity="1" transform="translate(727.2857142857142,0)"><line stroke="currentColor" y2="6"></line><text fill="currentColor" y="9" dy="0.71em" transform="rotate(-90)" style="text-anchor: end;">15:00</text></g><g class="tick" opacity="1" transform="translate(746.9285714285714,0)"><line stroke="currentColor" y2="6"></line><text fill="currentColor" y="9" dy="0.71em" transform="rotate(-90)" style="text-anchor: end;">18:00</text></g><g class="tick" opacity="1" transform="translate(766.5714285714286,0)"><line stroke="currentColor" y2="6"></line><text fill="currentColor" y="9" dy="0.71em" transform="rotate(-90)" style="text-anchor: end;">21:00</text></g><g class="tick" opacity="1" transform="translate(786.2142857142858,0)"><line stroke="currentColor" y2="6"></line><text fill="currentColor" y="9" dy="0.71em" transform="rotate(-90)" style="text-anchor: end;">00:00</text></g><g class="tick" opacity="1" transform="translate(805.8571428571428,0)"><line stroke="currentColor" y2="6"></line><text fill="currentColor" y="9" dy="0.71em" transform="rotate(-90)" style="text-anchor: end;">03:00</text></g><g class="tick" opacity="1" transform="translate(825.5,0)"><line stroke="currentColor" y2="6"></line><text fill="currentColor" y="9" dy="0.71em" transform="rotate(-90)" style="text-anchor: end;">06:00</text></g><g class="tick" opacity="1" transform="translate(845.1428571428572,0)"><line stroke="currentColor" y2="6"></line><text fill="currentColor" y="9" dy="0.71em" transform="rotate(-90)" style="text-anchor: end;">09:00</text></g><g class="tick" opacity="1" transform="translate(864.7857142857142,0)"><line stroke="currentColor" y2="6"></line><text fill="currentColor" y="9" dy="0.71em" transform="rotate(-90)" style="text-anchor: end;">12:00</text></g><g class="tick" opacity="1" transform="translate(884.4285714285714,0)"><line stroke="currentColor" y2="6"></line><text fill="currentColor" y="9" dy="0.71em" transform="rotate(-90)" style="text-anchor: end;">15:00</text></g><g class="tick" opacity="1" transform="translate(904.0714285714286,0)"><line stroke="currentColor" y2="6"></line><text fill="currentColor" y="9" dy="0.71em" transform="rotate(-90)" style="text-anchor: end;">18:00</text></g><g class="tick" opacity="1" transform="translate(923.7142857142858,0)"><line stroke="currentColor" y2="6"></line><text fill="currentColor" y="9" dy="0.71em" transform="rotate(-90)" style="text-anchor: end;">21:00</text></g><g class="tick" opacity="1" transform="translate(943.3571428571428,0)"><line stroke="currentColor" y2="6"></line><text fill="currentColor" y="9" dy="0.71em" transform="rotate(-90)" style="text-anchor: end;">00:00</text></g><g class="tick" opacity="1" transform="translate(963,0)"><line stroke="currentColor" y2="6"></line><text fill="currentColor" y="9" dy="0.71em" transform="rotate(-90)" style="text-anchor: end;">03:00</text></g><g class="tick" opacity="1" transform="translate(982.6428571428572,0)"><line stroke="currentColor" y2="6"></line><text fill="currentColor" y="9" dy="0.71em" transform="rotate(-90)" style="text-anchor: end;">06:00</text></g><g class="tick" opacity="1" transform="translate(1002.2857142857142,0)"><line stroke="currentColor" y2="6"></line><text fill="currentColor" y="9" dy="0.71em" transform="rotate(-90)" style="text-anchor: end;">09:00</text></g><g class="tick" opacity="1" transform="translate(1021.9285714285714,0)"><line stroke="currentColor" y2="6"></line><text fill="currentColor" y="9" dy="0.71em" transform="rotate(-90)" style="text-anchor: end;">12:00</text></g><g class="tick" opacity="1" transform="translate(1041.5714285714284,0)"><line stroke="currentColor" y2="6"></line><text fill="currentColor" y="9" dy="0.71em" transform="rotate(-90)" style="text-anchor: end;">15:00</text></g><g class="tick" opacity="1" transform="translate(1061.2142857142858,0)"><line stroke="currentColor" y2="6"></line><text fill="currentColor" y="9" dy="0.71em" transform="rotate(-90)" style="text-anchor: end;">18:00</text></g><g class="tick" opacity="1" transform="translate(1080.857142857143,0)"><line stroke="currentColor" y2="6"></line><text fill="currentColor" y="9" dy="0.71em" transform="rotate(-90)" style="text-anchor: end;">21:00</text></g><g class="tick" opacity="1" transform="translate(1100.5,0)"><line stroke="currentColor" y2="6"></line><text fill="currentColor" y="9" dy="0.71em" transform="rotate(-90)" style="text-anchor: end;">00:00</text></g></g><g fill="none" font-size="10" font-family="sans-serif" text-anchor="end"><path class="domain" stroke="currentColor" d="M-6,390.5H0.5V0.5H-6"></path><g class="tick" opacity="1" transform="translate(0,390.5)"><line stroke="currentColor" x2="-6"></line><text fill="currentColor" x="-9" dy="0.32em">0.0</text></g><g class="tick" opacity="1" transform="translate(0,351.5)"><line stroke="currentColor" x2="-6"></line><text fill="currentColor" x="-9" dy="0.32em">0.1</text></g><g class="tick" opacity="1" transform="translate(0,312.5)"><line stroke="currentColor" x2="-6"></line><text fill="currentColor" x="-9" dy="0.32em">0.2</text></g><g class="tick" opacity="1" transform="translate(0,273.5)"><line stroke="currentColor" x2="-6"></line><text fill="currentColor" x="-9" dy="0.32em">0.3</text></g><g class="tick" opacity="1" transform="translate(0,234.5)"><line stroke="currentColor" x2="-6"></line><text fill="currentColor" x="-9" dy="0.32em">0.4</text></g><g class="tick" opacity="1" transform="translate(0,195.5)"><line stroke="currentColor" x2="-6"></line><text fill="currentColor" x="-9" dy="0.32em">0.5</text></g><g class="tick" opacity="1" transform="translate(0,156.5)"><line stroke="currentColor" x2="-6"></line><text fill="currentColor" x="-9" dy="0.32em">0.6</text></g><g class="tick" opacity="1" transform="translate(0,117.50000000000001)"><line stroke="currentColor" x2="-6"></line><text fill="currentColor" x="-9" dy="0.32em">0.7</text></g><g class="tick" opacity="1" transform="translate(0,78.49999999999999)"><line stroke="currentColor" x2="-6"></line><text fill="currentColor" x="-9" dy="0.32em">0.8</text></g><g class="tick" opacity="1" transform="translate(0,39.49999999999999)"><line stroke="currentColor" x2="-6"></line><text fill="currentColor" x="-9" dy="0.32em">0.9</text></g><g class="tick" opacity="1" transform="translate(0,0.5)"><line stroke="currentColor" x2="-6"></line><text fill="currentColor" x="-9" dy="0.32em">1.0</text></g></g><path fill="none" stroke="steelblue" stroke-width="1" d="M1.155,390L7.706,389.995L14.257,390L20.809,390L27.36,390L33.911,390L40.462,389.995L47.014,389.772L53.565,359.822L60.116,220.582L66.669,218.591L73.221,135.783L79.665,133.266L86.216,139.287L92.769,227.9L99.32,273.463L105.873,381.136L112.424,390L118.976,390L125.527,389.995L132.078,390L138.629,389.995L145.181,390L151.732,390L158.283,390L164.834,390L171.386,389.995L177.937,390L184.488,389.995L191.04,390L197.591,390L204.142,389.804L210.693,357.34L217.246,241.602L223.798,221.071L230.351,146.88L236.902,141.227L243.455,65.229L250.006,209.678L256.45,346.942L263.001,386.941L269.553,389.993L276.104,390L282.655,390L289.207,390L295.758,390L302.311,390L308.862,390L315.413,389.993L321.965,390L328.516,390L335.067,390L341.618,390L348.17,390L354.721,390L361.272,389.597L367.825,349.454L374.376,288.609L380.928,271.861L387.481,179.775L394.032,100.455L400.585,130.947L407.138,215.222L413.689,279.955L420.243,383.383L426.794,390L433.236,390L439.787,390L446.338,390L452.89,389.995L459.441,390L465.992,389.995L472.543,390L479.095,390L485.646,390L492.199,390L498.75,389.995L505.302,390L511.853,389.995L518.404,389.804L524.955,318.04L531.507,306.398L538.058,173.467L544.611,0L551.164,203.75L557.715,148.135L564.267,292.12L570.82,347.708L577.371,388.687L583.922,390L590.473,390L597.025,390L603.576,390L610.127,389.993L616.569,389.995L623.121,390L629.672,389.995L636.225,390L642.776,390L649.327,390L655.879,390L662.43,389.995L668.981,390L675.532,389.879L682.084,365.322L688.635,311.478L695.188,308.957L701.739,267.223L708.291,241.56L714.844,278.751L721.395,288.493L727.946,311.285L734.499,387.618L741.05,390L747.602,389.995L754.153,390L760.704,389.995L767.255,390L773.807,390L780.358,390L786.909,390L793.46,389.995L799.903,390L806.454,390L813.005,389.993L819.556,390L826.108,390L832.659,389.804L839.212,345.514L845.763,223.432L852.314,98.143L858.868,64.519L865.421,111.715L871.972,228.603L878.525,208.474L885.076,336.825L891.627,387.357L898.179,390L904.73,390L911.281,390L917.833,389.993L924.384,390L930.935,390L937.486,390L944.038,390L950.589,390L957.14,390L963.691,389.993L970.243,390L976.794,390L983.236,389.995L989.787,389.804L996.338,333.349L1002.89,277.592L1009.441,216.731L1015.994,156.414L1022.545,83.448L1029.097,119.2L1035.65,248.706L1042.201,244.773L1048.754,385.655L1055.305,390L1061.856,390L1068.408,390L1074.959,390L1081.51,389.995L1088.062,390L1094.613,389.995"></path><g><circle cx="1.1549272486772486" cy="390" r="2" fill="steelblue"></circle><circle cx="7.706183862433862" cy="389.9953432786822" r="2" fill="steelblue"></circle><circle cx="14.257440476190476" cy="390" r="2" fill="steelblue"></circle><circle cx="20.80869708994709" cy="390" r="2" fill="steelblue"></circle><circle cx="27.359953703703702" cy="390" r="2" fill="steelblue"></circle><circle cx="33.911210317460316" cy="390" r="2" fill="steelblue"></circle><circle cx="40.46246693121694" cy="389.9953432786822" r="2" fill="steelblue"></circle><circle cx="47.013723544973544" cy="389.7718209080539" r="2" fill="steelblue"></circle><circle cx="53.56498015873016" cy="359.8221521097746" r="2" fill="steelblue"></circle><circle cx="60.11623677248677" cy="220.5816778440183" r="2" fill="steelblue"></circle><circle cx="66.66931216931218" cy="218.59094286987533" r="2" fill="steelblue"></circle><circle cx="73.22056878306879" cy="135.78287662378477" r="2" fill="steelblue"></circle><circle cx="79.66451719576719" cy="133.26591991358896" r="2" fill="steelblue"></circle><circle cx="86.21577380952381" cy="139.28704855248634" r="2" fill="steelblue"></circle><circle cx="92.7688492063492" cy="227.89970685617791" r="2" fill="steelblue"></circle><circle cx="99.32010582010582" cy="273.46334470078943" r="2" fill="steelblue"></circle><circle cx="105.87318121693121" cy="381.13594072293444" r="2" fill="steelblue"></circle><circle cx="112.42443783068782" cy="390" r="2" fill="steelblue"></circle><circle cx="118.97569444444444" cy="390" r="2" fill="steelblue"></circle><circle cx="125.52695105820106" cy="389.9953432786822" r="2" fill="steelblue"></circle><circle cx="132.07820767195767" cy="390" r="2" fill="steelblue"></circle><circle cx="138.62946428571428" cy="389.9953432786822" r="2" fill="steelblue"></circle><circle cx="145.1807208994709" cy="390" r="2" fill="steelblue"></circle><circle cx="151.7319775132275" cy="390" r="2" fill="steelblue"></circle><circle cx="158.28323412698413" cy="390" r="2" fill="steelblue"></circle><circle cx="164.83449074074076" cy="390" r="2" fill="steelblue"></circle><circle cx="171.38574735449734" cy="389.9953432786822" r="2" fill="steelblue"></circle><circle cx="177.93700396825398" cy="390" r="2" fill="steelblue"></circle><circle cx="184.48826058201058" cy="389.9953432786822" r="2" fill="steelblue"></circle><circle cx="191.0395171957672" cy="390" r="2" fill="steelblue"></circle><circle cx="197.5907738095238" cy="390" r="2" fill="steelblue"></circle><circle cx="204.14203042328043" cy="389.80441790675326" r="2" fill="steelblue"></circle><circle cx="210.69328703703704" cy="357.34012005158183" r="2" fill="steelblue"></circle><circle cx="217.24636243386243" cy="241.60209644988097" r="2" fill="steelblue"></circle><circle cx="223.79761904761904" cy="221.07062701409077" r="2" fill="steelblue"></circle><circle cx="230.35069444444446" cy="146.87982947808644" r="2" fill="steelblue"></circle><circle cx="236.90195105820104" cy="141.22657101086713" r="2" fill="steelblue"></circle><circle cx="243.45502645502643" cy="65.22897106029035" r="2" fill="steelblue"></circle><circle cx="250.00628306878306" cy="209.67798958525924" r="2" fill="steelblue"></circle><circle cx="256.45023148148147" cy="346.9416738791914" r="2" fill="steelblue"></circle><circle cx="263.0014880952381" cy="386.9405375804457" r="2" fill="steelblue"></circle><circle cx="269.55274470899474" cy="389.9930149180233" r="2" fill="steelblue"></circle><circle cx="276.10400132275134" cy="390" r="2" fill="steelblue"></circle><circle cx="282.65525793650795" cy="390" r="2" fill="steelblue"></circle><circle cx="289.2065145502645" cy="390" r="2" fill="steelblue"></circle><circle cx="295.75777116402116" cy="390" r="2" fill="steelblue"></circle><circle cx="302.3108465608465" cy="390" r="2" fill="steelblue"></circle><circle cx="308.8621031746032" cy="390" r="2" fill="steelblue"></circle><circle cx="315.4133597883598" cy="389.9930149180233" r="2" fill="steelblue"></circle><circle cx="321.9646164021164" cy="390" r="2" fill="steelblue"></circle><circle cx="328.515873015873" cy="390" r="2" fill="steelblue"></circle><circle cx="335.0671296296297" cy="390" r="2" fill="steelblue"></circle><circle cx="341.6183862433862" cy="390" r="2" fill="steelblue"></circle><circle cx="348.16964285714283" cy="390" r="2" fill="steelblue"></circle><circle cx="354.72089947089944" cy="390" r="2" fill="steelblue"></circle><circle cx="361.2721560846561" cy="389.59719406073725" r="2" fill="steelblue"></circle><circle cx="367.82523148148147" cy="349.4539721502068" r="2" fill="steelblue"></circle><circle cx="374.37648809523813" cy="288.6093148714931" r="2" fill="steelblue"></circle><circle cx="380.92774470899474" cy="271.86143782209945" r="2" fill="steelblue"></circle><circle cx="387.4808201058201" cy="179.77487733930488" r="2" fill="steelblue"></circle><circle cx="394.03207671957676" cy="100.45470880000686" r="2" fill="steelblue"></circle><circle cx="400.5851521164021" cy="130.94688623811612" r="2" fill="steelblue"></circle><circle cx="407.13822751322755" cy="215.22181009949816" r="2" fill="steelblue"></circle><circle cx="413.68948412698415" cy="279.954814015723" r="2" fill="steelblue"></circle><circle cx="420.2425595238095" cy="383.3828059798851" r="2" fill="steelblue"></circle><circle cx="426.7938161375662" cy="390" r="2" fill="steelblue"></circle><circle cx="433.23594576719574" cy="390" r="2" fill="steelblue"></circle><circle cx="439.78720238095235" cy="390" r="2" fill="steelblue"></circle><circle cx="446.33845899470896" cy="390" r="2" fill="steelblue"></circle><circle cx="452.8897156084656" cy="389.9953432786822" r="2" fill="steelblue"></circle><circle cx="459.44097222222223" cy="390" r="2" fill="steelblue"></circle><circle cx="465.99222883597884" cy="389.9953432786822" r="2" fill="steelblue"></circle><circle cx="472.5434854497355" cy="390" r="2" fill="steelblue"></circle><circle cx="479.09474206349205" cy="390" r="2" fill="steelblue"></circle><circle cx="485.64599867724866" cy="390" r="2" fill="steelblue"></circle><circle cx="492.1990740740741" cy="390" r="2" fill="steelblue"></circle><circle cx="498.7503306878307" cy="389.9953432786822" r="2" fill="steelblue"></circle><circle cx="505.3015873015873" cy="390" r="2" fill="steelblue"></circle><circle cx="511.8528439153439" cy="389.9953432786822" r="2" fill="steelblue"></circle><circle cx="518.4041005291006" cy="389.80441790675326" r="2" fill="steelblue"></circle><circle cx="524.9553571428572" cy="318.0397622743582" r="2" fill="steelblue"></circle><circle cx="531.5066137566138" cy="306.39797413743025" r="2" fill="steelblue"></circle><circle cx="538.0578703703703" cy="173.46736079409013" r="2" fill="steelblue"></circle><circle cx="544.6109457671957" cy="0" r="2" fill="steelblue"></circle><circle cx="551.1640211640212" cy="203.74997415206246" r="2" fill="steelblue"></circle><circle cx="557.7152777777777" cy="148.134808951262" r="2" fill="steelblue"></circle><circle cx="564.2665343915345" cy="292.12047951150237" r="2" fill="steelblue"></circle><circle cx="570.8196097883598" cy="347.7077041822945" r="2" fill="steelblue"></circle><circle cx="577.3708664021163" cy="388.6868061041371" r="2" fill="steelblue"></circle><circle cx="583.922123015873" cy="390" r="2" fill="steelblue"></circle><circle cx="590.4733796296297" cy="390" r="2" fill="steelblue"></circle><circle cx="597.0246362433862" cy="390" r="2" fill="steelblue"></circle><circle cx="603.5758928571429" cy="390" r="2" fill="steelblue"></circle><circle cx="610.1271494708994" cy="389.9930149180233" r="2" fill="steelblue"></circle><circle cx="616.5692791005291" cy="389.9953432786822" r="2" fill="steelblue"></circle><circle cx="623.1205357142857" cy="390" r="2" fill="steelblue"></circle><circle cx="629.6717923280423" cy="389.9953432786822" r="2" fill="steelblue"></circle><circle cx="636.2248677248676" cy="390" r="2" fill="steelblue"></circle><circle cx="642.7761243386243" cy="390" r="2" fill="steelblue"></circle><circle cx="649.327380952381" cy="390" r="2" fill="steelblue"></circle><circle cx="655.8786375661376" cy="390" r="2" fill="steelblue"></circle><circle cx="662.4298941798942" cy="389.9953432786822" r="2" fill="steelblue"></circle><circle cx="668.9811507936508" cy="390" r="2" fill="steelblue"></circle><circle cx="675.5324074074074" cy="389.8789253467875" r="2" fill="steelblue"></circle><circle cx="682.0836640211639" cy="365.32173260941073" r="2" fill="steelblue"></circle><circle cx="688.6349206349206" cy="311.4784517394779" r="2" fill="steelblue"></circle><circle cx="695.187996031746" cy="308.9568365901016" r="2" fill="steelblue"></circle><circle cx="701.7392526455026" cy="267.2233452084684" r="2" fill="steelblue"></circle><circle cx="708.2905092592592" cy="241.56018565486838" r="2" fill="steelblue"></circle><circle cx="714.8435846560847" cy="278.75105211084673" r="2" fill="steelblue"></circle><circle cx="721.3948412698412" cy="288.49289431227925" r="2" fill="steelblue"></circle><circle cx="727.946097883598" cy="311.28519724900946" r="2" fill="steelblue"></circle><circle cx="734.4991732804233" cy="387.6180897743073" r="2" fill="steelblue"></circle><circle cx="741.0504298941798" cy="390" r="2" fill="steelblue"></circle><circle cx="747.6016865079364" cy="389.9953432786822" r="2" fill="steelblue"></circle><circle cx="754.1529431216932" cy="390" r="2" fill="steelblue"></circle><circle cx="760.7041997354497" cy="389.9953432786822" r="2" fill="steelblue"></circle><circle cx="767.2554563492064" cy="390" r="2" fill="steelblue"></circle><circle cx="773.8067129629629" cy="390" r="2" fill="steelblue"></circle><circle cx="780.3579695767196" cy="390" r="2" fill="steelblue"></circle><circle cx="786.9092261904761" cy="390" r="2" fill="steelblue"></circle><circle cx="793.4604828042327" cy="389.9953432786822" r="2" fill="steelblue"></circle><circle cx="799.9026124338625" cy="390" r="2" fill="steelblue"></circle><circle cx="806.453869047619" cy="390" r="2" fill="steelblue"></circle><circle cx="813.0051256613757" cy="389.9930149180233" r="2" fill="steelblue"></circle><circle cx="819.5563822751323" cy="390" r="2" fill="steelblue"></circle><circle cx="826.1076388888889" cy="390" r="2" fill="steelblue"></circle><circle cx="832.6588955026455" cy="389.80441790675326" r="2" fill="steelblue"></circle><circle cx="839.2119708994709" cy="345.5143927867852" r="2" fill="steelblue"></circle><circle cx="845.7632275132274" cy="223.43157653711324" r="2" fill="steelblue"></circle><circle cx="852.3144841269841" cy="98.14263752061927" r="2" fill="steelblue"></circle><circle cx="858.8675595238095" cy="64.51881676466698" r="2" fill="steelblue"></circle><circle cx="865.4206349206349" cy="111.71464134264126" r="2" fill="steelblue"></circle><circle cx="871.9718915343915" cy="228.60287854556782" r="2" fill="steelblue"></circle><circle cx="878.5249669312169" cy="208.47422262784588" r="2" fill="steelblue"></circle><circle cx="885.0762235449736" cy="336.82495868969903" r="2" fill="steelblue"></circle><circle cx="891.6274801587301" cy="387.35731353208575" r="2" fill="steelblue"></circle><circle cx="898.1787367724868" cy="390" r="2" fill="steelblue"></circle><circle cx="904.7299933862433" cy="390" r="2" fill="steelblue"></circle><circle cx="911.28125" cy="390" r="2" fill="steelblue"></circle><circle cx="917.8325066137567" cy="389.9930149180233" r="2" fill="steelblue"></circle><circle cx="924.3837632275132" cy="390" r="2" fill="steelblue"></circle><circle cx="930.9350198412699" cy="390" r="2" fill="steelblue"></circle><circle cx="937.4862764550264" cy="390" r="2" fill="steelblue"></circle><circle cx="944.0375330687831" cy="390" r="2" fill="steelblue"></circle><circle cx="950.5887896825396" cy="390" r="2" fill="steelblue"></circle><circle cx="957.1400462962963" cy="390" r="2" fill="steelblue"></circle><circle cx="963.691302910053" cy="389.9930149180233" r="2" fill="steelblue"></circle><circle cx="970.2425595238095" cy="390" r="2" fill="steelblue"></circle><circle cx="976.7938161375662" cy="390" r="2" fill="steelblue"></circle><circle cx="983.2359457671957" cy="389.9953432786822" r="2" fill="steelblue"></circle><circle cx="989.7872023809524" cy="389.80441790675326" r="2" fill="steelblue"></circle><circle cx="996.338458994709" cy="333.3487222384687" r="2" fill="steelblue"></circle><circle cx="1002.8897156084655" cy="277.5915251680361" r="2" fill="steelblue"></circle><circle cx="1009.4409722222223" cy="216.73057850980223" r="2" fill="steelblue"></circle><circle cx="1015.9940476190476" cy="156.41445702912043" r="2" fill="steelblue"></circle><circle cx="1022.5453042328041" cy="83.44837932176715" r="2" fill="steelblue"></circle><circle cx="1029.0965608465608" cy="119.20031353485115" r="2" fill="steelblue"></circle><circle cx="1035.6496362433863" cy="248.7059130477974" r="2" fill="steelblue"></circle><circle cx="1042.200892857143" cy="244.77332639568345" r="2" fill="steelblue"></circle><circle cx="1048.7539682539682" cy="385.6552835577614" r="2" fill="steelblue"></circle><circle cx="1055.305224867725" cy="390" r="2" fill="steelblue"></circle><circle cx="1061.8564814814815" cy="390" r="2" fill="steelblue"></circle><circle cx="1068.407738095238" cy="390" r="2" fill="steelblue"></circle><circle cx="1074.9589947089946" cy="390" r="2" fill="steelblue"></circle><circle cx="1081.5102513227512" cy="389.9953432786822" r="2" fill="steelblue"></circle><circle cx="1088.061507936508" cy="390" r="2" fill="steelblue"></circle><circle cx="1094.6127645502645" cy="389.9953432786822" r="2" fill="steelblue"></circle></g><path fill="none" stroke="orange" stroke-width="1" d="M1.155,203.221L7.706,187.766L14.257,168.693L20.809,179.874L27.36,181.518L33.911,173.626L40.462,180.202L47.014,160.472L53.565,151.265L60.116,173.297L66.669,228.212L73.221,275.236L79.665,316.341L86.216,344.621L92.769,385.396L99.32,385.725L105.873,338.044L112.424,274.578L118.976,271.29L125.527,229.199L132.078,190.396L138.629,196.315L145.181,218.019L151.732,200.261L158.283,184.148L164.834,163.103L171.386,182.833L177.937,201.906L184.488,173.626L191.04,164.089L197.591,188.752L204.142,190.067L210.693,194.671L217.246,243.668L223.798,310.422L230.351,300.556L236.902,327.192L243.455,348.238L250.006,316.669L256.45,251.56L263.001,241.366L269.553,215.388L276.104,190.725L282.655,173.626L289.207,178.558L295.758,188.752L302.311,171.981L308.862,201.577L315.413,169.022L321.965,181.847L328.516,165.405L335.067,168.035L341.618,169.022L348.17,154.553L354.721,150.936L361.272,149.621L367.825,164.418L374.376,189.41L380.928,211.113L387.481,254.848L394.032,334.755L400.585,373.229L407.138,340.017L413.689,282.142L420.243,184.477L426.794,134.823L433.236,126.602L439.787,82.867L446.338,45.708L452.89,34.857L459.441,48.997L465.992,49.654L472.543,52.943L479.095,32.555L485.646,13.482L492.199,8.55L498.75,0L505.302,7.234L511.853,7.563L518.404,130.219L524.955,103.912L531.507,139.427L538.058,211.771L544.611,282.142L551.164,239.064L557.715,227.226L564.267,236.433L570.82,208.482L577.371,172.968L583.922,211.113L590.473,161.788L597.025,151.922L603.576,163.761L610.127,179.874L616.569,145.675L623.121,179.874L629.672,147.648L636.225,167.378L642.776,147.976L649.327,147.976L655.879,149.949L662.43,167.707L668.981,168.693L675.532,166.391L682.084,165.076L688.635,185.464L695.188,192.698L701.739,208.153L708.291,234.132L714.844,217.69L721.395,248.929L727.946,219.005L734.499,201.906L741.05,175.927L747.602,178.229L754.153,177.243L760.704,194.013L767.255,181.847L773.807,119.039L780.358,110.16L786.909,93.061L793.46,134.165L799.903,118.71L806.454,114.106L813.005,102.268L819.556,119.368L826.108,131.206L832.659,160.472L839.212,148.963L845.763,195.658L852.314,289.376L858.868,327.85L865.421,340.017L871.972,299.899L878.525,314.368L885.076,239.393L891.627,201.906L898.179,170.995L904.73,165.405L911.281,169.022L917.833,159.157L924.384,159.157L930.935,177.243L937.486,188.752L944.038,147.976L950.589,138.111L957.14,131.206L963.691,125.944L970.243,151.594L976.794,175.27L983.236,195.658L989.787,195L996.338,216.703L1002.89,211.771L1009.441,233.145L1015.994,299.899L1022.545,390L1029.097,344.621L1035.65,380.464L1042.201,282.799L1048.754,234.789L1055.305,226.568L1061.856,243.01L1068.408,270.632L1074.959,290.034L1081.51,262.411L1088.062,296.282L1094.613,290.363"></path><g><circle cx="1.1549272486772486" cy="203.22091062394603" r="2" fill="orange"></circle><circle cx="7.706183862433862" cy="187.76559865092753" r="2" fill="orange"></circle><circle cx="14.257440476190476" cy="168.69308600337254" r="2" fill="orange"></circle><circle cx="20.80869708994709" cy="179.87352445193926" r="2" fill="orange"></circle><circle cx="27.359953703703702" cy="181.5177065767284" r="2" fill="orange"></circle><circle cx="33.911210317460316" cy="173.62563237774035" r="2" fill="orange"></circle><circle cx="40.46246693121694" cy="180.20236087689705" r="2" fill="orange"></circle><circle cx="47.013723544973544" cy="160.47217537942652" r="2" fill="orange"></circle><circle cx="53.56498015873016" cy="151.26475548060716" r="2" fill="orange"></circle><circle cx="60.11623677248677" cy="173.29679595278233" r="2" fill="orange"></circle><circle cx="66.66931216931218" cy="228.21247892074192" r="2" fill="orange"></circle><circle cx="73.22056878306879" cy="275.23608768971326" r="2" fill="orange"></circle><circle cx="79.66451719576719" cy="316.3406408094434" r="2" fill="orange"></circle><circle cx="86.21577380952381" cy="344.6205733558178" r="2" fill="orange"></circle><circle cx="92.7688492063492" cy="385.3962900505902" r="2" fill="orange"></circle><circle cx="99.32010582010582" cy="385.72512647554794" r="2" fill="orange"></circle><circle cx="105.87318121693121" cy="338.0438448566611" r="2" fill="orange"></circle><circle cx="112.42443783068782" cy="274.5784148397977" r="2" fill="orange"></circle><circle cx="118.97569444444444" cy="271.2900505902192" r="2" fill="orange"></circle><circle cx="125.52695105820106" cy="229.19898819561547" r="2" fill="orange"></circle><circle cx="132.07820767195767" cy="190.3962900505902" r="2" fill="orange"></circle><circle cx="138.62946428571428" cy="196.31534569983134" r="2" fill="orange"></circle><circle cx="145.1807208994709" cy="218.01854974704875" r="2" fill="orange"></circle><circle cx="151.7319775132275" cy="200.26138279932536" r="2" fill="orange"></circle><circle cx="158.28323412698413" cy="184.1483979763913" r="2" fill="orange"></circle><circle cx="164.83449074074076" cy="163.10286677908942" r="2" fill="orange"></circle><circle cx="171.38574735449734" cy="182.83305227655995" r="2" fill="orange"></circle><circle cx="177.93700396825398" cy="201.90556492411469" r="2" fill="orange"></circle><circle cx="184.48826058201058" cy="173.62563237774035" r="2" fill="orange"></circle><circle cx="191.0395171957672" cy="164.08937605396298" r="2" fill="orange"></circle><circle cx="197.5907738095238" cy="188.75210792580108" r="2" fill="orange"></circle><circle cx="204.14203042328043" cy="190.06745362563242" r="2" fill="orange"></circle><circle cx="210.69328703703704" cy="194.67116357504221" r="2" fill="orange"></circle><circle cx="217.24636243386243" cy="243.66779089376047" r="2" fill="orange"></circle><circle cx="223.79761904761904" cy="310.4215851602023" r="2" fill="orange"></circle><circle cx="230.35069444444446" cy="300.5564924114671" r="2" fill="orange"></circle><circle cx="236.90195105820104" cy="327.19224283305215" r="2" fill="orange"></circle><circle cx="243.45502645502643" cy="348.23777403035405" r="2" fill="orange"></circle><circle cx="250.00628306878306" cy="316.6694772344012" r="2" fill="orange"></circle><circle cx="256.45023148148147" cy="251.5598650927487" r="2" fill="orange"></circle><circle cx="263.0014880952381" cy="241.36593591905552" r="2" fill="orange"></circle><circle cx="269.55274470899474" cy="215.38785834738607" r="2" fill="orange"></circle><circle cx="276.10400132275134" cy="190.72512647554797" r="2" fill="orange"></circle><circle cx="282.65525793650795" cy="173.62563237774035" r="2" fill="orange"></circle><circle cx="289.2065145502645" cy="178.55817875210792" r="2" fill="orange"></circle><circle cx="295.75777116402116" cy="188.75210792580108" r="2" fill="orange"></circle><circle cx="302.3108465608465" cy="171.981450252951" r="2" fill="orange"></circle><circle cx="308.8621031746032" cy="201.5767284991567" r="2" fill="orange"></circle><circle cx="315.4133597883598" cy="169.02192242833056" r="2" fill="orange"></circle><circle cx="321.9646164021164" cy="181.8465430016864" r="2" fill="orange"></circle><circle cx="328.515873015873" cy="165.40472175379432" r="2" fill="orange"></circle><circle cx="335.0671296296297" cy="168.035413153457" r="2" fill="orange"></circle><circle cx="341.6183862433862" cy="169.02192242833056" r="2" fill="orange"></circle><circle cx="348.16964285714283" cy="154.5531197301854" r="2" fill="orange"></circle><circle cx="354.72089947089944" cy="150.93591905564915" r="2" fill="orange"></circle><circle cx="361.2721560846561" cy="149.6205733558178" r="2" fill="orange"></circle><circle cx="367.82523148148147" cy="164.41821247892076" r="2" fill="orange"></circle><circle cx="374.37648809523813" cy="189.40978077571663" r="2" fill="orange"></circle><circle cx="380.92774470899474" cy="211.1129848229343" r="2" fill="orange"></circle><circle cx="387.4808201058201" cy="254.84822934232713" r="2" fill="orange"></circle><circle cx="394.03207671957676" cy="334.75548060708263" r="2" fill="orange"></circle><circle cx="400.5851521164021" cy="373.22934232715016" r="2" fill="orange"></circle><circle cx="407.13822751322755" cy="340.016863406408" r="2" fill="orange"></circle><circle cx="413.68948412698415" cy="282.141652613828" r="2" fill="orange"></circle><circle cx="420.2425595238095" cy="184.47723440134908" r="2" fill="orange"></circle><circle cx="426.7938161375662" cy="134.82293423271506" r="2" fill="orange"></circle><circle cx="433.23594576719574" cy="126.60202360876904" r="2" fill="orange"></circle><circle cx="439.78720238095235" cy="82.86677908937594" r="2" fill="orange"></circle><circle cx="446.33845899470896" cy="45.70826306913999" r="2" fill="orange"></circle><circle cx="452.8897156084656" cy="34.856661045531276" r="2" fill="orange"></circle><circle cx="459.44097222222223" cy="48.99662731871843" r="2" fill="orange"></circle><circle cx="465.99222883597884" cy="49.654300168634016" r="2" fill="orange"></circle><circle cx="472.5434854497355" cy="52.94266441821246" r="2" fill="orange"></circle><circle cx="479.09474206349205" cy="32.55480607082639" r="2" fill="orange"></circle><circle cx="485.64599867724866" cy="13.482293423271393" r="2" fill="orange"></circle><circle cx="492.1990740740741" cy="8.549747048903814" r="2" fill="orange"></circle><circle cx="498.7503306878307" cy="0" r="2" fill="orange"></circle><circle cx="505.3015873015873" cy="7.234401349072472" r="2" fill="orange"></circle><circle cx="511.8528439153439" cy="7.563237774030265" r="2" fill="orange"></circle><circle cx="518.4041005291006" cy="130.2192242833053" r="2" fill="orange"></circle><circle cx="524.9553571428572" cy="103.91231028667782" r="2" fill="orange"></circle><circle cx="531.5066137566138" cy="139.42664418212485" r="2" fill="orange"></circle><circle cx="538.0578703703703" cy="211.77065767284984" r="2" fill="orange"></circle><circle cx="544.6109457671957" cy="282.141652613828" r="2" fill="orange"></circle><circle cx="551.1640211640212" cy="239.06408094435062" r="2" fill="orange"></circle><circle cx="557.7152777777777" cy="227.22596964586833" r="2" fill="orange"></circle><circle cx="564.2665343915345" cy="236.433389544688" r="2" fill="orange"></circle><circle cx="570.8196097883598" cy="208.4822934232714" r="2" fill="orange"></circle><circle cx="577.3708664021163" cy="172.96795952782458" r="2" fill="orange"></circle><circle cx="583.922123015873" cy="211.1129848229343" r="2" fill="orange"></circle><circle cx="590.4733796296297" cy="161.78752107925808" r="2" fill="orange"></circle><circle cx="597.0246362433862" cy="151.9224283305227" r="2" fill="orange"></circle><circle cx="603.5758928571429" cy="163.76053962900497" r="2" fill="orange"></circle><circle cx="610.1271494708994" cy="179.87352445193926" r="2" fill="orange"></circle><circle cx="616.5692791005291" cy="145.6745362563238" r="2" fill="orange"></circle><circle cx="623.1205357142857" cy="179.87352445193926" r="2" fill="orange"></circle><circle cx="629.6717923280423" cy="147.64755480607087" r="2" fill="orange"></circle><circle cx="636.2248677248676" cy="167.3777403035412" r="2" fill="orange"></circle><circle cx="642.7761243386243" cy="147.97639123102866" r="2" fill="orange"></circle><circle cx="649.327380952381" cy="147.97639123102866" r="2" fill="orange"></circle><circle cx="655.8786375661376" cy="149.94940978077582" r="2" fill="orange"></circle><circle cx="662.4298941798942" cy="167.70657672849921" r="2" fill="orange"></circle><circle cx="668.9811507936508" cy="168.69308600337254" r="2" fill="orange"></circle><circle cx="675.5324074074074" cy="166.39123102866785" r="2" fill="orange"></circle><circle cx="682.0836640211639" cy="165.0758853288363" r="2" fill="orange"></circle><circle cx="688.6349206349206" cy="185.46374367622263" r="2" fill="orange"></circle><circle cx="695.187996031746" cy="192.6981450252951" r="2" fill="orange"></circle><circle cx="701.7392526455026" cy="208.1534569983136" r="2" fill="orange"></circle><circle cx="708.2905092592592" cy="234.13153456998305" r="2" fill="orange"></circle><circle cx="714.8435846560847" cy="217.68971332209097" r="2" fill="orange"></circle><circle cx="721.3948412698412" cy="248.929173693086" r="2" fill="orange"></circle><circle cx="727.946097883598" cy="219.0050590219223" r="2" fill="orange"></circle><circle cx="734.4991732804233" cy="201.90556492411469" r="2" fill="orange"></circle><circle cx="741.0504298941798" cy="175.92748735244527" r="2" fill="orange"></circle><circle cx="747.6016865079364" cy="178.22934232715016" r="2" fill="orange"></circle><circle cx="754.1529431216932" cy="177.24283305227658" r="2" fill="orange"></circle><circle cx="760.7041997354497" cy="194.01349072512645" r="2" fill="orange"></circle><circle cx="767.2554563492064" cy="181.8465430016864" r="2" fill="orange"></circle><circle cx="773.8067129629629" cy="119.03878583473852" r="2" fill="orange"></circle><circle cx="780.3579695767196" cy="110.16020236087695" r="2" fill="orange"></circle><circle cx="786.9092261904761" cy="93.0607082630691" r="2" fill="orange"></circle><circle cx="793.4604828042327" cy="134.16526138279926" r="2" fill="orange"></circle><circle cx="799.9026124338625" cy="118.70994940978078" r="2" fill="orange"></circle><circle cx="806.453869047619" cy="114.10623946037094" r="2" fill="orange"></circle><circle cx="813.0051256613757" cy="102.26812816188868" r="2" fill="orange"></circle><circle cx="819.5563822751323" cy="119.36762225969632" r="2" fill="orange"></circle><circle cx="826.1076388888889" cy="131.20573355817882" r="2" fill="orange"></circle><circle cx="832.6588955026455" cy="160.47217537942652" r="2" fill="orange"></circle><circle cx="839.2119708994709" cy="148.9629005059022" r="2" fill="orange"></circle><circle cx="845.7632275132274" cy="195.65767284991554" r="2" fill="orange"></circle><circle cx="852.3144841269841" cy="289.37605396290047" r="2" fill="orange"></circle><circle cx="858.8675595238095" cy="327.84991568296795" r="2" fill="orange"></circle><circle cx="865.4206349206349" cy="340.016863406408" r="2" fill="orange"></circle><circle cx="871.9718915343915" cy="299.89881956155136" r="2" fill="orange"></circle><circle cx="878.5249669312169" cy="314.3676222596966" r="2" fill="orange"></circle><circle cx="885.0762235449736" cy="239.39291736930863" r="2" fill="orange"></circle><circle cx="891.6274801587301" cy="201.90556492411469" r="2" fill="orange"></circle><circle cx="898.1787367724868" cy="170.99494097807744" r="2" fill="orange"></circle><circle cx="904.7299933862433" cy="165.40472175379432" r="2" fill="orange"></circle><circle cx="911.28125" cy="169.02192242833056" r="2" fill="orange"></circle><circle cx="917.8325066137567" cy="159.15682967959518" r="2" fill="orange"></circle><circle cx="924.3837632275132" cy="159.15682967959518" r="2" fill="orange"></circle><circle cx="930.9350198412699" cy="177.24283305227658" r="2" fill="orange"></circle><circle cx="937.4862764550264" cy="188.75210792580108" r="2" fill="orange"></circle><circle cx="944.0375330687831" cy="147.97639123102866" r="2" fill="orange"></circle><circle cx="950.5887896825396" cy="138.1112984822933" r="2" fill="orange"></circle><circle cx="957.1400462962963" cy="131.20573355817882" r="2" fill="orange"></circle><circle cx="963.691302910053" cy="125.94435075885325" r="2" fill="orange"></circle><circle cx="970.2425595238095" cy="151.5935919055649" r="2" fill="orange"></circle><circle cx="976.7938161375662" cy="175.26981450252947" r="2" fill="orange"></circle><circle cx="983.2359457671957" cy="195.65767284991554" r="2" fill="orange"></circle><circle cx="989.7872023809524" cy="195" r="2" fill="orange"></circle><circle cx="996.338458994709" cy="216.7032040472174" r="2" fill="orange"></circle><circle cx="1002.8897156084655" cy="211.77065767284984" r="2" fill="orange"></circle><circle cx="1009.4409722222223" cy="233.14502529510952" r="2" fill="orange"></circle><circle cx="1015.9940476190476" cy="299.89881956155136" r="2" fill="orange"></circle><circle cx="1022.5453042328041" cy="390" r="2" fill="orange"></circle><circle cx="1029.0965608465608" cy="344.6205733558178" r="2" fill="orange"></circle><circle cx="1035.6496362433863" cy="380.46374367622263" r="2" fill="orange"></circle><circle cx="1042.200892857143" cy="282.79932546374374" r="2" fill="orange"></circle><circle cx="1048.7539682539682" cy="234.78920741989884" r="2" fill="orange"></circle><circle cx="1055.305224867725" cy="226.56829679595285" r="2" fill="orange"></circle><circle cx="1061.8564814814815" cy="243.01011804384487" r="2" fill="orange"></circle><circle cx="1068.407738095238" cy="270.6323777403034" r="2" fill="orange"></circle><circle cx="1074.9589947089946" cy="290.0337268128162" r="2" fill="orange"></circle><circle cx="1081.5102513227512" cy="262.4114671163574" r="2" fill="orange"></circle><circle cx="1088.061507936508" cy="296.28161888701516" r="2" fill="orange"></circle><circle cx="1094.6127645502645" cy="290.362563237774" r="2" fill="orange"></circle></g></g></svg>