<svg width="1200" height="500" xmlns="http://www.w3.org/2000/svg" xmlns:xlink="http://www.w3.org/1999/xlink"><g transform="translate(50,50)"><g transform="translate(0,390)" fill="none" font-size="10" font-family="sans-serif" text-anchor="middle"><path class="domain" stroke="currentColor" d="M0.5,6V0.5H1100.5V6"></path><g class="tick" opacity="1" transform="translate(0.5,0)"><line stroke="currentColor" y2="6"></line><text fill="currentColor" y="9" dy="0.71em" transform="rotate(-90)" style="text-anchor: end;">00:00</text></g><g class="tick" opacity="1" transform="translate(23.416666666666664,0)"><line stroke="currentColor" y2="6"></line><text fill="currentColor" y="9" dy="0.71em" transform="rotate(-90)" style="text-anchor: end;">03:00</text></g><g class="tick" opacity="1" transform="translate(46.33333333333333,0)"><line stroke="currentColor" y2="6"></line><text fill="currentColor" y="9" dy="0.71em" transform="rotate(-90)" style="text-anchor: end;">06:00</text></g><g class="tick" opacity="1" transform="translate(69.25,0)"><line stroke="currentColor" y2="6"></line><text fill="currentColor" y="9" dy="0.71em" transform="rotate(-90)" style="text-anchor: end;">09:00</text></g><g class="tick" opacity="1" transform="translate(92.16666666666666,0)"><line stroke="currentColor" y2="6"></line><text fill="currentColor" y="9" dy="0.71em" transform="rotate(-90)" style="text-anchor: end;">12:00</text></g><g class="tick" opacity="1" transform="translate(115.08333333333334,0)"><line stroke="currentColor" y2="6"></line><text fill="currentColor" y="9" dy="0.71em" transform="rotate(-90)" style="text-anchor: end;">15:00</text></g><g class="tick" opacity="1" transform="translate(138,0)"><line stroke="currentColor" y2="6"></line><text fill="currentColor" y="9" dy="0.71em" transform="rotate(-90)" style="text-anchor: end;">18:00</text></g><g class="tick" opacity="1" transform="translate(160.91666666666669,0)"><line stroke="currentColor" y2="6"></line><text fill="currentColor" y="9" dy="0.71em" transform="rotate(-90)" style="text-anchor: end;">21:00</text></g><g class="tick" opacity="1" transform="translate(183.83333333333331,0)"><line stroke="currentColor" y2="6"></line><text fill="currentColor" y="9" dy="0.71em" transform="rotate(-90)" style="text-anchor: end;">00:00</text></g><g class="tick" opacity="1" transform="translate(206.75,0)"><line stroke="currentColor" y2="6"></line><text fill="currentColor" y="9" dy="0.71em" transform="rotate(-90)" style="text-anchor: end;">03:00</text></g><g class="tick" opacity="1" transform="translate(229.66666666666669,0)"><line stroke="currentColor" y2="6"></line><text fill="currentColor" y="9" dy="0.71em" transform="rotate(-90)" style="text-anchor: end;">06:00</text></g><g class="tick" opacity="1" transform="translate(252.58333333333331,0)"><line stroke="currentColor" y2="6"></line><text fill="currentColor" y="9" dy="0.71em" transform="rotate(-90)" style="text-anchor: end;">09:00</text></g><g class="tick" opacity="1" transform="translate(275.5,0)"><line stroke="currentColor" y2="6"></line><text fill="currentColor" y="9" dy="0.71em" transform="rotate(-90)" style="text-anchor: end;">12:00</text></g><g class="tick" opacity="1" transform="translate(298.41666666666663,0)"><line stroke="currentColor" y2="6"></line><text fill="currentColor" y="9" dy="0.71em" transform="rotate(-90)" style="text-anchor: end;">15:00</text></g><g class="tick" opacity="1" transform="translate(321.33333333333337,0)"><line stroke="currentColor" y2="6"></line><text fill="currentColor" y="9" dy="0.71em" transform="rotate(-90)" style="text-anchor: end;">18:00</text></g><g class="tick" opacity="1" transform="translate(344.25,0)"><line stroke="currentColor" y2="6"></line><text fill="currentColor" y="9" dy="0.71em" transform="rotate(-90)" style="text-anchor: end;">21:00</text></g><g class="tick" opacity="1" transform="translate(367.16666666666663,0)"><line stroke="currentColor" y2="6"></line><text fill="currentColor" y="9" dy="0.71em" transform="rotate(-90)" style="text-anchor: end;">00:00</text></g><g class="tick" opacity="1" transform="translate(390.08333333333337,0)"><line stroke="currentColor" y2="6"></line><text fill="currentColor" y="9" dy="0.71em" transform="rotate(-90)" style="text-anchor: end;">03:00</text></g><g class="tick" opacity="1" transform="translate(413,0)"><line stroke="currentColor" y2="6"></line><text fill="currentColor" y="9" dy="0.71em" transform="rotate(-90)" style="text-anchor: end;">06:00</text></g><g class="tick" opacity="1" transform="translate(435.91666666666663,0)"><line stroke="currentColor" y2="6"></line><text fill="currentColor" y="9" dy="0.71em" transform="rotate(-90)" style="text-anchor: end;">09:00</text></g><g class="tick" opacity="1" transform="translate(458.83333333333337,0)"><line stroke="currentColor" y2="6"></line><text fill="currentColor" y="9" dy="0.71em" transform="rotate(-90)" style="text-anchor: end;">12:00</text></g><g class="tick" opacity="1" transform="translate(481.75,0)"><line stroke="currentColor" y2="6"></line><text fill="currentColor" y="9" dy="0.71em" transform="rotate(-90)" style="text-anchor: end;">15:00</text></g><g class="tick" opacity="1" transform="translate(504.66666666666663,0)"><line stroke="currentColor" y2="6"></line><text fill="currentColor" y="9" dy="0.71em" transform="rotate(-90)" style="text-anchor: end;">18:00</text></g><g class="tick" opacity="1" transform="translate(527.5833333333334,0)"><line stroke="currentColor" y2="6"></line><text fill="currentColor" y="9" dy="0.71em" transform="rotate(-90)" style="text-anchor: end;">21:00</text></g><g class="tick" opacity="1" transform="translate(550.5,0)"><line stroke="currentColor" y2="6"></line><text fill="currentColor" y="9" dy="0.71em" transform="rotate(-90)" style="text-anchor: end;">00:00</text></g><g class="tick" opacity="1" transform="translate(573.4166666666667,0)"><line stroke="currentColor" y2="6"></line><text fill="currentColor" y="9" dy="0.71em" transform="rotate(-90)" style="text-anchor: end;">03:00</text></g><g class="tick" opacity="1" transform="translate(596.3333333333333,0)"><line stroke="currentColor" y2="6"></line><text fill="currentColor" y="9" dy="0.71em" transform="rotate(-90)" style="text-anchor: end;">06:00</text></g><g class="tick" opacity="1" transform="translate(619.25,0)"><line stroke="currentColor" y2="6"></line><text fill="currentColor" y="9" dy="0.71em" transform="rotate(-90)" style="text-anchor: end;">09:00</text></g><g class="tick" opacity="1" transform="translate(642.1666666666667,0)"><line stroke="currentColor" y2="6"></line><text fill="currentColor" y="9" dy="0.71em" transform="rotate(-90)" style="text-anchor: end;">12:00</text></g><g class="tick" opacity="1" transform="translate(665.0833333333333,0)"><line stroke="currentColor" y2="6"></line><text fill="currentColor" y="9" dy="0.71em" transform="rotate(-90)" style="text-anchor: end;">15:00</text></g><g class="tick" opacity="1" transform="translate(688,0)"><line stroke="currentColor" y2="6"></line><text fill="currentColor" y="9" dy="0.71em" transform="rotate(-90)" style="text-anchor: end;">18:00</text></g><g class="tick" opacity="1" transform="translate(710.9166666666667,0)"><line stroke="currentColor" y2="6"></line><text fill="currentColor" y="9" dy="0.71em" transform="rotate(-90)" style="text-anchor: end;">21:00</text></g><g class="tick" opacity="1" transform="translate(733.8333333333333,0)"><line stroke="currentColor" y2="6"></line><text fill="currentColor" y="9" dy="0.71em" transform="rotate(-90)" style="text-anchor: end;">00:00</text></g><g class="tick" opacity="1" transform="translate(756.75,0)"><line stroke="currentColor" y2="6"></line><text fill="currentColor" y="9" dy="0.71em" transform="rotate(-90)" style="text-anchor: end;">03:00</text></g><g class="tick" opacity="1" transform="translate(779.6666666666667,0)"><line stroke="currentColor" y2="6"></line><text fill="currentColor" y="9" dy="0.71em" transform="rotate(-90)" style="text-anchor: end;">06:00</text></g><g class="tick" opacity="1" transform="translate(802.5833333333333,0)"><line stroke="currentColor" y2="6"></line><text fill="currentColor" y="9" dy="0.71em" transform="rotate(-90)" style="text-anchor: end;">09:00</text></g><g class="tick" opacity="1" transform="translate(825.5,0)"><line stroke="currentColor" y2="6"></line><text fill="currentColor" y="9" dy="0.71em" transform="rotate(-90)" style="text-anchor: end;">12:00</text></g><g class="tick" opacity="1" transform="translate(848.4166666666667,0)"><line stroke="currentColor" y2="6"></line><text fill="currentColor" y="9" dy="0.71em" transform="rotate(-90)" style="text-anchor: end;">15:00</text></g><g class="tick" opacity="1" transform="translate(871.3333333333333,0)"><line stroke="currentColor" y2="6"></line><text fill="currentColor" y="9" dy="0.71em" transform="rotate(-90)" style="text-anchor: end;">18:00</text></g><g class="tick" opacity="1" transform="translate(894.25,0)"><line stroke="currentColor" y2="6"></line><text fill="currentColor" y="9" dy="0.71em" transform="rotate(-90)" style="text-anchor: end;">21:00</text></g><g class="tick" opacity="1" transform="translate(917.1666666666667,0)"><line stroke="currentColor" y2="6"></line><text fill="currentColor" y="9" dy="0.71em" transform="rotate(-90)" style="text-anchor: end;">00:00</text></g><g class="tick" opacity="1" transform="translate(940.0833333333333,0)"><line stroke="currentColor" y2="6"></line><text fill="currentColor" y="9" dy="0.71em" transform="rotate(-90)" style="text-anchor: end;">03:00</text></g><g class="tick" opacity="1" transform="translate(963,0)"><line stroke="currentColor" y2="6"></line><text fill="currentColor" y="9" dy="0.71em" transform="rotate(-90)" style="text-anchor: end;">06:00</text></g><g class="tick" opacity="1" transform="translate(985.9166666666667,0)"><line stroke="currentColor" y2="6"></line><text fill="currentColor" y="9" dy="0.71em" transform="rotate(-90)" style="text-anchor: end;">09:00</text></g><g class="tick" opacity="1" transform="translate(1008.8333333333333,0)"><line stroke="currentColor" y2="6"></line><text fill="currentColor" y="9" dy="0.71em" transform="rotate(-90)" style="text-anchor: end;">12:00</text></g><g class="tick" opacity="1" transform="translate(1031.75,0)"><line stroke="currentColor" y2="6"></line><text fill="currentColor" y="9" dy="0.71em" transform="rotate(-90)" style="text-anchor: end;">15:00</text></g><g class="tick" opacity="1" transform="translate(1054.6666666666667,0)"><line stroke="currentColor" y2="6"></line><text fill="currentColor" y="9" dy="0.71em" transform="rotate(-90)" style="text-anchor: end;">18:00</text></g><g class="tick" opacity="1" transform="translate(1077.5833333333333,0)"><line stroke="currentColor" y2="6"></line><text fill="currentColor" y="9" dy="0.71em" transform="rotate(-90)" style="text-anchor: end;">21:00</text></g><g class="tick" opacity="1" transform="translate(1100.5,0)"><line stroke="currentColor" y2="6"></line><text fill="currentColor" y="9" dy="0.71em" transform="rotate(-90)" style="text-anchor: end;">00:00</text></g></g><g fill="none" font-size="10" font-family="sans-serif" text-anchor="end"><path class="domain" stroke="currentColor" d="M-6,390.5H0.5V0.5H-6"></path><g class="tick" opacity="1" transform="translate(0,390.5)"><line stroke="currentColor" x2="-6"></line><text fill="currentColor" x="-9" dy="0.32em">0.0</text></g><g class="tick" opacity="1" transform="translate(0,351.5)"><line stroke="currentColor" x2="-6"></line><text fill="currentColor" x="-9" dy="0.32em">0.1</text></g><g class="tick" opacity="1" transform="translate(0,312.5)"><line stroke="currentColor" x2="-6"></line><text fill="currentColor" x="-9" dy="0.32em">0.2</text></g><g class="tick" opacity="1" transform="translate(0,273.5)"><line stroke="currentColor" x2="-6"></line><text fill="currentColor" x="-9" dy="0.32em">0.3</text></g><g class="tick" opacity="1" transform="translate(0,234.5)"><line stroke="currentColor" x2="-6"></line><text fill="currentColor" x="-9" dy="0.32em">0.4</text></g><g class="tick" opacity="1" transform="translate(0,195.5)"><line stroke="currentColor" x2="-6"></line><text fill="currentColor" x="-9" dy="0.32em">0.5</text></g><g class="tick" opacity="1" transform="translate(0,156.5)"><line stroke="currentColor" x2="-6"></line><text fill="currentColor" x="-9" dy="0.32em">0.6</text></g><g class="tick" opacity="1" transform="translate(0,117.50000000000001)"><line stroke="currentColor" x2="-6"></line><text fill="currentColor" x="-9" dy="0.32em">0.7</text></g><g class="tick" opacity="1" transform="translate(0,78.49999999999999)"><line stroke="currentColor" x2="-6"></line><text fill="currentColor" x="-9" dy="0.32em">0.8</text></g><g class="tick" opacity="1" transform="translate(0,39.49999999999999)"><line stroke="currentColor" x2="-6"></line><text fill="currentColor" x="-9" dy="0.32em">0.9</text></g><g class="tick" opacity="1" transform="translate(0,0.5)"><line stroke="currentColor" x2="-6"></line><text fill="currentColor" x="-9" dy="0.32em">1.0</text></g></g><path fill="none" stroke="steelblue" stroke-width="1" d="M1.273,390L8.912,390L16.551,390L24.19,390L31.829,390L39.468,390L47.106,390L54.745,390L62.384,347.322L70.023,247.251L77.662,154.537L85.301,281.098L92.94,304.645L100.579,285.513L108.218,351.737L115.856,354.681L123.495,390L131.134,390L138.773,390L146.412,390L154.051,390L161.69,390L169.329,390L176.968,390L184.606,390L192.245,390L199.884,390L207.523,390L215.162,390L222.801,390L230.44,390L238.079,390L245.718,384.113L253.356,256.081L260.995,256.081L268.634,281.098L276.273,0L283.912,156.009L291.551,310.531L299.19,367.925L306.829,390L314.468,390L322.106,390L329.745,390L337.384,390L345.023,390L352.662,390L360.301,390L367.94,390L375.579,390L383.218,390L390.856,390L398.495,390L406.134,390L413.773,390L421.412,390L429.051,373.812L436.69,301.701L444.329,288.457L451.968,304.645L459.606,266.382L467.245,275.212L474.884,313.475L482.523,363.51L490.162,390L497.801,390L505.44,390L513.079,390L520.718,390L528.356,390L535.995,390L543.634,390L551.273,390L558.912,390L566.551,390L574.19,390L581.829,390L589.468,390L597.106,390L604.745,390L612.384,384.113L620.023,329.663L627.662,316.418L635.301,276.684L642.94,242.836L650.579,317.89L658.218,364.982L665.856,373.812L673.495,390L681.134,390L688.773,390L696.412,390L704.051,390L711.69,390L719.329,390L726.968,390L734.606,390L742.245,390L749.884,390L757.523,390L765.162,390L772.801,390L780.44,390L788.079,390L795.718,360.567L803.356,320.833L810.995,270.797L818.634,281.098L826.273,288.457L833.912,234.006L841.551,288.457L849.19,382.642L856.829,390L864.468,390L872.106,390L879.745,390L887.384,390L895.023,390L902.662,390L910.301,390L917.94,390L925.579,390L933.218,390L940.856,390L948.495,390L956.134,390L963.773,390L971.412,390L979.051,359.096L986.69,225.176L994.329,206.045L1001.968,219.289L1009.606,263.439L1017.245,192.8L1024.884,298.758L1032.523,360.567L1040.162,390L1047.801,390L1055.44,390L1063.079,390L1070.718,390L1078.356,390L1085.995,390L1093.634,390"></path><g><circle cx="1.2731481481481481" cy="390" r="2" fill="steelblue"></circle><circle cx="8.912037037037036" cy="390" r="2" fill="steelblue"></circle><circle cx="16.550925925925924" cy="390" r="2" fill="steelblue"></circle><circle cx="24.189814814814817" cy="390" r="2" fill="steelblue"></circle><circle cx="31.828703703703702" cy="390" r="2" fill="steelblue"></circle><circle cx="39.467592592592595" cy="390" r="2" fill="steelblue"></circle><circle cx="47.10648148148149" cy="390" r="2" fill="steelblue"></circle><circle cx="54.74537037037037" cy="390" r="2" fill="steelblue"></circle><circle cx="62.38425925925926" cy="347.32236519376625" r="2" fill="steelblue"></circle><circle cx="70.02314814814815" cy="247.2506697860458" r="2" fill="steelblue"></circle><circle cx="77.66203703703702" cy="154.53718727595185" r="2" fill="steelblue"></circle><circle cx="85.30092592592592" cy="281.0984491151277" r="2" fill="steelblue"></circle><circle cx="92.93981481481481" cy="304.64473038753255" r="2" fill="steelblue"></circle><circle cx="100.57870370370371" cy="285.5133768537036" r="2" fill="steelblue"></circle><circle cx="108.2175925925926" cy="351.7372929323422" r="2" fill="steelblue"></circle><circle cx="115.85648148148148" cy="354.68057809139276" r="2" fill="steelblue"></circle><circle cx="123.49537037037037" cy="390" r="2" fill="steelblue"></circle><circle cx="131.13425925925927" cy="390" r="2" fill="steelblue"></circle><circle cx="138.77314814814815" cy="390" r="2" fill="steelblue"></circle><circle cx="146.41203703703704" cy="390" r="2" fill="steelblue"></circle><circle cx="154.05092592592595" cy="390" r="2" fill="steelblue"></circle><circle cx="161.6898148148148" cy="390" r="2" fill="steelblue"></circle><circle cx="169.3287037037037" cy="390" r="2" fill="steelblue"></circle><circle cx="176.96759259259258" cy="390" r="2" fill="steelblue"></circle><circle cx="184.60648148148147" cy="390" r="2" fill="steelblue"></circle><circle cx="192.24537037037038" cy="390" r="2" fill="steelblue"></circle><circle cx="199.88425925925927" cy="390" r="2" fill="steelblue"></circle><circle cx="207.52314814814815" cy="390" r="2" fill="steelblue"></circle><circle cx="215.16203703703704" cy="390" r="2" fill="steelblue"></circle><circle cx="222.80092592592595" cy="390" r="2" fill="steelblue"></circle><circle cx="230.4398148148148" cy="390" r="2" fill="steelblue"></circle><circle cx="238.0787037037037" cy="390" r="2" fill="steelblue"></circle><circle cx="245.71759259259258" cy="384.1134296818988" r="2" fill="steelblue"></circle><circle cx="253.35648148148147" cy="256.0805252631976" r="2" fill="steelblue"></circle><circle cx="260.9953703703704" cy="256.0805252631976" r="2" fill="steelblue"></circle><circle cx="268.63425925925924" cy="281.0984491151277" r="2" fill="steelblue"></circle><circle cx="276.2731481481481" cy="0" r="2" fill="steelblue"></circle><circle cx="283.91203703703707" cy="156.00882985547716" r="2" fill="steelblue"></circle><circle cx="291.5509259259259" cy="310.5313007056338" r="2" fill="steelblue"></circle><circle cx="299.18981481481484" cy="367.9253613071205" r="2" fill="steelblue"></circle><circle cx="306.8287037037037" cy="390" r="2" fill="steelblue"></circle><circle cx="314.4675925925926" cy="390" r="2" fill="steelblue"></circle><circle cx="322.10648148148147" cy="390" r="2" fill="steelblue"></circle><circle cx="329.7453703703704" cy="390" r="2" fill="steelblue"></circle><circle cx="337.38425925925924" cy="390" r="2" fill="steelblue"></circle><circle cx="345.0231481481481" cy="390" r="2" fill="steelblue"></circle><circle cx="352.66203703703707" cy="390" r="2" fill="steelblue"></circle><circle cx="360.3009259259259" cy="390" r="2" fill="steelblue"></circle><circle cx="367.93981481481484" cy="390" r="2" fill="steelblue"></circle><circle cx="375.5787037037037" cy="390" r="2" fill="steelblue"></circle><circle cx="383.2175925925926" cy="390" r="2" fill="steelblue"></circle><circle cx="390.85648148148147" cy="390" r="2" fill="steelblue"></circle><circle cx="398.4953703703704" cy="390" r="2" fill="steelblue"></circle><circle cx="406.13425925925924" cy="390" r="2" fill="steelblue"></circle><circle cx="413.7731481481481" cy="390" r="2" fill="steelblue"></circle><circle cx="421.41203703703707" cy="390" r="2" fill="steelblue"></circle><circle cx="429.0509259259259" cy="373.8119316252217" r="2" fill="steelblue"></circle><circle cx="436.68981481481484" cy="301.701445228482" r="2" fill="steelblue"></circle><circle cx="444.3287037037037" cy="288.45666201275424" r="2" fill="steelblue"></circle><circle cx="451.9675925925926" cy="304.64473038753255" r="2" fill="steelblue"></circle><circle cx="459.60648148148147" cy="266.3820233198747" r="2" fill="steelblue"></circle><circle cx="467.2453703703704" cy="275.21187879702654" r="2" fill="steelblue"></circle><circle cx="474.88425925925924" cy="313.47458586468434" r="2" fill="steelblue"></circle><circle cx="482.5231481481481" cy="363.51043356854456" r="2" fill="steelblue"></circle><circle cx="490.16203703703707" cy="390" r="2" fill="steelblue"></circle><circle cx="497.8009259259259" cy="390" r="2" fill="steelblue"></circle><circle cx="505.43981481481484" cy="390" r="2" fill="steelblue"></circle><circle cx="513.0787037037037" cy="390" r="2" fill="steelblue"></circle><circle cx="520.7175925925926" cy="390" r="2" fill="steelblue"></circle><circle cx="528.3564814814815" cy="390" r="2" fill="steelblue"></circle><circle cx="535.9953703703704" cy="390" r="2" fill="steelblue"></circle><circle cx="543.6342592592592" cy="390" r="2" fill="steelblue"></circle><circle cx="551.2731481481482" cy="390" r="2" fill="steelblue"></circle><circle cx="558.9120370370371" cy="390" r="2" fill="steelblue"></circle><circle cx="566.5509259259259" cy="390" r="2" fill="steelblue"></circle><circle cx="574.1898148148148" cy="390" r="2" fill="steelblue"></circle><circle cx="581.8287037037038" cy="390" r="2" fill="steelblue"></circle><circle cx="589.4675925925926" cy="390" r="2" fill="steelblue"></circle><circle cx="597.1064814814815" cy="390" r="2" fill="steelblue"></circle><circle cx="604.7453703703703" cy="390" r="2" fill="steelblue"></circle><circle cx="612.3842592592592" cy="384.1134296818988" r="2" fill="steelblue"></circle><circle cx="620.0231481481482" cy="329.66265423946265" r="2" fill="steelblue"></circle><circle cx="627.6620370370371" cy="316.41787102373496" r="2" fill="steelblue"></circle><circle cx="635.3009259259259" cy="276.6835213765518" r="2" fill="steelblue"></circle><circle cx="642.9398148148148" cy="242.83574204746992" r="2" fill="steelblue"></circle><circle cx="650.5787037037038" cy="317.88951360326024" r="2" fill="steelblue"></circle><circle cx="658.2175925925926" cy="364.9820761480699" r="2" fill="steelblue"></circle><circle cx="665.8564814814815" cy="373.8119316252217" r="2" fill="steelblue"></circle><circle cx="673.4953703703703" cy="390" r="2" fill="steelblue"></circle><circle cx="681.1342592592592" cy="390" r="2" fill="steelblue"></circle><circle cx="688.7731481481482" cy="390" r="2" fill="steelblue"></circle><circle cx="696.4120370370371" cy="390" r="2" fill="steelblue"></circle><circle cx="704.0509259259259" cy="390" r="2" fill="steelblue"></circle><circle cx="711.6898148148148" cy="390" r="2" fill="steelblue"></circle><circle cx="719.3287037037038" cy="390" r="2" fill="steelblue"></circle><circle cx="726.9675925925926" cy="390" r="2" fill="steelblue"></circle><circle cx="734.6064814814815" cy="390" r="2" fill="steelblue"></circle><circle cx="742.2453703703703" cy="390" r="2" fill="steelblue"></circle><circle cx="749.8842592592592" cy="390" r="2" fill="steelblue"></circle><circle cx="757.5231481481482" cy="390" r="2" fill="steelblue"></circle><circle cx="765.1620370370371" cy="390" r="2" fill="steelblue"></circle><circle cx="772.8009259259259" cy="390" r="2" fill="steelblue"></circle><circle cx="780.4398148148148" cy="390" r="2" fill="steelblue"></circle><circle cx="788.0787037037038" cy="390" r="2" fill="steelblue"></circle><circle cx="795.7175925925926" cy="360.567148409494" r="2" fill="steelblue"></circle><circle cx="803.3564814814815" cy="320.83279876231086" r="2" fill="steelblue"></circle><circle cx="810.9953703703703" cy="270.79695105845065" r="2" fill="steelblue"></circle><circle cx="818.6342592592592" cy="281.0984491151277" r="2" fill="steelblue"></circle><circle cx="826.2731481481482" cy="288.45666201275424" r="2" fill="steelblue"></circle><circle cx="833.9120370370371" cy="234.00588657031807" r="2" fill="steelblue"></circle><circle cx="841.5509259259259" cy="288.45666201275424" r="2" fill="steelblue"></circle><circle cx="849.1898148148148" cy="382.6417871023735" r="2" fill="steelblue"></circle><circle cx="856.8287037037038" cy="390" r="2" fill="steelblue"></circle><circle cx="864.4675925925926" cy="390" r="2" fill="steelblue"></circle><circle cx="872.1064814814815" cy="390" r="2" fill="steelblue"></circle><circle cx="879.7453703703703" cy="390" r="2" fill="steelblue"></circle><circle cx="887.3842592592592" cy="390" r="2" fill="steelblue"></circle><circle cx="895.0231481481482" cy="390" r="2" fill="steelblue"></circle><circle cx="902.6620370370371" cy="390" r="2" fill="steelblue"></circle><circle cx="910.3009259259259" cy="390" r="2" fill="steelblue"></circle><circle cx="917.9398148148148" cy="390" r="2" fill="steelblue"></circle><circle cx="925.5787037037038" cy="390" r="2" fill="steelblue"></circle><circle cx="933.2175925925926" cy="390" r="2" fill="steelblue"></circle><circle cx="940.8564814814815" cy="390" r="2" fill="steelblue"></circle><circle cx="948.4953703703703" cy="390" r="2" fill="steelblue"></circle><circle cx="956.1342592592592" cy="390" r="2" fill="steelblue"></circle><circle cx="963.7731481481482" cy="390" r="2" fill="steelblue"></circle><circle cx="971.4120370370371" cy="390" r="2" fill="steelblue"></circle><circle cx="979.0509259259259" cy="359.0955058299687" r="2" fill="steelblue"></circle><circle cx="986.6898148148148" cy="225.17603109316627" r="2" fill="steelblue"></circle><circle cx="994.3287037037038" cy="206.04467755933737" r="2" fill="steelblue"></circle><circle cx="1001.9675925925926" cy="219.2894607750651" r="2" fill="steelblue"></circle><circle cx="1009.6064814814815" cy="263.43873816082413" r="2" fill="steelblue"></circle><circle cx="1017.2453703703703" cy="192.79989434360965" r="2" fill="steelblue"></circle><circle cx="1024.8842592592591" cy="298.7581600694313" r="2" fill="steelblue"></circle><circle cx="1032.5231481481483" cy="360.567148409494" r="2" fill="steelblue"></circle><circle cx="1040.162037037037" cy="390" r="2" fill="steelblue"></circle><circle cx="1047.8009259259259" cy="390" r="2" fill="steelblue"></circle><circle cx="1055.4398148148148" cy="390" r="2" fill="steelblue"></circle><circle cx="1063.0787037037037" cy="390" r="2" fill="steelblue"></circle><circle cx="1070.7175925925926" cy="390" r="2" fill="steelblue"></circle><circle cx="1078.3564814814815" cy="390" r="2" fill="steelblue"></circle><circle cx="1085.9953703703704" cy="390" r="2" fill="steelblue"></circle><circle cx="1093.6342592592591" cy="390" r="2" fill="steelblue"></circle></g></g></svg>