<svg width="500" height="500" xmlns="http://www.w3.org/2000/svg" xmlns:xlink="http://www.w3.org/1999/xlink"><g transform="translate(50,50)"><g transform="translate(0,390)" fill="none" font-size="10" font-family="sans-serif" text-anchor="middle"><path class="domain" stroke="currentColor" d="M0.5,6V0.5H400.5V6"></path><g class="tick" opacity="1" transform="translate(0.5,0)"><line stroke="currentColor" y2="6"></line><text fill="currentColor" y="9" dy="0.71em" transform="rotate(-90)" style="text-anchor: end;">0</text></g><g class="tick" opacity="1" transform="translate(31.26923076923077,0)"><line stroke="currentColor" y2="6"></line><text fill="currentColor" y="9" dy="0.71em" transform="rotate(-90)" style="text-anchor: end;">20</text></g><g class="tick" opacity="1" transform="translate(62.03846153846154,0)"><line stroke="currentColor" y2="6"></line><text fill="currentColor" y="9" dy="0.71em" transform="rotate(-90)" style="text-anchor: end;">40</text></g><g class="tick" opacity="1" transform="translate(92.8076923076923,0)"><line stroke="currentColor" y2="6"></line><text fill="currentColor" y="9" dy="0.71em" transform="rotate(-90)" style="text-anchor: end;">60</text></g><g class="tick" opacity="1" transform="translate(123.57692307692308,0)"><line stroke="currentColor" y2="6"></line><text fill="currentColor" y="9" dy="0.71em" transform="rotate(-90)" style="text-anchor: end;">80</text></g><g class="tick" opacity="1" transform="translate(154.34615384615387,0)"><line stroke="currentColor" y2="6"></line><text fill="currentColor" y="9" dy="0.71em" transform="rotate(-90)" style="text-anchor: end;">100</text></g><g class="tick" opacity="1" transform="translate(185.1153846153846,0)"><line stroke="currentColor" y2="6"></line><text fill="currentColor" y="9" dy="0.71em" transform="rotate(-90)" style="text-anchor: end;">120</text></g><g class="tick" opacity="1" transform="translate(215.8846153846154,0)"><line stroke="currentColor" y2="6"></line><text fill="currentColor" y="9" dy="0.71em" transform="rotate(-90)" style="text-anchor: end;">140</text></g><g class="tick" opacity="1" transform="translate(246.65384615384616,0)"><line stroke="currentColor" y2="6"></line><text fill="currentColor" y="9" dy="0.71em" transform="rotate(-90)" style="text-anchor: end;">160</text></g><g class="tick" opacity="1" transform="translate(277.4230769230769,0)"><line stroke="currentColor" y2="6"></line><text fill="currentColor" y="9" dy="0.71em" transform="rotate(-90)" style="text-anchor: end;">180</text></g><g class="tick" opacity="1" transform="translate(308.19230769230774,0)"><line stroke="currentColor" y2="6"></line><text fill="currentColor" y="9" dy="0.71em" transform="rotate(-90)" style="text-anchor: end;">200</text></g><g class="tick" opacity="1" transform="translate(338.96153846153845,0)"><line stroke="currentColor" y2="6"></line><text fill="currentColor" y="9" dy="0.71em" transform="rotate(-90)" style="text-anchor: end;">220</text></g><g class="tick" opacity="1" transform="translate(369.7307692307692,0)"><line stroke="currentColor" y2="6"></line><text fill="currentColor" y="9" dy="0.71em" transform="rotate(-90)" style="text-anchor: end;">240</text></g><g class="tick" opacity="1" transform="translate(400.5,0)"><line stroke="currentColor" y2="6"></line><text fill="currentColor" y="9" dy="0.71em" transform="rotate(-90)" style="text-anchor: end;">260</text></g></g><g fill="none" font-size="10" font-family="sans-serif" text-anchor="end"><path class="domain" stroke="currentColor" d="M-6,390.5H0.5V0.5H-6"></path><g class="tick" opacity="1" transform="translate(0,390.5)"><line stroke="currentColor" x2="-6"></line><text fill="currentColor" x="-9" dy="0.32em">0.0</text></g><g class="tick" opacity="1" transform="translate(0,351.5)"><line stroke="currentColor" x2="-6"></line><text fill="currentColor" x="-9" dy="0.32em">0.1</text></g><g class="tick" opacity="1" transform="translate(0,312.5)"><line stroke="currentColor" x2="-6"></line><text fill="currentColor" x="-9" dy="0.32em">0.2</text></g><g class="tick" opacity="1" transform="translate(0,273.5)"><line stroke="currentColor" x2="-6"></line><text fill="currentColor" x="-9" dy="0.32em">0.3</text></g><g class="tick" opacity="1" transform="translate(0,234.5)"><line stroke="currentColor" x2="-6"></line><text fill="currentColor" x="-9" dy="0.32em">0.4</text></g><g class="tick" opacity="1" transform="translate(0,195.5)"><line stroke="currentColor" x2="-6"></line><text fill="currentColor" x="-9" dy="0.32em">0.5</text></g><g class="tick" opacity="1" transform="translate(0,156.5)"><line stroke="currentColor" x2="-6"></line><text fill="currentColor" x="-9" dy="0.32em">0.6</text></g><g class="tick" opacity="1" transform="translate(0,117.50000000000001)"><line stroke="currentColor" x2="-6"></line><text fill="currentColor" x="-9" dy="0.32em">0.7</text></g><g class="tick" opacity="1" transform="translate(0,78.49999999999999)"><line stroke="currentColor" x2="-6"></line><text fill="currentColor" x="-9" dy="0.32em">0.8</text></g><g class="tick" opacity="1" transform="translate(0,39.49999999999999)"><line stroke="currentColor" x2="-6"></line><text fill="currentColor" x="-9" dy="0.32em">0.9</text></g><g class="tick" opacity="1" transform="translate(0,0.5)"><line stroke="currentColor" x2="-6"></line><text fill="currentColor" x="-9" dy="0.32em">1.0</text></g></g><path fill="none" stroke="steelblue" stroke-width="1" d="M0,390L0,390L0,390L0,390L0,390L0,390L0,390L0,390L46.154,342.441L230.785,152.189L361.554,17.438L378.477,0L278.462,103.06L204.615,179.155L36.923,351.953L49.231,339.27L0,390L0,390L0,390L0,390L0,390L0,390L0,390L0,390"></path><g><circle cx="0" cy="390" r="2" fill="steelblue"></circle><circle cx="0" cy="390" r="2" fill="steelblue"></circle><circle cx="0" cy="390" r="2" fill="steelblue"></circle><circle cx="0" cy="390" r="2" fill="steelblue"></circle><circle cx="0" cy="390" r="2" fill="steelblue"></circle><circle cx="0" cy="390" r="2" fill="steelblue"></circle><circle cx="0" cy="390" r="2" fill="steelblue"></circle><circle cx="0" cy="390" r="2" fill="steelblue"></circle><circle cx="46.15384615384615" cy="342.44095768464695" r="2" fill="steelblue"></circle><circle cx="230.78461538461536" cy="152.18893540912973" r="2" fill="steelblue"></circle><circle cx="361.55384615384617" cy="17.438315515629448" r="2" fill="steelblue"></circle><circle cx="378.4769230769231" cy="0" r="2" fill="steelblue"></circle><circle cx="278.46153846153845" cy="103.06044469737" r="2" fill="steelblue"></circle><circle cx="204.61538461538458" cy="179.15491240193487" r="2" fill="steelblue"></circle><circle cx="36.92307692307693" cy="351.95276614771757" r="2" fill="steelblue"></circle><circle cx="49.23076923076923" cy="339.2703548636234" r="2" fill="steelblue"></circle><circle cx="0" cy="390" r="2" fill="steelblue"></circle><circle cx="0" cy="390" r="2" fill="steelblue"></circle><circle cx="0" cy="390" r="2" fill="steelblue"></circle><circle cx="0" cy="390" r="2" fill="steelblue"></circle><circle cx="0" cy="390" r="2" fill="steelblue"></circle><circle cx="0" cy="390" r="2" fill="steelblue"></circle><circle cx="0" cy="390" r="2" fill="steelblue"></circle><circle cx="0" cy="390" r="2" fill="steelblue"></circle></g></g></svg>