<svg width="500" height="500" xmlns="http://www.w3.org/2000/svg" xmlns:xlink="http://www.w3.org/1999/xlink"><g transform="translate(50,50)"><g transform="translate(0,390)" fill="none" font-size="10" font-family="sans-serif" text-anchor="middle"><path class="domain" stroke="currentColor" d="M0.5,6V0.5H400.5V6"></path><g class="tick" opacity="1" transform="translate(0.5,0)"><line stroke="currentColor" y2="6"></line><text fill="currentColor" y="9" dy="0.71em" transform="rotate(-90)" style="text-anchor: end;">0</text></g><g class="tick" opacity="1" transform="translate(27.166666666666668,0)"><line stroke="currentColor" y2="6"></line><text fill="currentColor" y="9" dy="0.71em" transform="rotate(-90)" style="text-anchor: end;">20</text></g><g class="tick" opacity="1" transform="translate(53.833333333333336,0)"><line stroke="currentColor" y2="6"></line><text fill="currentColor" y="9" dy="0.71em" transform="rotate(-90)" style="text-anchor: end;">40</text></g><g class="tick" opacity="1" transform="translate(80.5,0)"><line stroke="currentColor" y2="6"></line><text fill="currentColor" y="9" dy="0.71em" transform="rotate(-90)" style="text-anchor: end;">60</text></g><g class="tick" opacity="1" transform="translate(107.16666666666667,0)"><line stroke="currentColor" y2="6"></line><text fill="currentColor" y="9" dy="0.71em" transform="rotate(-90)" style="text-anchor: end;">80</text></g><g class="tick" opacity="1" transform="translate(133.83333333333331,0)"><line stroke="currentColor" y2="6"></line><text fill="currentColor" y="9" dy="0.71em" transform="rotate(-90)" style="text-anchor: end;">100</text></g><g class="tick" opacity="1" transform="translate(160.5,0)"><line stroke="currentColor" y2="6"></line><text fill="currentColor" y="9" dy="0.71em" transform="rotate(-90)" style="text-anchor: end;">120</text></g><g class="tick" opacity="1" transform="translate(187.16666666666666,0)"><line stroke="currentColor" y2="6"></line><text fill="currentColor" y="9" dy="0.71em" transform="rotate(-90)" style="text-anchor: end;">140</text></g><g class="tick" opacity="1" transform="translate(213.83333333333334,0)"><line stroke="currentColor" y2="6"></line><text fill="currentColor" y="9" dy="0.71em" transform="rotate(-90)" style="text-anchor: end;">160</text></g><g class="tick" opacity="1" transform="translate(240.5,0)"><line stroke="currentColor" y2="6"></line><text fill="currentColor" y="9" dy="0.71em" transform="rotate(-90)" style="text-anchor: end;">180</text></g><g class="tick" opacity="1" transform="translate(267.16666666666663,0)"><line stroke="currentColor" y2="6"></line><text fill="currentColor" y="9" dy="0.71em" transform="rotate(-90)" style="text-anchor: end;">200</text></g><g class="tick" opacity="1" transform="translate(293.8333333333333,0)"><line stroke="currentColor" y2="6"></line><text fill="currentColor" y="9" dy="0.71em" transform="rotate(-90)" style="text-anchor: end;">220</text></g><g class="tick" opacity="1" transform="translate(320.5,0)"><line stroke="currentColor" y2="6"></line><text fill="currentColor" y="9" dy="0.71em" transform="rotate(-90)" style="text-anchor: end;">240</text></g><g class="tick" opacity="1" transform="translate(347.1666666666667,0)"><line stroke="currentColor" y2="6"></line><text fill="currentColor" y="9" dy="0.71em" transform="rotate(-90)" style="text-anchor: end;">260</text></g><g class="tick" opacity="1" transform="translate(373.8333333333333,0)"><line stroke="currentColor" y2="6"></line><text fill="currentColor" y="9" dy="0.71em" transform="rotate(-90)" style="text-anchor: end;">280</text></g><g class="tick" opacity="1" transform="translate(400.5,0)"><line stroke="currentColor" y2="6"></line><text fill="currentColor" y="9" dy="0.71em" transform="rotate(-90)" style="text-anchor: end;">300</text></g></g><g fill="none" font-size="10" font-family="sans-serif" text-anchor="end"><path class="domain" stroke="currentColor" d="M-6,390.5H0.5V0.5H-6"></path><g class="tick" opacity="1" transform="translate(0,390.5)"><line stroke="currentColor" x2="-6"></line><text fill="currentColor" x="-9" dy="0.32em">0.0</text></g><g class="tick" opacity="1" transform="translate(0,351.5)"><line stroke="currentColor" x2="-6"></line><text fill="currentColor" x="-9" dy="0.32em">0.1</text></g><g class="tick" opacity="1" transform="translate(0,312.5)"><line stroke="currentColor" x2="-6"></line><text fill="currentColor" x="-9" dy="0.32em">0.2</text></g><g class="tick" opacity="1" transform="translate(0,273.5)"><line stroke="currentColor" x2="-6"></line><text fill="currentColor" x="-9" dy="0.32em">0.3</text></g><g class="tick" opacity="1" transform="translate(0,234.5)"><line stroke="currentColor" x2="-6"></line><text fill="currentColor" x="-9" dy="0.32em">0.4</text></g><g class="tick" opacity="1" transform="translate(0,195.5)"><line stroke="currentColor" x2="-6"></line><text fill="currentColor" x="-9" dy="0.32em">0.5</text></g><g class="tick" opacity="1" transform="translate(0,156.5)"><line stroke="currentColor" x2="-6"></line><text fill="currentColor" x="-9" dy="0.32em">0.6</text></g><g class="tick" opacity="1" transform="translate(0,117.50000000000001)"><line stroke="currentColor" x2="-6"></line><text fill="currentColor" x="-9" dy="0.32em">0.7</text></g><g class="tick" opacity="1" transform="translate(0,78.49999999999999)"><line stroke="currentColor" x2="-6"></line><text fill="currentColor" x="-9" dy="0.32em">0.8</text></g><g class="tick" opacity="1" transform="translate(0,39.49999999999999)"><line stroke="currentColor" x2="-6"></line><text fill="currentColor" x="-9" dy="0.32em">0.9</text></g><g class="tick" opacity="1" transform="translate(0,0.5)"><line stroke="currentColor" x2="-6"></line><text fill="currentColor" x="-9" dy="0.32em">1.0</text></g></g><path fill="none" stroke="steelblue" stroke-width="1" d="M0,390L0,390L0,390L0,390L0,390L0,390L0,390L0,390L38.667,350.037L129.333,256.33L213.333,169.513L98.667,288.025L77.333,310.073L94.667,292.159L34.667,354.171L32,356.927L0,390L0,390L0,390L0,390L0,390L0,390L0,390L0,390L0,390L0,390L0,390L0,390L0,390L0,390L0,390L0,390L5.333,384.488L121.333,264.598L121.333,264.598L98.667,288.025L353.347,24.805L212,170.891L72,315.586L20,369.329L0,390L0,390L0,390L0,390L0,390L0,390L0,390L0,390L0,390L0,390L0,390L0,390L0,390L0,390L0,390L0,390L14.667,374.842L80,307.317L92,294.915L77.333,310.073L112,274.244L104,282.513L69.333,318.342L24,365.195L0,390L0,390L0,390L0,390L0,390L0,390L0,390L0,390L0,390L0,390L0,390L0,390L0,390L0,390L0,390L0,390L5.333,384.488L54.667,333.5L66.667,321.098L102.667,283.891L133.333,252.196L65.333,322.476L22.667,366.573L14.667,374.842L0,390L0,390L0,390L0,390L0,390L0,390L0,390L0,390L0,390L0,390L0,390L0,390L0,390L0,390L0,390L0,390L26.667,362.439L62.667,325.232L108,278.379L98.667,288.025L92,294.915L141.333,243.927L92,294.915L6.667,383.11L0,390L0,390L0,390L0,390L0,390L0,390L0,390L0,390L0,390L0,390L0,390L0,390L0,390L0,390L0,390L0,390L28,361.061L149.333,235.659L166.667,217.745L154.667,230.147L114.667,271.488L178.667,205.342L82.667,304.561L26.667,362.439L0,390L0,390L0,390L0,390L0,390L0,390L0,390L0,390L0,390L0,390L0,390L0,390L0,390L0,390L0,390L0,390L24,365.195L198.68,184.658L314.68,64.768L254.667,126.794L377.347,0L196,187.428L98.667,288.025L45.347,343.133L0,390L0,390L0,390L0,390L0,390L0,390L0,390L0,390"></path><g><circle cx="0" cy="390" r="2" fill="steelblue"></circle><circle cx="0" cy="390" r="2" fill="steelblue"></circle><circle cx="0" cy="390" r="2" fill="steelblue"></circle><circle cx="0" cy="390" r="2" fill="steelblue"></circle><circle cx="0" cy="390" r="2" fill="steelblue"></circle><circle cx="0" cy="390" r="2" fill="steelblue"></circle><circle cx="0" cy="390" r="2" fill="steelblue"></circle><circle cx="0" cy="390" r="2" fill="steelblue"></circle><circle cx="38.666666666666664" cy="350.0367478180983" r="2" fill="steelblue"></circle><circle cx="129.33333333333331" cy="256.32981166743224" r="2" fill="steelblue"></circle><circle cx="213.33333333333334" cy="169.51309141019752" r="2" fill="steelblue"></circle><circle cx="98.66666666666667" cy="288.02480477721633" r="2" fill="steelblue"></circle><circle cx="77.33333333333333" cy="310.0734956361966" r="2" fill="steelblue"></circle><circle cx="94.66666666666667" cy="292.1589343132751" r="2" fill="steelblue"></circle><circle cx="34.66666666666667" cy="354.1708773541571" r="2" fill="steelblue"></circle><circle cx="32" cy="356.9269637115296" r="2" fill="steelblue"></circle><circle cx="0" cy="390" r="2" fill="steelblue"></circle><circle cx="0" cy="390" r="2" fill="steelblue"></circle><circle cx="0" cy="390" r="2" fill="steelblue"></circle><circle cx="0" cy="390" r="2" fill="steelblue"></circle><circle cx="0" cy="390" r="2" fill="steelblue"></circle><circle cx="0" cy="390" r="2" fill="steelblue"></circle><circle cx="0" cy="390" r="2" fill="steelblue"></circle><circle cx="0" cy="390" r="2" fill="steelblue"></circle><circle cx="0" cy="390" r="2" fill="steelblue"></circle><circle cx="0" cy="390" r="2" fill="steelblue"></circle><circle cx="0" cy="390" r="2" fill="steelblue"></circle><circle cx="0" cy="390" r="2" fill="steelblue"></circle><circle cx="0" cy="390" r="2" fill="steelblue"></circle><circle cx="0" cy="390" r="2" fill="steelblue"></circle><circle cx="0" cy="390" r="2" fill="steelblue"></circle><circle cx="0" cy="390" r="2" fill="steelblue"></circle><circle cx="5.333333333333334" cy="384.4878272852549" r="2" fill="steelblue"></circle><circle cx="121.33333333333334" cy="264.5980707395498" r="2" fill="steelblue"></circle><circle cx="121.33333333333334" cy="264.5980707395498" r="2" fill="steelblue"></circle><circle cx="98.66666666666667" cy="288.02480477721633" r="2" fill="steelblue"></circle><circle cx="353.34666666666664" cy="24.804777216352793" r="2" fill="steelblue"></circle><circle cx="212" cy="170.89113458888377" r="2" fill="steelblue"></circle><circle cx="72" cy="315.58566835094166" r="2" fill="steelblue"></circle><circle cx="20" cy="369.329352319706" r="2" fill="steelblue"></circle><circle cx="0" cy="390" r="2" fill="steelblue"></circle><circle cx="0" cy="390" r="2" fill="steelblue"></circle><circle cx="0" cy="390" r="2" fill="steelblue"></circle><circle cx="0" cy="390" r="2" fill="steelblue"></circle><circle cx="0" cy="390" r="2" fill="steelblue"></circle><circle cx="0" cy="390" r="2" fill="steelblue"></circle><circle cx="0" cy="390" r="2" fill="steelblue"></circle><circle cx="0" cy="390" r="2" fill="steelblue"></circle><circle cx="0" cy="390" r="2" fill="steelblue"></circle><circle cx="0" cy="390" r="2" fill="steelblue"></circle><circle cx="0" cy="390" r="2" fill="steelblue"></circle><circle cx="0" cy="390" r="2" fill="steelblue"></circle><circle cx="0" cy="390" r="2" fill="steelblue"></circle><circle cx="0" cy="390" r="2" fill="steelblue"></circle><circle cx="0" cy="390" r="2" fill="steelblue"></circle><circle cx="0" cy="390" r="2" fill="steelblue"></circle><circle cx="14.666666666666666" cy="374.8415250344511" r="2" fill="steelblue"></circle><circle cx="80" cy="307.3174092788241" r="2" fill="steelblue"></circle><circle cx="92" cy="294.9150206706477" r="2" fill="steelblue"></circle><circle cx="77.33333333333333" cy="310.0734956361966" r="2" fill="steelblue"></circle><circle cx="112.00000000000001" cy="274.2443729903537" r="2" fill="steelblue"></circle><circle cx="104" cy="282.51263206247125" r="2" fill="steelblue"></circle><circle cx="69.33333333333334" cy="318.3417547083142" r="2" fill="steelblue"></circle><circle cx="24" cy="365.1952227836472" r="2" fill="steelblue"></circle><circle cx="0" cy="390" r="2" fill="steelblue"></circle><circle cx="0" cy="390" r="2" fill="steelblue"></circle><circle cx="0" cy="390" r="2" fill="steelblue"></circle><circle cx="0" cy="390" r="2" fill="steelblue"></circle><circle cx="0" cy="390" r="2" fill="steelblue"></circle><circle cx="0" cy="390" r="2" fill="steelblue"></circle><circle cx="0" cy="390" r="2" fill="steelblue"></circle><circle cx="0" cy="390" r="2" fill="steelblue"></circle><circle cx="0" cy="390" r="2" fill="steelblue"></circle><circle cx="0" cy="390" r="2" fill="steelblue"></circle><circle cx="0" cy="390" r="2" fill="steelblue"></circle><circle cx="0" cy="390" r="2" fill="steelblue"></circle><circle cx="0" cy="390" r="2" fill="steelblue"></circle><circle cx="0" cy="390" r="2" fill="steelblue"></circle><circle cx="0" cy="390" r="2" fill="steelblue"></circle><circle cx="0" cy="390" r="2" fill="steelblue"></circle><circle cx="5.333333333333334" cy="384.4878272852549" r="2" fill="steelblue"></circle><circle cx="54.666666666666664" cy="333.5002296738631" r="2" fill="steelblue"></circle><circle cx="66.66666666666666" cy="321.09784106568674" r="2" fill="steelblue"></circle><circle cx="102.66666666666666" cy="283.89067524115757" r="2" fill="steelblue"></circle><circle cx="133.33333333333331" cy="252.19568213137347" r="2" fill="steelblue"></circle><circle cx="65.33333333333333" cy="322.475884244373" r="2" fill="steelblue"></circle><circle cx="22.666666666666664" cy="366.5732659623335" r="2" fill="steelblue"></circle><circle cx="14.666666666666666" cy="374.8415250344511" r="2" fill="steelblue"></circle><circle cx="0" cy="390" r="2" fill="steelblue"></circle><circle cx="0" cy="390" r="2" fill="steelblue"></circle><circle cx="0" cy="390" r="2" fill="steelblue"></circle><circle cx="0" cy="390" r="2" fill="steelblue"></circle><circle cx="0" cy="390" r="2" fill="steelblue"></circle><circle cx="0" cy="390" r="2" fill="steelblue"></circle><circle cx="0" cy="390" r="2" fill="steelblue"></circle><circle cx="0" cy="390" r="2" fill="steelblue"></circle><circle cx="0" cy="390" r="2" fill="steelblue"></circle><circle cx="0" cy="390" r="2" fill="steelblue"></circle><circle cx="0" cy="390" r="2" fill="steelblue"></circle><circle cx="0" cy="390" r="2" fill="steelblue"></circle><circle cx="0" cy="390" r="2" fill="steelblue"></circle><circle cx="0" cy="390" r="2" fill="steelblue"></circle><circle cx="0" cy="390" r="2" fill="steelblue"></circle><circle cx="0" cy="390" r="2" fill="steelblue"></circle><circle cx="26.666666666666668" cy="362.4391364262747" r="2" fill="steelblue"></circle><circle cx="62.66666666666667" cy="325.2319706017455" r="2" fill="steelblue"></circle><circle cx="108" cy="278.3785025264125" r="2" fill="steelblue"></circle><circle cx="98.66666666666667" cy="288.02480477721633" r="2" fill="steelblue"></circle><circle cx="92" cy="294.9150206706477" r="2" fill="steelblue"></circle><circle cx="141.33333333333334" cy="243.92742305925583" r="2" fill="steelblue"></circle><circle cx="92" cy="294.9150206706477" r="2" fill="steelblue"></circle><circle cx="6.666666666666667" cy="383.10978410656867" r="2" fill="steelblue"></circle><circle cx="0" cy="390" r="2" fill="steelblue"></circle><circle cx="0" cy="390" r="2" fill="steelblue"></circle><circle cx="0" cy="390" r="2" fill="steelblue"></circle><circle cx="0" cy="390" r="2" fill="steelblue"></circle><circle cx="0" cy="390" r="2" fill="steelblue"></circle><circle cx="0" cy="390" r="2" fill="steelblue"></circle><circle cx="0" cy="390" r="2" fill="steelblue"></circle><circle cx="0" cy="390" r="2" fill="steelblue"></circle><circle cx="0" cy="390" r="2" fill="steelblue"></circle><circle cx="0" cy="390" r="2" fill="steelblue"></circle><circle cx="0" cy="390" r="2" fill="steelblue"></circle><circle cx="0" cy="390" r="2" fill="steelblue"></circle><circle cx="0" cy="390" r="2" fill="steelblue"></circle><circle cx="0" cy="390" r="2" fill="steelblue"></circle><circle cx="0" cy="390" r="2" fill="steelblue"></circle><circle cx="0" cy="390" r="2" fill="steelblue"></circle><circle cx="28.000000000000004" cy="361.0610932475884" r="2" fill="steelblue"></circle><circle cx="149.33333333333334" cy="235.65916398713827" r="2" fill="steelblue"></circle><circle cx="166.66666666666669" cy="217.74460266421679" r="2" fill="steelblue"></circle><circle cx="154.66666666666666" cy="230.1469912723932" r="2" fill="steelblue"></circle><circle cx="114.66666666666667" cy="271.48828663298116" r="2" fill="steelblue"></circle><circle cx="178.66666666666666" cy="205.3422140560404" r="2" fill="steelblue"></circle><circle cx="82.66666666666667" cy="304.56132292145156" r="2" fill="steelblue"></circle><circle cx="26.666666666666668" cy="362.4391364262747" r="2" fill="steelblue"></circle><circle cx="0" cy="390" r="2" fill="steelblue"></circle><circle cx="0" cy="390" r="2" fill="steelblue"></circle><circle cx="0" cy="390" r="2" fill="steelblue"></circle><circle cx="0" cy="390" r="2" fill="steelblue"></circle><circle cx="0" cy="390" r="2" fill="steelblue"></circle><circle cx="0" cy="390" r="2" fill="steelblue"></circle><circle cx="0" cy="390" r="2" fill="steelblue"></circle><circle cx="0" cy="390" r="2" fill="steelblue"></circle><circle cx="0" cy="390" r="2" fill="steelblue"></circle><circle cx="0" cy="390" r="2" fill="steelblue"></circle><circle cx="0" cy="390" r="2" fill="steelblue"></circle><circle cx="0" cy="390" r="2" fill="steelblue"></circle><circle cx="0" cy="390" r="2" fill="steelblue"></circle><circle cx="0" cy="390" r="2" fill="steelblue"></circle><circle cx="0" cy="390" r="2" fill="steelblue"></circle><circle cx="0" cy="390" r="2" fill="steelblue"></circle><circle cx="24" cy="365.1952227836472" r="2" fill="steelblue"></circle><circle cx="198.67999999999998" cy="184.6577859439596" r="2" fill="steelblue"></circle><circle cx="314.68" cy="64.7680293982545" r="2" fill="steelblue"></circle><circle cx="254.66666666666669" cy="126.7937528709233" r="2" fill="steelblue"></circle><circle cx="377.3466666666667" cy="0" r="2" fill="steelblue"></circle><circle cx="196" cy="187.42765273311898" r="2" fill="steelblue"></circle><circle cx="98.66666666666667" cy="288.02480477721633" r="2" fill="steelblue"></circle><circle cx="45.346666666666664" cy="343.1327514928801" r="2" fill="steelblue"></circle><circle cx="0" cy="390" r="2" fill="steelblue"></circle><circle cx="0" cy="390" r="2" fill="steelblue"></circle><circle cx="0" cy="390" r="2" fill="steelblue"></circle><circle cx="0" cy="390" r="2" fill="steelblue"></circle><circle cx="0" cy="390" r="2" fill="steelblue"></circle><circle cx="0" cy="390" r="2" fill="steelblue"></circle><circle cx="0" cy="390" r="2" fill="steelblue"></circle><circle cx="0" cy="390" r="2" fill="steelblue"></circle></g></g></svg>