<svg width="1200" height="500" xmlns="http://www.w3.org/2000/svg" xmlns:xlink="http://www.w3.org/1999/xlink"><g transform="translate(50,50)"><g transform="translate(0,390)" fill="none" font-size="10" font-family="sans-serif" text-anchor="middle"><path class="domain" stroke="currentColor" d="M0.5,6V0.5H1100.5V6"></path><g class="tick" opacity="1" transform="translate(0.5,0)"><line stroke="currentColor" y2="6"></line><text fill="currentColor" y="9" dy="0.71em" transform="rotate(-90)" style="text-anchor: end;">00:00</text></g><g class="tick" opacity="1" transform="translate(20.142857142857142,0)"><line stroke="currentColor" y2="6"></line><text fill="currentColor" y="9" dy="0.71em" transform="rotate(-90)" style="text-anchor: end;">03:00</text></g><g class="tick" opacity="1" transform="translate(39.785714285714285,0)"><line stroke="currentColor" y2="6"></line><text fill="currentColor" y="9" dy="0.71em" transform="rotate(-90)" style="text-anchor: end;">06:00</text></g><g class="tick" opacity="1" transform="translate(59.42857142857142,0)"><line stroke="currentColor" y2="6"></line><text fill="currentColor" y="9" dy="0.71em" transform="rotate(-90)" style="text-anchor: end;">09:00</text></g><g class="tick" opacity="1" transform="translate(79.07142857142857,0)"><line stroke="currentColor" y2="6"></line><text fill="currentColor" y="9" dy="0.71em" transform="rotate(-90)" style="text-anchor: end;">12:00</text></g><g class="tick" opacity="1" transform="translate(98.71428571428572,0)"><line stroke="currentColor" y2="6"></line><text fill="currentColor" y="9" dy="0.71em" transform="rotate(-90)" style="text-anchor: end;">15:00</text></g><g class="tick" opacity="1" transform="translate(118.35714285714285,0)"><line stroke="currentColor" y2="6"></line><text fill="currentColor" y="9" dy="0.71em" transform="rotate(-90)" style="text-anchor: end;">18:00</text></g><g class="tick" opacity="1" transform="translate(138,0)"><line stroke="currentColor" y2="6"></line><text fill="currentColor" y="9" dy="0.71em" transform="rotate(-90)" style="text-anchor: end;">21:00</text></g><g class="tick" opacity="1" transform="translate(157.64285714285714,0)"><line stroke="currentColor" y2="6"></line><text fill="currentColor" y="9" dy="0.71em" transform="rotate(-90)" style="text-anchor: end;">00:00</text></g><g class="tick" opacity="1" transform="translate(177.2857142857143,0)"><line stroke="currentColor" y2="6"></line><text fill="currentColor" y="9" dy="0.71em" transform="rotate(-90)" style="text-anchor: end;">03:00</text></g><g class="tick" opacity="1" transform="translate(196.92857142857144,0)"><line stroke="currentColor" y2="6"></line><text fill="currentColor" y="9" dy="0.71em" transform="rotate(-90)" style="text-anchor: end;">06:00</text></g><g class="tick" opacity="1" transform="translate(216.57142857142856,0)"><line stroke="currentColor" y2="6"></line><text fill="currentColor" y="9" dy="0.71em" transform="rotate(-90)" style="text-anchor: end;">09:00</text></g><g class="tick" opacity="1" transform="translate(236.2142857142857,0)"><line stroke="currentColor" y2="6"></line><text fill="currentColor" y="9" dy="0.71em" transform="rotate(-90)" style="text-anchor: end;">12:00</text></g><g class="tick" opacity="1" transform="translate(255.85714285714286,0)"><line stroke="currentColor" y2="6"></line><text fill="currentColor" y="9" dy="0.71em" transform="rotate(-90)" style="text-anchor: end;">15:00</text></g><g class="tick" opacity="1" transform="translate(275.5,0)"><line stroke="currentColor" y2="6"></line><text fill="currentColor" y="9" dy="0.71em" transform="rotate(-90)" style="text-anchor: end;">18:00</text></g><g class="tick" opacity="1" transform="translate(295.1428571428571,0)"><line stroke="currentColor" y2="6"></line><text fill="currentColor" y="9" dy="0.71em" transform="rotate(-90)" style="text-anchor: end;">21:00</text></g><g class="tick" opacity="1" transform="translate(314.7857142857143,0)"><line stroke="currentColor" y2="6"></line><text fill="currentColor" y="9" dy="0.71em" transform="rotate(-90)" style="text-anchor: end;">00:00</text></g><g class="tick" opacity="1" transform="translate(334.4285714285714,0)"><line stroke="currentColor" y2="6"></line><text fill="currentColor" y="9" dy="0.71em" transform="rotate(-90)" style="text-anchor: end;">03:00</text></g><g class="tick" opacity="1" transform="translate(354.0714285714286,0)"><line stroke="currentColor" y2="6"></line><text fill="currentColor" y="9" dy="0.71em" transform="rotate(-90)" style="text-anchor: end;">06:00</text></g><g class="tick" opacity="1" transform="translate(373.7142857142857,0)"><line stroke="currentColor" y2="6"></line><text fill="currentColor" y="9" dy="0.71em" transform="rotate(-90)" style="text-anchor: end;">09:00</text></g><g class="tick" opacity="1" transform="translate(393.3571428571429,0)"><line stroke="currentColor" y2="6"></line><text fill="currentColor" y="9" dy="0.71em" transform="rotate(-90)" style="text-anchor: end;">12:00</text></g><g class="tick" opacity="1" transform="translate(413,0)"><line stroke="currentColor" y2="6"></line><text fill="currentColor" y="9" dy="0.71em" transform="rotate(-90)" style="text-anchor: end;">15:00</text></g><g class="tick" opacity="1" transform="translate(432.6428571428571,0)"><line stroke="currentColor" y2="6"></line><text fill="currentColor" y="9" dy="0.71em" transform="rotate(-90)" style="text-anchor: end;">18:00</text></g><g class="tick" opacity="1" transform="translate(452.2857142857143,0)"><line stroke="currentColor" y2="6"></line><text fill="currentColor" y="9" dy="0.71em" transform="rotate(-90)" style="text-anchor: end;">21:00</text></g><g class="tick" opacity="1" transform="translate(471.9285714285714,0)"><line stroke="currentColor" y2="6"></line><text fill="currentColor" y="9" dy="0.71em" transform="rotate(-90)" style="text-anchor: end;">00:00</text></g><g class="tick" opacity="1" transform="translate(491.5714285714286,0)"><line stroke="currentColor" y2="6"></line><text fill="currentColor" y="9" dy="0.71em" transform="rotate(-90)" style="text-anchor: end;">03:00</text></g><g class="tick" opacity="1" transform="translate(511.2142857142857,0)"><line stroke="currentColor" y2="6"></line><text fill="currentColor" y="9" dy="0.71em" transform="rotate(-90)" style="text-anchor: end;">06:00</text></g><g class="tick" opacity="1" transform="translate(530.8571428571429,0)"><line stroke="currentColor" y2="6"></line><text fill="currentColor" y="9" dy="0.71em" transform="rotate(-90)" style="text-anchor: end;">09:00</text></g><g class="tick" opacity="1" transform="translate(550.5,0)"><line stroke="currentColor" y2="6"></line><text fill="currentColor" y="9" dy="0.71em" transform="rotate(-90)" style="text-anchor: end;">12:00</text></g><g class="tick" opacity="1" transform="translate(570.1428571428572,0)"><line stroke="currentColor" y2="6"></line><text fill="currentColor" y="9" dy="0.71em" transform="rotate(-90)" style="text-anchor: end;">15:00</text></g><g class="tick" opacity="1" transform="translate(589.7857142857142,0)"><line stroke="currentColor" y2="6"></line><text fill="currentColor" y="9" dy="0.71em" transform="rotate(-90)" style="text-anchor: end;">18:00</text></g><g class="tick" opacity="1" transform="translate(609.4285714285714,0)"><line stroke="currentColor" y2="6"></line><text fill="currentColor" y="9" dy="0.71em" transform="rotate(-90)" style="text-anchor: end;">21:00</text></g><g class="tick" opacity="1" transform="translate(629.0714285714286,0)"><line stroke="currentColor" y2="6"></line><text fill="currentColor" y="9" dy="0.71em" transform="rotate(-90)" style="text-anchor: end;">00:00</text></g><g class="tick" opacity="1" transform="translate(648.7142857142858,0)"><line stroke="currentColor" y2="6"></line><text fill="currentColor" y="9" dy="0.71em" transform="rotate(-90)" style="text-anchor: end;">03:00</text></g><g class="tick" opacity="1" transform="translate(668.3571428571428,0)"><line stroke="currentColor" y2="6"></line><text fill="currentColor" y="9" dy="0.71em" transform="rotate(-90)" style="text-anchor: end;">06:00</text></g><g class="tick" opacity="1" transform="translate(688,0)"><line stroke="currentColor" y2="6"></line><text fill="currentColor" y="9" dy="0.71em" transform="rotate(-90)" style="text-anchor: end;">09:00</text></g><g class="tick" opacity="1" transform="translate(707.6428571428572,0)"><line stroke="currentColor" y2="6"></line><text fill="currentColor" y="9" dy="0.71em" transform="rotate(-90)" style="text-anchor: end;">12:00</text></g><g class="tick" opacity="1" transform="translate(727.2857142857142,0)"><line stroke="currentColor" y2="6"></line><text fill="currentColor" y="9" dy="0.71em" transform="rotate(-90)" style="text-anchor: end;">15:00</text></g><g class="tick" opacity="1" transform="translate(746.9285714285714,0)"><line stroke="currentColor" y2="6"></line><text fill="currentColor" y="9" dy="0.71em" transform="rotate(-90)" style="text-anchor: end;">18:00</text></g><g class="tick" opacity="1" transform="translate(766.5714285714286,0)"><line stroke="currentColor" y2="6"></line><text fill="currentColor" y="9" dy="0.71em" transform="rotate(-90)" style="text-anchor: end;">21:00</text></g><g class="tick" opacity="1" transform="translate(786.2142857142858,0)"><line stroke="currentColor" y2="6"></line><text fill="currentColor" y="9" dy="0.71em" transform="rotate(-90)" style="text-anchor: end;">00:00</text></g><g class="tick" opacity="1" transform="translate(805.8571428571428,0)"><line stroke="currentColor" y2="6"></line><text fill="currentColor" y="9" dy="0.71em" transform="rotate(-90)" style="text-anchor: end;">03:00</text></g><g class="tick" opacity="1" transform="translate(825.5,0)"><line stroke="currentColor" y2="6"></line><text fill="currentColor" y="9" dy="0.71em" transform="rotate(-90)" style="text-anchor: end;">06:00</text></g><g class="tick" opacity="1" transform="translate(845.1428571428572,0)"><line stroke="currentColor" y2="6"></line><text fill="currentColor" y="9" dy="0.71em" transform="rotate(-90)" style="text-anchor: end;">09:00</text></g><g class="tick" opacity="1" transform="translate(864.7857142857142,0)"><line stroke="currentColor" y2="6"></line><text fill="currentColor" y="9" dy="0.71em" transform="rotate(-90)" style="text-anchor: end;">12:00</text></g><g class="tick" opacity="1" transform="translate(884.4285714285714,0)"><line stroke="currentColor" y2="6"></line><text fill="currentColor" y="9" dy="0.71em" transform="rotate(-90)" style="text-anchor: end;">15:00</text></g><g class="tick" opacity="1" transform="translate(904.0714285714286,0)"><line stroke="currentColor" y2="6"></line><text fill="currentColor" y="9" dy="0.71em" transform="rotate(-90)" style="text-anchor: end;">18:00</text></g><g class="tick" opacity="1" transform="translate(923.7142857142858,0)"><line stroke="currentColor" y2="6"></line><text fill="currentColor" y="9" dy="0.71em" transform="rotate(-90)" style="text-anchor: end;">21:00</text></g><g class="tick" opacity="1" transform="translate(943.3571428571428,0)"><line stroke="currentColor" y2="6"></line><text fill="currentColor" y="9" dy="0.71em" transform="rotate(-90)" style="text-anchor: end;">00:00</text></g><g class="tick" opacity="1" transform="translate(963,0)"><line stroke="currentColor" y2="6"></line><text fill="currentColor" y="9" dy="0.71em" transform="rotate(-90)" style="text-anchor: end;">03:00</text></g><g class="tick" opacity="1" transform="translate(982.6428571428572,0)"><line stroke="currentColor" y2="6"></line><text fill="currentColor" y="9" dy="0.71em" transform="rotate(-90)" style="text-anchor: end;">06:00</text></g><g class="tick" opacity="1" transform="translate(1002.2857142857142,0)"><line stroke="currentColor" y2="6"></line><text fill="currentColor" y="9" dy="0.71em" transform="rotate(-90)" style="text-anchor: end;">09:00</text></g><g class="tick" opacity="1" transform="translate(1021.9285714285714,0)"><line stroke="currentColor" y2="6"></line><text fill="currentColor" y="9" dy="0.71em" transform="rotate(-90)" style="text-anchor: end;">12:00</text></g><g class="tick" opacity="1" transform="translate(1041.5714285714284,0)"><line stroke="currentColor" y2="6"></line><text fill="currentColor" y="9" dy="0.71em" transform="rotate(-90)" style="text-anchor: end;">15:00</text></g><g class="tick" opacity="1" transform="translate(1061.2142857142858,0)"><line stroke="currentColor" y2="6"></line><text fill="currentColor" y="9" dy="0.71em" transform="rotate(-90)" style="text-anchor: end;">18:00</text></g><g class="tick" opacity="1" transform="translate(1080.857142857143,0)"><line stroke="currentColor" y2="6"></line><text fill="currentColor" y="9" dy="0.71em" transform="rotate(-90)" style="text-anchor: end;">21:00</text></g><g class="tick" opacity="1" transform="translate(1100.5,0)"><line stroke="currentColor" y2="6"></line><text fill="currentColor" y="9" dy="0.71em" transform="rotate(-90)" style="text-anchor: end;">00:00</text></g></g><g fill="none" font-size="10" font-family="sans-serif" text-anchor="end"><path class="domain" stroke="currentColor" d="M-6,390.5H0.5V0.5H-6"></path><g class="tick" opacity="1" transform="translate(0,390.5)"><line stroke="currentColor" x2="-6"></line><text fill="currentColor" x="-9" dy="0.32em">−0.6</text></g><g class="tick" opacity="1" transform="translate(0,355.04545454545456)"><line stroke="currentColor" x2="-6"></line><text fill="currentColor" x="-9" dy="0.32em">−0.5</text></g><g class="tick" opacity="1" transform="translate(0,319.5909090909091)"><line stroke="currentColor" x2="-6"></line><text fill="currentColor" x="-9" dy="0.32em">−0.4</text></g><g class="tick" opacity="1" transform="translate(0,284.1363636363636)"><line stroke="currentColor" x2="-6"></line><text fill="currentColor" x="-9" dy="0.32em">−0.3</text></g><g class="tick" opacity="1" transform="translate(0,248.68181818181822)"><line stroke="currentColor" x2="-6"></line><text fill="currentColor" x="-9" dy="0.32em">−0.2</text></g><g class="tick" opacity="1" transform="translate(0,213.22727272727272)"><line stroke="currentColor" x2="-6"></line><text fill="currentColor" x="-9" dy="0.32em">−0.1</text></g><g class="tick" opacity="1" transform="translate(0,177.77272727272728)"><line stroke="currentColor" x2="-6"></line><text fill="currentColor" x="-9" dy="0.32em">0.0</text></g><g class="tick" opacity="1" transform="translate(0,142.31818181818187)"><line stroke="currentColor" x2="-6"></line><text fill="currentColor" x="-9" dy="0.32em">0.1</text></g><g class="tick" opacity="1" transform="translate(0,106.86363636363636)"><line stroke="currentColor" x2="-6"></line><text fill="currentColor" x="-9" dy="0.32em">0.2</text></g><g class="tick" opacity="1" transform="translate(0,71.40909090909098)"><line stroke="currentColor" x2="-6"></line><text fill="currentColor" x="-9" dy="0.32em">0.3</text></g><g class="tick" opacity="1" transform="translate(0,35.95454545454547)"><line stroke="currentColor" x2="-6"></line><text fill="currentColor" x="-9" dy="0.32em">0.4</text></g><g class="tick" opacity="1" transform="translate(0,0.5)"><line stroke="currentColor" x2="-6"></line><text fill="currentColor" x="-9" dy="0.32em">0.5</text></g></g><path fill="none" stroke="steelblue" stroke-width="1" d="M7.706,177.268L14.257,177.277L20.809,177.273L27.36,177.273L33.911,177.273L40.462,177.268L47.014,177.07L53.565,150.046L60.116,50.69L66.669,175.463L73.221,101.993L79.665,174.985L86.216,182.746L92.769,257.83L99.32,218.694L105.873,275.157L112.424,185.331L118.976,177.273L125.527,177.268L132.078,177.277L138.629,177.268L145.181,177.277L151.732,177.273L158.283,177.273L164.834,177.273L171.386,177.268L177.937,177.277L184.488,177.268L191.04,177.277L197.591,177.273L204.142,177.095L210.693,147.76L217.246,72.056L223.798,158.608L230.351,109.827L236.902,172.133L243.455,108.184L250.006,308.59L256.45,302.058L263.001,213.635L269.553,180.048L276.104,177.279L282.655,177.273L289.207,177.273L295.758,177.273L302.311,177.273L308.862,177.273L315.413,177.266L321.965,177.279L328.516,177.273L335.067,177.273L341.618,177.273L348.17,177.273L354.721,177.273L361.272,176.907L367.825,140.779L374.376,121.959L380.928,162.047L387.481,93.558L394.032,105.163L400.585,204.993L407.138,253.886L413.689,236.121L420.243,271.298L426.794,183.288L433.236,177.273L439.787,177.273L446.338,177.273L452.89,177.268L459.441,177.277L465.992,177.268L472.543,177.277L479.095,177.273L485.646,177.273L492.199,177.273L498.75,177.268L505.302,177.277L511.853,177.268L518.404,177.099L524.955,112.032L531.507,166.689L538.058,56.427L544.611,19.575L551.164,362.5L557.715,126.713L564.267,308.169L570.82,227.807L577.371,214.526L583.922,178.467L590.473,177.273L597.025,177.273L603.576,177.273L610.127,177.266L616.569,177.275L623.121,177.277L629.672,177.268L636.225,177.277L642.776,177.273L649.327,177.273L655.879,177.273L662.43,177.268L668.981,177.277L675.532,177.163L682.084,154.948L688.635,128.324L695.188,174.98L701.739,139.333L708.291,153.943L714.844,211.083L721.395,186.129L727.946,197.993L734.499,246.666L741.05,179.438L747.602,177.268L754.153,177.277L760.704,177.268L767.255,177.277L773.807,177.273L780.358,177.273L786.909,177.273L793.46,177.268L799.903,177.277L806.454,177.273L813.005,177.266L819.556,177.279L826.108,177.273L832.659,177.095L839.212,137.009L845.763,66.288L852.314,63.374L858.868,146.706L865.421,220.178L871.972,283.535L878.525,158.974L885.076,293.955L891.627,223.211L898.179,179.675L904.73,177.273L911.281,177.273L917.833,177.266L924.384,177.279L930.935,177.273L937.486,177.273L944.038,177.273L950.589,177.273L957.14,177.273L963.691,177.266L970.243,177.279L976.794,177.273L983.236,177.268L989.787,177.099L996.338,125.949L1002.89,126.584L1009.441,121.945L1015.994,122.44L1022.545,110.94L1029.097,209.774L1035.65,295.005L1042.201,173.698L1048.754,305.347L1055.305,181.222L1061.856,177.273L1068.408,177.273L1074.959,177.273L1081.51,177.268L1088.062,177.277L1094.613,177.268"></path><g><circle cx="7.706183862433862" cy="177.26849388971112" r="2" fill="steelblue"></circle><circle cx="14.257440476190476" cy="177.2769606557435" r="2" fill="steelblue"></circle><circle cx="20.80869708994709" cy="177.27272727272728" r="2" fill="steelblue"></circle><circle cx="27.359953703703702" cy="177.27272727272728" r="2" fill="steelblue"></circle><circle cx="33.911210317460316" cy="177.27272727272728" r="2" fill="steelblue"></circle><circle cx="40.46246693121694" cy="177.26849388971112" r="2" fill="steelblue"></circle><circle cx="47.013723544973544" cy="177.06952511761062" r="2" fill="steelblue"></circle><circle cx="53.56498015873016" cy="150.04575563792795" r="2" fill="steelblue"></circle><circle cx="60.11623677248677" cy="50.6904779402216" r="2" fill="steelblue"></circle><circle cx="66.66931216931218" cy="175.46296820532461" r="2" fill="steelblue"></circle><circle cx="73.22056878306879" cy="101.9926670490086" r="2" fill="steelblue"></circle><circle cx="79.66451719576719" cy="174.98458480891293" r="2" fill="steelblue"></circle><circle cx="86.21577380952381" cy="182.7464805808158" r="2" fill="steelblue"></circle><circle cx="92.7688492063492" cy="257.82968936699234" r="2" fill="steelblue"></circle><circle cx="99.32010582010582" cy="218.69421622237414" r="2" fill="steelblue"></circle><circle cx="105.87318121693121" cy="275.1569054746773" r="2" fill="steelblue"></circle><circle cx="112.42443783068782" cy="185.3309629791505" r="2" fill="steelblue"></circle><circle cx="118.97569444444444" cy="177.27272727272728" r="2" fill="steelblue"></circle><circle cx="125.52695105820106" cy="177.26849388971112" r="2" fill="steelblue"></circle><circle cx="132.07820767195767" cy="177.2769606557435" r="2" fill="steelblue"></circle><circle cx="138.62946428571428" cy="177.26849388971112" r="2" fill="steelblue"></circle><circle cx="145.1807208994709" cy="177.2769606557435" r="2" fill="steelblue"></circle><circle cx="151.7319775132275" cy="177.27272727272728" r="2" fill="steelblue"></circle><circle cx="158.28323412698413" cy="177.27272727272728" r="2" fill="steelblue"></circle><circle cx="164.83449074074076" cy="177.27272727272728" r="2" fill="steelblue"></circle><circle cx="171.38574735449734" cy="177.26849388971112" r="2" fill="steelblue"></circle><circle cx="177.93700396825398" cy="177.2769606557435" r="2" fill="steelblue"></circle><circle cx="184.48826058201058" cy="177.26849388971112" r="2" fill="steelblue"></circle><circle cx="191.0395171957672" cy="177.2769606557435" r="2" fill="steelblue"></circle><circle cx="197.5907738095238" cy="177.27272727272728" r="2" fill="steelblue"></circle><circle cx="204.14203042328043" cy="177.0949253697757" r="2" fill="steelblue"></circle><circle cx="210.69328703703704" cy="147.75972922257145" r="2" fill="steelblue"></circle><circle cx="217.24636243386243" cy="72.05634218027201" r="2" fill="steelblue"></circle><circle cx="223.79761904761904" cy="158.60775505837256" r="2" fill="steelblue"></circle><circle cx="230.35069444444446" cy="109.82654769454153" r="2" fill="steelblue"></circle><circle cx="236.90195105820104" cy="172.13340139343703" r="2" fill="steelblue"></circle><circle cx="243.45502645502643" cy="108.18400004493023" r="2" fill="steelblue"></circle><circle cx="250.00628306878306" cy="308.59001684088076" r="2" fill="steelblue"></circle><circle cx="256.45023148148147" cy="302.05789481266567" r="2" fill="steelblue"></circle><circle cx="263.0014880952381" cy="213.6353306375039" r="2" fill="steelblue"></circle><circle cx="269.55274470899474" cy="180.04770667052512" r="2" fill="steelblue"></circle><circle cx="276.10400132275134" cy="177.27907734725156" r="2" fill="steelblue"></circle><circle cx="282.65525793650795" cy="177.27272727272728" r="2" fill="steelblue"></circle><circle cx="289.2065145502645" cy="177.27272727272728" r="2" fill="steelblue"></circle><circle cx="295.75777116402116" cy="177.27272727272728" r="2" fill="steelblue"></circle><circle cx="302.3108465608465" cy="177.27272727272728" r="2" fill="steelblue"></circle><circle cx="308.8621031746032" cy="177.27272727272728" r="2" fill="steelblue"></circle><circle cx="315.4133597883598" cy="177.266377198203" r="2" fill="steelblue"></circle><circle cx="321.9646164021164" cy="177.27907734725156" r="2" fill="steelblue"></circle><circle cx="328.515873015873" cy="177.27272727272728" r="2" fill="steelblue"></circle><circle cx="335.0671296296297" cy="177.27272727272728" r="2" fill="steelblue"></circle><circle cx="341.6183862433862" cy="177.27272727272728" r="2" fill="steelblue"></circle><circle cx="348.16964285714283" cy="177.27272727272728" r="2" fill="steelblue"></circle><circle cx="354.72089947089944" cy="177.27272727272728" r="2" fill="steelblue"></circle><circle cx="361.2721560846561" cy="176.9065400552157" r="2" fill="steelblue"></circle><circle cx="367.82523148148147" cy="140.77888917224504" r="2" fill="steelblue"></circle><circle cx="374.37648809523813" cy="121.95940247389666" r="2" fill="steelblue"></circle><circle cx="380.92774470899474" cy="162.04738450055123" r="2" fill="steelblue"></circle><circle cx="387.4808201058201" cy="93.55767228836861" r="2" fill="steelblue"></circle><circle cx="394.03207671957676" cy="105.16348314609273" r="2" fill="steelblue"></circle><circle cx="400.5851521164021" cy="204.9928885800994" r="2" fill="steelblue"></circle><circle cx="407.13822751322755" cy="253.88629441943826" r="2" fill="steelblue"></circle><circle cx="413.68948412698415" cy="236.12091265111354" r="2" fill="steelblue"></circle><circle cx="420.2425595238095" cy="271.29817451287465" r="2" fill="steelblue"></circle><circle cx="426.7938161375662" cy="183.28835820010445" r="2" fill="steelblue"></circle><circle cx="433.23594576719574" cy="177.27272727272728" r="2" fill="steelblue"></circle><circle cx="439.78720238095235" cy="177.27272727272728" r="2" fill="steelblue"></circle><circle cx="446.33845899470896" cy="177.27272727272728" r="2" fill="steelblue"></circle><circle cx="452.8897156084656" cy="177.26849388971112" r="2" fill="steelblue"></circle><circle cx="459.44097222222223" cy="177.2769606557435" r="2" fill="steelblue"></circle><circle cx="465.99222883597884" cy="177.26849388971112" r="2" fill="steelblue"></circle><circle cx="472.5434854497355" cy="177.2769606557435" r="2" fill="steelblue"></circle><circle cx="479.09474206349205" cy="177.27272727272728" r="2" fill="steelblue"></circle><circle cx="485.64599867724866" cy="177.27272727272728" r="2" fill="steelblue"></circle><circle cx="492.1990740740741" cy="177.27272727272728" r="2" fill="steelblue"></circle><circle cx="498.7503306878307" cy="177.26849388971112" r="2" fill="steelblue"></circle><circle cx="505.3015873015873" cy="177.2769606557435" r="2" fill="steelblue"></circle><circle cx="511.8528439153439" cy="177.26849388971112" r="2" fill="steelblue"></circle><circle cx="518.4041005291006" cy="177.0991587527919" r="2" fill="steelblue"></circle><circle cx="524.9553571428572" cy="112.03213124327728" r="2" fill="steelblue"></circle><circle cx="531.5066137566138" cy="166.68928351188376" r="2" fill="steelblue"></circle><circle cx="538.0578703703703" cy="56.426715142418075" r="2" fill="steelblue"></circle><circle cx="544.6109457671957" cy="19.57512655082715" r="2" fill="steelblue"></circle><circle cx="551.1640211640212" cy="362.499976501875" r="2" fill="steelblue"></circle><circle cx="557.7152777777777" cy="126.7134861810905" r="2" fill="steelblue"></circle><circle cx="564.2665343915345" cy="308.1687914184004" r="2" fill="steelblue"></circle><circle cx="570.8196097883598" cy="227.8065678825383" r="2" fill="steelblue"></circle><circle cx="577.3708664021163" cy="214.52645629258424" r="2" fill="steelblue"></circle><circle cx="583.922123015873" cy="178.46653990532994" r="2" fill="steelblue"></circle><circle cx="590.4733796296297" cy="177.27272727272728" r="2" fill="steelblue"></circle><circle cx="597.0246362433862" cy="177.27272727272728" r="2" fill="steelblue"></circle><circle cx="603.5758928571429" cy="177.27272727272728" r="2" fill="steelblue"></circle><circle cx="610.1271494708994" cy="177.266377198203" r="2" fill="steelblue"></circle><circle cx="616.5692791005291" cy="177.2748439642354" r="2" fill="steelblue"></circle><circle cx="623.1205357142857" cy="177.2769606557435" r="2" fill="steelblue"></circle><circle cx="629.6717923280423" cy="177.26849388971112" r="2" fill="steelblue"></circle><circle cx="636.2248677248676" cy="177.2769606557435" r="2" fill="steelblue"></circle><circle cx="642.7761243386243" cy="177.27272727272728" r="2" fill="steelblue"></circle><circle cx="649.327380952381" cy="177.27272727272728" r="2" fill="steelblue"></circle><circle cx="655.8786375661376" cy="177.27272727272728" r="2" fill="steelblue"></circle><circle cx="662.4298941798942" cy="177.26849388971112" r="2" fill="steelblue"></circle><circle cx="668.9811507936508" cy="177.2769606557435" r="2" fill="steelblue"></circle><circle cx="675.5324074074074" cy="177.1626594061705" r="2" fill="steelblue"></circle><circle cx="682.0836640211639" cy="154.94800660238474" r="2" fill="steelblue"></circle><circle cx="688.6349206349206" cy="128.32429011824286" r="2" fill="steelblue"></circle><circle cx="695.187996031746" cy="174.98034986420345" r="2" fill="steelblue"></circle><circle cx="701.7392526455026" cy="139.33318965306074" r="2" fill="steelblue"></circle><circle cx="708.2905092592592" cy="153.94258222400006" r="2" fill="steelblue"></circle><circle cx="714.8435846560847" cy="211.08260586907122" r="2" fill="steelblue"></circle><circle cx="721.3948412698412" cy="186.1289474558477" r="2" fill="steelblue"></circle><circle cx="727.946097883598" cy="197.99300266975476" r="2" fill="steelblue"></circle><circle cx="734.4991732804233" cy="246.666265932089" r="2" fill="steelblue"></circle><circle cx="741.0504298941798" cy="179.4381002051752" r="2" fill="steelblue"></circle><circle cx="747.6016865079364" cy="177.26849388971112" r="2" fill="steelblue"></circle><circle cx="754.1529431216932" cy="177.2769606557435" r="2" fill="steelblue"></circle><circle cx="760.7041997354497" cy="177.26849388971112" r="2" fill="steelblue"></circle><circle cx="767.2554563492064" cy="177.2769606557435" r="2" fill="steelblue"></circle><circle cx="773.8067129629629" cy="177.27272727272728" r="2" fill="steelblue"></circle><circle cx="780.3579695767196" cy="177.27272727272728" r="2" fill="steelblue"></circle><circle cx="786.9092261904761" cy="177.27272727272728" r="2" fill="steelblue"></circle><circle cx="793.4604828042327" cy="177.26849388971112" r="2" fill="steelblue"></circle><circle cx="799.9026124338625" cy="177.2769606557435" r="2" fill="steelblue"></circle><circle cx="806.453869047619" cy="177.27272727272728" r="2" fill="steelblue"></circle><circle cx="813.0051256613757" cy="177.266377198203" r="2" fill="steelblue"></circle><circle cx="819.5563822751323" cy="177.27907734725156" r="2" fill="steelblue"></circle><circle cx="826.1076388888889" cy="177.27272727272728" r="2" fill="steelblue"></circle><circle cx="832.6588955026455" cy="177.0949253697757" r="2" fill="steelblue"></circle><circle cx="839.2119708994709" cy="137.00906807275638" r="2" fill="steelblue"></circle><circle cx="845.7632275132274" cy="66.28834886393463" r="2" fill="steelblue"></circle><circle cx="852.3144841269841" cy="63.373691803187334" r="2" fill="steelblue"></circle><circle cx="858.8675595238095" cy="146.70561749458886" r="2" fill="steelblue"></circle><circle cx="865.4206349206349" cy="220.178022343613" r="2" fill="steelblue"></circle><circle cx="871.9718915343915" cy="283.53476109356956" r="2" fill="steelblue"></circle><circle cx="878.5249669312169" cy="158.9739491657074" r="2" fill="steelblue"></circle><circle cx="885.0762235449736" cy="293.9552146016847" r="2" fill="steelblue"></circle><circle cx="891.6274801587301" cy="223.21123167489702" r="2" fill="steelblue"></circle><circle cx="898.1787367724868" cy="179.6751695162857" r="2" fill="steelblue"></circle><circle cx="904.7299933862433" cy="177.27272727272728" r="2" fill="steelblue"></circle><circle cx="911.28125" cy="177.27272727272728" r="2" fill="steelblue"></circle><circle cx="917.8325066137567" cy="177.266377198203" r="2" fill="steelblue"></circle><circle cx="924.3837632275132" cy="177.27907734725156" r="2" fill="steelblue"></circle><circle cx="930.9350198412699" cy="177.27272727272728" r="2" fill="steelblue"></circle><circle cx="937.4862764550264" cy="177.27272727272728" r="2" fill="steelblue"></circle><circle cx="944.0375330687831" cy="177.27272727272728" r="2" fill="steelblue"></circle><circle cx="950.5887896825396" cy="177.27272727272728" r="2" fill="steelblue"></circle><circle cx="957.1400462962963" cy="177.27272727272728" r="2" fill="steelblue"></circle><circle cx="963.691302910053" cy="177.266377198203" r="2" fill="steelblue"></circle><circle cx="970.2425595238095" cy="177.27907734725156" r="2" fill="steelblue"></circle><circle cx="976.7938161375662" cy="177.27272727272728" r="2" fill="steelblue"></circle><circle cx="983.2359457671957" cy="177.26849388971112" r="2" fill="steelblue"></circle><circle cx="989.7872023809524" cy="177.0991587527919" r="2" fill="steelblue"></circle><circle cx="996.338458994709" cy="125.94936757428685" r="2" fill="steelblue"></circle><circle cx="1002.8897156084655" cy="126.58436629960676" r="2" fill="steelblue"></circle><circle cx="1009.4409722222223" cy="121.94459394706008" r="2" fill="steelblue"></circle><circle cx="1015.9940476190476" cy="122.43988956301656" r="2" fill="steelblue"></circle><circle cx="1022.5453042328041" cy="110.9399293569516" r="2" fill="steelblue"></circle><circle cx="1029.0965608465608" cy="209.77448564825823" r="2" fill="steelblue"></circle><circle cx="1035.6496362433863" cy="295.00509046631475" r="2" fill="steelblue"></circle><circle cx="1042.200892857143" cy="173.69764849807825" r="2" fill="steelblue"></circle><circle cx="1048.7539682539682" cy="305.3472337837072" r="2" fill="steelblue"></circle><circle cx="1055.305224867725" cy="181.22246949294424" r="2" fill="steelblue"></circle><circle cx="1061.8564814814815" cy="177.27272727272728" r="2" fill="steelblue"></circle><circle cx="1068.407738095238" cy="177.27272727272728" r="2" fill="steelblue"></circle><circle cx="1074.9589947089946" cy="177.27272727272728" r="2" fill="steelblue"></circle><circle cx="1081.5102513227512" cy="177.26849388971112" r="2" fill="steelblue"></circle><circle cx="1088.061507936508" cy="177.2769606557435" r="2" fill="steelblue"></circle><circle cx="1094.6127645502645" cy="177.26849388971112" r="2" fill="steelblue"></circle></g><path fill="none" stroke="orange" stroke-width="1" d="M7.706,163.222L14.257,159.934L20.809,187.437L27.36,178.767L33.911,170.098L40.462,183.252L47.014,159.336L53.565,168.902L60.116,197.302L66.669,227.196L73.221,220.021L79.665,214.641L86.216,202.982L92.769,214.342L99.32,177.572L105.873,133.926L112.424,119.577L118.976,174.283L125.527,139.008L132.078,141.998L138.629,182.654L145.181,197.003L151.732,161.13L158.283,162.625L164.834,158.14L171.386,195.209L177.937,194.611L184.488,151.564L191.04,168.603L197.591,199.693L204.142,178.468L210.693,181.458L217.246,221.815L223.798,237.958L230.351,168.304L236.902,201.487L243.455,196.405L250.006,148.574L256.45,118.082L263.001,168.006L269.553,153.656L276.104,154.852L282.655,161.728L289.207,181.757L295.758,186.54L302.311,162.027L308.862,204.178L315.413,147.677L321.965,188.931L328.516,162.326L335.067,179.664L341.618,178.17L348.17,164.119L354.721,173.984L361.272,176.077L367.825,190.725L374.376,199.992L380.928,197.003L387.481,217.032L394.032,249.916L400.585,212.249L407.138,147.08L413.689,124.659L420.243,88.487L426.794,132.132L433.236,169.799L439.787,137.513L446.338,143.492L452.89,167.408L459.441,190.127L465.992,177.871L472.543,180.262L479.095,158.738L485.646,159.934L492.199,172.789L498.75,169.5L505.302,183.849L511.853,177.572L518.404,288.778L524.955,153.357L531.507,209.558L538.058,243.04L544.611,241.246L551.164,138.111L557.715,166.511L564.267,185.643L570.82,151.863L577.371,144.987L583.922,211.95L590.473,132.431L597.025,168.304L603.576,188.035L610.127,191.921L616.569,146.183L623.121,208.363L629.672,147.976L636.225,195.209L642.776,159.635L649.327,177.273L655.879,179.066L662.43,193.416L668.981,178.17L675.532,175.18L682.084,176.077L688.635,195.807L695.188,183.849L701.739,191.323L708.291,200.889L714.844,162.326L721.395,205.672L727.946,150.069L734.499,161.728L741.05,153.656L747.602,179.365L754.153,176.376L760.704,192.519L767.255,166.212L773.807,120.175L780.358,169.201L786.909,161.728L793.46,214.641L799.903,163.222L806.454,173.088L813.005,166.511L819.556,192.818L826.108,188.035L832.659,203.879L839.212,166.81L845.763,219.723L852.314,262.471L858.868,212.249L865.421,188.334L871.972,140.802L878.525,190.426L885.076,109.114L891.627,143.193L898.179,149.172L904.73,172.191L911.281,180.561L917.833,168.304L924.384,177.273L930.935,193.715L937.486,187.736L944.038,140.204L950.589,168.304L957.14,170.995L963.691,172.49L970.243,200.59L976.794,198.797L983.236,195.807L989.787,176.675L996.338,197.003L1002.89,172.789L1009.441,196.704L1015.994,237.958L1022.545,259.183L1029.097,136.019L1035.65,209.857L1042.201,88.487L1048.754,133.627L1055.305,169.799L1061.856,192.22L1068.408,202.384L1074.959,194.91L1081.51,152.162L1088.062,208.064L1094.613,171.892"></path><g><circle cx="7.706183862433862" cy="163.22244366089225" r="2" fill="orange"></circle><circle cx="14.257440476190476" cy="159.9340794113137" r="2" fill="orange"></circle><circle cx="20.80869708994709" cy="187.43676222596977" r="2" fill="orange"></circle><circle cx="27.359953703703702" cy="178.76743829526288" r="2" fill="orange"></circle><circle cx="33.911210317460316" cy="170.09811436455635" r="2" fill="orange"></circle><circle cx="40.46246693121694" cy="183.25157136286978" r="2" fill="orange"></circle><circle cx="47.013723544973544" cy="159.33619500229955" r="2" fill="orange"></circle><circle cx="53.56498015873016" cy="168.90234554652787" r="2" fill="orange"></circle><circle cx="60.11623677248677" cy="197.30185497470472" r="2" fill="orange"></circle><circle cx="66.66931216931218" cy="227.19607542541783" r="2" fill="orange"></circle><circle cx="73.22056878306879" cy="220.0214625172467" r="2" fill="orange"></circle><circle cx="79.66451719576719" cy="214.64050283611837" r="2" fill="orange"></circle><circle cx="86.21577380952381" cy="202.98175686034034" r="2" fill="orange"></circle><circle cx="92.7688492063492" cy="214.3415606316113" r="2" fill="orange"></circle><circle cx="99.32010582010582" cy="177.57166947723437" r="2" fill="orange"></circle><circle cx="105.87318121693121" cy="133.92610761919377" r="2" fill="orange"></circle><circle cx="112.42443783068782" cy="119.57688180285149" r="2" fill="orange"></circle><circle cx="118.97569444444444" cy="174.28330522765597" r="2" fill="orange"></circle><circle cx="125.52695105820106" cy="139.00812509581482" r="2" fill="orange"></circle><circle cx="132.07820767195767" cy="141.99754714088616" r="2" fill="orange"></circle><circle cx="138.62946428571428" cy="182.65368695385558" r="2" fill="orange"></circle><circle cx="145.1807208994709" cy="197.0029127701977" r="2" fill="orange"></circle><circle cx="151.7319775132275" cy="161.12984822934237" r="2" fill="orange"></circle><circle cx="158.28323412698413" cy="162.6245592518782" r="2" fill="orange"></circle><circle cx="164.83449074074076" cy="158.14042618427104" r="2" fill="orange"></circle><circle cx="171.38574735449734" cy="195.2092595431551" r="2" fill="orange"></circle><circle cx="177.93700396825398" cy="194.61137513414073" r="2" fill="orange"></circle><circle cx="184.48826058201058" cy="151.56369768511428" r="2" fill="orange"></circle><circle cx="191.0395171957672" cy="168.60340334202058" r="2" fill="orange"></circle><circle cx="197.5907738095238" cy="199.69339261076195" r="2" fill="orange"></circle><circle cx="204.14203042328043" cy="178.4684960907558" r="2" fill="orange"></circle><circle cx="210.69328703703704" cy="181.45791813582713" r="2" fill="orange"></circle><circle cx="217.24636243386243" cy="221.81511574428933" r="2" fill="orange"></circle><circle cx="223.79761904761904" cy="237.9579947876744" r="2" fill="orange"></circle><circle cx="230.35069444444446" cy="168.30446113751353" r="2" fill="orange"></circle><circle cx="236.90195105820104" cy="201.4870458378046" r="2" fill="orange"></circle><circle cx="243.45502645502643" cy="196.40502836118355" r="2" fill="orange"></circle><circle cx="250.00628306878306" cy="148.57427564004294" r="2" fill="orange"></circle><circle cx="256.45023148148147" cy="118.08217078031595" r="2" fill="orange"></circle><circle cx="263.0014880952381" cy="168.00551893300624" r="2" fill="orange"></circle><circle cx="269.55274470899474" cy="153.65629311666416" r="2" fill="orange"></circle><circle cx="276.10400132275134" cy="154.85206193469267" r="2" fill="orange"></circle><circle cx="282.65525793650795" cy="161.7277326383567" r="2" fill="orange"></circle><circle cx="289.2065145502645" cy="181.75686034033419" r="2" fill="orange"></circle><circle cx="295.75777116402116" cy="186.53993561244835" r="2" fill="orange"></circle><circle cx="302.3108465608465" cy="162.02667484286357" r="2" fill="orange"></circle><circle cx="308.8621031746032" cy="204.17752567836882" r="2" fill="orange"></circle><circle cx="315.4133597883598" cy="147.67744902652169" r="2" fill="orange"></circle><circle cx="321.9646164021164" cy="188.93147324850537" r="2" fill="orange"></circle><circle cx="328.515873015873" cy="162.32561704737086" r="2" fill="orange"></circle><circle cx="335.0671296296297" cy="179.6642649087843" r="2" fill="orange"></circle><circle cx="341.6183862433862" cy="178.16955388624874" r="2" fill="orange"></circle><circle cx="348.16964285714283" cy="164.1192702744135" r="2" fill="orange"></circle><circle cx="354.72089947089944" cy="173.9843630231489" r="2" fill="orange"></circle><circle cx="361.2721560846561" cy="176.0769584546988" r="2" fill="orange"></circle><circle cx="367.82523148148147" cy="190.72512647554817" r="2" fill="orange"></circle><circle cx="374.37648809523813" cy="199.99233481526903" r="2" fill="orange"></circle><circle cx="380.92774470899474" cy="197.0029127701979" r="2" fill="orange"></circle><circle cx="387.4808201058201" cy="217.0320404721754" r="2" fill="orange"></circle><circle cx="394.03207671957676" cy="249.91568296795955" r="2" fill="orange"></circle><circle cx="400.5851521164021" cy="212.2489652000614" r="2" fill="orange"></circle><circle cx="407.13822751322755" cy="147.07956461750715" r="2" fill="orange"></circle><circle cx="413.68948412698415" cy="124.6588992794727" r="2" fill="orange"></circle><circle cx="420.2425595238095" cy="88.48689253411017" r="2" fill="orange"></circle><circle cx="426.7938161375662" cy="132.13245439215095" r="2" fill="orange"></circle><circle cx="433.23594576719574" cy="169.7991721600491" r="2" fill="orange"></circle><circle cx="439.78720238095235" cy="137.51341407327902" r="2" fill="orange"></circle><circle cx="446.33845899470896" cy="143.4922581634219" r="2" fill="orange"></circle><circle cx="452.8897156084656" cy="167.40763452399213" r="2" fill="orange"></circle><circle cx="459.44097222222223" cy="190.12724206653382" r="2" fill="orange"></circle><circle cx="465.99222883597884" cy="177.87061168174148" r="2" fill="orange"></circle><circle cx="472.5434854497355" cy="180.26214931779862" r="2" fill="orange"></circle><circle cx="479.09474206349205" cy="158.73831059328543" r="2" fill="orange"></circle><circle cx="485.64599867724866" cy="159.9340794113137" r="2" fill="orange"></circle><circle cx="492.1990740740741" cy="172.78859420512043" r="2" fill="orange"></circle><circle cx="498.7503306878307" cy="169.50022995554204" r="2" fill="orange"></circle><circle cx="505.3015873015873" cy="183.8494557718841" r="2" fill="orange"></circle><circle cx="511.8528439153439" cy="177.57166947723437" r="2" fill="orange"></circle><circle cx="518.4041005291006" cy="288.7781695538864" r="2" fill="orange"></circle><circle cx="524.9553571428572" cy="153.35735091215687" r="2" fill="orange"></circle><circle cx="531.5066137566138" cy="209.55848535949733" r="2" fill="orange"></circle><circle cx="538.0578703703703" cy="243.04001226429548" r="2" fill="orange"></circle><circle cx="544.6109457671957" cy="241.24635903725286" r="2" fill="orange"></circle><circle cx="551.1640211640212" cy="138.11129848229334" r="2" fill="orange"></circle><circle cx="557.7152777777777" cy="166.51080791047065" r="2" fill="orange"></circle><circle cx="564.2665343915345" cy="185.64310899892695" r="2" fill="orange"></circle><circle cx="570.8196097883598" cy="151.86263988962133" r="2" fill="orange"></circle><circle cx="577.3708664021163" cy="144.98696918595746" r="2" fill="orange"></circle><circle cx="583.922123015873" cy="211.95002299555432" r="2" fill="orange"></circle><circle cx="590.4733796296297" cy="132.431396596658" r="2" fill="orange"></circle><circle cx="597.0246362433862" cy="168.3044611375133" r="2" fill="orange"></circle><circle cx="603.5758928571429" cy="188.0346466349839" r="2" fill="orange"></circle><circle cx="610.1271494708994" cy="191.92089529357665" r="2" fill="orange"></circle><circle cx="616.5692791005291" cy="146.18273800398597" r="2" fill="orange"></circle><circle cx="623.1205357142857" cy="208.36271654146864" r="2" fill="orange"></circle><circle cx="629.6717923280423" cy="147.97639123102874" r="2" fill="orange"></circle><circle cx="636.2248677248676" cy="195.20925954315481" r="2" fill="orange"></circle><circle cx="642.7761243386243" cy="159.63513720680683" r="2" fill="orange"></circle><circle cx="649.327380952381" cy="177.27272727272728" r="2" fill="orange"></circle><circle cx="655.8786375661376" cy="179.06638049977016" r="2" fill="orange"></circle><circle cx="662.4298941798942" cy="193.4156063161122" r="2" fill="orange"></circle><circle cx="668.9811507936508" cy="178.1695538862485" r="2" fill="orange"></circle><circle cx="675.5324074074074" cy="175.1801318411776" r="2" fill="orange"></circle><circle cx="682.0836640211639" cy="176.0769584546986" r="2" fill="orange"></circle><circle cx="688.6349206349206" cy="195.8071439521694" r="2" fill="orange"></circle><circle cx="695.187996031746" cy="183.8494557718841" r="2" fill="orange"></circle><circle cx="701.7392526455026" cy="191.32301088456234" r="2" fill="orange"></circle><circle cx="708.2905092592592" cy="200.88916142879046" r="2" fill="orange"></circle><circle cx="714.8435846560847" cy="162.32561704737086" r="2" fill="orange"></circle><circle cx="721.3948412698412" cy="205.6722367009046" r="2" fill="orange"></circle><circle cx="727.946097883598" cy="150.06898666257848" r="2" fill="orange"></circle><circle cx="734.4991732804233" cy="161.7277326383567" r="2" fill="orange"></circle><circle cx="741.0504298941798" cy="153.65629311666416" r="2" fill="orange"></circle><circle cx="747.6016865079364" cy="179.3653227042772" r="2" fill="orange"></circle><circle cx="754.1529431216932" cy="176.37590065920585" r="2" fill="orange"></circle><circle cx="760.7041997354497" cy="192.51877970259082" r="2" fill="orange"></circle><circle cx="767.2554563492064" cy="166.21186570596362" r="2" fill="orange"></circle><circle cx="773.8067129629629" cy="120.17476621186559" r="2" fill="orange"></circle><circle cx="780.3579695767196" cy="169.20128775103495" r="2" fill="orange"></circle><circle cx="786.9092261904761" cy="161.72773263835654" r="2" fill="orange"></circle><circle cx="793.4604828042327" cy="214.64050283611837" r="2" fill="orange"></circle><circle cx="799.9026124338625" cy="163.2224436608923" r="2" fill="orange"></circle><circle cx="806.453869047619" cy="173.08753640962746" r="2" fill="orange"></circle><circle cx="813.0051256613757" cy="166.5108079104707" r="2" fill="orange"></circle><circle cx="819.5563822751323" cy="192.81772190709785" r="2" fill="orange"></circle><circle cx="826.1076388888889" cy="188.03464663498414" r="2" fill="orange"></circle><circle cx="832.6588955026455" cy="203.8785834738615" r="2" fill="orange"></circle><circle cx="839.2119708994709" cy="166.80975011497793" r="2" fill="orange"></circle><circle cx="845.7632275132274" cy="219.72252031273942" r="2" fill="orange"></circle><circle cx="852.3144841269841" cy="262.47125555725904" r="2" fill="orange"></circle><circle cx="858.8675595238095" cy="212.2489652000614" r="2" fill="orange"></circle><circle cx="865.4206349206349" cy="188.333588839491" r="2" fill="orange"></circle><circle cx="871.9718915343915" cy="140.80177832285764" r="2" fill="orange"></circle><circle cx="878.5249669312169" cy="190.42618427104105" r="2" fill="orange"></circle><circle cx="885.0762235449736" cy="109.11390464510197" r="2" fill="orange"></circle><circle cx="891.6274801587301" cy="143.19331595891464" r="2" fill="orange"></circle><circle cx="898.1787367724868" cy="149.17216004905706" r="2" fill="orange"></circle><circle cx="904.7299933862433" cy="172.1907097961063" r="2" fill="orange"></circle><circle cx="911.28125" cy="180.5610915223057" r="2" fill="orange"></circle><circle cx="917.8325066137567" cy="168.3044611375133" r="2" fill="orange"></circle><circle cx="924.3837632275132" cy="177.27272727272728" r="2" fill="orange"></circle><circle cx="930.9350198412699" cy="193.71454852061947" r="2" fill="orange"></circle><circle cx="937.4862764550264" cy="187.73570443047686" r="2" fill="orange"></circle><circle cx="944.0375330687831" cy="140.20389391384327" r="2" fill="orange"></circle><circle cx="950.5887896825396" cy="168.3044611375133" r="2" fill="orange"></circle><circle cx="957.1400462962963" cy="170.99494097807778" r="2" fill="orange"></circle><circle cx="963.691302910053" cy="172.48965200061315" r="2" fill="orange"></circle><circle cx="970.2425595238095" cy="200.59021922428335" r="2" fill="orange"></circle><circle cx="976.7938161375662" cy="198.79656599724055" r="2" fill="orange"></circle><circle cx="983.2359457671957" cy="195.80714395216918" r="2" fill="orange"></circle><circle cx="989.7872023809524" cy="176.6748428637132" r="2" fill="orange"></circle><circle cx="996.338458994709" cy="197.0029127701977" r="2" fill="orange"></circle><circle cx="1002.8897156084655" cy="172.78859420512043" r="2" fill="orange"></circle><circle cx="1009.4409722222223" cy="196.70397056569067" r="2" fill="orange"></circle><circle cx="1015.9940476190476" cy="237.9579947876744" r="2" fill="orange"></circle><circle cx="1022.5453042328041" cy="259.18289130768056" r="2" fill="orange"></circle><circle cx="1029.0965608465608" cy="136.01870305074348" r="2" fill="orange"></circle><circle cx="1035.6496362433863" cy="209.85742756400444" r="2" fill="orange"></circle><circle cx="1042.200892857143" cy="88.48689253411013" r="2" fill="orange"></circle><circle cx="1048.7539682539682" cy="133.62716541468652" r="2" fill="orange"></circle><circle cx="1055.305224867725" cy="169.79917216004907" r="2" fill="orange"></circle><circle cx="1061.8564814814815" cy="192.21983749808376" r="2" fill="orange"></circle><circle cx="1068.407738095238" cy="202.38387245132603" r="2" fill="orange"></circle><circle cx="1074.9589947089946" cy="194.91031733864796" r="2" fill="orange"></circle><circle cx="1081.5102513227512" cy="152.16158209412836" r="2" fill="orange"></circle><circle cx="1088.061507936508" cy="208.06377433696156" r="2" fill="orange"></circle><circle cx="1094.6127645502645" cy="171.891767591599" r="2" fill="orange"></circle></g></g></svg>