<svg width="1200" height="500" xmlns="http://www.w3.org/2000/svg" xmlns:xlink="http://www.w3.org/1999/xlink"><g transform="translate(50,50)"><g transform="translate(0,390)" fill="none" font-size="10" font-family="sans-serif" text-anchor="middle"><path class="domain" stroke="currentColor" d="M0.5,6V0.5H1100.5V6"></path><g class="tick" opacity="1" transform="translate(0.5,0)"><line stroke="currentColor" y2="6"></line><text fill="currentColor" y="9" dy="0.71em" transform="rotate(-90)" style="text-anchor: end;">00:00</text></g><g class="tick" opacity="1" transform="translate(23.416666666666664,0)"><line stroke="currentColor" y2="6"></line><text fill="currentColor" y="9" dy="0.71em" transform="rotate(-90)" style="text-anchor: end;">01:00</text></g><g class="tick" opacity="1" transform="translate(46.33333333333333,0)"><line stroke="currentColor" y2="6"></line><text fill="currentColor" y="9" dy="0.71em" transform="rotate(-90)" style="text-anchor: end;">02:00</text></g><g class="tick" opacity="1" transform="translate(69.25,0)"><line stroke="currentColor" y2="6"></line><text fill="currentColor" y="9" dy="0.71em" transform="rotate(-90)" style="text-anchor: end;">03:00</text></g><g class="tick" opacity="1" transform="translate(92.16666666666666,0)"><line stroke="currentColor" y2="6"></line><text fill="currentColor" y="9" dy="0.71em" transform="rotate(-90)" style="text-anchor: end;">04:00</text></g><g class="tick" opacity="1" transform="translate(115.08333333333334,0)"><line stroke="currentColor" y2="6"></line><text fill="currentColor" y="9" dy="0.71em" transform="rotate(-90)" style="text-anchor: end;">05:00</text></g><g class="tick" opacity="1" transform="translate(138,0)"><line stroke="currentColor" y2="6"></line><text fill="currentColor" y="9" dy="0.71em" transform="rotate(-90)" style="text-anchor: end;">06:00</text></g><g class="tick" opacity="1" transform="translate(160.91666666666669,0)"><line stroke="currentColor" y2="6"></line><text fill="currentColor" y="9" dy="0.71em" transform="rotate(-90)" style="text-anchor: end;">07:00</text></g><g class="tick" opacity="1" transform="translate(183.83333333333331,0)"><line stroke="currentColor" y2="6"></line><text fill="currentColor" y="9" dy="0.71em" transform="rotate(-90)" style="text-anchor: end;">08:00</text></g><g class="tick" opacity="1" transform="translate(206.75,0)"><line stroke="currentColor" y2="6"></line><text fill="currentColor" y="9" dy="0.71em" transform="rotate(-90)" style="text-anchor: end;">09:00</text></g><g class="tick" opacity="1" transform="translate(229.66666666666669,0)"><line stroke="currentColor" y2="6"></line><text fill="currentColor" y="9" dy="0.71em" transform="rotate(-90)" style="text-anchor: end;">10:00</text></g><g class="tick" opacity="1" transform="translate(252.58333333333331,0)"><line stroke="currentColor" y2="6"></line><text fill="currentColor" y="9" dy="0.71em" transform="rotate(-90)" style="text-anchor: end;">11:00</text></g><g class="tick" opacity="1" transform="translate(275.5,0)"><line stroke="currentColor" y2="6"></line><text fill="currentColor" y="9" dy="0.71em" transform="rotate(-90)" style="text-anchor: end;">12:00</text></g><g class="tick" opacity="1" transform="translate(298.41666666666663,0)"><line stroke="currentColor" y2="6"></line><text fill="currentColor" y="9" dy="0.71em" transform="rotate(-90)" style="text-anchor: end;">13:00</text></g><g class="tick" opacity="1" transform="translate(321.33333333333337,0)"><line stroke="currentColor" y2="6"></line><text fill="currentColor" y="9" dy="0.71em" transform="rotate(-90)" style="text-anchor: end;">14:00</text></g><g class="tick" opacity="1" transform="translate(344.25,0)"><line stroke="currentColor" y2="6"></line><text fill="currentColor" y="9" dy="0.71em" transform="rotate(-90)" style="text-anchor: end;">15:00</text></g><g class="tick" opacity="1" transform="translate(367.16666666666663,0)"><line stroke="currentColor" y2="6"></line><text fill="currentColor" y="9" dy="0.71em" transform="rotate(-90)" style="text-anchor: end;">16:00</text></g><g class="tick" opacity="1" transform="translate(390.08333333333337,0)"><line stroke="currentColor" y2="6"></line><text fill="currentColor" y="9" dy="0.71em" transform="rotate(-90)" style="text-anchor: end;">17:00</text></g><g class="tick" opacity="1" transform="translate(413,0)"><line stroke="currentColor" y2="6"></line><text fill="currentColor" y="9" dy="0.71em" transform="rotate(-90)" style="text-anchor: end;">18:00</text></g><g class="tick" opacity="1" transform="translate(435.91666666666663,0)"><line stroke="currentColor" y2="6"></line><text fill="currentColor" y="9" dy="0.71em" transform="rotate(-90)" style="text-anchor: end;">19:00</text></g><g class="tick" opacity="1" transform="translate(458.83333333333337,0)"><line stroke="currentColor" y2="6"></line><text fill="currentColor" y="9" dy="0.71em" transform="rotate(-90)" style="text-anchor: end;">20:00</text></g><g class="tick" opacity="1" transform="translate(481.75,0)"><line stroke="currentColor" y2="6"></line><text fill="currentColor" y="9" dy="0.71em" transform="rotate(-90)" style="text-anchor: end;">21:00</text></g><g class="tick" opacity="1" transform="translate(504.66666666666663,0)"><line stroke="currentColor" y2="6"></line><text fill="currentColor" y="9" dy="0.71em" transform="rotate(-90)" style="text-anchor: end;">22:00</text></g><g class="tick" opacity="1" transform="translate(527.5833333333334,0)"><line stroke="currentColor" y2="6"></line><text fill="currentColor" y="9" dy="0.71em" transform="rotate(-90)" style="text-anchor: end;">23:00</text></g><g class="tick" opacity="1" transform="translate(550.5,0)"><line stroke="currentColor" y2="6"></line><text fill="currentColor" y="9" dy="0.71em" transform="rotate(-90)" style="text-anchor: end;">00:00</text></g><g class="tick" opacity="1" transform="translate(573.4166666666667,0)"><line stroke="currentColor" y2="6"></line><text fill="currentColor" y="9" dy="0.71em" transform="rotate(-90)" style="text-anchor: end;">01:00</text></g><g class="tick" opacity="1" transform="translate(596.3333333333333,0)"><line stroke="currentColor" y2="6"></line><text fill="currentColor" y="9" dy="0.71em" transform="rotate(-90)" style="text-anchor: end;">02:00</text></g><g class="tick" opacity="1" transform="translate(619.25,0)"><line stroke="currentColor" y2="6"></line><text fill="currentColor" y="9" dy="0.71em" transform="rotate(-90)" style="text-anchor: end;">03:00</text></g><g class="tick" opacity="1" transform="translate(642.1666666666667,0)"><line stroke="currentColor" y2="6"></line><text fill="currentColor" y="9" dy="0.71em" transform="rotate(-90)" style="text-anchor: end;">04:00</text></g><g class="tick" opacity="1" transform="translate(665.0833333333333,0)"><line stroke="currentColor" y2="6"></line><text fill="currentColor" y="9" dy="0.71em" transform="rotate(-90)" style="text-anchor: end;">05:00</text></g><g class="tick" opacity="1" transform="translate(688,0)"><line stroke="currentColor" y2="6"></line><text fill="currentColor" y="9" dy="0.71em" transform="rotate(-90)" style="text-anchor: end;">06:00</text></g><g class="tick" opacity="1" transform="translate(710.9166666666667,0)"><line stroke="currentColor" y2="6"></line><text fill="currentColor" y="9" dy="0.71em" transform="rotate(-90)" style="text-anchor: end;">07:00</text></g><g class="tick" opacity="1" transform="translate(733.8333333333333,0)"><line stroke="currentColor" y2="6"></line><text fill="currentColor" y="9" dy="0.71em" transform="rotate(-90)" style="text-anchor: end;">08:00</text></g><g class="tick" opacity="1" transform="translate(756.75,0)"><line stroke="currentColor" y2="6"></line><text fill="currentColor" y="9" dy="0.71em" transform="rotate(-90)" style="text-anchor: end;">09:00</text></g><g class="tick" opacity="1" transform="translate(779.6666666666667,0)"><line stroke="currentColor" y2="6"></line><text fill="currentColor" y="9" dy="0.71em" transform="rotate(-90)" style="text-anchor: end;">10:00</text></g><g class="tick" opacity="1" transform="translate(802.5833333333333,0)"><line stroke="currentColor" y2="6"></line><text fill="currentColor" y="9" dy="0.71em" transform="rotate(-90)" style="text-anchor: end;">11:00</text></g><g class="tick" opacity="1" transform="translate(825.5,0)"><line stroke="currentColor" y2="6"></line><text fill="currentColor" y="9" dy="0.71em" transform="rotate(-90)" style="text-anchor: end;">12:00</text></g><g class="tick" opacity="1" transform="translate(848.4166666666667,0)"><line stroke="currentColor" y2="6"></line><text fill="currentColor" y="9" dy="0.71em" transform="rotate(-90)" style="text-anchor: end;">13:00</text></g><g class="tick" opacity="1" transform="translate(871.3333333333333,0)"><line stroke="currentColor" y2="6"></line><text fill="currentColor" y="9" dy="0.71em" transform="rotate(-90)" style="text-anchor: end;">14:00</text></g><g class="tick" opacity="1" transform="translate(894.25,0)"><line stroke="currentColor" y2="6"></line><text fill="currentColor" y="9" dy="0.71em" transform="rotate(-90)" style="text-anchor: end;">15:00</text></g><g class="tick" opacity="1" transform="translate(917.1666666666667,0)"><line stroke="currentColor" y2="6"></line><text fill="currentColor" y="9" dy="0.71em" transform="rotate(-90)" style="text-anchor: end;">16:00</text></g><g class="tick" opacity="1" transform="translate(940.0833333333333,0)"><line stroke="currentColor" y2="6"></line><text fill="currentColor" y="9" dy="0.71em" transform="rotate(-90)" style="text-anchor: end;">17:00</text></g><g class="tick" opacity="1" transform="translate(963,0)"><line stroke="currentColor" y2="6"></line><text fill="currentColor" y="9" dy="0.71em" transform="rotate(-90)" style="text-anchor: end;">18:00</text></g><g class="tick" opacity="1" transform="translate(985.9166666666667,0)"><line stroke="currentColor" y2="6"></line><text fill="currentColor" y="9" dy="0.71em" transform="rotate(-90)" style="text-anchor: end;">19:00</text></g><g class="tick" opacity="1" transform="translate(1008.8333333333333,0)"><line stroke="currentColor" y2="6"></line><text fill="currentColor" y="9" dy="0.71em" transform="rotate(-90)" style="text-anchor: end;">20:00</text></g><g class="tick" opacity="1" transform="translate(1031.75,0)"><line stroke="currentColor" y2="6"></line><text fill="currentColor" y="9" dy="0.71em" transform="rotate(-90)" style="text-anchor: end;">21:00</text></g><g class="tick" opacity="1" transform="translate(1054.6666666666667,0)"><line stroke="currentColor" y2="6"></line><text fill="currentColor" y="9" dy="0.71em" transform="rotate(-90)" style="text-anchor: end;">22:00</text></g><g class="tick" opacity="1" transform="translate(1077.5833333333333,0)"><line stroke="currentColor" y2="6"></line><text fill="currentColor" y="9" dy="0.71em" transform="rotate(-90)" style="text-anchor: end;">23:00</text></g><g class="tick" opacity="1" transform="translate(1100.5,0)"><line stroke="currentColor" y2="6"></line><text fill="currentColor" y="9" dy="0.71em" transform="rotate(-90)" style="text-anchor: end;">00:00</text></g></g><g fill="none" font-size="10" font-family="sans-serif" text-anchor="end"><path class="domain" stroke="currentColor" d="M-6,390.5H0.5V0.5H-6"></path><g class="tick" opacity="1" transform="translate(0,390.5)"><line stroke="currentColor" x2="-6"></line><text fill="currentColor" x="-9" dy="0.32em">−0.5</text></g><g class="tick" opacity="1" transform="translate(0,360.5)"><line stroke="currentColor" x2="-6"></line><text fill="currentColor" x="-9" dy="0.32em">−0.4</text></g><g class="tick" opacity="1" transform="translate(0,330.5)"><line stroke="currentColor" x2="-6"></line><text fill="currentColor" x="-9" dy="0.32em">−0.3</text></g><g class="tick" opacity="1" transform="translate(0,300.5)"><line stroke="currentColor" x2="-6"></line><text fill="currentColor" x="-9" dy="0.32em">−0.2</text></g><g class="tick" opacity="1" transform="translate(0,270.5)"><line stroke="currentColor" x2="-6"></line><text fill="currentColor" x="-9" dy="0.32em">−0.1</text></g><g class="tick" opacity="1" transform="translate(0,240.5)"><line stroke="currentColor" x2="-6"></line><text fill="currentColor" x="-9" dy="0.32em">0.0</text></g><g class="tick" opacity="1" transform="translate(0,210.50000000000003)"><line stroke="currentColor" x2="-6"></line><text fill="currentColor" x="-9" dy="0.32em">0.1</text></g><g class="tick" opacity="1" transform="translate(0,180.5)"><line stroke="currentColor" x2="-6"></line><text fill="currentColor" x="-9" dy="0.32em">0.2</text></g><g class="tick" opacity="1" transform="translate(0,150.5)"><line stroke="currentColor" x2="-6"></line><text fill="currentColor" x="-9" dy="0.32em">0.3</text></g><g class="tick" opacity="1" transform="translate(0,120.5)"><line stroke="currentColor" x2="-6"></line><text fill="currentColor" x="-9" dy="0.32em">0.4</text></g><g class="tick" opacity="1" transform="translate(0,90.50000000000003)"><line stroke="currentColor" x2="-6"></line><text fill="currentColor" x="-9" dy="0.32em">0.5</text></g><g class="tick" opacity="1" transform="translate(0,60.5)"><line stroke="currentColor" x2="-6"></line><text fill="currentColor" x="-9" dy="0.32em">0.6</text></g><g class="tick" opacity="1" transform="translate(0,30.500000000000025)"><line stroke="currentColor" x2="-6"></line><text fill="currentColor" x="-9" dy="0.32em">0.7</text></g><g class="tick" opacity="1" transform="translate(0,0.5)"><line stroke="currentColor" x2="-6"></line><text fill="currentColor" x="-9" dy="0.32em">0.8</text></g></g><path fill="none" stroke="steelblue" stroke-width="1" d="M26.972,239.996L49.901,240.004L72.83,240L95.76,240L118.689,240L141.619,239.996L164.548,239.794L187.477,212.335L210.407,111.38L233.343,238.161L256.272,163.508L278.826,237.675L301.755,245.562L324.691,321.854L347.62,282.088L370.556,339.46L393.486,248.188L416.415,240L439.344,239.996L462.274,240.004L485.203,239.996L508.133,240.004L531.062,240L553.991,240L576.921,240L599.85,239.996L622.78,240.004L645.709,239.996L668.638,240.004L691.568,240L714.497,239.819L737.427,210.012L760.362,133.09L783.292,221.035L806.227,171.468L829.157,234.778L852.093,169.799L875.022,373.432L897.576,366.794L920.505,276.948L943.435,242.82L966.364,240.006L989.293,240L1012.223,240L1035.152,240L1058.088,240L1081.017,240"></path><g><circle cx="26.97164351851852" cy="239.9956984574643" r="2" fill="steelblue"></circle><circle cx="49.901041666666664" cy="240.0043015425357" r="2" fill="steelblue"></circle><circle cx="72.83043981481481" cy="240" r="2" fill="steelblue"></circle><circle cx="95.75983796296296" cy="240" r="2" fill="steelblue"></circle><circle cx="118.68923611111111" cy="240" r="2" fill="steelblue"></circle><circle cx="141.61863425925924" cy="239.9956984574643" r="2" fill="steelblue"></circle><circle cx="164.5480324074074" cy="239.7935261916452" r="2" fill="steelblue"></circle><circle cx="187.47743055555554" cy="212.33466091844127" r="2" fill="steelblue"></circle><circle cx="210.4068287037037" cy="111.37971506848461" r="2" fill="steelblue"></circle><circle cx="233.3425925925926" cy="238.16110293398816" r="2" fill="steelblue"></circle><circle cx="256.27199074074076" cy="163.50789430039063" r="2" fill="steelblue"></circle><circle cx="278.8258101851852" cy="237.67501733290712" r="2" fill="steelblue"></circle><circle cx="301.75520833333337" cy="245.561883390789" r="2" fill="steelblue"></circle><circle cx="324.69097222222223" cy="321.8539682492507" r="2" fill="steelblue"></circle><circle cx="347.6203703703704" cy="282.08839500866003" r="2" fill="steelblue"></circle><circle cx="370.55613425925924" cy="339.4601609389241" r="2" fill="steelblue"></circle><circle cx="393.4855324074074" cy="248.18797720905496" r="2" fill="steelblue"></circle><circle cx="416.41493055555554" cy="240" r="2" fill="steelblue"></circle><circle cx="439.3443287037037" cy="239.9956984574643" r="2" fill="steelblue"></circle><circle cx="462.27372685185185" cy="240.0043015425357" r="2" fill="steelblue"></circle><circle cx="485.203125" cy="239.9956984574643" r="2" fill="steelblue"></circle><circle cx="508.13252314814815" cy="240.0043015425357" r="2" fill="steelblue"></circle><circle cx="531.0619212962963" cy="240" r="2" fill="steelblue"></circle><circle cx="553.9913194444443" cy="240" r="2" fill="steelblue"></circle><circle cx="576.9207175925925" cy="240" r="2" fill="steelblue"></circle><circle cx="599.8501157407406" cy="239.9956984574643" r="2" fill="steelblue"></circle><circle cx="622.7795138888888" cy="240.0043015425357" r="2" fill="steelblue"></circle><circle cx="645.708912037037" cy="239.9956984574643" r="2" fill="steelblue"></circle><circle cx="668.6383101851851" cy="240.0043015425357" r="2" fill="steelblue"></circle><circle cx="691.5677083333333" cy="240" r="2" fill="steelblue"></circle><circle cx="714.4971064814814" cy="239.81933540018767" r="2" fill="steelblue"></circle><circle cx="737.4265046296296" cy="210.01182836921265" r="2" fill="steelblue"></circle><circle cx="760.3622685185185" cy="133.08958008395533" r="2" fill="steelblue"></circle><circle cx="783.2916666666666" cy="221.03451268160833" r="2" fill="steelblue"></circle><circle cx="806.2274305555557" cy="171.46790422327624" r="2" fill="steelblue"></circle><circle cx="829.1568287037038" cy="234.77792848179004" r="2" fill="steelblue"></circle><circle cx="852.0925925925926" cy="169.7989107599697" r="2" fill="steelblue"></circle><circle cx="875.0219907407408" cy="373.43156161116605" r="2" fill="steelblue"></circle><circle cx="897.5758101851851" cy="366.7942692506114" r="2" fill="steelblue"></circle><circle cx="920.5052083333333" cy="276.94805891261905" r="2" fill="steelblue"></circle><circle cx="943.4346064814814" cy="242.81965791179996" r="2" fill="steelblue"></circle><circle cx="966.3640046296296" cy="240.00645231380355" r="2" fill="steelblue"></circle><circle cx="989.2934027777777" cy="240" r="2" fill="steelblue"></circle><circle cx="1012.2228009259259" cy="240" r="2" fill="steelblue"></circle><circle cx="1035.1521990740741" cy="240" r="2" fill="steelblue"></circle><circle cx="1058.0879629629628" cy="240" r="2" fill="steelblue"></circle><circle cx="1081.017361111111" cy="240" r="2" fill="steelblue"></circle></g><path fill="none" stroke="orange" stroke-width="1" d="M26.736,240L49.653,240L72.569,240L95.486,240L118.403,240L141.319,240L164.236,240L187.153,207.171L210.069,163.022L232.986,168.682L255.903,337.355L278.819,258.113L301.736,225.284L324.653,290.941L347.569,242.264L370.486,267.169L393.403,240L416.319,240L439.236,240L462.153,240L485.069,240L507.986,240L530.903,240L553.819,240L576.736,240L599.653,240L622.569,240L645.486,240L668.403,240L691.319,240L714.236,240L737.153,235.472L760.069,141.513L782.986,240L805.903,259.245L828.819,23.77L851.736,360.007L874.653,358.863L897.569,284.149L920.486,256.98L943.403,240L966.319,240L989.236,240L1012.153,240L1035.069,240L1057.986,240L1080.903,240"></path><g><circle cx="26.73611111111111" cy="240" r="2" fill="orange"></circle><circle cx="49.65277777777778" cy="240" r="2" fill="orange"></circle><circle cx="72.56944444444444" cy="240" r="2" fill="orange"></circle><circle cx="95.48611111111111" cy="240" r="2" fill="orange"></circle><circle cx="118.40277777777779" cy="240" r="2" fill="orange"></circle><circle cx="141.31944444444443" cy="240" r="2" fill="orange"></circle><circle cx="164.23611111111111" cy="240" r="2" fill="orange"></circle><circle cx="187.15277777777777" cy="207.17105014905098" r="2" fill="orange"></circle><circle cx="210.06944444444443" cy="163.02177276329198" r="2" fill="orange"></circle><circle cx="232.98611111111111" cy="168.68193653069693" r="2" fill="orange"></circle><circle cx="255.90277777777777" cy="337.35481679936606" r="2" fill="orange"></circle><circle cx="278.81944444444446" cy="258.112524055696" r="2" fill="orange"></circle><circle cx="301.73611111111114" cy="225.28357420474697" r="2" fill="orange"></circle><circle cx="324.65277777777777" cy="290.94147390664506" r="2" fill="orange"></circle><circle cx="347.56944444444446" cy="242.26406550696203" r="2" fill="orange"></circle><circle cx="370.48611111111114" cy="267.168786083544" r="2" fill="orange"></circle><circle cx="393.40277777777777" cy="240" r="2" fill="orange"></circle><circle cx="416.31944444444446" cy="240" r="2" fill="orange"></circle><circle cx="439.23611111111114" cy="240" r="2" fill="orange"></circle><circle cx="462.15277777777777" cy="240" r="2" fill="orange"></circle><circle cx="485.06944444444446" cy="240" r="2" fill="orange"></circle><circle cx="507.98611111111114" cy="240" r="2" fill="orange"></circle><circle cx="530.9027777777778" cy="240" r="2" fill="orange"></circle><circle cx="553.8194444444445" cy="240" r="2" fill="orange"></circle><circle cx="576.7361111111111" cy="240" r="2" fill="orange"></circle><circle cx="599.6527777777777" cy="240" r="2" fill="orange"></circle><circle cx="622.5694444444445" cy="240" r="2" fill="orange"></circle><circle cx="645.4861111111111" cy="240" r="2" fill="orange"></circle><circle cx="668.4027777777777" cy="240" r="2" fill="orange"></circle><circle cx="691.3194444444445" cy="240" r="2" fill="orange"></circle><circle cx="714.2361111111111" cy="240" r="2" fill="orange"></circle><circle cx="737.1527777777777" cy="235.471868986076" r="2" fill="orange"></circle><circle cx="760.0694444444445" cy="141.51315044715295" r="2" fill="orange"></circle><circle cx="782.9861111111111" cy="240" r="2" fill="orange"></circle><circle cx="805.9027777777777" cy="259.2445568091771" r="2" fill="orange"></circle><circle cx="828.8194444444445" cy="23.77042375759406" r="2" fill="orange"></circle><circle cx="851.7361111111111" cy="360.0067921965209" r="2" fill="orange"></circle><circle cx="874.6527777777777" cy="358.86343911550506" r="2" fill="orange"></circle><circle cx="897.5694444444445" cy="284.14927738575904" r="2" fill="orange"></circle><circle cx="920.4861111111111" cy="256.980491302215" r="2" fill="orange"></circle><circle cx="943.4027777777777" cy="240" r="2" fill="orange"></circle><circle cx="966.3194444444445" cy="240" r="2" fill="orange"></circle><circle cx="989.2361111111111" cy="240" r="2" fill="orange"></circle><circle cx="1012.1527777777777" cy="240" r="2" fill="orange"></circle><circle cx="1035.0694444444443" cy="240" r="2" fill="orange"></circle><circle cx="1057.986111111111" cy="240" r="2" fill="orange"></circle><circle cx="1080.9027777777778" cy="240" r="2" fill="orange"></circle></g></g></svg>