<svg width="1200" height="500" xmlns="http://www.w3.org/2000/svg" xmlns:xlink="http://www.w3.org/1999/xlink"><g transform="translate(50,50)"><g transform="translate(0,390)" fill="none" font-size="10" font-family="sans-serif" text-anchor="middle"><path class="domain" stroke="currentColor" d="M0.5,6V0.5H1100.5V6"></path><g class="tick" opacity="1" transform="translate(0.5,0)"><line stroke="currentColor" y2="6"></line><text fill="currentColor" y="9" dy="0.71em" transform="rotate(-90)" style="text-anchor: end;">00:00</text></g><g class="tick" opacity="1" transform="translate(31.055555555555554,0)"><line stroke="currentColor" y2="6"></line><text fill="currentColor" y="9" dy="0.71em" transform="rotate(-90)" style="text-anchor: end;">02:00</text></g><g class="tick" opacity="1" transform="translate(61.61111111111111,0)"><line stroke="currentColor" y2="6"></line><text fill="currentColor" y="9" dy="0.71em" transform="rotate(-90)" style="text-anchor: end;">04:00</text></g><g class="tick" opacity="1" transform="translate(92.16666666666666,0)"><line stroke="currentColor" y2="6"></line><text fill="currentColor" y="9" dy="0.71em" transform="rotate(-90)" style="text-anchor: end;">06:00</text></g><g class="tick" opacity="1" transform="translate(122.72222222222221,0)"><line stroke="currentColor" y2="6"></line><text fill="currentColor" y="9" dy="0.71em" transform="rotate(-90)" style="text-anchor: end;">08:00</text></g><g class="tick" opacity="1" transform="translate(153.27777777777777,0)"><line stroke="currentColor" y2="6"></line><text fill="currentColor" y="9" dy="0.71em" transform="rotate(-90)" style="text-anchor: end;">10:00</text></g><g class="tick" opacity="1" transform="translate(183.83333333333331,0)"><line stroke="currentColor" y2="6"></line><text fill="currentColor" y="9" dy="0.71em" transform="rotate(-90)" style="text-anchor: end;">12:00</text></g><g class="tick" opacity="1" transform="translate(214.38888888888889,0)"><line stroke="currentColor" y2="6"></line><text fill="currentColor" y="9" dy="0.71em" transform="rotate(-90)" style="text-anchor: end;">14:00</text></g><g class="tick" opacity="1" transform="translate(244.94444444444443,0)"><line stroke="currentColor" y2="6"></line><text fill="currentColor" y="9" dy="0.71em" transform="rotate(-90)" style="text-anchor: end;">16:00</text></g><g class="tick" opacity="1" transform="translate(275.5,0)"><line stroke="currentColor" y2="6"></line><text fill="currentColor" y="9" dy="0.71em" transform="rotate(-90)" style="text-anchor: end;">18:00</text></g><g class="tick" opacity="1" transform="translate(306.05555555555554,0)"><line stroke="currentColor" y2="6"></line><text fill="currentColor" y="9" dy="0.71em" transform="rotate(-90)" style="text-anchor: end;">20:00</text></g><g class="tick" opacity="1" transform="translate(336.61111111111114,0)"><line stroke="currentColor" y2="6"></line><text fill="currentColor" y="9" dy="0.71em" transform="rotate(-90)" style="text-anchor: end;">22:00</text></g><g class="tick" opacity="1" transform="translate(367.16666666666663,0)"><line stroke="currentColor" y2="6"></line><text fill="currentColor" y="9" dy="0.71em" transform="rotate(-90)" style="text-anchor: end;">00:00</text></g><g class="tick" opacity="1" transform="translate(397.72222222222223,0)"><line stroke="currentColor" y2="6"></line><text fill="currentColor" y="9" dy="0.71em" transform="rotate(-90)" style="text-anchor: end;">02:00</text></g><g class="tick" opacity="1" transform="translate(428.27777777777777,0)"><line stroke="currentColor" y2="6"></line><text fill="currentColor" y="9" dy="0.71em" transform="rotate(-90)" style="text-anchor: end;">04:00</text></g><g class="tick" opacity="1" transform="translate(458.83333333333337,0)"><line stroke="currentColor" y2="6"></line><text fill="currentColor" y="9" dy="0.71em" transform="rotate(-90)" style="text-anchor: end;">06:00</text></g><g class="tick" opacity="1" transform="translate(489.38888888888886,0)"><line stroke="currentColor" y2="6"></line><text fill="currentColor" y="9" dy="0.71em" transform="rotate(-90)" style="text-anchor: end;">08:00</text></g><g class="tick" opacity="1" transform="translate(519.9444444444445,0)"><line stroke="currentColor" y2="6"></line><text fill="currentColor" y="9" dy="0.71em" transform="rotate(-90)" style="text-anchor: end;">10:00</text></g><g class="tick" opacity="1" transform="translate(550.5,0)"><line stroke="currentColor" y2="6"></line><text fill="currentColor" y="9" dy="0.71em" transform="rotate(-90)" style="text-anchor: end;">12:00</text></g><g class="tick" opacity="1" transform="translate(581.0555555555555,0)"><line stroke="currentColor" y2="6"></line><text fill="currentColor" y="9" dy="0.71em" transform="rotate(-90)" style="text-anchor: end;">14:00</text></g><g class="tick" opacity="1" transform="translate(611.6111111111111,0)"><line stroke="currentColor" y2="6"></line><text fill="currentColor" y="9" dy="0.71em" transform="rotate(-90)" style="text-anchor: end;">16:00</text></g><g class="tick" opacity="1" transform="translate(642.1666666666667,0)"><line stroke="currentColor" y2="6"></line><text fill="currentColor" y="9" dy="0.71em" transform="rotate(-90)" style="text-anchor: end;">18:00</text></g><g class="tick" opacity="1" transform="translate(672.7222222222223,0)"><line stroke="currentColor" y2="6"></line><text fill="currentColor" y="9" dy="0.71em" transform="rotate(-90)" style="text-anchor: end;">20:00</text></g><g class="tick" opacity="1" transform="translate(703.2777777777777,0)"><line stroke="currentColor" y2="6"></line><text fill="currentColor" y="9" dy="0.71em" transform="rotate(-90)" style="text-anchor: end;">22:00</text></g><g class="tick" opacity="1" transform="translate(733.8333333333333,0)"><line stroke="currentColor" y2="6"></line><text fill="currentColor" y="9" dy="0.71em" transform="rotate(-90)" style="text-anchor: end;">00:00</text></g><g class="tick" opacity="1" transform="translate(764.3888888888889,0)"><line stroke="currentColor" y2="6"></line><text fill="currentColor" y="9" dy="0.71em" transform="rotate(-90)" style="text-anchor: end;">02:00</text></g><g class="tick" opacity="1" transform="translate(794.9444444444445,0)"><line stroke="currentColor" y2="6"></line><text fill="currentColor" y="9" dy="0.71em" transform="rotate(-90)" style="text-anchor: end;">04:00</text></g><g class="tick" opacity="1" transform="translate(825.5,0)"><line stroke="currentColor" y2="6"></line><text fill="currentColor" y="9" dy="0.71em" transform="rotate(-90)" style="text-anchor: end;">06:00</text></g><g class="tick" opacity="1" transform="translate(856.0555555555555,0)"><line stroke="currentColor" y2="6"></line><text fill="currentColor" y="9" dy="0.71em" transform="rotate(-90)" style="text-anchor: end;">08:00</text></g><g class="tick" opacity="1" transform="translate(886.6111111111111,0)"><line stroke="currentColor" y2="6"></line><text fill="currentColor" y="9" dy="0.71em" transform="rotate(-90)" style="text-anchor: end;">10:00</text></g><g class="tick" opacity="1" transform="translate(917.1666666666667,0)"><line stroke="currentColor" y2="6"></line><text fill="currentColor" y="9" dy="0.71em" transform="rotate(-90)" style="text-anchor: end;">12:00</text></g><g class="tick" opacity="1" transform="translate(947.7222222222223,0)"><line stroke="currentColor" y2="6"></line><text fill="currentColor" y="9" dy="0.71em" transform="rotate(-90)" style="text-anchor: end;">14:00</text></g><g class="tick" opacity="1" transform="translate(978.2777777777777,0)"><line stroke="currentColor" y2="6"></line><text fill="currentColor" y="9" dy="0.71em" transform="rotate(-90)" style="text-anchor: end;">16:00</text></g><g class="tick" opacity="1" transform="translate(1008.8333333333333,0)"><line stroke="currentColor" y2="6"></line><text fill="currentColor" y="9" dy="0.71em" transform="rotate(-90)" style="text-anchor: end;">18:00</text></g><g class="tick" opacity="1" transform="translate(1039.388888888889,0)"><line stroke="currentColor" y2="6"></line><text fill="currentColor" y="9" dy="0.71em" transform="rotate(-90)" style="text-anchor: end;">20:00</text></g><g class="tick" opacity="1" transform="translate(1069.9444444444443,0)"><line stroke="currentColor" y2="6"></line><text fill="currentColor" y="9" dy="0.71em" transform="rotate(-90)" style="text-anchor: end;">22:00</text></g><g class="tick" opacity="1" transform="translate(1100.5,0)"><line stroke="currentColor" y2="6"></line><text fill="currentColor" y="9" dy="0.71em" transform="rotate(-90)" style="text-anchor: end;">00:00</text></g></g><g fill="none" font-size="10" font-family="sans-serif" text-anchor="end"><path class="domain" stroke="currentColor" d="M-6,390.5H0.5V0.5H-6"></path><g class="tick" opacity="1" transform="translate(0,390.5)"><line stroke="currentColor" x2="-6"></line><text fill="currentColor" x="-9" dy="0.32em">0.0</text></g><g class="tick" opacity="1" transform="translate(0,351.5)"><line stroke="currentColor" x2="-6"></line><text fill="currentColor" x="-9" dy="0.32em">0.1</text></g><g class="tick" opacity="1" transform="translate(0,312.5)"><line stroke="currentColor" x2="-6"></line><text fill="currentColor" x="-9" dy="0.32em">0.2</text></g><g class="tick" opacity="1" transform="translate(0,273.5)"><line stroke="currentColor" x2="-6"></line><text fill="currentColor" x="-9" dy="0.32em">0.3</text></g><g class="tick" opacity="1" transform="translate(0,234.5)"><line stroke="currentColor" x2="-6"></line><text fill="currentColor" x="-9" dy="0.32em">0.4</text></g><g class="tick" opacity="1" transform="translate(0,195.5)"><line stroke="currentColor" x2="-6"></line><text fill="currentColor" x="-9" dy="0.32em">0.5</text></g><g class="tick" opacity="1" transform="translate(0,156.5)"><line stroke="currentColor" x2="-6"></line><text fill="currentColor" x="-9" dy="0.32em">0.6</text></g><g class="tick" opacity="1" transform="translate(0,117.50000000000001)"><line stroke="currentColor" x2="-6"></line><text fill="currentColor" x="-9" dy="0.32em">0.7</text></g><g class="tick" opacity="1" transform="translate(0,78.49999999999999)"><line stroke="currentColor" x2="-6"></line><text fill="currentColor" x="-9" dy="0.32em">0.8</text></g><g class="tick" opacity="1" transform="translate(0,39.49999999999999)"><line stroke="currentColor" x2="-6"></line><text fill="currentColor" x="-9" dy="0.32em">0.9</text></g><g class="tick" opacity="1" transform="translate(0,0.5)"><line stroke="currentColor" x2="-6"></line><text fill="currentColor" x="-9" dy="0.32em">1.0</text></g></g><path fill="none" stroke="steelblue" stroke-width="1" d="M2.546,228.08L17.824,218.504L33.102,217.634L48.38,213.281L63.657,205.446L78.935,209.799L94.213,210.67L109.491,204.576L124.769,197.612L140.046,204.576L155.324,168.013L170.602,123.616L185.88,87.054L201.157,66.161L216.435,53.973L231.713,79.219L246.991,124.487L262.269,145.379L277.546,186.295L292.824,214.152L308.102,206.317L323.38,183.683L338.657,152.344L353.935,161.049L369.213,174.978L384.491,197.612L399.769,208.929L415.046,220.246L430.324,238.527L445.602,242.009L460.88,247.232L476.157,238.527L491.435,225.469L506.713,168.884L521.991,127.098L537.269,105.335L552.546,102.723L567.824,111.429L583.102,114.911L598.38,122.746L613.657,127.969L628.935,131.451L644.213,132.321L659.491,131.451L674.769,130.58L690.046,114.04L705.324,111.429L720.602,112.299L735.88,117.522L751.157,121.875L766.435,134.063L781.713,141.897L796.991,149.732L812.269,156.696L827.546,160.179L842.824,170.625L858.102,179.33L873.38,145.379L888.657,117.522L903.935,77.478L919.213,44.397L934.491,13.058L949.769,0L965.046,20.022L980.324,60.067L995.602,115.781L1010.88,153.214L1026.157,212.411L1041.435,273.348L1056.713,321.228L1071.991,349.085L1087.269,390"></path><g><circle cx="2.5462962962962963" cy="228.08035714285717" r="2" fill="steelblue"></circle><circle cx="17.824074074074073" cy="218.5044642857143" r="2" fill="steelblue"></circle><circle cx="33.10185185185185" cy="217.63392857142853" r="2" fill="steelblue"></circle><circle cx="48.37962962962963" cy="213.28125" r="2" fill="steelblue"></circle><circle cx="63.657407407407405" cy="205.44642857142858" r="2" fill="steelblue"></circle><circle cx="78.93518518518519" cy="209.79910714285717" r="2" fill="steelblue"></circle><circle cx="94.21296296296298" cy="210.66964285714292" r="2" fill="steelblue"></circle><circle cx="109.49074074074073" cy="204.5758928571429" r="2" fill="steelblue"></circle><circle cx="124.76851851851852" cy="197.61160714285717" r="2" fill="steelblue"></circle><circle cx="140.0462962962963" cy="204.5758928571429" r="2" fill="steelblue"></circle><circle cx="155.32407407407405" cy="168.0133928571429" r="2" fill="steelblue"></circle><circle cx="170.60185185185185" cy="123.61607142857152" r="2" fill="steelblue"></circle><circle cx="185.87962962962962" cy="87.05357142857142" r="2" fill="steelblue"></circle><circle cx="201.15740740740742" cy="66.16071428571435" r="2" fill="steelblue"></circle><circle cx="216.4351851851852" cy="53.97321428571431" r="2" fill="steelblue"></circle><circle cx="231.71296296296296" cy="79.21875" r="2" fill="steelblue"></circle><circle cx="246.99074074074073" cy="124.4866071428572" r="2" fill="steelblue"></circle><circle cx="262.26851851851853" cy="145.37946428571436" r="2" fill="steelblue"></circle><circle cx="277.5462962962963" cy="186.2946428571429" r="2" fill="steelblue"></circle><circle cx="292.8240740740741" cy="214.15178571428578" r="2" fill="steelblue"></circle><circle cx="308.1018518518519" cy="206.31696428571428" r="2" fill="steelblue"></circle><circle cx="323.3796296296296" cy="183.68303571428572" r="2" fill="steelblue"></circle><circle cx="338.6574074074074" cy="152.34375" r="2" fill="steelblue"></circle><circle cx="353.93518518518516" cy="161.04910714285717" r="2" fill="steelblue"></circle><circle cx="369.21296296296293" cy="174.9776785714286" r="2" fill="steelblue"></circle><circle cx="384.49074074074076" cy="197.61160714285717" r="2" fill="steelblue"></circle><circle cx="399.76851851851853" cy="208.92857142857147" r="2" fill="steelblue"></circle><circle cx="415.0462962962963" cy="220.2455357142857" r="2" fill="steelblue"></circle><circle cx="430.3240740740741" cy="238.5267857142857" r="2" fill="steelblue"></circle><circle cx="445.6018518518519" cy="242.00892857142858" r="2" fill="steelblue"></circle><circle cx="460.8796296296296" cy="247.2321428571429" r="2" fill="steelblue"></circle><circle cx="476.1574074074074" cy="238.5267857142857" r="2" fill="steelblue"></circle><circle cx="491.43518518518516" cy="225.46875000000006" r="2" fill="steelblue"></circle><circle cx="506.71296296296293" cy="168.88392857142858" r="2" fill="steelblue"></circle><circle cx="521.9907407407408" cy="127.09821428571435" r="2" fill="steelblue"></circle><circle cx="537.2685185185185" cy="105.33482142857152" r="2" fill="steelblue"></circle><circle cx="552.5462962962962" cy="102.7232142857143" r="2" fill="steelblue"></circle><circle cx="567.8240740740741" cy="111.42857142857142" r="2" fill="steelblue"></circle><circle cx="583.1018518518518" cy="114.9107142857143" r="2" fill="steelblue"></circle><circle cx="598.3796296296297" cy="122.74553571428574" r="2" fill="steelblue"></circle><circle cx="613.6574074074074" cy="127.96875000000004" r="2" fill="steelblue"></circle><circle cx="628.9351851851852" cy="131.4508928571429" r="2" fill="steelblue"></circle><circle cx="644.2129629629629" cy="132.32142857142858" r="2" fill="steelblue"></circle><circle cx="659.4907407407408" cy="131.4508928571429" r="2" fill="steelblue"></circle><circle cx="674.7685185185185" cy="130.5803571428571" r="2" fill="steelblue"></circle><circle cx="690.0462962962962" cy="114.04017857142863" r="2" fill="steelblue"></circle><circle cx="705.3240740740741" cy="111.42857142857142" r="2" fill="steelblue"></circle><circle cx="720.6018518518518" cy="112.29910714285715" r="2" fill="steelblue"></circle><circle cx="735.8796296296297" cy="117.52232142857146" r="2" fill="steelblue"></circle><circle cx="751.1574074074074" cy="121.875" r="2" fill="steelblue"></circle><circle cx="766.4351851851852" cy="134.0625" r="2" fill="steelblue"></circle><circle cx="781.7129629629629" cy="141.89732142857147" r="2" fill="steelblue"></circle><circle cx="796.9907407407408" cy="149.7321428571429" r="2" fill="steelblue"></circle><circle cx="812.2685185185185" cy="156.6964285714286" r="2" fill="steelblue"></circle><circle cx="827.5462962962962" cy="160.17857142857147" r="2" fill="steelblue"></circle><circle cx="842.8240740740741" cy="170.62500000000006" r="2" fill="steelblue"></circle><circle cx="858.1018518518518" cy="179.33035714285717" r="2" fill="steelblue"></circle><circle cx="873.3796296296297" cy="145.37946428571436" r="2" fill="steelblue"></circle><circle cx="888.6574074074074" cy="117.52232142857146" r="2" fill="steelblue"></circle><circle cx="903.9351851851852" cy="77.47767857142863" r="2" fill="steelblue"></circle><circle cx="919.2129629629629" cy="44.397321428571466" r="2" fill="steelblue"></circle><circle cx="934.4907407407408" cy="13.058035714285733" r="2" fill="steelblue"></circle><circle cx="949.7685185185185" cy="0" r="2" fill="steelblue"></circle><circle cx="965.0462962962962" cy="20.022321428571466" r="2" fill="steelblue"></circle><circle cx="980.3240740740741" cy="60.06696428571431" r="2" fill="steelblue"></circle><circle cx="995.6018518518518" cy="115.78125" r="2" fill="steelblue"></circle><circle cx="1010.8796296296297" cy="153.21428571428578" r="2" fill="steelblue"></circle><circle cx="1026.1574074074074" cy="212.4107142857143" r="2" fill="steelblue"></circle><circle cx="1041.4351851851852" cy="273.34821428571433" r="2" fill="steelblue"></circle><circle cx="1056.712962962963" cy="321.22767857142856" r="2" fill="steelblue"></circle><circle cx="1071.9907407407409" cy="349.08482142857144" r="2" fill="steelblue"></circle><circle cx="1087.2685185185185" cy="390" r="2" fill="steelblue"></circle></g><path fill="none" stroke="orange" stroke-width="1" d="M2.546,390L17.824,390L33.102,390L48.38,390L63.657,390L78.935,390L94.213,390L109.491,390L124.769,347.322L140.046,247.251L155.324,154.537L170.602,281.098L185.88,304.645L201.157,285.513L216.435,351.737L231.713,354.681L246.991,390L262.269,390L277.546,390L292.824,390L308.102,390L323.38,390L338.657,390L353.935,390L369.213,390L384.491,390L399.769,390L415.046,390L430.324,390L445.602,390L460.88,390L476.157,390L491.435,384.113L506.713,256.081L521.991,256.081L537.269,281.098L552.546,0L567.824,156.009L583.102,310.531L598.38,367.925L613.657,390L628.935,390L644.213,390L659.491,390L674.769,390L690.046,390L705.324,390L720.602,390L735.88,390L751.157,390L766.435,390L781.713,390L796.991,390L812.269,390L827.546,390L842.824,390L858.102,373.812L873.38,301.701L888.657,288.457L903.935,304.645L919.213,266.382L934.491,275.212L949.769,313.475L965.046,363.51L980.324,390L995.602,390L1010.88,390L1026.157,390L1041.435,390L1056.713,390L1071.991,390L1087.269,390"></path><g><circle cx="2.5462962962962963" cy="390" r="2" fill="orange"></circle><circle cx="17.824074074074073" cy="390" r="2" fill="orange"></circle><circle cx="33.10185185185185" cy="390" r="2" fill="orange"></circle><circle cx="48.37962962962963" cy="390" r="2" fill="orange"></circle><circle cx="63.657407407407405" cy="390" r="2" fill="orange"></circle><circle cx="78.93518518518519" cy="390" r="2" fill="orange"></circle><circle cx="94.21296296296298" cy="390" r="2" fill="orange"></circle><circle cx="109.49074074074073" cy="390" r="2" fill="orange"></circle><circle cx="124.76851851851852" cy="347.32236519376625" r="2" fill="orange"></circle><circle cx="140.0462962962963" cy="247.2506697860458" r="2" fill="orange"></circle><circle cx="155.32407407407405" cy="154.53718727595185" r="2" fill="orange"></circle><circle cx="170.60185185185185" cy="281.0984491151277" r="2" fill="orange"></circle><circle cx="185.87962962962962" cy="304.64473038753255" r="2" fill="orange"></circle><circle cx="201.15740740740742" cy="285.5133768537036" r="2" fill="orange"></circle><circle cx="216.4351851851852" cy="351.7372929323422" r="2" fill="orange"></circle><circle cx="231.71296296296296" cy="354.68057809139276" r="2" fill="orange"></circle><circle cx="246.99074074074073" cy="390" r="2" fill="orange"></circle><circle cx="262.26851851851853" cy="390" r="2" fill="orange"></circle><circle cx="277.5462962962963" cy="390" r="2" fill="orange"></circle><circle cx="292.8240740740741" cy="390" r="2" fill="orange"></circle><circle cx="308.1018518518519" cy="390" r="2" fill="orange"></circle><circle cx="323.3796296296296" cy="390" r="2" fill="orange"></circle><circle cx="338.6574074074074" cy="390" r="2" fill="orange"></circle><circle cx="353.93518518518516" cy="390" r="2" fill="orange"></circle><circle cx="369.21296296296293" cy="390" r="2" fill="orange"></circle><circle cx="384.49074074074076" cy="390" r="2" fill="orange"></circle><circle cx="399.76851851851853" cy="390" r="2" fill="orange"></circle><circle cx="415.0462962962963" cy="390" r="2" fill="orange"></circle><circle cx="430.3240740740741" cy="390" r="2" fill="orange"></circle><circle cx="445.6018518518519" cy="390" r="2" fill="orange"></circle><circle cx="460.8796296296296" cy="390" r="2" fill="orange"></circle><circle cx="476.1574074074074" cy="390" r="2" fill="orange"></circle><circle cx="491.43518518518516" cy="384.1134296818988" r="2" fill="orange"></circle><circle cx="506.71296296296293" cy="256.0805252631976" r="2" fill="orange"></circle><circle cx="521.9907407407408" cy="256.0805252631976" r="2" fill="orange"></circle><circle cx="537.2685185185185" cy="281.0984491151277" r="2" fill="orange"></circle><circle cx="552.5462962962962" cy="0" r="2" fill="orange"></circle><circle cx="567.8240740740741" cy="156.00882985547716" r="2" fill="orange"></circle><circle cx="583.1018518518518" cy="310.5313007056338" r="2" fill="orange"></circle><circle cx="598.3796296296297" cy="367.9253613071205" r="2" fill="orange"></circle><circle cx="613.6574074074074" cy="390" r="2" fill="orange"></circle><circle cx="628.9351851851852" cy="390" r="2" fill="orange"></circle><circle cx="644.2129629629629" cy="390" r="2" fill="orange"></circle><circle cx="659.4907407407408" cy="390" r="2" fill="orange"></circle><circle cx="674.7685185185185" cy="390" r="2" fill="orange"></circle><circle cx="690.0462962962962" cy="390" r="2" fill="orange"></circle><circle cx="705.3240740740741" cy="390" r="2" fill="orange"></circle><circle cx="720.6018518518518" cy="390" r="2" fill="orange"></circle><circle cx="735.8796296296297" cy="390" r="2" fill="orange"></circle><circle cx="751.1574074074074" cy="390" r="2" fill="orange"></circle><circle cx="766.4351851851852" cy="390" r="2" fill="orange"></circle><circle cx="781.7129629629629" cy="390" r="2" fill="orange"></circle><circle cx="796.9907407407408" cy="390" r="2" fill="orange"></circle><circle cx="812.2685185185185" cy="390" r="2" fill="orange"></circle><circle cx="827.5462962962962" cy="390" r="2" fill="orange"></circle><circle cx="842.8240740740741" cy="390" r="2" fill="orange"></circle><circle cx="858.1018518518518" cy="373.8119316252217" r="2" fill="orange"></circle><circle cx="873.3796296296297" cy="301.701445228482" r="2" fill="orange"></circle><circle cx="888.6574074074074" cy="288.45666201275424" r="2" fill="orange"></circle><circle cx="903.9351851851852" cy="304.64473038753255" r="2" fill="orange"></circle><circle cx="919.2129629629629" cy="266.3820233198747" r="2" fill="orange"></circle><circle cx="934.4907407407408" cy="275.21187879702654" r="2" fill="orange"></circle><circle cx="949.7685185185185" cy="313.47458586468434" r="2" fill="orange"></circle><circle cx="965.0462962962962" cy="363.51043356854456" r="2" fill="orange"></circle><circle cx="980.3240740740741" cy="390" r="2" fill="orange"></circle><circle cx="995.6018518518518" cy="390" r="2" fill="orange"></circle><circle cx="1010.8796296296297" cy="390" r="2" fill="orange"></circle><circle cx="1026.1574074074074" cy="390" r="2" fill="orange"></circle><circle cx="1041.4351851851852" cy="390" r="2" fill="orange"></circle><circle cx="1056.712962962963" cy="390" r="2" fill="orange"></circle><circle cx="1071.9907407407409" cy="390" r="2" fill="orange"></circle><circle cx="1087.2685185185185" cy="390" r="2" fill="orange"></circle></g></g></svg>
