<svg width="1200" height="500" xmlns="http://www.w3.org/2000/svg" xmlns:xlink="http://www.w3.org/1999/xlink"><g transform="translate(50,50)"><g transform="translate(0,390)" fill="none" font-size="10" font-family="sans-serif" text-anchor="middle"><path class="domain" stroke="currentColor" d="M0.5,6V0.5H1100.5V6"></path><g class="tick" opacity="1" transform="translate(0.5,0)"><line stroke="currentColor" y2="6"></line><text fill="currentColor" y="9" dy="0.71em" transform="rotate(-90)" style="text-anchor: end;">00:00</text></g><g class="tick" opacity="1" transform="translate(31.055555555555554,0)"><line stroke="currentColor" y2="6"></line><text fill="currentColor" y="9" dy="0.71em" transform="rotate(-90)" style="text-anchor: end;">02:00</text></g><g class="tick" opacity="1" transform="translate(61.61111111111111,0)"><line stroke="currentColor" y2="6"></line><text fill="currentColor" y="9" dy="0.71em" transform="rotate(-90)" style="text-anchor: end;">04:00</text></g><g class="tick" opacity="1" transform="translate(92.16666666666666,0)"><line stroke="currentColor" y2="6"></line><text fill="currentColor" y="9" dy="0.71em" transform="rotate(-90)" style="text-anchor: end;">06:00</text></g><g class="tick" opacity="1" transform="translate(122.72222222222221,0)"><line stroke="currentColor" y2="6"></line><text fill="currentColor" y="9" dy="0.71em" transform="rotate(-90)" style="text-anchor: end;">08:00</text></g><g class="tick" opacity="1" transform="translate(153.27777777777777,0)"><line stroke="currentColor" y2="6"></line><text fill="currentColor" y="9" dy="0.71em" transform="rotate(-90)" style="text-anchor: end;">10:00</text></g><g class="tick" opacity="1" transform="translate(183.83333333333331,0)"><line stroke="currentColor" y2="6"></line><text fill="currentColor" y="9" dy="0.71em" transform="rotate(-90)" style="text-anchor: end;">12:00</text></g><g class="tick" opacity="1" transform="translate(214.38888888888889,0)"><line stroke="currentColor" y2="6"></line><text fill="currentColor" y="9" dy="0.71em" transform="rotate(-90)" style="text-anchor: end;">14:00</text></g><g class="tick" opacity="1" transform="translate(244.94444444444443,0)"><line stroke="currentColor" y2="6"></line><text fill="currentColor" y="9" dy="0.71em" transform="rotate(-90)" style="text-anchor: end;">16:00</text></g><g class="tick" opacity="1" transform="translate(275.5,0)"><line stroke="currentColor" y2="6"></line><text fill="currentColor" y="9" dy="0.71em" transform="rotate(-90)" style="text-anchor: end;">18:00</text></g><g class="tick" opacity="1" transform="translate(306.05555555555554,0)"><line stroke="currentColor" y2="6"></line><text fill="currentColor" y="9" dy="0.71em" transform="rotate(-90)" style="text-anchor: end;">20:00</text></g><g class="tick" opacity="1" transform="translate(336.61111111111114,0)"><line stroke="currentColor" y2="6"></line><text fill="currentColor" y="9" dy="0.71em" transform="rotate(-90)" style="text-anchor: end;">22:00</text></g><g class="tick" opacity="1" transform="translate(367.16666666666663,0)"><line stroke="currentColor" y2="6"></line><text fill="currentColor" y="9" dy="0.71em" transform="rotate(-90)" style="text-anchor: end;">00:00</text></g><g class="tick" opacity="1" transform="translate(397.72222222222223,0)"><line stroke="currentColor" y2="6"></line><text fill="currentColor" y="9" dy="0.71em" transform="rotate(-90)" style="text-anchor: end;">02:00</text></g><g class="tick" opacity="1" transform="translate(428.27777777777777,0)"><line stroke="currentColor" y2="6"></line><text fill="currentColor" y="9" dy="0.71em" transform="rotate(-90)" style="text-anchor: end;">04:00</text></g><g class="tick" opacity="1" transform="translate(458.83333333333337,0)"><line stroke="currentColor" y2="6"></line><text fill="currentColor" y="9" dy="0.71em" transform="rotate(-90)" style="text-anchor: end;">06:00</text></g><g class="tick" opacity="1" transform="translate(489.38888888888886,0)"><line stroke="currentColor" y2="6"></line><text fill="currentColor" y="9" dy="0.71em" transform="rotate(-90)" style="text-anchor: end;">08:00</text></g><g class="tick" opacity="1" transform="translate(519.9444444444445,0)"><line stroke="currentColor" y2="6"></line><text fill="currentColor" y="9" dy="0.71em" transform="rotate(-90)" style="text-anchor: end;">10:00</text></g><g class="tick" opacity="1" transform="translate(550.5,0)"><line stroke="currentColor" y2="6"></line><text fill="currentColor" y="9" dy="0.71em" transform="rotate(-90)" style="text-anchor: end;">12:00</text></g><g class="tick" opacity="1" transform="translate(581.0555555555555,0)"><line stroke="currentColor" y2="6"></line><text fill="currentColor" y="9" dy="0.71em" transform="rotate(-90)" style="text-anchor: end;">14:00</text></g><g class="tick" opacity="1" transform="translate(611.6111111111111,0)"><line stroke="currentColor" y2="6"></line><text fill="currentColor" y="9" dy="0.71em" transform="rotate(-90)" style="text-anchor: end;">16:00</text></g><g class="tick" opacity="1" transform="translate(642.1666666666667,0)"><line stroke="currentColor" y2="6"></line><text fill="currentColor" y="9" dy="0.71em" transform="rotate(-90)" style="text-anchor: end;">18:00</text></g><g class="tick" opacity="1" transform="translate(672.7222222222223,0)"><line stroke="currentColor" y2="6"></line><text fill="currentColor" y="9" dy="0.71em" transform="rotate(-90)" style="text-anchor: end;">20:00</text></g><g class="tick" opacity="1" transform="translate(703.2777777777777,0)"><line stroke="currentColor" y2="6"></line><text fill="currentColor" y="9" dy="0.71em" transform="rotate(-90)" style="text-anchor: end;">22:00</text></g><g class="tick" opacity="1" transform="translate(733.8333333333333,0)"><line stroke="currentColor" y2="6"></line><text fill="currentColor" y="9" dy="0.71em" transform="rotate(-90)" style="text-anchor: end;">00:00</text></g><g class="tick" opacity="1" transform="translate(764.3888888888889,0)"><line stroke="currentColor" y2="6"></line><text fill="currentColor" y="9" dy="0.71em" transform="rotate(-90)" style="text-anchor: end;">02:00</text></g><g class="tick" opacity="1" transform="translate(794.9444444444445,0)"><line stroke="currentColor" y2="6"></line><text fill="currentColor" y="9" dy="0.71em" transform="rotate(-90)" style="text-anchor: end;">04:00</text></g><g class="tick" opacity="1" transform="translate(825.5,0)"><line stroke="currentColor" y2="6"></line><text fill="currentColor" y="9" dy="0.71em" transform="rotate(-90)" style="text-anchor: end;">06:00</text></g><g class="tick" opacity="1" transform="translate(856.0555555555555,0)"><line stroke="currentColor" y2="6"></line><text fill="currentColor" y="9" dy="0.71em" transform="rotate(-90)" style="text-anchor: end;">08:00</text></g><g class="tick" opacity="1" transform="translate(886.6111111111111,0)"><line stroke="currentColor" y2="6"></line><text fill="currentColor" y="9" dy="0.71em" transform="rotate(-90)" style="text-anchor: end;">10:00</text></g><g class="tick" opacity="1" transform="translate(917.1666666666667,0)"><line stroke="currentColor" y2="6"></line><text fill="currentColor" y="9" dy="0.71em" transform="rotate(-90)" style="text-anchor: end;">12:00</text></g><g class="tick" opacity="1" transform="translate(947.7222222222223,0)"><line stroke="currentColor" y2="6"></line><text fill="currentColor" y="9" dy="0.71em" transform="rotate(-90)" style="text-anchor: end;">14:00</text></g><g class="tick" opacity="1" transform="translate(978.2777777777777,0)"><line stroke="currentColor" y2="6"></line><text fill="currentColor" y="9" dy="0.71em" transform="rotate(-90)" style="text-anchor: end;">16:00</text></g><g class="tick" opacity="1" transform="translate(1008.8333333333333,0)"><line stroke="currentColor" y2="6"></line><text fill="currentColor" y="9" dy="0.71em" transform="rotate(-90)" style="text-anchor: end;">18:00</text></g><g class="tick" opacity="1" transform="translate(1039.388888888889,0)"><line stroke="currentColor" y2="6"></line><text fill="currentColor" y="9" dy="0.71em" transform="rotate(-90)" style="text-anchor: end;">20:00</text></g><g class="tick" opacity="1" transform="translate(1069.9444444444443,0)"><line stroke="currentColor" y2="6"></line><text fill="currentColor" y="9" dy="0.71em" transform="rotate(-90)" style="text-anchor: end;">22:00</text></g><g class="tick" opacity="1" transform="translate(1100.5,0)"><line stroke="currentColor" y2="6"></line><text fill="currentColor" y="9" dy="0.71em" transform="rotate(-90)" style="text-anchor: end;">00:00</text></g></g><g fill="none" font-size="10" font-family="sans-serif" text-anchor="end"><path class="domain" stroke="currentColor" d="M-6,390.5H0.5V0.5H-6"></path><g class="tick" opacity="1" transform="translate(0,390.5)"><line stroke="currentColor" x2="-6"></line><text fill="currentColor" x="-9" dy="0.32em">−0.8</text></g><g class="tick" opacity="1" transform="translate(0,341.75)"><line stroke="currentColor" x2="-6"></line><text fill="currentColor" x="-9" dy="0.32em">−0.6</text></g><g class="tick" opacity="1" transform="translate(0,293)"><line stroke="currentColor" x2="-6"></line><text fill="currentColor" x="-9" dy="0.32em">−0.4</text></g><g class="tick" opacity="1" transform="translate(0,244.25)"><line stroke="currentColor" x2="-6"></line><text fill="currentColor" x="-9" dy="0.32em">−0.2</text></g><g class="tick" opacity="1" transform="translate(0,195.5)"><line stroke="currentColor" x2="-6"></line><text fill="currentColor" x="-9" dy="0.32em">0.0</text></g><g class="tick" opacity="1" transform="translate(0,146.75)"><line stroke="currentColor" x2="-6"></line><text fill="currentColor" x="-9" dy="0.32em">0.2</text></g><g class="tick" opacity="1" transform="translate(0,97.99999999999996)"><line stroke="currentColor" x2="-6"></line><text fill="currentColor" x="-9" dy="0.32em">0.4</text></g><g class="tick" opacity="1" transform="translate(0,49.25000000000004)"><line stroke="currentColor" x2="-6"></line><text fill="currentColor" x="-9" dy="0.32em">0.6</text></g><g class="tick" opacity="1" transform="translate(0,0.5)"><line stroke="currentColor" x2="-6"></line><text fill="currentColor" x="-9" dy="0.32em">0.8</text></g></g><path fill="none" stroke="steelblue" stroke-width="1" d="M17.824,195L33.102,195L48.38,195L63.657,195L78.935,195L94.213,195L109.491,195L124.769,178.155L140.046,132.688L155.324,130.563L170.602,279.207L185.88,210.87L201.157,182.327L216.435,237.016L231.713,196.638L246.991,207.536L262.269,195L277.546,195L292.824,195L308.102,195L323.38,195L338.657,195L353.935,195L369.213,195L384.491,195L399.769,195L415.046,195L430.324,195L445.602,195L460.88,195L476.157,195L491.435,195L506.713,121.789L521.991,192.075L537.269,211.904L552.546,10.482L567.824,296.013L583.102,298.061L598.38,229.061L613.657,200.615L628.935,195L644.213,195L659.491,195L674.769,195L690.046,195L705.324,195L720.602,195L735.88,195L751.157,195L766.435,195L781.713,195L796.991,195L812.269,195L827.546,195L842.824,195L858.102,192.056L873.38,152.75L888.657,185.992L903.935,205.84L919.213,169.44L934.491,201.083L949.769,220.365L965.046,224.713L980.324,202.76L995.602,195L1010.88,195L1026.157,195L1041.435,195L1056.713,195L1071.991,195L1087.269,195"></path><g><circle cx="17.824074074074073" cy="195" r="2" fill="steelblue"></circle><circle cx="33.10185185185185" cy="195" r="2" fill="steelblue"></circle><circle cx="48.37962962962963" cy="195" r="2" fill="steelblue"></circle><circle cx="63.657407407407405" cy="195" r="2" fill="steelblue"></circle><circle cx="78.93518518518519" cy="195" r="2" fill="steelblue"></circle><circle cx="94.21296296296298" cy="195" r="2" fill="steelblue"></circle><circle cx="109.49074074074073" cy="195" r="2" fill="steelblue"></circle><circle cx="124.76851851851852" cy="178.15469524876016" r="2" fill="steelblue"></circle><circle cx="140.0462962962963" cy="132.68796992481202" r="2" fill="steelblue"></circle><circle cx="155.32407407407405" cy="130.5628099504079" r="2" fill="steelblue"></circle><circle cx="170.60185185185185" cy="279.2070268756999" r="2" fill="steelblue"></circle><circle cx="185.87962962962962" cy="210.8704607262838" r="2" fill="steelblue"></circle><circle cx="201.15740740740742" cy="182.32702767557188" r="2" fill="steelblue"></circle><circle cx="216.4351851851852" cy="237.0157774756039" r="2" fill="steelblue"></circle><circle cx="231.71296296296296" cy="196.6377379619261" r="2" fill="steelblue"></circle><circle cx="246.99074074074073" cy="207.53649416093427" r="2" fill="steelblue"></circle><circle cx="262.26851851851853" cy="195" r="2" fill="steelblue"></circle><circle cx="277.5462962962963" cy="195" r="2" fill="steelblue"></circle><circle cx="292.8240740740741" cy="195" r="2" fill="steelblue"></circle><circle cx="308.1018518518519" cy="195" r="2" fill="steelblue"></circle><circle cx="323.3796296296296" cy="195" r="2" fill="steelblue"></circle><circle cx="338.6574074074074" cy="195" r="2" fill="steelblue"></circle><circle cx="353.93518518518516" cy="195" r="2" fill="steelblue"></circle><circle cx="369.21296296296293" cy="195" r="2" fill="steelblue"></circle><circle cx="384.49074074074076" cy="195" r="2" fill="steelblue"></circle><circle cx="399.76851851851853" cy="195" r="2" fill="steelblue"></circle><circle cx="415.0462962962963" cy="195" r="2" fill="steelblue"></circle><circle cx="430.3240740740741" cy="195" r="2" fill="steelblue"></circle><circle cx="445.6018518518519" cy="195" r="2" fill="steelblue"></circle><circle cx="460.8796296296296" cy="195" r="2" fill="steelblue"></circle><circle cx="476.1574074074074" cy="195" r="2" fill="steelblue"></circle><circle cx="491.43518518518516" cy="195" r="2" fill="steelblue"></circle><circle cx="506.71296296296293" cy="121.78921372580386" r="2" fill="steelblue"></circle><circle cx="521.9907407407408" cy="192.075467925132" r="2" fill="steelblue"></circle><circle cx="537.2685185185185" cy="211.90379539273715" r="2" fill="steelblue"></circle><circle cx="552.5462962962962" cy="10.481522956326964" r="2" fill="steelblue"></circle><circle cx="567.8240740740741" cy="296.0133378659415" r="2" fill="steelblue"></circle><circle cx="583.1018518518518" cy="298.06051031834903" r="2" fill="steelblue"></circle><circle cx="598.3796296296297" cy="229.0610502319629" r="2" fill="steelblue"></circle><circle cx="613.6574074074074" cy="200.6151015837466" r="2" fill="steelblue"></circle><circle cx="628.9351851851852" cy="195" r="2" fill="steelblue"></circle><circle cx="644.2129629629629" cy="195" r="2" fill="steelblue"></circle><circle cx="659.4907407407408" cy="195" r="2" fill="steelblue"></circle><circle cx="674.7685185185185" cy="195" r="2" fill="steelblue"></circle><circle cx="690.0462962962962" cy="195" r="2" fill="steelblue"></circle><circle cx="705.3240740740741" cy="195" r="2" fill="steelblue"></circle><circle cx="720.6018518518518" cy="195" r="2" fill="steelblue"></circle><circle cx="735.8796296296297" cy="195" r="2" fill="steelblue"></circle><circle cx="751.1574074074074" cy="195" r="2" fill="steelblue"></circle><circle cx="766.4351851851852" cy="195" r="2" fill="steelblue"></circle><circle cx="781.7129629629629" cy="195" r="2" fill="steelblue"></circle><circle cx="796.9907407407408" cy="195" r="2" fill="steelblue"></circle><circle cx="812.2685185185185" cy="195" r="2" fill="steelblue"></circle><circle cx="827.5462962962962" cy="195" r="2" fill="steelblue"></circle><circle cx="842.8240740740741" cy="195" r="2" fill="steelblue"></circle><circle cx="858.1018518518518" cy="192.05597104463288" r="2" fill="steelblue"></circle><circle cx="873.3796296296297" cy="152.75025995840664" r="2" fill="steelblue"></circle><circle cx="888.6574074074074" cy="185.99244120940648" r="2" fill="steelblue"></circle><circle cx="903.9351851851852" cy="205.84026555751078" r="2" fill="steelblue"></circle><circle cx="919.2129629629629" cy="169.4395896656535" r="2" fill="steelblue"></circle><circle cx="934.4907407407408" cy="201.0830267157255" r="2" fill="steelblue"></circle><circle cx="949.7685185185185" cy="220.36544152935534" r="2" fill="steelblue"></circle><circle cx="965.0462962962962" cy="224.71324588065906" r="2" fill="steelblue"></circle><circle cx="980.3240740740741" cy="202.7597584386498" r="2" fill="steelblue"></circle><circle cx="995.6018518518518" cy="195" r="2" fill="steelblue"></circle><circle cx="1010.8796296296297" cy="195" r="2" fill="steelblue"></circle><circle cx="1026.1574074074074" cy="195" r="2" fill="steelblue"></circle><circle cx="1041.4351851851852" cy="195" r="2" fill="steelblue"></circle><circle cx="1056.712962962963" cy="195" r="2" fill="steelblue"></circle><circle cx="1071.9907407407409" cy="195" r="2" fill="steelblue"></circle><circle cx="1087.2685185185185" cy="195" r="2" fill="steelblue"></circle></g><path fill="none" stroke="orange" stroke-width="1" d="M17.981,195L33.267,195L48.554,195L63.84,195L79.126,195L94.412,195L109.699,195L124.985,195L140.271,97.437L155.562,199.262L170.848,106.751L185.884,188.054L201.17,199.736L216.461,291.458L231.747,244.413L247.037,232.889L262.324,195L277.61,195L292.896,195L308.182,195L323.469,195L338.755,195L354.041,195L369.328,195L384.614,195L399.9,195L415.186,195L430.473,195L445.759,195L461.045,195L476.331,195L491.618,194.053L506.908,122.538L522.194,186.001L537.485,110.856L552.771,232.415L568.062,80.387L583.348,344.186L598.384,286.88L613.67,197.684L628.956,195L644.243,195L659.529,195L674.815,195L690.101,195L705.392,195L720.678,195L735.965,195L751.251,195L766.537,195L781.823,195L797.11,195L812.396,195L827.682,195L842.968,195L858.259,192.158L873.545,166.741L888.831,182.528L904.122,107.698L919.408,115.276L934.699,226.258L949.989,280.091L965.275,248.991L980.566,235.257L995.852,195L1010.884,195L1026.17,195L1041.456,195L1056.743,195L1072.029,195L1087.315,195"></path><g><circle cx="17.98109567901235" cy="195" r="2" fill="orange"></circle><circle cx="33.26736111111111" cy="195" r="2" fill="orange"></circle><circle cx="48.55362654320988" cy="195" r="2" fill="orange"></circle><circle cx="63.83989197530864" cy="195" r="2" fill="orange"></circle><circle cx="79.1261574074074" cy="195" r="2" fill="orange"></circle><circle cx="94.41242283950618" cy="195" r="2" fill="orange"></circle><circle cx="109.69868827160494" cy="195" r="2" fill="orange"></circle><circle cx="124.98495370370371" cy="195" r="2" fill="orange"></circle><circle cx="140.27121913580245" cy="97.43685233160626" r="2" fill="orange"></circle><circle cx="155.56172839506172" cy="199.2624676165803" r="2" fill="orange"></circle><circle cx="170.84799382716048" cy="106.75113341968913" r="2" fill="orange"></circle><circle cx="185.88387345679013" cy="188.05375647668396" r="2" fill="orange"></circle><circle cx="201.17013888888889" cy="199.73607512953365" r="2" fill="orange"></circle><circle cx="216.46064814814815" cy="291.4580634715026" r="2" fill="orange"></circle><circle cx="231.7469135802469" cy="244.4130505181347" r="2" fill="orange"></circle><circle cx="247.03742283950618" cy="232.88860103626942" r="2" fill="orange"></circle><circle cx="262.32368827160496" cy="195" r="2" fill="orange"></circle><circle cx="277.6099537037037" cy="195" r="2" fill="orange"></circle><circle cx="292.8962191358025" cy="195" r="2" fill="orange"></circle><circle cx="308.1824845679012" cy="195" r="2" fill="orange"></circle><circle cx="323.46875" cy="195" r="2" fill="orange"></circle><circle cx="338.7550154320988" cy="195" r="2" fill="orange"></circle><circle cx="354.0412808641975" cy="195" r="2" fill="orange"></circle><circle cx="369.3275462962963" cy="195" r="2" fill="orange"></circle><circle cx="384.6138117283951" cy="195" r="2" fill="orange"></circle><circle cx="399.9000771604938" cy="195" r="2" fill="orange"></circle><circle cx="415.1863425925926" cy="195" r="2" fill="orange"></circle><circle cx="430.4726080246914" cy="195" r="2" fill="orange"></circle><circle cx="445.7588734567901" cy="195" r="2" fill="orange"></circle><circle cx="461.0451388888889" cy="195" r="2" fill="orange"></circle><circle cx="476.33140432098764" cy="195" r="2" fill="orange"></circle><circle cx="491.61766975308643" cy="194.05278497409327" r="2" fill="orange"></circle><circle cx="506.90817901234567" cy="122.53805051813474" r="2" fill="orange"></circle><circle cx="522.1944444444445" cy="186.00145725388603" r="2" fill="orange"></circle><circle cx="537.4849537037037" cy="110.85573186528495" r="2" fill="orange"></circle><circle cx="552.7712191358024" cy="232.4149935233161" r="2" fill="orange"></circle><circle cx="568.0617283950617" cy="80.38698186528495" r="2" fill="orange"></circle><circle cx="583.3479938271605" cy="344.18636658031085" r="2" fill="orange"></circle><circle cx="598.3838734567902" cy="286.8798575129534" r="2" fill="orange"></circle><circle cx="613.6701388888889" cy="197.68377590673575" r="2" fill="orange"></circle><circle cx="628.9564043209876" cy="195" r="2" fill="orange"></circle><circle cx="644.2426697530864" cy="195" r="2" fill="orange"></circle><circle cx="659.5289351851851" cy="195" r="2" fill="orange"></circle><circle cx="674.815200617284" cy="195" r="2" fill="orange"></circle><circle cx="690.1014660493827" cy="195" r="2" fill="orange"></circle><circle cx="705.3919753086419" cy="195" r="2" fill="orange"></circle><circle cx="720.6782407407408" cy="195" r="2" fill="orange"></circle><circle cx="735.9645061728395" cy="195" r="2" fill="orange"></circle><circle cx="751.2507716049382" cy="195" r="2" fill="orange"></circle><circle cx="766.5370370370371" cy="195" r="2" fill="orange"></circle><circle cx="781.8233024691358" cy="195" r="2" fill="orange"></circle><circle cx="797.1095679012345" cy="195" r="2" fill="orange"></circle><circle cx="812.3958333333334" cy="195" r="2" fill="orange"></circle><circle cx="827.6820987654321" cy="195" r="2" fill="orange"></circle><circle cx="842.9683641975308" cy="195" r="2" fill="orange"></circle><circle cx="858.2588734567902" cy="192.15835492227978" r="2" fill="orange"></circle><circle cx="873.5451388888889" cy="166.7414183937824" r="2" fill="orange"></circle><circle cx="888.8314043209876" cy="182.528335492228" r="2" fill="orange"></circle><circle cx="904.121913580247" cy="107.69834844559587" r="2" fill="orange"></circle><circle cx="919.4081790123457" cy="115.27606865284974" r="2" fill="orange"></circle><circle cx="934.6986882716049" cy="226.25809585492232" r="2" fill="orange"></circle><circle cx="949.9891975308642" cy="280.09148316062175" r="2" fill="orange"></circle><circle cx="965.2754629629629" cy="248.9912564766839" r="2" fill="orange"></circle><circle cx="980.5659722222223" cy="235.25663860103626" r="2" fill="orange"></circle><circle cx="995.852237654321" cy="195" r="2" fill="orange"></circle><circle cx="1010.8838734567902" cy="195" r="2" fill="orange"></circle><circle cx="1026.170138888889" cy="195" r="2" fill="orange"></circle><circle cx="1041.4564043209875" cy="195" r="2" fill="orange"></circle><circle cx="1056.7426697530864" cy="195" r="2" fill="orange"></circle><circle cx="1072.0289351851852" cy="195" r="2" fill="orange"></circle><circle cx="1087.3152006172838" cy="195" r="2" fill="orange"></circle></g></g></svg>
