<svg width="1200" height="500" xmlns="http://www.w3.org/2000/svg" xmlns:xlink="http://www.w3.org/1999/xlink"><g transform="translate(50,50)"><g transform="translate(0,390)" fill="none" font-size="10" font-family="sans-serif" text-anchor="middle"><path class="domain" stroke="currentColor" d="M0.5,6V0.5H1100.5V6"></path><g class="tick" opacity="1" transform="translate(0.5,0)"><line stroke="currentColor" y2="6"></line><text fill="currentColor" y="9" dy="0.71em" transform="rotate(-90)" style="text-anchor: end;">00:00</text></g><g class="tick" opacity="1" transform="translate(31.055555555555554,0)"><line stroke="currentColor" y2="6"></line><text fill="currentColor" y="9" dy="0.71em" transform="rotate(-90)" style="text-anchor: end;">02:00</text></g><g class="tick" opacity="1" transform="translate(61.61111111111111,0)"><line stroke="currentColor" y2="6"></line><text fill="currentColor" y="9" dy="0.71em" transform="rotate(-90)" style="text-anchor: end;">04:00</text></g><g class="tick" opacity="1" transform="translate(92.16666666666666,0)"><line stroke="currentColor" y2="6"></line><text fill="currentColor" y="9" dy="0.71em" transform="rotate(-90)" style="text-anchor: end;">06:00</text></g><g class="tick" opacity="1" transform="translate(122.72222222222221,0)"><line stroke="currentColor" y2="6"></line><text fill="currentColor" y="9" dy="0.71em" transform="rotate(-90)" style="text-anchor: end;">08:00</text></g><g class="tick" opacity="1" transform="translate(153.27777777777777,0)"><line stroke="currentColor" y2="6"></line><text fill="currentColor" y="9" dy="0.71em" transform="rotate(-90)" style="text-anchor: end;">10:00</text></g><g class="tick" opacity="1" transform="translate(183.83333333333331,0)"><line stroke="currentColor" y2="6"></line><text fill="currentColor" y="9" dy="0.71em" transform="rotate(-90)" style="text-anchor: end;">12:00</text></g><g class="tick" opacity="1" transform="translate(214.38888888888889,0)"><line stroke="currentColor" y2="6"></line><text fill="currentColor" y="9" dy="0.71em" transform="rotate(-90)" style="text-anchor: end;">14:00</text></g><g class="tick" opacity="1" transform="translate(244.94444444444443,0)"><line stroke="currentColor" y2="6"></line><text fill="currentColor" y="9" dy="0.71em" transform="rotate(-90)" style="text-anchor: end;">16:00</text></g><g class="tick" opacity="1" transform="translate(275.5,0)"><line stroke="currentColor" y2="6"></line><text fill="currentColor" y="9" dy="0.71em" transform="rotate(-90)" style="text-anchor: end;">18:00</text></g><g class="tick" opacity="1" transform="translate(306.05555555555554,0)"><line stroke="currentColor" y2="6"></line><text fill="currentColor" y="9" dy="0.71em" transform="rotate(-90)" style="text-anchor: end;">20:00</text></g><g class="tick" opacity="1" transform="translate(336.61111111111114,0)"><line stroke="currentColor" y2="6"></line><text fill="currentColor" y="9" dy="0.71em" transform="rotate(-90)" style="text-anchor: end;">22:00</text></g><g class="tick" opacity="1" transform="translate(367.16666666666663,0)"><line stroke="currentColor" y2="6"></line><text fill="currentColor" y="9" dy="0.71em" transform="rotate(-90)" style="text-anchor: end;">00:00</text></g><g class="tick" opacity="1" transform="translate(397.72222222222223,0)"><line stroke="currentColor" y2="6"></line><text fill="currentColor" y="9" dy="0.71em" transform="rotate(-90)" style="text-anchor: end;">02:00</text></g><g class="tick" opacity="1" transform="translate(428.27777777777777,0)"><line stroke="currentColor" y2="6"></line><text fill="currentColor" y="9" dy="0.71em" transform="rotate(-90)" style="text-anchor: end;">04:00</text></g><g class="tick" opacity="1" transform="translate(458.83333333333337,0)"><line stroke="currentColor" y2="6"></line><text fill="currentColor" y="9" dy="0.71em" transform="rotate(-90)" style="text-anchor: end;">06:00</text></g><g class="tick" opacity="1" transform="translate(489.38888888888886,0)"><line stroke="currentColor" y2="6"></line><text fill="currentColor" y="9" dy="0.71em" transform="rotate(-90)" style="text-anchor: end;">08:00</text></g><g class="tick" opacity="1" transform="translate(519.9444444444445,0)"><line stroke="currentColor" y2="6"></line><text fill="currentColor" y="9" dy="0.71em" transform="rotate(-90)" style="text-anchor: end;">10:00</text></g><g class="tick" opacity="1" transform="translate(550.5,0)"><line stroke="currentColor" y2="6"></line><text fill="currentColor" y="9" dy="0.71em" transform="rotate(-90)" style="text-anchor: end;">12:00</text></g><g class="tick" opacity="1" transform="translate(581.0555555555555,0)"><line stroke="currentColor" y2="6"></line><text fill="currentColor" y="9" dy="0.71em" transform="rotate(-90)" style="text-anchor: end;">14:00</text></g><g class="tick" opacity="1" transform="translate(611.6111111111111,0)"><line stroke="currentColor" y2="6"></line><text fill="currentColor" y="9" dy="0.71em" transform="rotate(-90)" style="text-anchor: end;">16:00</text></g><g class="tick" opacity="1" transform="translate(642.1666666666667,0)"><line stroke="currentColor" y2="6"></line><text fill="currentColor" y="9" dy="0.71em" transform="rotate(-90)" style="text-anchor: end;">18:00</text></g><g class="tick" opacity="1" transform="translate(672.7222222222223,0)"><line stroke="currentColor" y2="6"></line><text fill="currentColor" y="9" dy="0.71em" transform="rotate(-90)" style="text-anchor: end;">20:00</text></g><g class="tick" opacity="1" transform="translate(703.2777777777777,0)"><line stroke="currentColor" y2="6"></line><text fill="currentColor" y="9" dy="0.71em" transform="rotate(-90)" style="text-anchor: end;">22:00</text></g><g class="tick" opacity="1" transform="translate(733.8333333333333,0)"><line stroke="currentColor" y2="6"></line><text fill="currentColor" y="9" dy="0.71em" transform="rotate(-90)" style="text-anchor: end;">00:00</text></g><g class="tick" opacity="1" transform="translate(764.3888888888889,0)"><line stroke="currentColor" y2="6"></line><text fill="currentColor" y="9" dy="0.71em" transform="rotate(-90)" style="text-anchor: end;">02:00</text></g><g class="tick" opacity="1" transform="translate(794.9444444444445,0)"><line stroke="currentColor" y2="6"></line><text fill="currentColor" y="9" dy="0.71em" transform="rotate(-90)" style="text-anchor: end;">04:00</text></g><g class="tick" opacity="1" transform="translate(825.5,0)"><line stroke="currentColor" y2="6"></line><text fill="currentColor" y="9" dy="0.71em" transform="rotate(-90)" style="text-anchor: end;">06:00</text></g><g class="tick" opacity="1" transform="translate(856.0555555555555,0)"><line stroke="currentColor" y2="6"></line><text fill="currentColor" y="9" dy="0.71em" transform="rotate(-90)" style="text-anchor: end;">08:00</text></g><g class="tick" opacity="1" transform="translate(886.6111111111111,0)"><line stroke="currentColor" y2="6"></line><text fill="currentColor" y="9" dy="0.71em" transform="rotate(-90)" style="text-anchor: end;">10:00</text></g><g class="tick" opacity="1" transform="translate(917.1666666666667,0)"><line stroke="currentColor" y2="6"></line><text fill="currentColor" y="9" dy="0.71em" transform="rotate(-90)" style="text-anchor: end;">12:00</text></g><g class="tick" opacity="1" transform="translate(947.7222222222223,0)"><line stroke="currentColor" y2="6"></line><text fill="currentColor" y="9" dy="0.71em" transform="rotate(-90)" style="text-anchor: end;">14:00</text></g><g class="tick" opacity="1" transform="translate(978.2777777777777,0)"><line stroke="currentColor" y2="6"></line><text fill="currentColor" y="9" dy="0.71em" transform="rotate(-90)" style="text-anchor: end;">16:00</text></g><g class="tick" opacity="1" transform="translate(1008.8333333333333,0)"><line stroke="currentColor" y2="6"></line><text fill="currentColor" y="9" dy="0.71em" transform="rotate(-90)" style="text-anchor: end;">18:00</text></g><g class="tick" opacity="1" transform="translate(1039.388888888889,0)"><line stroke="currentColor" y2="6"></line><text fill="currentColor" y="9" dy="0.71em" transform="rotate(-90)" style="text-anchor: end;">20:00</text></g><g class="tick" opacity="1" transform="translate(1069.9444444444443,0)"><line stroke="currentColor" y2="6"></line><text fill="currentColor" y="9" dy="0.71em" transform="rotate(-90)" style="text-anchor: end;">22:00</text></g><g class="tick" opacity="1" transform="translate(1100.5,0)"><line stroke="currentColor" y2="6"></line><text fill="currentColor" y="9" dy="0.71em" transform="rotate(-90)" style="text-anchor: end;">00:00</text></g></g><g fill="none" font-size="10" font-family="sans-serif" text-anchor="end"><path class="domain" stroke="currentColor" d="M-6,390.5H0.5V0.5H-6"></path><g class="tick" opacity="1" transform="translate(0,390.5)"><line stroke="currentColor" x2="-6"></line><text fill="currentColor" x="-9" dy="0.32em">0.0</text></g><g class="tick" opacity="1" transform="translate(0,351.5)"><line stroke="currentColor" x2="-6"></line><text fill="currentColor" x="-9" dy="0.32em">0.1</text></g><g class="tick" opacity="1" transform="translate(0,312.5)"><line stroke="currentColor" x2="-6"></line><text fill="currentColor" x="-9" dy="0.32em">0.2</text></g><g class="tick" opacity="1" transform="translate(0,273.5)"><line stroke="currentColor" x2="-6"></line><text fill="currentColor" x="-9" dy="0.32em">0.3</text></g><g class="tick" opacity="1" transform="translate(0,234.5)"><line stroke="currentColor" x2="-6"></line><text fill="currentColor" x="-9" dy="0.32em">0.4</text></g><g class="tick" opacity="1" transform="translate(0,195.5)"><line stroke="currentColor" x2="-6"></line><text fill="currentColor" x="-9" dy="0.32em">0.5</text></g><g class="tick" opacity="1" transform="translate(0,156.5)"><line stroke="currentColor" x2="-6"></line><text fill="currentColor" x="-9" dy="0.32em">0.6</text></g><g class="tick" opacity="1" transform="translate(0,117.50000000000001)"><line stroke="currentColor" x2="-6"></line><text fill="currentColor" x="-9" dy="0.32em">0.7</text></g><g class="tick" opacity="1" transform="translate(0,78.49999999999999)"><line stroke="currentColor" x2="-6"></line><text fill="currentColor" x="-9" dy="0.32em">0.8</text></g><g class="tick" opacity="1" transform="translate(0,39.49999999999999)"><line stroke="currentColor" x2="-6"></line><text fill="currentColor" x="-9" dy="0.32em">0.9</text></g><g class="tick" opacity="1" transform="translate(0,0.5)"><line stroke="currentColor" x2="-6"></line><text fill="currentColor" x="-9" dy="0.32em">1.0</text></g></g><path fill="none" stroke="steelblue" stroke-width="1" d="M2.546,390L17.824,390L33.102,390L48.38,390L63.657,390L78.935,390L94.213,390L109.491,390L124.769,347.322L140.046,247.251L155.324,154.537L170.602,281.098L185.88,304.645L201.157,285.513L216.435,351.737L231.713,354.681L246.991,390L262.269,390L277.546,390L292.824,390L308.102,390L323.38,390L338.657,390L353.935,390L369.213,390L384.491,390L399.769,390L415.046,390L430.324,390L445.602,390L460.88,390L476.157,390L491.435,384.113L506.713,256.081L521.991,256.081L537.269,281.098L552.546,0L567.824,156.009L583.102,310.531L598.38,367.925L613.657,390L628.935,390L644.213,390L659.491,390L674.769,390L690.046,390L705.324,390L720.602,390L735.88,390L751.157,390L766.435,390L781.713,390L796.991,390L812.269,390L827.546,390L842.824,390L858.102,373.812L873.38,301.701L888.657,288.457L903.935,304.645L919.213,266.382L934.491,275.212L949.769,313.475L965.046,363.51L980.324,390L995.602,390L1010.88,390L1026.157,390L1041.435,390L1056.713,390L1071.991,390L1087.269,390"></path><g><circle cx="2.5462962962962963" cy="390" r="2" fill="steelblue"></circle><circle cx="17.824074074074073" cy="390" r="2" fill="steelblue"></circle><circle cx="33.10185185185185" cy="390" r="2" fill="steelblue"></circle><circle cx="48.37962962962963" cy="390" r="2" fill="steelblue"></circle><circle cx="63.657407407407405" cy="390" r="2" fill="steelblue"></circle><circle cx="78.93518518518519" cy="390" r="2" fill="steelblue"></circle><circle cx="94.21296296296298" cy="390" r="2" fill="steelblue"></circle><circle cx="109.49074074074073" cy="390" r="2" fill="steelblue"></circle><circle cx="124.76851851851852" cy="347.32236519376625" r="2" fill="steelblue"></circle><circle cx="140.0462962962963" cy="247.2506697860458" r="2" fill="steelblue"></circle><circle cx="155.32407407407405" cy="154.53718727595185" r="2" fill="steelblue"></circle><circle cx="170.60185185185185" cy="281.0984491151277" r="2" fill="steelblue"></circle><circle cx="185.87962962962962" cy="304.64473038753255" r="2" fill="steelblue"></circle><circle cx="201.15740740740742" cy="285.5133768537036" r="2" fill="steelblue"></circle><circle cx="216.4351851851852" cy="351.7372929323422" r="2" fill="steelblue"></circle><circle cx="231.71296296296296" cy="354.68057809139276" r="2" fill="steelblue"></circle><circle cx="246.99074074074073" cy="390" r="2" fill="steelblue"></circle><circle cx="262.26851851851853" cy="390" r="2" fill="steelblue"></circle><circle cx="277.5462962962963" cy="390" r="2" fill="steelblue"></circle><circle cx="292.8240740740741" cy="390" r="2" fill="steelblue"></circle><circle cx="308.1018518518519" cy="390" r="2" fill="steelblue"></circle><circle cx="323.3796296296296" cy="390" r="2" fill="steelblue"></circle><circle cx="338.6574074074074" cy="390" r="2" fill="steelblue"></circle><circle cx="353.93518518518516" cy="390" r="2" fill="steelblue"></circle><circle cx="369.21296296296293" cy="390" r="2" fill="steelblue"></circle><circle cx="384.49074074074076" cy="390" r="2" fill="steelblue"></circle><circle cx="399.76851851851853" cy="390" r="2" fill="steelblue"></circle><circle cx="415.0462962962963" cy="390" r="2" fill="steelblue"></circle><circle cx="430.3240740740741" cy="390" r="2" fill="steelblue"></circle><circle cx="445.6018518518519" cy="390" r="2" fill="steelblue"></circle><circle cx="460.8796296296296" cy="390" r="2" fill="steelblue"></circle><circle cx="476.1574074074074" cy="390" r="2" fill="steelblue"></circle><circle cx="491.43518518518516" cy="384.1134296818988" r="2" fill="steelblue"></circle><circle cx="506.71296296296293" cy="256.0805252631976" r="2" fill="steelblue"></circle><circle cx="521.9907407407408" cy="256.0805252631976" r="2" fill="steelblue"></circle><circle cx="537.2685185185185" cy="281.0984491151277" r="2" fill="steelblue"></circle><circle cx="552.5462962962962" cy="0" r="2" fill="steelblue"></circle><circle cx="567.8240740740741" cy="156.00882985547716" r="2" fill="steelblue"></circle><circle cx="583.1018518518518" cy="310.5313007056338" r="2" fill="steelblue"></circle><circle cx="598.3796296296297" cy="367.9253613071205" r="2" fill="steelblue"></circle><circle cx="613.6574074074074" cy="390" r="2" fill="steelblue"></circle><circle cx="628.9351851851852" cy="390" r="2" fill="steelblue"></circle><circle cx="644.2129629629629" cy="390" r="2" fill="steelblue"></circle><circle cx="659.4907407407408" cy="390" r="2" fill="steelblue"></circle><circle cx="674.7685185185185" cy="390" r="2" fill="steelblue"></circle><circle cx="690.0462962962962" cy="390" r="2" fill="steelblue"></circle><circle cx="705.3240740740741" cy="390" r="2" fill="steelblue"></circle><circle cx="720.6018518518518" cy="390" r="2" fill="steelblue"></circle><circle cx="735.8796296296297" cy="390" r="2" fill="steelblue"></circle><circle cx="751.1574074074074" cy="390" r="2" fill="steelblue"></circle><circle cx="766.4351851851852" cy="390" r="2" fill="steelblue"></circle><circle cx="781.7129629629629" cy="390" r="2" fill="steelblue"></circle><circle cx="796.9907407407408" cy="390" r="2" fill="steelblue"></circle><circle cx="812.2685185185185" cy="390" r="2" fill="steelblue"></circle><circle cx="827.5462962962962" cy="390" r="2" fill="steelblue"></circle><circle cx="842.8240740740741" cy="390" r="2" fill="steelblue"></circle><circle cx="858.1018518518518" cy="373.8119316252217" r="2" fill="steelblue"></circle><circle cx="873.3796296296297" cy="301.701445228482" r="2" fill="steelblue"></circle><circle cx="888.6574074074074" cy="288.45666201275424" r="2" fill="steelblue"></circle><circle cx="903.9351851851852" cy="304.64473038753255" r="2" fill="steelblue"></circle><circle cx="919.2129629629629" cy="266.3820233198747" r="2" fill="steelblue"></circle><circle cx="934.4907407407408" cy="275.21187879702654" r="2" fill="steelblue"></circle><circle cx="949.7685185185185" cy="313.47458586468434" r="2" fill="steelblue"></circle><circle cx="965.0462962962962" cy="363.51043356854456" r="2" fill="steelblue"></circle><circle cx="980.3240740740741" cy="390" r="2" fill="steelblue"></circle><circle cx="995.6018518518518" cy="390" r="2" fill="steelblue"></circle><circle cx="1010.8796296296297" cy="390" r="2" fill="steelblue"></circle><circle cx="1026.1574074074074" cy="390" r="2" fill="steelblue"></circle><circle cx="1041.4351851851852" cy="390" r="2" fill="steelblue"></circle><circle cx="1056.712962962963" cy="390" r="2" fill="steelblue"></circle><circle cx="1071.9907407407409" cy="390" r="2" fill="steelblue"></circle><circle cx="1087.2685185185185" cy="390" r="2" fill="steelblue"></circle></g><path fill="none" stroke="orange" stroke-width="1" d="M2.695,390L17.981,389.994L33.267,390L48.554,390L63.84,390L79.126,390L94.412,389.994L109.699,389.726L124.985,353.761L140.271,186.555L155.562,184.164L170.848,84.724L185.884,81.702L201.17,88.932L216.461,195.343L231.747,250.057L247.037,379.356L262.324,390L277.61,390L292.896,389.994L308.182,390L323.469,389.994L338.755,390L354.041,390L369.328,390L384.614,390L399.9,389.994L415.186,390L430.473,389.994L445.759,390L461.045,390L476.331,389.765L491.618,350.781L506.908,211.797L522.194,187.142L537.485,98.05L552.771,91.261L568.062,0L583.348,173.461L598.384,338.294L613.67,386.326L628.956,389.992L644.243,390L659.529,390L674.815,390L690.101,390L705.392,390L720.678,390L735.965,389.992L751.251,390L766.537,390L781.823,390L797.11,390L812.396,390L827.682,390L842.968,389.516L858.259,341.31L873.545,268.245L888.831,248.134L904.122,137.552L919.408,42.301L934.699,78.917L949.989,180.118L965.275,257.853L980.566,382.054L995.852,390L1010.884,390L1026.17,390L1041.456,390L1056.743,389.994L1072.029,390L1087.315,389.994"></path><g><circle cx="2.6948302469135803" cy="390" r="2" fill="orange"></circle><circle cx="17.98109567901235" cy="389.9944079947036" r="2" fill="orange"></circle><circle cx="33.26736111111111" cy="390" r="2" fill="orange"></circle><circle cx="48.55362654320988" cy="390" r="2" fill="orange"></circle><circle cx="63.83989197530864" cy="390" r="2" fill="orange"></circle><circle cx="79.1261574074074" cy="390" r="2" fill="orange"></circle><circle cx="94.41242283950618" cy="389.9944079947036" r="2" fill="orange"></circle><circle cx="109.69868827160494" cy="389.7259920438423" r="2" fill="orange"></circle><circle cx="124.98495370370371" cy="353.761051237816" r="2" fill="orange"></circle><circle cx="140.27121913580245" cy="186.55468082684598" r="2" fill="orange"></circle><circle cx="155.56172839506172" cy="184.16411464103058" r="2" fill="orange"></circle><circle cx="170.84799382716048" cy="84.72437723153838" r="2" fill="orange"></circle><circle cx="185.88387345679013" cy="81.70189976431762" r="2" fill="orange"></circle><circle cx="201.17013888888889" cy="88.93234817234328" r="2" fill="orange"></circle><circle cx="216.46064814814815" cy="195.34250689636926" r="2" fill="orange"></circle><circle cx="231.7469135802469" cy="250.05742040762723" r="2" fill="orange"></circle><circle cx="247.03742283950618" cy="379.35562962822854" r="2" fill="orange"></circle><circle cx="262.32368827160496" cy="390" r="2" fill="orange"></circle><circle cx="277.6099537037037" cy="390" r="2" fill="orange"></circle><circle cx="292.8962191358025" cy="389.9944079947036" r="2" fill="orange"></circle><circle cx="308.1824845679012" cy="390" r="2" fill="orange"></circle><circle cx="323.46875" cy="389.9944079947036" r="2" fill="orange"></circle><circle cx="338.7550154320988" cy="390" r="2" fill="orange"></circle><circle cx="354.0412808641975" cy="390" r="2" fill="orange"></circle><circle cx="369.3275462962963" cy="390" r="2" fill="orange"></circle><circle cx="384.6138117283951" cy="390" r="2" fill="orange"></circle><circle cx="399.9000771604938" cy="389.9944079947036" r="2" fill="orange"></circle><circle cx="415.1863425925926" cy="390" r="2" fill="orange"></circle><circle cx="430.4726080246914" cy="389.9944079947036" r="2" fill="orange"></circle><circle cx="445.7588734567901" cy="390" r="2" fill="orange"></circle><circle cx="461.0451388888889" cy="390" r="2" fill="orange"></circle><circle cx="476.33140432098764" cy="389.765136020244" r="2" fill="orange"></circle><circle cx="491.61766975308643" cy="350.7805129002204" r="2" fill="orange"></circle><circle cx="506.90817901234567" cy="211.7969670093623" r="2" fill="orange"></circle><circle cx="522.1944444444445" cy="187.1418334954532" r="2" fill="orange"></circle><circle cx="537.4849537037037" cy="98.05010898571234" r="2" fill="orange"></circle><circle cx="552.7712191358024" cy="91.26141601203939" r="2" fill="orange"></circle><circle cx="568.0617283950617" cy="0" r="2" fill="orange"></circle><circle cx="583.3479938271605" cy="173.46103009451585" r="2" fill="orange"></circle><circle cx="598.3838734567902" cy="338.2935801203107" r="2" fill="orange"></circle><circle cx="613.6701388888889" cy="386.3260567067154" r="2" fill="orange"></circle><circle cx="628.9564043209876" cy="389.99161199205537" r="2" fill="orange"></circle><circle cx="644.2426697530864" cy="390" r="2" fill="orange"></circle><circle cx="659.5289351851851" cy="390" r="2" fill="orange"></circle><circle cx="674.815200617284" cy="390" r="2" fill="orange"></circle><circle cx="690.1014660493827" cy="390" r="2" fill="orange"></circle><circle cx="705.3919753086419" cy="390" r="2" fill="orange"></circle><circle cx="720.6782407407408" cy="390" r="2" fill="orange"></circle><circle cx="735.9645061728395" cy="389.99161199205537" r="2" fill="orange"></circle><circle cx="751.2507716049382" cy="390" r="2" fill="orange"></circle><circle cx="766.5370370370371" cy="390" r="2" fill="orange"></circle><circle cx="781.8233024691358" cy="390" r="2" fill="orange"></circle><circle cx="797.1095679012345" cy="390" r="2" fill="orange"></circle><circle cx="812.3958333333334" cy="390" r="2" fill="orange"></circle><circle cx="827.6820987654321" cy="390" r="2" fill="orange"></circle><circle cx="842.9683641975308" cy="389.51629208792014" r="2" fill="orange"></circle><circle cx="858.2588734567902" cy="341.31046351934657" r="2" fill="orange"></circle><circle cx="873.5451388888889" cy="268.2453985221129" r="2" fill="orange"></circle><circle cx="888.8314043209876" cy="248.13377689567753" r="2" fill="orange"></circle><circle cx="904.121913580247" cy="137.5519965394103" r="2" fill="orange"></circle><circle cx="919.4081790123457" cy="42.30068723599039" r="2" fill="orange"></circle><circle cx="934.6986882716049" cy="78.9170973871256" r="2" fill="orange"></circle><circle cx="949.9891975308642" cy="180.11830493707748" r="2" fill="orange"></circle><circle cx="965.2754629629629" cy="257.85267554811594" r="2" fill="orange"></circle><circle cx="980.5659722222223" cy="382.053768846716" r="2" fill="orange"></circle><circle cx="995.852237654321" cy="390" r="2" fill="orange"></circle><circle cx="1010.8838734567902" cy="390" r="2" fill="orange"></circle><circle cx="1026.170138888889" cy="390" r="2" fill="orange"></circle><circle cx="1041.4564043209875" cy="390" r="2" fill="orange"></circle><circle cx="1056.7426697530864" cy="389.9944079947036" r="2" fill="orange"></circle><circle cx="1072.0289351851852" cy="390" r="2" fill="orange"></circle><circle cx="1087.3152006172838" cy="389.9944079947036" r="2" fill="orange"></circle></g></g></svg>
