<svg width="1200" height="500" xmlns="http://www.w3.org/2000/svg" xmlns:xlink="http://www.w3.org/1999/xlink"><g transform="translate(50,50)"><g transform="translate(0,390)" fill="none" font-size="10" font-family="sans-serif" text-anchor="middle"><path class="domain" stroke="currentColor" d="M0.5,6V0.5H1100.5V6"></path><g class="tick" opacity="1" transform="translate(0.5,0)"><line stroke="currentColor" y2="6"></line><text fill="currentColor" y="9" dy="0.71em" transform="rotate(-90)" style="text-anchor: end;">00:00</text></g><g class="tick" opacity="1" transform="translate(31.055555555555554,0)"><line stroke="currentColor" y2="6"></line><text fill="currentColor" y="9" dy="0.71em" transform="rotate(-90)" style="text-anchor: end;">02:00</text></g><g class="tick" opacity="1" transform="translate(61.61111111111111,0)"><line stroke="currentColor" y2="6"></line><text fill="currentColor" y="9" dy="0.71em" transform="rotate(-90)" style="text-anchor: end;">04:00</text></g><g class="tick" opacity="1" transform="translate(92.16666666666666,0)"><line stroke="currentColor" y2="6"></line><text fill="currentColor" y="9" dy="0.71em" transform="rotate(-90)" style="text-anchor: end;">06:00</text></g><g class="tick" opacity="1" transform="translate(122.72222222222221,0)"><line stroke="currentColor" y2="6"></line><text fill="currentColor" y="9" dy="0.71em" transform="rotate(-90)" style="text-anchor: end;">08:00</text></g><g class="tick" opacity="1" transform="translate(153.27777777777777,0)"><line stroke="currentColor" y2="6"></line><text fill="currentColor" y="9" dy="0.71em" transform="rotate(-90)" style="text-anchor: end;">10:00</text></g><g class="tick" opacity="1" transform="translate(183.83333333333331,0)"><line stroke="currentColor" y2="6"></line><text fill="currentColor" y="9" dy="0.71em" transform="rotate(-90)" style="text-anchor: end;">12:00</text></g><g class="tick" opacity="1" transform="translate(214.38888888888889,0)"><line stroke="currentColor" y2="6"></line><text fill="currentColor" y="9" dy="0.71em" transform="rotate(-90)" style="text-anchor: end;">14:00</text></g><g class="tick" opacity="1" transform="translate(244.94444444444443,0)"><line stroke="currentColor" y2="6"></line><text fill="currentColor" y="9" dy="0.71em" transform="rotate(-90)" style="text-anchor: end;">16:00</text></g><g class="tick" opacity="1" transform="translate(275.5,0)"><line stroke="currentColor" y2="6"></line><text fill="currentColor" y="9" dy="0.71em" transform="rotate(-90)" style="text-anchor: end;">18:00</text></g><g class="tick" opacity="1" transform="translate(306.05555555555554,0)"><line stroke="currentColor" y2="6"></line><text fill="currentColor" y="9" dy="0.71em" transform="rotate(-90)" style="text-anchor: end;">20:00</text></g><g class="tick" opacity="1" transform="translate(336.61111111111114,0)"><line stroke="currentColor" y2="6"></line><text fill="currentColor" y="9" dy="0.71em" transform="rotate(-90)" style="text-anchor: end;">22:00</text></g><g class="tick" opacity="1" transform="translate(367.16666666666663,0)"><line stroke="currentColor" y2="6"></line><text fill="currentColor" y="9" dy="0.71em" transform="rotate(-90)" style="text-anchor: end;">00:00</text></g><g class="tick" opacity="1" transform="translate(397.72222222222223,0)"><line stroke="currentColor" y2="6"></line><text fill="currentColor" y="9" dy="0.71em" transform="rotate(-90)" style="text-anchor: end;">02:00</text></g><g class="tick" opacity="1" transform="translate(428.27777777777777,0)"><line stroke="currentColor" y2="6"></line><text fill="currentColor" y="9" dy="0.71em" transform="rotate(-90)" style="text-anchor: end;">04:00</text></g><g class="tick" opacity="1" transform="translate(458.83333333333337,0)"><line stroke="currentColor" y2="6"></line><text fill="currentColor" y="9" dy="0.71em" transform="rotate(-90)" style="text-anchor: end;">06:00</text></g><g class="tick" opacity="1" transform="translate(489.38888888888886,0)"><line stroke="currentColor" y2="6"></line><text fill="currentColor" y="9" dy="0.71em" transform="rotate(-90)" style="text-anchor: end;">08:00</text></g><g class="tick" opacity="1" transform="translate(519.9444444444445,0)"><line stroke="currentColor" y2="6"></line><text fill="currentColor" y="9" dy="0.71em" transform="rotate(-90)" style="text-anchor: end;">10:00</text></g><g class="tick" opacity="1" transform="translate(550.5,0)"><line stroke="currentColor" y2="6"></line><text fill="currentColor" y="9" dy="0.71em" transform="rotate(-90)" style="text-anchor: end;">12:00</text></g><g class="tick" opacity="1" transform="translate(581.0555555555555,0)"><line stroke="currentColor" y2="6"></line><text fill="currentColor" y="9" dy="0.71em" transform="rotate(-90)" style="text-anchor: end;">14:00</text></g><g class="tick" opacity="1" transform="translate(611.6111111111111,0)"><line stroke="currentColor" y2="6"></line><text fill="currentColor" y="9" dy="0.71em" transform="rotate(-90)" style="text-anchor: end;">16:00</text></g><g class="tick" opacity="1" transform="translate(642.1666666666667,0)"><line stroke="currentColor" y2="6"></line><text fill="currentColor" y="9" dy="0.71em" transform="rotate(-90)" style="text-anchor: end;">18:00</text></g><g class="tick" opacity="1" transform="translate(672.7222222222223,0)"><line stroke="currentColor" y2="6"></line><text fill="currentColor" y="9" dy="0.71em" transform="rotate(-90)" style="text-anchor: end;">20:00</text></g><g class="tick" opacity="1" transform="translate(703.2777777777777,0)"><line stroke="currentColor" y2="6"></line><text fill="currentColor" y="9" dy="0.71em" transform="rotate(-90)" style="text-anchor: end;">22:00</text></g><g class="tick" opacity="1" transform="translate(733.8333333333333,0)"><line stroke="currentColor" y2="6"></line><text fill="currentColor" y="9" dy="0.71em" transform="rotate(-90)" style="text-anchor: end;">00:00</text></g><g class="tick" opacity="1" transform="translate(764.3888888888889,0)"><line stroke="currentColor" y2="6"></line><text fill="currentColor" y="9" dy="0.71em" transform="rotate(-90)" style="text-anchor: end;">02:00</text></g><g class="tick" opacity="1" transform="translate(794.9444444444445,0)"><line stroke="currentColor" y2="6"></line><text fill="currentColor" y="9" dy="0.71em" transform="rotate(-90)" style="text-anchor: end;">04:00</text></g><g class="tick" opacity="1" transform="translate(825.5,0)"><line stroke="currentColor" y2="6"></line><text fill="currentColor" y="9" dy="0.71em" transform="rotate(-90)" style="text-anchor: end;">06:00</text></g><g class="tick" opacity="1" transform="translate(856.0555555555555,0)"><line stroke="currentColor" y2="6"></line><text fill="currentColor" y="9" dy="0.71em" transform="rotate(-90)" style="text-anchor: end;">08:00</text></g><g class="tick" opacity="1" transform="translate(886.6111111111111,0)"><line stroke="currentColor" y2="6"></line><text fill="currentColor" y="9" dy="0.71em" transform="rotate(-90)" style="text-anchor: end;">10:00</text></g><g class="tick" opacity="1" transform="translate(917.1666666666667,0)"><line stroke="currentColor" y2="6"></line><text fill="currentColor" y="9" dy="0.71em" transform="rotate(-90)" style="text-anchor: end;">12:00</text></g><g class="tick" opacity="1" transform="translate(947.7222222222223,0)"><line stroke="currentColor" y2="6"></line><text fill="currentColor" y="9" dy="0.71em" transform="rotate(-90)" style="text-anchor: end;">14:00</text></g><g class="tick" opacity="1" transform="translate(978.2777777777777,0)"><line stroke="currentColor" y2="6"></line><text fill="currentColor" y="9" dy="0.71em" transform="rotate(-90)" style="text-anchor: end;">16:00</text></g><g class="tick" opacity="1" transform="translate(1008.8333333333333,0)"><line stroke="currentColor" y2="6"></line><text fill="currentColor" y="9" dy="0.71em" transform="rotate(-90)" style="text-anchor: end;">18:00</text></g><g class="tick" opacity="1" transform="translate(1039.388888888889,0)"><line stroke="currentColor" y2="6"></line><text fill="currentColor" y="9" dy="0.71em" transform="rotate(-90)" style="text-anchor: end;">20:00</text></g><g class="tick" opacity="1" transform="translate(1069.9444444444443,0)"><line stroke="currentColor" y2="6"></line><text fill="currentColor" y="9" dy="0.71em" transform="rotate(-90)" style="text-anchor: end;">22:00</text></g><g class="tick" opacity="1" transform="translate(1100.5,0)"><line stroke="currentColor" y2="6"></line><text fill="currentColor" y="9" dy="0.71em" transform="rotate(-90)" style="text-anchor: end;">00:00</text></g></g><g fill="none" font-size="10" font-family="sans-serif" text-anchor="end"><path class="domain" stroke="currentColor" d="M-6,390.5H0.5V0.5H-6"></path><g class="tick" opacity="1" transform="translate(0,390.5)"><line stroke="currentColor" x2="-6"></line><text fill="currentColor" x="-9" dy="0.32em">−0.5</text></g><g class="tick" opacity="1" transform="translate(0,360.5)"><line stroke="currentColor" x2="-6"></line><text fill="currentColor" x="-9" dy="0.32em">−0.4</text></g><g class="tick" opacity="1" transform="translate(0,330.5)"><line stroke="currentColor" x2="-6"></line><text fill="currentColor" x="-9" dy="0.32em">−0.3</text></g><g class="tick" opacity="1" transform="translate(0,300.5)"><line stroke="currentColor" x2="-6"></line><text fill="currentColor" x="-9" dy="0.32em">−0.2</text></g><g class="tick" opacity="1" transform="translate(0,270.5)"><line stroke="currentColor" x2="-6"></line><text fill="currentColor" x="-9" dy="0.32em">−0.1</text></g><g class="tick" opacity="1" transform="translate(0,240.5)"><line stroke="currentColor" x2="-6"></line><text fill="currentColor" x="-9" dy="0.32em">0.0</text></g><g class="tick" opacity="1" transform="translate(0,210.50000000000003)"><line stroke="currentColor" x2="-6"></line><text fill="currentColor" x="-9" dy="0.32em">0.1</text></g><g class="tick" opacity="1" transform="translate(0,180.5)"><line stroke="currentColor" x2="-6"></line><text fill="currentColor" x="-9" dy="0.32em">0.2</text></g><g class="tick" opacity="1" transform="translate(0,150.5)"><line stroke="currentColor" x2="-6"></line><text fill="currentColor" x="-9" dy="0.32em">0.3</text></g><g class="tick" opacity="1" transform="translate(0,120.5)"><line stroke="currentColor" x2="-6"></line><text fill="currentColor" x="-9" dy="0.32em">0.4</text></g><g class="tick" opacity="1" transform="translate(0,90.50000000000003)"><line stroke="currentColor" x2="-6"></line><text fill="currentColor" x="-9" dy="0.32em">0.5</text></g><g class="tick" opacity="1" transform="translate(0,60.5)"><line stroke="currentColor" x2="-6"></line><text fill="currentColor" x="-9" dy="0.32em">0.6</text></g><g class="tick" opacity="1" transform="translate(0,30.500000000000025)"><line stroke="currentColor" x2="-6"></line><text fill="currentColor" x="-9" dy="0.32em">0.7</text></g><g class="tick" opacity="1" transform="translate(0,0.5)"><line stroke="currentColor" x2="-6"></line><text fill="currentColor" x="-9" dy="0.32em">0.8</text></g></g><path fill="none" stroke="steelblue" stroke-width="1" d="M17.824,240L33.102,240L48.38,240L63.657,240L78.935,240L94.213,240L109.491,240L124.769,207.171L140.046,163.022L155.324,168.682L170.602,337.355L185.88,258.113L201.157,225.284L216.435,290.941L231.713,242.264L246.991,267.169L262.269,240L277.546,240L292.824,240L308.102,240L323.38,240L338.657,240L353.935,240L369.213,240L384.491,240L399.769,240L415.046,240L430.324,240L445.602,240L460.88,240L476.157,240L491.435,235.472L506.713,141.513L521.991,240L537.269,259.245L552.546,23.77L567.824,360.007L583.102,358.863L598.38,284.149L613.657,256.98L628.935,240L644.213,240L659.491,240L674.769,240L690.046,240L705.324,240L720.602,240L735.88,240L751.157,240L766.435,240L781.713,240L796.991,240L812.269,240L827.546,240L842.824,240L858.102,227.548L873.38,184.53L888.657,229.812L903.935,252.452L919.213,210.567L934.491,246.792L949.769,269.433L965.046,278.489L980.324,260.377L995.602,240L1010.88,240L1026.157,240L1041.435,240L1056.713,240L1071.991,240L1087.269,240"></path><g><circle cx="17.824074074074073" cy="240" r="2" fill="steelblue"></circle><circle cx="33.10185185185185" cy="240" r="2" fill="steelblue"></circle><circle cx="48.37962962962963" cy="240" r="2" fill="steelblue"></circle><circle cx="63.657407407407405" cy="240" r="2" fill="steelblue"></circle><circle cx="78.93518518518519" cy="240" r="2" fill="steelblue"></circle><circle cx="94.21296296296298" cy="240" r="2" fill="steelblue"></circle><circle cx="109.49074074074073" cy="240" r="2" fill="steelblue"></circle><circle cx="124.76851851851852" cy="207.17105014905098" r="2" fill="steelblue"></circle><circle cx="140.0462962962963" cy="163.02177276329198" r="2" fill="steelblue"></circle><circle cx="155.32407407407405" cy="168.68193653069693" r="2" fill="steelblue"></circle><circle cx="170.60185185185185" cy="337.35481679936606" r="2" fill="steelblue"></circle><circle cx="185.87962962962962" cy="258.112524055696" r="2" fill="steelblue"></circle><circle cx="201.15740740740742" cy="225.28357420474697" r="2" fill="steelblue"></circle><circle cx="216.4351851851852" cy="290.94147390664506" r="2" fill="steelblue"></circle><circle cx="231.71296296296296" cy="242.26406550696203" r="2" fill="steelblue"></circle><circle cx="246.99074074074073" cy="267.168786083544" r="2" fill="steelblue"></circle><circle cx="262.26851851851853" cy="240" r="2" fill="steelblue"></circle><circle cx="277.5462962962963" cy="240" r="2" fill="steelblue"></circle><circle cx="292.8240740740741" cy="240" r="2" fill="steelblue"></circle><circle cx="308.1018518518519" cy="240" r="2" fill="steelblue"></circle><circle cx="323.3796296296296" cy="240" r="2" fill="steelblue"></circle><circle cx="338.6574074074074" cy="240" r="2" fill="steelblue"></circle><circle cx="353.93518518518516" cy="240" r="2" fill="steelblue"></circle><circle cx="369.21296296296293" cy="240" r="2" fill="steelblue"></circle><circle cx="384.49074074074076" cy="240" r="2" fill="steelblue"></circle><circle cx="399.76851851851853" cy="240" r="2" fill="steelblue"></circle><circle cx="415.0462962962963" cy="240" r="2" fill="steelblue"></circle><circle cx="430.3240740740741" cy="240" r="2" fill="steelblue"></circle><circle cx="445.6018518518519" cy="240" r="2" fill="steelblue"></circle><circle cx="460.8796296296296" cy="240" r="2" fill="steelblue"></circle><circle cx="476.1574074074074" cy="240" r="2" fill="steelblue"></circle><circle cx="491.43518518518516" cy="235.471868986076" r="2" fill="steelblue"></circle><circle cx="506.71296296296293" cy="141.51315044715295" r="2" fill="steelblue"></circle><circle cx="521.9907407407408" cy="240" r="2" fill="steelblue"></circle><circle cx="537.2685185185185" cy="259.2445568091771" r="2" fill="steelblue"></circle><circle cx="552.5462962962962" cy="23.77042375759406" r="2" fill="steelblue"></circle><circle cx="567.8240740740741" cy="360.0067921965209" r="2" fill="steelblue"></circle><circle cx="583.1018518518518" cy="358.86343911550506" r="2" fill="steelblue"></circle><circle cx="598.3796296296297" cy="284.14927738575904" r="2" fill="steelblue"></circle><circle cx="613.6574074074074" cy="256.980491302215" r="2" fill="steelblue"></circle><circle cx="628.9351851851852" cy="240" r="2" fill="steelblue"></circle><circle cx="644.2129629629629" cy="240" r="2" fill="steelblue"></circle><circle cx="659.4907407407408" cy="240" r="2" fill="steelblue"></circle><circle cx="674.7685185185185" cy="240" r="2" fill="steelblue"></circle><circle cx="690.0462962962962" cy="240" r="2" fill="steelblue"></circle><circle cx="705.3240740740741" cy="240" r="2" fill="steelblue"></circle><circle cx="720.6018518518518" cy="240" r="2" fill="steelblue"></circle><circle cx="735.8796296296297" cy="240" r="2" fill="steelblue"></circle><circle cx="751.1574074074074" cy="240" r="2" fill="steelblue"></circle><circle cx="766.4351851851852" cy="240" r="2" fill="steelblue"></circle><circle cx="781.7129629629629" cy="240" r="2" fill="steelblue"></circle><circle cx="796.9907407407408" cy="240" r="2" fill="steelblue"></circle><circle cx="812.2685185185185" cy="240" r="2" fill="steelblue"></circle><circle cx="827.5462962962962" cy="240" r="2" fill="steelblue"></circle><circle cx="842.8240740740741" cy="240" r="2" fill="steelblue"></circle><circle cx="858.1018518518518" cy="227.547639711709" r="2" fill="steelblue"></circle><circle cx="873.3796296296297" cy="184.53039507943097" r="2" fill="steelblue"></circle><circle cx="888.6574074074074" cy="229.811705218671" r="2" fill="steelblue"></circle><circle cx="903.9351851851852" cy="252.45236028829103" r="2" fill="steelblue"></circle><circle cx="919.2129629629629" cy="210.567148409494" r="2" fill="steelblue"></circle><circle cx="934.4907407407408" cy="246.79219652088602" r="2" fill="steelblue"></circle><circle cx="949.7685185185185" cy="269.432851590506" r="2" fill="steelblue"></circle><circle cx="965.0462962962962" cy="278.489113618354" r="2" fill="steelblue"></circle><circle cx="980.3240740740741" cy="260.376589562658" r="2" fill="steelblue"></circle><circle cx="995.6018518518518" cy="240" r="2" fill="steelblue"></circle><circle cx="1010.8796296296297" cy="240" r="2" fill="steelblue"></circle><circle cx="1026.1574074074074" cy="240" r="2" fill="steelblue"></circle><circle cx="1041.4351851851852" cy="240" r="2" fill="steelblue"></circle><circle cx="1056.712962962963" cy="240" r="2" fill="steelblue"></circle><circle cx="1071.9907407407409" cy="240" r="2" fill="steelblue"></circle><circle cx="1087.2685185185185" cy="240" r="2" fill="steelblue"></circle></g><path fill="none" stroke="orange" stroke-width="1" d="M17.981,239.996L33.267,240.004L48.554,240L63.84,240L79.126,240L94.412,239.996L109.699,239.794L124.985,212.335L140.271,111.38L155.562,238.161L170.848,163.508L185.884,237.675L201.17,245.562L216.461,321.854L231.747,282.088L247.037,339.46L262.324,248.188L277.61,240L292.896,239.996L308.182,240.004L323.469,239.996L338.755,240.004L354.041,240L369.328,240L384.614,240L399.9,239.996L415.186,240.004L430.473,239.996L445.759,240.004L461.045,240L476.331,239.819L491.618,210.012L506.908,133.09L522.194,221.035L537.485,171.468L552.771,234.778L568.062,169.799L583.348,373.432L598.384,366.794L613.67,276.948L628.956,242.82L644.243,240.006L659.529,240L674.815,240L690.101,240L705.392,240L720.678,240L735.965,239.994L751.251,240.006L766.537,240L781.823,240L797.11,240L812.396,240L827.682,240L842.968,239.628L858.259,202.919L873.545,183.796L888.831,224.53L904.122,154.937L919.408,166.73L934.699,268.166L949.989,317.847L965.275,299.796L980.566,335.539L995.852,246.112L1010.884,240L1026.17,240L1041.456,240L1056.743,239.996L1072.029,240.004L1087.315,239.996"></path><g><circle cx="17.98109567901235" cy="239.9956984574643" r="2" fill="orange"></circle><circle cx="33.26736111111111" cy="240.0043015425357" r="2" fill="orange"></circle><circle cx="48.55362654320988" cy="240" r="2" fill="orange"></circle><circle cx="63.83989197530864" cy="240" r="2" fill="orange"></circle><circle cx="79.1261574074074" cy="240" r="2" fill="orange"></circle><circle cx="94.41242283950618" cy="239.9956984574643" r="2" fill="orange"></circle><circle cx="109.69868827160494" cy="239.7935261916452" r="2" fill="orange"></circle><circle cx="124.98495370370371" cy="212.33466091844127" r="2" fill="orange"></circle><circle cx="140.27121913580245" cy="111.37971506848461" r="2" fill="orange"></circle><circle cx="155.56172839506172" cy="238.16110293398816" r="2" fill="orange"></circle><circle cx="170.84799382716048" cy="163.50789430039063" r="2" fill="orange"></circle><circle cx="185.88387345679013" cy="237.67501733290712" r="2" fill="orange"></circle><circle cx="201.17013888888889" cy="245.561883390789" r="2" fill="orange"></circle><circle cx="216.46064814814815" cy="321.8539682492507" r="2" fill="orange"></circle><circle cx="231.7469135802469" cy="282.08839500866003" r="2" fill="orange"></circle><circle cx="247.03742283950618" cy="339.4601609389241" r="2" fill="orange"></circle><circle cx="262.32368827160496" cy="248.18797720905496" r="2" fill="orange"></circle><circle cx="277.6099537037037" cy="240" r="2" fill="orange"></circle><circle cx="292.8962191358025" cy="239.9956984574643" r="2" fill="orange"></circle><circle cx="308.1824845679012" cy="240.0043015425357" r="2" fill="orange"></circle><circle cx="323.46875" cy="239.9956984574643" r="2" fill="orange"></circle><circle cx="338.7550154320988" cy="240.0043015425357" r="2" fill="orange"></circle><circle cx="354.0412808641975" cy="240" r="2" fill="orange"></circle><circle cx="369.3275462962963" cy="240" r="2" fill="orange"></circle><circle cx="384.6138117283951" cy="240" r="2" fill="orange"></circle><circle cx="399.9000771604938" cy="239.9956984574643" r="2" fill="orange"></circle><circle cx="415.1863425925926" cy="240.0043015425357" r="2" fill="orange"></circle><circle cx="430.4726080246914" cy="239.9956984574643" r="2" fill="orange"></circle><circle cx="445.7588734567901" cy="240.0043015425357" r="2" fill="orange"></circle><circle cx="461.0451388888889" cy="240" r="2" fill="orange"></circle><circle cx="476.33140432098764" cy="239.81933540018767" r="2" fill="orange"></circle><circle cx="491.61766975308643" cy="210.01182836921265" r="2" fill="orange"></circle><circle cx="506.90817901234567" cy="133.08958008395533" r="2" fill="orange"></circle><circle cx="522.1944444444445" cy="221.03451268160833" r="2" fill="orange"></circle><circle cx="537.4849537037037" cy="171.46790422327624" r="2" fill="orange"></circle><circle cx="552.7712191358024" cy="234.77792848179004" r="2" fill="orange"></circle><circle cx="568.0617283950617" cy="169.7989107599697" r="2" fill="orange"></circle><circle cx="583.3479938271605" cy="373.43156161116605" r="2" fill="orange"></circle><circle cx="598.3838734567902" cy="366.7942692506114" r="2" fill="orange"></circle><circle cx="613.6701388888889" cy="276.94805891261905" r="2" fill="orange"></circle><circle cx="628.9564043209876" cy="242.81965791179996" r="2" fill="orange"></circle><circle cx="644.2426697530864" cy="240.00645231380355" r="2" fill="orange"></circle><circle cx="659.5289351851851" cy="240" r="2" fill="orange"></circle><circle cx="674.815200617284" cy="240" r="2" fill="orange"></circle><circle cx="690.1014660493827" cy="240" r="2" fill="orange"></circle><circle cx="705.3919753086419" cy="240" r="2" fill="orange"></circle><circle cx="720.6782407407408" cy="240" r="2" fill="orange"></circle><circle cx="735.9645061728395" cy="239.99354768619648" r="2" fill="orange"></circle><circle cx="751.2507716049382" cy="240.00645231380355" r="2" fill="orange"></circle><circle cx="766.5370370370371" cy="240" r="2" fill="orange"></circle><circle cx="781.8233024691358" cy="240" r="2" fill="orange"></circle><circle cx="797.1095679012345" cy="240" r="2" fill="orange"></circle><circle cx="812.3958333333334" cy="240" r="2" fill="orange"></circle><circle cx="827.6820987654321" cy="240" r="2" fill="orange"></circle><circle cx="842.9683641975308" cy="239.6279169907078" r="2" fill="orange"></circle><circle cx="858.2588734567902" cy="202.91859340878958" r="2" fill="orange"></circle><circle cx="873.5451388888889" cy="183.79610384828177" r="2" fill="orange"></circle><circle cx="888.8314043209876" cy="224.52952182581896" r="2" fill="orange"></circle><circle cx="904.121913580247" cy="154.9370920336406" r="2" fill="orange"></circle><circle cx="919.4081790123457" cy="166.72976207429238" r="2" fill="orange"></circle><circle cx="934.6986882716049" cy="268.16646934702703" r="2" fill="orange"></circle><circle cx="949.9891975308642" cy="317.84708273073227" r="2" fill="orange"></circle><circle cx="965.2754629629629" cy="299.79566970079884" r="2" fill="orange"></circle><circle cx="980.5659722222223" cy="335.5393025373847" r="2" fill="orange"></circle><circle cx="995.852237654321" cy="246.1124855025261" r="2" fill="orange"></circle><circle cx="1010.8838734567902" cy="240" r="2" fill="orange"></circle><circle cx="1026.170138888889" cy="240" r="2" fill="orange"></circle><circle cx="1041.4564043209875" cy="240" r="2" fill="orange"></circle><circle cx="1056.7426697530864" cy="239.9956984574643" r="2" fill="orange"></circle><circle cx="1072.0289351851852" cy="240.0043015425357" r="2" fill="orange"></circle><circle cx="1087.3152006172838" cy="239.9956984574643" r="2" fill="orange"></circle></g></g></svg>
