<svg width="1200" height="500" xmlns="http://www.w3.org/2000/svg" xmlns:xlink="http://www.w3.org/1999/xlink"><g transform="translate(50,50)"><g transform="translate(0,390)" fill="none" font-size="10" font-family="sans-serif" text-anchor="middle"><path class="domain" stroke="currentColor" d="M0.5,6V0.5H1100.5V6"></path><g class="tick" opacity="1" transform="translate(0.5,0)"><line stroke="currentColor" y2="6"></line><text fill="currentColor" y="9" dy="0.71em" transform="rotate(-90)" style="text-anchor: end;">00:00</text></g><g class="tick" opacity="1" transform="translate(31.055555555555554,0)"><line stroke="currentColor" y2="6"></line><text fill="currentColor" y="9" dy="0.71em" transform="rotate(-90)" style="text-anchor: end;">02:00</text></g><g class="tick" opacity="1" transform="translate(61.61111111111111,0)"><line stroke="currentColor" y2="6"></line><text fill="currentColor" y="9" dy="0.71em" transform="rotate(-90)" style="text-anchor: end;">04:00</text></g><g class="tick" opacity="1" transform="translate(92.16666666666666,0)"><line stroke="currentColor" y2="6"></line><text fill="currentColor" y="9" dy="0.71em" transform="rotate(-90)" style="text-anchor: end;">06:00</text></g><g class="tick" opacity="1" transform="translate(122.72222222222221,0)"><line stroke="currentColor" y2="6"></line><text fill="currentColor" y="9" dy="0.71em" transform="rotate(-90)" style="text-anchor: end;">08:00</text></g><g class="tick" opacity="1" transform="translate(153.27777777777777,0)"><line stroke="currentColor" y2="6"></line><text fill="currentColor" y="9" dy="0.71em" transform="rotate(-90)" style="text-anchor: end;">10:00</text></g><g class="tick" opacity="1" transform="translate(183.83333333333331,0)"><line stroke="currentColor" y2="6"></line><text fill="currentColor" y="9" dy="0.71em" transform="rotate(-90)" style="text-anchor: end;">12:00</text></g><g class="tick" opacity="1" transform="translate(214.38888888888889,0)"><line stroke="currentColor" y2="6"></line><text fill="currentColor" y="9" dy="0.71em" transform="rotate(-90)" style="text-anchor: end;">14:00</text></g><g class="tick" opacity="1" transform="translate(244.94444444444443,0)"><line stroke="currentColor" y2="6"></line><text fill="currentColor" y="9" dy="0.71em" transform="rotate(-90)" style="text-anchor: end;">16:00</text></g><g class="tick" opacity="1" transform="translate(275.5,0)"><line stroke="currentColor" y2="6"></line><text fill="currentColor" y="9" dy="0.71em" transform="rotate(-90)" style="text-anchor: end;">18:00</text></g><g class="tick" opacity="1" transform="translate(306.05555555555554,0)"><line stroke="currentColor" y2="6"></line><text fill="currentColor" y="9" dy="0.71em" transform="rotate(-90)" style="text-anchor: end;">20:00</text></g><g class="tick" opacity="1" transform="translate(336.61111111111114,0)"><line stroke="currentColor" y2="6"></line><text fill="currentColor" y="9" dy="0.71em" transform="rotate(-90)" style="text-anchor: end;">22:00</text></g><g class="tick" opacity="1" transform="translate(367.16666666666663,0)"><line stroke="currentColor" y2="6"></line><text fill="currentColor" y="9" dy="0.71em" transform="rotate(-90)" style="text-anchor: end;">00:00</text></g><g class="tick" opacity="1" transform="translate(397.72222222222223,0)"><line stroke="currentColor" y2="6"></line><text fill="currentColor" y="9" dy="0.71em" transform="rotate(-90)" style="text-anchor: end;">02:00</text></g><g class="tick" opacity="1" transform="translate(428.27777777777777,0)"><line stroke="currentColor" y2="6"></line><text fill="currentColor" y="9" dy="0.71em" transform="rotate(-90)" style="text-anchor: end;">04:00</text></g><g class="tick" opacity="1" transform="translate(458.83333333333337,0)"><line stroke="currentColor" y2="6"></line><text fill="currentColor" y="9" dy="0.71em" transform="rotate(-90)" style="text-anchor: end;">06:00</text></g><g class="tick" opacity="1" transform="translate(489.38888888888886,0)"><line stroke="currentColor" y2="6"></line><text fill="currentColor" y="9" dy="0.71em" transform="rotate(-90)" style="text-anchor: end;">08:00</text></g><g class="tick" opacity="1" transform="translate(519.9444444444445,0)"><line stroke="currentColor" y2="6"></line><text fill="currentColor" y="9" dy="0.71em" transform="rotate(-90)" style="text-anchor: end;">10:00</text></g><g class="tick" opacity="1" transform="translate(550.5,0)"><line stroke="currentColor" y2="6"></line><text fill="currentColor" y="9" dy="0.71em" transform="rotate(-90)" style="text-anchor: end;">12:00</text></g><g class="tick" opacity="1" transform="translate(581.0555555555555,0)"><line stroke="currentColor" y2="6"></line><text fill="currentColor" y="9" dy="0.71em" transform="rotate(-90)" style="text-anchor: end;">14:00</text></g><g class="tick" opacity="1" transform="translate(611.6111111111111,0)"><line stroke="currentColor" y2="6"></line><text fill="currentColor" y="9" dy="0.71em" transform="rotate(-90)" style="text-anchor: end;">16:00</text></g><g class="tick" opacity="1" transform="translate(642.1666666666667,0)"><line stroke="currentColor" y2="6"></line><text fill="currentColor" y="9" dy="0.71em" transform="rotate(-90)" style="text-anchor: end;">18:00</text></g><g class="tick" opacity="1" transform="translate(672.7222222222223,0)"><line stroke="currentColor" y2="6"></line><text fill="currentColor" y="9" dy="0.71em" transform="rotate(-90)" style="text-anchor: end;">20:00</text></g><g class="tick" opacity="1" transform="translate(703.2777777777777,0)"><line stroke="currentColor" y2="6"></line><text fill="currentColor" y="9" dy="0.71em" transform="rotate(-90)" style="text-anchor: end;">22:00</text></g><g class="tick" opacity="1" transform="translate(733.8333333333333,0)"><line stroke="currentColor" y2="6"></line><text fill="currentColor" y="9" dy="0.71em" transform="rotate(-90)" style="text-anchor: end;">00:00</text></g><g class="tick" opacity="1" transform="translate(764.3888888888889,0)"><line stroke="currentColor" y2="6"></line><text fill="currentColor" y="9" dy="0.71em" transform="rotate(-90)" style="text-anchor: end;">02:00</text></g><g class="tick" opacity="1" transform="translate(794.9444444444445,0)"><line stroke="currentColor" y2="6"></line><text fill="currentColor" y="9" dy="0.71em" transform="rotate(-90)" style="text-anchor: end;">04:00</text></g><g class="tick" opacity="1" transform="translate(825.5,0)"><line stroke="currentColor" y2="6"></line><text fill="currentColor" y="9" dy="0.71em" transform="rotate(-90)" style="text-anchor: end;">06:00</text></g><g class="tick" opacity="1" transform="translate(856.0555555555555,0)"><line stroke="currentColor" y2="6"></line><text fill="currentColor" y="9" dy="0.71em" transform="rotate(-90)" style="text-anchor: end;">08:00</text></g><g class="tick" opacity="1" transform="translate(886.6111111111111,0)"><line stroke="currentColor" y2="6"></line><text fill="currentColor" y="9" dy="0.71em" transform="rotate(-90)" style="text-anchor: end;">10:00</text></g><g class="tick" opacity="1" transform="translate(917.1666666666667,0)"><line stroke="currentColor" y2="6"></line><text fill="currentColor" y="9" dy="0.71em" transform="rotate(-90)" style="text-anchor: end;">12:00</text></g><g class="tick" opacity="1" transform="translate(947.7222222222223,0)"><line stroke="currentColor" y2="6"></line><text fill="currentColor" y="9" dy="0.71em" transform="rotate(-90)" style="text-anchor: end;">14:00</text></g><g class="tick" opacity="1" transform="translate(978.2777777777777,0)"><line stroke="currentColor" y2="6"></line><text fill="currentColor" y="9" dy="0.71em" transform="rotate(-90)" style="text-anchor: end;">16:00</text></g><g class="tick" opacity="1" transform="translate(1008.8333333333333,0)"><line stroke="currentColor" y2="6"></line><text fill="currentColor" y="9" dy="0.71em" transform="rotate(-90)" style="text-anchor: end;">18:00</text></g><g class="tick" opacity="1" transform="translate(1039.388888888889,0)"><line stroke="currentColor" y2="6"></line><text fill="currentColor" y="9" dy="0.71em" transform="rotate(-90)" style="text-anchor: end;">20:00</text></g><g class="tick" opacity="1" transform="translate(1069.9444444444443,0)"><line stroke="currentColor" y2="6"></line><text fill="currentColor" y="9" dy="0.71em" transform="rotate(-90)" style="text-anchor: end;">22:00</text></g><g class="tick" opacity="1" transform="translate(1100.5,0)"><line stroke="currentColor" y2="6"></line><text fill="currentColor" y="9" dy="0.71em" transform="rotate(-90)" style="text-anchor: end;">00:00</text></g></g><g fill="none" font-size="10" font-family="sans-serif" text-anchor="end"><path class="domain" stroke="currentColor" d="M-6,390.5H0.5V0.5H-6"></path><g class="tick" opacity="1" transform="translate(0,390.5)"><line stroke="currentColor" x2="-6"></line><text fill="currentColor" x="-9" dy="0.32em">0.0</text></g><g class="tick" opacity="1" transform="translate(0,351.5)"><line stroke="currentColor" x2="-6"></line><text fill="currentColor" x="-9" dy="0.32em">0.1</text></g><g class="tick" opacity="1" transform="translate(0,312.5)"><line stroke="currentColor" x2="-6"></line><text fill="currentColor" x="-9" dy="0.32em">0.2</text></g><g class="tick" opacity="1" transform="translate(0,273.5)"><line stroke="currentColor" x2="-6"></line><text fill="currentColor" x="-9" dy="0.32em">0.3</text></g><g class="tick" opacity="1" transform="translate(0,234.5)"><line stroke="currentColor" x2="-6"></line><text fill="currentColor" x="-9" dy="0.32em">0.4</text></g><g class="tick" opacity="1" transform="translate(0,195.5)"><line stroke="currentColor" x2="-6"></line><text fill="currentColor" x="-9" dy="0.32em">0.5</text></g><g class="tick" opacity="1" transform="translate(0,156.5)"><line stroke="currentColor" x2="-6"></line><text fill="currentColor" x="-9" dy="0.32em">0.6</text></g><g class="tick" opacity="1" transform="translate(0,117.50000000000001)"><line stroke="currentColor" x2="-6"></line><text fill="currentColor" x="-9" dy="0.32em">0.7</text></g><g class="tick" opacity="1" transform="translate(0,78.49999999999999)"><line stroke="currentColor" x2="-6"></line><text fill="currentColor" x="-9" dy="0.32em">0.8</text></g><g class="tick" opacity="1" transform="translate(0,39.49999999999999)"><line stroke="currentColor" x2="-6"></line><text fill="currentColor" x="-9" dy="0.32em">0.9</text></g><g class="tick" opacity="1" transform="translate(0,0.5)"><line stroke="currentColor" x2="-6"></line><text fill="currentColor" x="-9" dy="0.32em">1.0</text></g></g><path fill="none" stroke="steelblue" stroke-width="1" d="M2.695,390L17.981,389.994L33.267,390L48.554,390L63.84,390L79.126,390L94.412,389.994L109.699,389.726L124.985,353.761L140.271,186.555L155.562,184.164L170.848,84.724L185.884,81.702L201.17,88.932L216.461,195.343L231.747,250.057L247.037,379.356L262.324,390L277.61,390L292.896,389.994L308.182,390L323.469,389.994L338.755,390L354.041,390L369.328,390L384.614,390L399.9,389.994L415.186,390L430.473,389.994L445.759,390L461.045,390L476.331,389.765L491.618,350.781L506.908,211.797L522.194,187.142L537.485,98.05L552.771,91.261L568.062,0L583.348,173.461L598.384,338.294L613.67,386.326L628.956,389.992L644.243,390L659.529,390L674.815,390L690.101,390L705.392,390L720.678,390L735.965,389.992L751.251,390L766.537,390L781.823,390L797.11,390L812.396,390L827.682,390L842.968,389.516L858.259,341.31L873.545,268.245L888.831,248.134L904.122,137.552L919.408,42.301L934.699,78.917L949.989,180.118L965.275,257.853L980.566,382.054L995.852,390L1010.884,390L1026.17,390L1041.456,390L1056.743,389.994L1072.029,390L1087.315,389.994"></path><g><circle cx="2.6948302469135803" cy="390" r="2" fill="steelblue"></circle><circle cx="17.98109567901235" cy="389.9944079947036" r="2" fill="steelblue"></circle><circle cx="33.26736111111111" cy="390" r="2" fill="steelblue"></circle><circle cx="48.55362654320988" cy="390" r="2" fill="steelblue"></circle><circle cx="63.83989197530864" cy="390" r="2" fill="steelblue"></circle><circle cx="79.1261574074074" cy="390" r="2" fill="steelblue"></circle><circle cx="94.41242283950618" cy="389.9944079947036" r="2" fill="steelblue"></circle><circle cx="109.69868827160494" cy="389.7259920438423" r="2" fill="steelblue"></circle><circle cx="124.98495370370371" cy="353.761051237816" r="2" fill="steelblue"></circle><circle cx="140.27121913580245" cy="186.55468082684598" r="2" fill="steelblue"></circle><circle cx="155.56172839506172" cy="184.16411464103058" r="2" fill="steelblue"></circle><circle cx="170.84799382716048" cy="84.72437723153838" r="2" fill="steelblue"></circle><circle cx="185.88387345679013" cy="81.70189976431762" r="2" fill="steelblue"></circle><circle cx="201.17013888888889" cy="88.93234817234328" r="2" fill="steelblue"></circle><circle cx="216.46064814814815" cy="195.34250689636926" r="2" fill="steelblue"></circle><circle cx="231.7469135802469" cy="250.05742040762723" r="2" fill="steelblue"></circle><circle cx="247.03742283950618" cy="379.35562962822854" r="2" fill="steelblue"></circle><circle cx="262.32368827160496" cy="390" r="2" fill="steelblue"></circle><circle cx="277.6099537037037" cy="390" r="2" fill="steelblue"></circle><circle cx="292.8962191358025" cy="389.9944079947036" r="2" fill="steelblue"></circle><circle cx="308.1824845679012" cy="390" r="2" fill="steelblue"></circle><circle cx="323.46875" cy="389.9944079947036" r="2" fill="steelblue"></circle><circle cx="338.7550154320988" cy="390" r="2" fill="steelblue"></circle><circle cx="354.0412808641975" cy="390" r="2" fill="steelblue"></circle><circle cx="369.3275462962963" cy="390" r="2" fill="steelblue"></circle><circle cx="384.6138117283951" cy="390" r="2" fill="steelblue"></circle><circle cx="399.9000771604938" cy="389.9944079947036" r="2" fill="steelblue"></circle><circle cx="415.1863425925926" cy="390" r="2" fill="steelblue"></circle><circle cx="430.4726080246914" cy="389.9944079947036" r="2" fill="steelblue"></circle><circle cx="445.7588734567901" cy="390" r="2" fill="steelblue"></circle><circle cx="461.0451388888889" cy="390" r="2" fill="steelblue"></circle><circle cx="476.33140432098764" cy="389.765136020244" r="2" fill="steelblue"></circle><circle cx="491.61766975308643" cy="350.7805129002204" r="2" fill="steelblue"></circle><circle cx="506.90817901234567" cy="211.7969670093623" r="2" fill="steelblue"></circle><circle cx="522.1944444444445" cy="187.1418334954532" r="2" fill="steelblue"></circle><circle cx="537.4849537037037" cy="98.05010898571234" r="2" fill="steelblue"></circle><circle cx="552.7712191358024" cy="91.26141601203939" r="2" fill="steelblue"></circle><circle cx="568.0617283950617" cy="0" r="2" fill="steelblue"></circle><circle cx="583.3479938271605" cy="173.46103009451585" r="2" fill="steelblue"></circle><circle cx="598.3838734567902" cy="338.2935801203107" r="2" fill="steelblue"></circle><circle cx="613.6701388888889" cy="386.3260567067154" r="2" fill="steelblue"></circle><circle cx="628.9564043209876" cy="389.99161199205537" r="2" fill="steelblue"></circle><circle cx="644.2426697530864" cy="390" r="2" fill="steelblue"></circle><circle cx="659.5289351851851" cy="390" r="2" fill="steelblue"></circle><circle cx="674.815200617284" cy="390" r="2" fill="steelblue"></circle><circle cx="690.1014660493827" cy="390" r="2" fill="steelblue"></circle><circle cx="705.3919753086419" cy="390" r="2" fill="steelblue"></circle><circle cx="720.6782407407408" cy="390" r="2" fill="steelblue"></circle><circle cx="735.9645061728395" cy="389.99161199205537" r="2" fill="steelblue"></circle><circle cx="751.2507716049382" cy="390" r="2" fill="steelblue"></circle><circle cx="766.5370370370371" cy="390" r="2" fill="steelblue"></circle><circle cx="781.8233024691358" cy="390" r="2" fill="steelblue"></circle><circle cx="797.1095679012345" cy="390" r="2" fill="steelblue"></circle><circle cx="812.3958333333334" cy="390" r="2" fill="steelblue"></circle><circle cx="827.6820987654321" cy="390" r="2" fill="steelblue"></circle><circle cx="842.9683641975308" cy="389.51629208792014" r="2" fill="steelblue"></circle><circle cx="858.2588734567902" cy="341.31046351934657" r="2" fill="steelblue"></circle><circle cx="873.5451388888889" cy="268.2453985221129" r="2" fill="steelblue"></circle><circle cx="888.8314043209876" cy="248.13377689567753" r="2" fill="steelblue"></circle><circle cx="904.121913580247" cy="137.5519965394103" r="2" fill="steelblue"></circle><circle cx="919.4081790123457" cy="42.30068723599039" r="2" fill="steelblue"></circle><circle cx="934.6986882716049" cy="78.9170973871256" r="2" fill="steelblue"></circle><circle cx="949.9891975308642" cy="180.11830493707748" r="2" fill="steelblue"></circle><circle cx="965.2754629629629" cy="257.85267554811594" r="2" fill="steelblue"></circle><circle cx="980.5659722222223" cy="382.053768846716" r="2" fill="steelblue"></circle><circle cx="995.852237654321" cy="390" r="2" fill="steelblue"></circle><circle cx="1010.8838734567902" cy="390" r="2" fill="steelblue"></circle><circle cx="1026.170138888889" cy="390" r="2" fill="steelblue"></circle><circle cx="1041.4564043209875" cy="390" r="2" fill="steelblue"></circle><circle cx="1056.7426697530864" cy="389.9944079947036" r="2" fill="steelblue"></circle><circle cx="1072.0289351851852" cy="390" r="2" fill="steelblue"></circle><circle cx="1087.3152006172838" cy="389.9944079947036" r="2" fill="steelblue"></circle></g><path fill="none" stroke="orange" stroke-width="1" d="M2.695,187.142L17.981,169.963L33.267,148.763L48.554,161.19L63.84,163.018L79.126,154.246L94.412,161.556L109.699,139.625L124.985,129.391L140.271,153.88L155.562,214.92L170.848,267.188L185.884,312.877L201.17,344.311L216.461,389.634L231.747,390L247.037,337.001L262.324,266.457L277.61,262.802L292.896,216.017L308.182,172.887L323.469,179.466L338.755,203.59L354.041,183.852L369.328,165.942L384.614,142.549L399.9,164.48L415.186,185.679L430.473,154.246L445.759,143.646L461.045,171.059L476.331,172.521L491.618,177.638L506.908,232.099L522.194,306.298L537.485,295.333L552.771,324.939L568.062,348.332L583.348,313.243L598.384,240.872L613.67,229.541L628.956,200.665L644.243,173.252L659.529,154.246L674.815,159.728L690.101,171.059L705.392,152.418L720.678,185.314L735.965,149.128L751.251,163.383L766.537,145.108L781.823,148.032L797.11,149.128L812.396,133.046L827.682,129.025L842.968,127.563L858.259,144.011L873.545,171.79L888.831,195.914L904.122,244.527L919.408,333.346L934.699,376.111L949.989,339.194L965.275,274.864L980.566,166.307L995.852,111.115L1010.884,101.978L1026.17,53.365L1041.456,12.062L1056.743,0L1072.029,15.717L1087.315,16.448"></path><g><circle cx="2.6948302469135803" cy="187.14151827553889" r="2" fill="orange"></circle><circle cx="17.98109567901235" cy="169.96251171508908" r="2" fill="orange"></circle><circle cx="33.26736111111111" cy="148.76288659793795" r="2" fill="orange"></circle><circle cx="48.55362654320988" cy="161.1902530459231" r="2" fill="orange"></circle><circle cx="63.83989197530864" cy="163.01780693533257" r="2" fill="orange"></circle><circle cx="79.1261574074074" cy="154.24554826616688" r="2" fill="orange"></circle><circle cx="94.41242283950618" cy="161.55576382380497" r="2" fill="orange"></circle><circle cx="109.69868827160494" cy="139.62511715089016" r="2" fill="orange"></circle><circle cx="124.98495370370371" cy="129.39081537019686" r="2" fill="orange"></circle><circle cx="140.27121913580245" cy="153.88003748828476" r="2" fill="orange"></circle><circle cx="155.56172839506172" cy="214.92033739456414" r="2" fill="orange"></circle><circle cx="170.84799382716048" cy="267.18837863167755" r="2" fill="orange"></circle><circle cx="185.88387345679013" cy="312.87722586691655" r="2" fill="orange"></circle><circle cx="201.17013888888889" cy="344.31115276476095" r="2" fill="orange"></circle><circle cx="216.46064814814815" cy="389.6344892221182" r="2" fill="orange"></circle><circle cx="231.7469135802469" cy="390" r="2" fill="orange"></circle><circle cx="247.03742283950618" cy="337.0009372071229" r="2" fill="orange"></circle><circle cx="262.32368827160496" cy="266.4573570759139" r="2" fill="orange"></circle><circle cx="277.6099537037037" cy="262.8022492970947" r="2" fill="orange"></circle><circle cx="292.8962191358025" cy="216.0168697282099" r="2" fill="orange"></circle><circle cx="308.1824845679012" cy="172.88659793814432" r="2" fill="orange"></circle><circle cx="323.46875" cy="179.46579194001873" r="2" fill="orange"></circle><circle cx="338.7550154320988" cy="203.5895032802248" r="2" fill="orange"></circle><circle cx="354.0412808641975" cy="183.85192127460155" r="2" fill="orange"></circle><circle cx="369.3275462962963" cy="165.94189315838804" r="2" fill="orange"></circle><circle cx="384.6138117283951" cy="142.5492033739457" r="2" fill="orange"></circle><circle cx="399.9000771604938" cy="164.47985004686043" r="2" fill="orange"></circle><circle cx="415.1863425925926" cy="185.67947516401128" r="2" fill="orange"></circle><circle cx="430.4726080246914" cy="154.24554826616688" r="2" fill="orange"></circle><circle cx="445.7588734567901" cy="143.64573570759146" r="2" fill="orange"></circle><circle cx="461.0451388888889" cy="171.05904404873482" r="2" fill="orange"></circle><circle cx="476.33140432098764" cy="172.52108716026245" r="2" fill="orange"></circle><circle cx="491.61766975308643" cy="177.63823805060923" r="2" fill="orange"></circle><circle cx="506.90817901234567" cy="232.09934395501398" r="2" fill="orange"></circle><circle cx="522.1944444444445" cy="306.29803186504216" r="2" fill="orange"></circle><circle cx="537.4849537037037" cy="295.33270852858493" r="2" fill="orange"></circle><circle cx="552.7712191358024" cy="324.9390815370196" r="2" fill="orange"></circle><circle cx="568.0617283950617" cy="348.331771321462" r="2" fill="orange"></circle><circle cx="583.3479938271605" cy="313.2427366447984" r="2" fill="orange"></circle><circle cx="598.3838734567902" cy="240.87160262417993" r="2" fill="orange"></circle><circle cx="613.6701388888889" cy="229.5407685098406" r="2" fill="orange"></circle><circle cx="628.9564043209876" cy="200.66541705716958" r="2" fill="orange"></circle><circle cx="644.2426697530864" cy="173.25210871602613" r="2" fill="orange"></circle><circle cx="659.5289351851851" cy="154.24554826616688" r="2" fill="orange"></circle><circle cx="674.815200617284" cy="159.72820993439552" r="2" fill="orange"></circle><circle cx="690.1014660493827" cy="171.05904404873482" r="2" fill="orange"></circle><circle cx="705.3919753086419" cy="152.41799437675715" r="2" fill="orange"></circle><circle cx="720.6782407407408" cy="185.3139643861292" r="2" fill="orange"></circle><circle cx="735.9645061728395" cy="149.12839737582007" r="2" fill="orange"></circle><circle cx="751.2507716049382" cy="163.38331771321467" r="2" fill="orange"></circle><circle cx="766.5370370370371" cy="145.10777881911906" r="2" fill="orange"></circle><circle cx="781.8233024691358" cy="148.03186504217427" r="2" fill="orange"></circle><circle cx="797.1095679012345" cy="149.12839737582007" r="2" fill="orange"></circle><circle cx="812.3958333333334" cy="133.04592314901575" r="2" fill="orange"></circle><circle cx="827.6820987654321" cy="129.02530459231474" r="2" fill="orange"></circle><circle cx="842.9683641975308" cy="127.56326148078712" r="2" fill="orange"></circle><circle cx="858.2588734567902" cy="144.01124648547327" r="2" fill="orange"></circle><circle cx="873.5451388888889" cy="171.79006560449852" r="2" fill="orange"></circle><circle cx="888.8314043209876" cy="195.91377694470484" r="2" fill="orange"></circle><circle cx="904.121913580247" cy="244.5267104029991" r="2" fill="orange"></circle><circle cx="919.4081790123457" cy="333.3458294283037" r="2" fill="orange"></circle><circle cx="934.6986882716049" cy="376.1105904404875" r="2" fill="orange"></circle><circle cx="949.9891975308642" cy="339.1940018744142" r="2" fill="orange"></circle><circle cx="965.2754629629629" cy="274.86410496719776" r="2" fill="orange"></circle><circle cx="980.5659722222223" cy="166.3074039362699" r="2" fill="orange"></circle><circle cx="995.852237654321" cy="111.11527647610123" r="2" fill="orange"></circle><circle cx="1010.8838734567902" cy="101.97750702905343" r="2" fill="orange"></circle><circle cx="1026.170138888889" cy="53.364573570758935" r="2" fill="orange"></circle><circle cx="1041.4564043209875" cy="12.06185567010305" r="2" fill="orange"></circle><circle cx="1056.7426697530864" cy="0" r="2" fill="orange"></circle><circle cx="1072.0289351851852" cy="15.716963448922204" r="2" fill="orange"></circle><circle cx="1087.3152006172838" cy="16.447985004685886" r="2" fill="orange"></circle></g></g></svg>
