<svg width="1200" height="500" xmlns="http://www.w3.org/2000/svg" xmlns:xlink="http://www.w3.org/1999/xlink"><g transform="translate(50,50)"><g transform="translate(0,390)" fill="none" font-size="10" font-family="sans-serif" text-anchor="middle"><path class="domain" stroke="currentColor" d="M0.5,6V0.5H1100.5V6"></path><g class="tick" opacity="1" transform="translate(0.5,0)"><line stroke="currentColor" y2="6"></line><text fill="currentColor" y="9" dy="0.71em" transform="rotate(-90)" style="text-anchor: end;">00:00</text></g><g class="tick" opacity="1" transform="translate(31.055555555555554,0)"><line stroke="currentColor" y2="6"></line><text fill="currentColor" y="9" dy="0.71em" transform="rotate(-90)" style="text-anchor: end;">02:00</text></g><g class="tick" opacity="1" transform="translate(61.61111111111111,0)"><line stroke="currentColor" y2="6"></line><text fill="currentColor" y="9" dy="0.71em" transform="rotate(-90)" style="text-anchor: end;">04:00</text></g><g class="tick" opacity="1" transform="translate(92.16666666666666,0)"><line stroke="currentColor" y2="6"></line><text fill="currentColor" y="9" dy="0.71em" transform="rotate(-90)" style="text-anchor: end;">06:00</text></g><g class="tick" opacity="1" transform="translate(122.72222222222221,0)"><line stroke="currentColor" y2="6"></line><text fill="currentColor" y="9" dy="0.71em" transform="rotate(-90)" style="text-anchor: end;">08:00</text></g><g class="tick" opacity="1" transform="translate(153.27777777777777,0)"><line stroke="currentColor" y2="6"></line><text fill="currentColor" y="9" dy="0.71em" transform="rotate(-90)" style="text-anchor: end;">10:00</text></g><g class="tick" opacity="1" transform="translate(183.83333333333331,0)"><line stroke="currentColor" y2="6"></line><text fill="currentColor" y="9" dy="0.71em" transform="rotate(-90)" style="text-anchor: end;">12:00</text></g><g class="tick" opacity="1" transform="translate(214.38888888888889,0)"><line stroke="currentColor" y2="6"></line><text fill="currentColor" y="9" dy="0.71em" transform="rotate(-90)" style="text-anchor: end;">14:00</text></g><g class="tick" opacity="1" transform="translate(244.94444444444443,0)"><line stroke="currentColor" y2="6"></line><text fill="currentColor" y="9" dy="0.71em" transform="rotate(-90)" style="text-anchor: end;">16:00</text></g><g class="tick" opacity="1" transform="translate(275.5,0)"><line stroke="currentColor" y2="6"></line><text fill="currentColor" y="9" dy="0.71em" transform="rotate(-90)" style="text-anchor: end;">18:00</text></g><g class="tick" opacity="1" transform="translate(306.05555555555554,0)"><line stroke="currentColor" y2="6"></line><text fill="currentColor" y="9" dy="0.71em" transform="rotate(-90)" style="text-anchor: end;">20:00</text></g><g class="tick" opacity="1" transform="translate(336.61111111111114,0)"><line stroke="currentColor" y2="6"></line><text fill="currentColor" y="9" dy="0.71em" transform="rotate(-90)" style="text-anchor: end;">22:00</text></g><g class="tick" opacity="1" transform="translate(367.16666666666663,0)"><line stroke="currentColor" y2="6"></line><text fill="currentColor" y="9" dy="0.71em" transform="rotate(-90)" style="text-anchor: end;">00:00</text></g><g class="tick" opacity="1" transform="translate(397.72222222222223,0)"><line stroke="currentColor" y2="6"></line><text fill="currentColor" y="9" dy="0.71em" transform="rotate(-90)" style="text-anchor: end;">02:00</text></g><g class="tick" opacity="1" transform="translate(428.27777777777777,0)"><line stroke="currentColor" y2="6"></line><text fill="currentColor" y="9" dy="0.71em" transform="rotate(-90)" style="text-anchor: end;">04:00</text></g><g class="tick" opacity="1" transform="translate(458.83333333333337,0)"><line stroke="currentColor" y2="6"></line><text fill="currentColor" y="9" dy="0.71em" transform="rotate(-90)" style="text-anchor: end;">06:00</text></g><g class="tick" opacity="1" transform="translate(489.38888888888886,0)"><line stroke="currentColor" y2="6"></line><text fill="currentColor" y="9" dy="0.71em" transform="rotate(-90)" style="text-anchor: end;">08:00</text></g><g class="tick" opacity="1" transform="translate(519.9444444444445,0)"><line stroke="currentColor" y2="6"></line><text fill="currentColor" y="9" dy="0.71em" transform="rotate(-90)" style="text-anchor: end;">10:00</text></g><g class="tick" opacity="1" transform="translate(550.5,0)"><line stroke="currentColor" y2="6"></line><text fill="currentColor" y="9" dy="0.71em" transform="rotate(-90)" style="text-anchor: end;">12:00</text></g><g class="tick" opacity="1" transform="translate(581.0555555555555,0)"><line stroke="currentColor" y2="6"></line><text fill="currentColor" y="9" dy="0.71em" transform="rotate(-90)" style="text-anchor: end;">14:00</text></g><g class="tick" opacity="1" transform="translate(611.6111111111111,0)"><line stroke="currentColor" y2="6"></line><text fill="currentColor" y="9" dy="0.71em" transform="rotate(-90)" style="text-anchor: end;">16:00</text></g><g class="tick" opacity="1" transform="translate(642.1666666666667,0)"><line stroke="currentColor" y2="6"></line><text fill="currentColor" y="9" dy="0.71em" transform="rotate(-90)" style="text-anchor: end;">18:00</text></g><g class="tick" opacity="1" transform="translate(672.7222222222223,0)"><line stroke="currentColor" y2="6"></line><text fill="currentColor" y="9" dy="0.71em" transform="rotate(-90)" style="text-anchor: end;">20:00</text></g><g class="tick" opacity="1" transform="translate(703.2777777777777,0)"><line stroke="currentColor" y2="6"></line><text fill="currentColor" y="9" dy="0.71em" transform="rotate(-90)" style="text-anchor: end;">22:00</text></g><g class="tick" opacity="1" transform="translate(733.8333333333333,0)"><line stroke="currentColor" y2="6"></line><text fill="currentColor" y="9" dy="0.71em" transform="rotate(-90)" style="text-anchor: end;">00:00</text></g><g class="tick" opacity="1" transform="translate(764.3888888888889,0)"><line stroke="currentColor" y2="6"></line><text fill="currentColor" y="9" dy="0.71em" transform="rotate(-90)" style="text-anchor: end;">02:00</text></g><g class="tick" opacity="1" transform="translate(794.9444444444445,0)"><line stroke="currentColor" y2="6"></line><text fill="currentColor" y="9" dy="0.71em" transform="rotate(-90)" style="text-anchor: end;">04:00</text></g><g class="tick" opacity="1" transform="translate(825.5,0)"><line stroke="currentColor" y2="6"></line><text fill="currentColor" y="9" dy="0.71em" transform="rotate(-90)" style="text-anchor: end;">06:00</text></g><g class="tick" opacity="1" transform="translate(856.0555555555555,0)"><line stroke="currentColor" y2="6"></line><text fill="currentColor" y="9" dy="0.71em" transform="rotate(-90)" style="text-anchor: end;">08:00</text></g><g class="tick" opacity="1" transform="translate(886.6111111111111,0)"><line stroke="currentColor" y2="6"></line><text fill="currentColor" y="9" dy="0.71em" transform="rotate(-90)" style="text-anchor: end;">10:00</text></g><g class="tick" opacity="1" transform="translate(917.1666666666667,0)"><line stroke="currentColor" y2="6"></line><text fill="currentColor" y="9" dy="0.71em" transform="rotate(-90)" style="text-anchor: end;">12:00</text></g><g class="tick" opacity="1" transform="translate(947.7222222222223,0)"><line stroke="currentColor" y2="6"></line><text fill="currentColor" y="9" dy="0.71em" transform="rotate(-90)" style="text-anchor: end;">14:00</text></g><g class="tick" opacity="1" transform="translate(978.2777777777777,0)"><line stroke="currentColor" y2="6"></line><text fill="currentColor" y="9" dy="0.71em" transform="rotate(-90)" style="text-anchor: end;">16:00</text></g><g class="tick" opacity="1" transform="translate(1008.8333333333333,0)"><line stroke="currentColor" y2="6"></line><text fill="currentColor" y="9" dy="0.71em" transform="rotate(-90)" style="text-anchor: end;">18:00</text></g><g class="tick" opacity="1" transform="translate(1039.388888888889,0)"><line stroke="currentColor" y2="6"></line><text fill="currentColor" y="9" dy="0.71em" transform="rotate(-90)" style="text-anchor: end;">20:00</text></g><g class="tick" opacity="1" transform="translate(1069.9444444444443,0)"><line stroke="currentColor" y2="6"></line><text fill="currentColor" y="9" dy="0.71em" transform="rotate(-90)" style="text-anchor: end;">22:00</text></g><g class="tick" opacity="1" transform="translate(1100.5,0)"><line stroke="currentColor" y2="6"></line><text fill="currentColor" y="9" dy="0.71em" transform="rotate(-90)" style="text-anchor: end;">00:00</text></g></g><g fill="none" font-size="10" font-family="sans-serif" text-anchor="end"><path class="domain" stroke="currentColor" d="M-6,390.5H0.5V0.5H-6"></path><g class="tick" opacity="1" transform="translate(0,390.5)"><line stroke="currentColor" x2="-6"></line><text fill="currentColor" x="-9" dy="0.32em">−0.25</text></g><g class="tick" opacity="1" transform="translate(0,355.04545454545456)"><line stroke="currentColor" x2="-6"></line><text fill="currentColor" x="-9" dy="0.32em">−0.20</text></g><g class="tick" opacity="1" transform="translate(0,319.59090909090907)"><line stroke="currentColor" x2="-6"></line><text fill="currentColor" x="-9" dy="0.32em">−0.15</text></g><g class="tick" opacity="1" transform="translate(0,284.1363636363636)"><line stroke="currentColor" x2="-6"></line><text fill="currentColor" x="-9" dy="0.32em">−0.10</text></g><g class="tick" opacity="1" transform="translate(0,248.6818181818182)"><line stroke="currentColor" x2="-6"></line><text fill="currentColor" x="-9" dy="0.32em">−0.05</text></g><g class="tick" opacity="1" transform="translate(0,213.22727272727272)"><line stroke="currentColor" x2="-6"></line><text fill="currentColor" x="-9" dy="0.32em">0.00</text></g><g class="tick" opacity="1" transform="translate(0,177.77272727272728)"><line stroke="currentColor" x2="-6"></line><text fill="currentColor" x="-9" dy="0.32em">0.05</text></g><g class="tick" opacity="1" transform="translate(0,142.31818181818187)"><line stroke="currentColor" x2="-6"></line><text fill="currentColor" x="-9" dy="0.32em">0.10</text></g><g class="tick" opacity="1" transform="translate(0,106.86363636363636)"><line stroke="currentColor" x2="-6"></line><text fill="currentColor" x="-9" dy="0.32em">0.15</text></g><g class="tick" opacity="1" transform="translate(0,71.40909090909093)"><line stroke="currentColor" x2="-6"></line><text fill="currentColor" x="-9" dy="0.32em">0.20</text></g><g class="tick" opacity="1" transform="translate(0,35.95454545454547)"><line stroke="currentColor" x2="-6"></line><text fill="currentColor" x="-9" dy="0.32em">0.25</text></g><g class="tick" opacity="1" transform="translate(0,0.5)"><line stroke="currentColor" x2="-6"></line><text fill="currentColor" x="-9" dy="0.32em">0.30</text></g></g><path fill="none" stroke="steelblue" stroke-width="1" d="M17.981,282.199L33.267,258.243L48.554,218.716L63.84,185.178L79.126,213.925L94.412,237.881L109.699,218.716L124.985,216.321L140.271,172.002L155.562,156.431L170.848,187.574L185.884,172.002L201.17,201.947L216.461,175.596L231.747,252.254L247.037,332.506L262.324,245.068L277.61,229.496L292.896,219.914L308.182,246.265L323.469,186.376L338.755,166.014L354.041,218.716L369.328,222.31L384.614,243.87L399.9,192.365L415.186,185.178L430.473,203.145L445.759,204.343L461.045,203.145L476.331,188.771L491.618,204.343L506.908,155.233L522.194,137.267L537.485,205.541L552.771,152.838L568.062,155.233L583.348,255.848L598.384,277.408L613.67,221.112L628.956,242.672L644.243,203.145L659.529,235.485L674.815,205.541L690.101,161.222L705.392,192.365L720.678,212.727L735.965,252.254L751.251,224.705L766.537,192.365L781.823,221.112L797.11,247.463L812.396,177.991L827.682,191.167L842.968,215.123L858.259,183.98L873.545,173.2L888.831,174.398L904.122,133.673L919.408,58.213L934.699,134.871L949.989,264.232L965.275,298.968L980.566,362.451L995.852,286.99L1010.884,219.914L1026.17,264.232L1041.456,273.814L1056.743,218.716L1072.029,194.76L1087.315,215.123"></path><g><circle cx="17.98109567901235" cy="282.1990171990172" r="2" fill="steelblue"></circle><circle cx="33.26736111111111" cy="258.24324324324334" r="2" fill="steelblue"></circle><circle cx="48.55362654320988" cy="218.7162162162161" r="2" fill="steelblue"></circle><circle cx="63.83989197530864" cy="185.17813267813284" r="2" fill="steelblue"></circle><circle cx="79.1261574074074" cy="213.92506142506141" r="2" fill="steelblue"></circle><circle cx="94.41242283950618" cy="237.88083538083526" r="2" fill="steelblue"></circle><circle cx="109.69868827160494" cy="218.71621621621628" r="2" fill="steelblue"></circle><circle cx="124.98495370370371" cy="216.32063882063878" r="2" fill="steelblue"></circle><circle cx="140.27121913580245" cy="172.00245700245702" r="2" fill="steelblue"></circle><circle cx="155.56172839506172" cy="156.4312039312039" r="2" fill="steelblue"></circle><circle cx="170.84799382716048" cy="187.5737100737102" r="2" fill="steelblue"></circle><circle cx="185.88387345679013" cy="172.00245700245685" r="2" fill="steelblue"></circle><circle cx="201.17013888888889" cy="201.94717444717446" r="2" fill="steelblue"></circle><circle cx="216.46064814814815" cy="175.59582309582325" r="2" fill="steelblue"></circle><circle cx="231.7469135802469" cy="252.25429975429998" r="2" fill="steelblue"></circle><circle cx="247.03742283950618" cy="332.5061425061423" r="2" fill="steelblue"></circle><circle cx="262.32368827160496" cy="245.06756756756752" r="2" fill="steelblue"></circle><circle cx="277.6099537037037" cy="229.49631449631457" r="2" fill="steelblue"></circle><circle cx="292.8962191358025" cy="219.91400491400498" r="2" fill="steelblue"></circle><circle cx="308.1824845679012" cy="246.2653562653562" r="2" fill="steelblue"></circle><circle cx="323.46875" cy="186.37592137592134" r="2" fill="steelblue"></circle><circle cx="338.7550154320988" cy="166.0135135135137" r="2" fill="steelblue"></circle><circle cx="354.0412808641975" cy="218.7162162162161" r="2" fill="steelblue"></circle><circle cx="369.3275462962963" cy="222.30958230958234" r="2" fill="steelblue"></circle><circle cx="384.6138117283951" cy="243.86977886977886" r="2" fill="steelblue"></circle><circle cx="399.9000771604938" cy="192.3648648648649" r="2" fill="steelblue"></circle><circle cx="415.1863425925926" cy="185.17813267813284" r="2" fill="steelblue"></circle><circle cx="430.4726080246914" cy="203.14496314496319" r="2" fill="steelblue"></circle><circle cx="445.7588734567901" cy="204.34275184275185" r="2" fill="steelblue"></circle><circle cx="461.0451388888889" cy="203.14496314496313" r="2" fill="steelblue"></circle><circle cx="476.33140432098764" cy="188.7714987714986" r="2" fill="steelblue"></circle><circle cx="491.61766975308643" cy="204.34275184275208" r="2" fill="steelblue"></circle><circle cx="506.90817901234567" cy="155.23341523341523" r="2" fill="steelblue"></circle><circle cx="522.1944444444445" cy="137.2665847665849" r="2" fill="steelblue"></circle><circle cx="537.4849537037037" cy="205.54054054054026" r="2" fill="steelblue"></circle><circle cx="552.7712191358024" cy="152.83783783783787" r="2" fill="steelblue"></circle><circle cx="568.0617283950617" cy="155.23341523341517" r="2" fill="steelblue"></circle><circle cx="583.3479938271605" cy="255.84766584766626" r="2" fill="steelblue"></circle><circle cx="598.3838734567902" cy="277.4078624078623" r="2" fill="steelblue"></circle><circle cx="613.6701388888889" cy="221.1117936117937" r="2" fill="steelblue"></circle><circle cx="628.9564043209876" cy="242.6719901719902" r="2" fill="steelblue"></circle><circle cx="644.2426697530864" cy="203.14496314496293" r="2" fill="steelblue"></circle><circle cx="659.5289351851851" cy="235.48525798525813" r="2" fill="steelblue"></circle><circle cx="674.815200617284" cy="205.5405405405407" r="2" fill="steelblue"></circle><circle cx="690.1014660493827" cy="161.22235872235836" r="2" fill="steelblue"></circle><circle cx="705.3919753086419" cy="192.3648648648651" r="2" fill="steelblue"></circle><circle cx="720.6782407407408" cy="212.72727272727272" r="2" fill="steelblue"></circle><circle cx="735.9645061728395" cy="252.25429975429955" r="2" fill="steelblue"></circle><circle cx="751.2507716049382" cy="224.70515970515984" r="2" fill="steelblue"></circle><circle cx="766.5370370370371" cy="192.36486486486467" r="2" fill="steelblue"></circle><circle cx="781.8233024691358" cy="221.1117936117937" r="2" fill="steelblue"></circle><circle cx="797.1095679012345" cy="247.46314496314525" r="2" fill="steelblue"></circle><circle cx="812.3958333333334" cy="177.9914004914002" r="2" fill="steelblue"></circle><circle cx="827.6820987654321" cy="191.16707616707623" r="2" fill="steelblue"></circle><circle cx="842.9683641975308" cy="215.12285012285005" r="2" fill="steelblue"></circle><circle cx="858.2588734567902" cy="183.9803439803442" r="2" fill="steelblue"></circle><circle cx="873.5451388888889" cy="173.20024570024592" r="2" fill="steelblue"></circle><circle cx="888.8314043209876" cy="174.3980343980344" r="2" fill="steelblue"></circle><circle cx="904.121913580247" cy="133.67321867321868" r="2" fill="steelblue"></circle><circle cx="919.4081790123457" cy="58.212530712530366" r="2" fill="steelblue"></circle><circle cx="934.6986882716049" cy="134.87100737100758" r="2" fill="steelblue"></circle><circle cx="949.9891975308642" cy="264.2321867321867" r="2" fill="steelblue"></circle><circle cx="965.2754629629629" cy="298.9680589680588" r="2" fill="steelblue"></circle><circle cx="980.5659722222223" cy="362.45085995086" r="2" fill="steelblue"></circle><circle cx="995.852237654321" cy="286.99017199017214" r="2" fill="steelblue"></circle><circle cx="1010.8838734567902" cy="219.91400491400478" r="2" fill="steelblue"></circle><circle cx="1026.170138888889" cy="264.23218673218713" r="2" fill="steelblue"></circle><circle cx="1041.4564043209875" cy="273.8144963144961" r="2" fill="steelblue"></circle><circle cx="1056.7426697530864" cy="218.71621621621628" r="2" fill="steelblue"></circle><circle cx="1072.0289351851852" cy="194.76044226044246" r="2" fill="steelblue"></circle><circle cx="1087.3152006172838" cy="215.12285012285005" r="2" fill="steelblue"></circle></g><path fill="none" stroke="orange" stroke-width="1" d="M17.981,181.493L33.267,174.182L48.554,235.322L63.84,216.05L79.126,196.778L94.412,226.019L109.699,172.853L124.985,194.119L140.271,257.253L155.562,323.71L170.848,307.76L185.884,295.798L201.17,269.88L216.461,295.133L231.747,213.392L247.037,116.365L262.324,84.466L277.61,206.082L292.896,127.663L308.182,134.309L323.469,224.689L338.755,256.589L354.041,176.841L369.328,180.164L384.614,170.195L399.9,252.601L415.186,251.272L430.473,155.575L445.759,193.455L461.045,262.57L476.331,215.386L491.618,222.031L506.908,311.747L522.194,347.634L537.485,192.79L552.771,266.557L568.062,255.259L583.348,148.929L598.384,81.143L613.67,192.126L628.956,160.227L644.243,162.885L659.529,178.17L674.815,222.696L690.101,233.329L705.392,178.834L720.678,272.538L735.965,146.935L751.251,238.645L766.537,179.499L781.823,218.044L797.11,214.721L812.396,183.486L827.682,205.417L842.968,210.069L858.259,242.633L873.545,263.234L888.831,256.589L904.122,301.114L919.408,374.217L934.699,290.481L949.989,145.606L965.275,95.764L980.566,15.351L995.852,112.378L1010.884,196.113L1026.17,124.34L1041.456,137.631L1056.743,190.797L1072.029,241.304L1087.315,214.056"></path><g><circle cx="17.98109567901235" cy="181.49271534463668" r="2" fill="orange"></circle><circle cx="33.26736111111111" cy="174.182499786998" r="2" fill="orange"></circle><circle cx="48.55362654320988" cy="235.3224844508821" r="2" fill="orange"></circle><circle cx="63.83989197530864" cy="216.05009798074454" r="2" fill="orange"></circle><circle cx="79.1261574074074" cy="196.7777115106078" r="2" fill="orange"></circle><circle cx="94.41242283950618" cy="226.01857374116017" r="2" fill="orange"></circle><circle cx="109.69868827160494" cy="172.85336968560947" r="2" fill="orange"></circle><circle cx="124.98495370370371" cy="194.11945130783036" r="2" fill="orange"></circle><circle cx="140.27121913580245" cy="257.25313112379615" r="2" fill="orange"></circle><circle cx="155.56172839506172" cy="323.7096361932353" r="2" fill="orange"></circle><circle cx="170.84799382716048" cy="307.76007497656985" r="2" fill="orange"></circle><circle cx="185.88387345679013" cy="295.79790406407096" r="2" fill="orange"></circle><circle cx="201.17013888888889" cy="269.8798670869899" r="2" fill="orange"></circle><circle cx="216.46064814814815" cy="295.13333901337666" r="2" fill="orange"></circle><circle cx="231.7469135802469" cy="213.391837777967" r="2" fill="orange"></circle><circle cx="247.03742283950618" cy="116.36534037658711" r="2" fill="orange"></circle><circle cx="262.32368827160496" cy="84.46621794325634" r="2" fill="orange"></circle><circle cx="277.6099537037037" cy="206.08162222032877" r="2" fill="orange"></circle><circle cx="292.8962191358025" cy="127.66294623839133" r="2" fill="orange"></circle><circle cx="308.1824845679012" cy="134.3085967453353" r="2" fill="orange"></circle><circle cx="323.46875" cy="224.68944363977167" r="2" fill="orange"></circle><circle cx="338.7550154320988" cy="256.58856607310196" r="2" fill="orange"></circle><circle cx="354.0412808641975" cy="176.840759989776" r="2" fill="orange"></circle><circle cx="369.3275462962963" cy="180.16358524324818" r="2" fill="orange"></circle><circle cx="384.6138117283951" cy="170.1951094828321" r="2" fill="orange"></circle><circle cx="399.9000771604938" cy="252.60117576893592" r="2" fill="orange"></circle><circle cx="415.1863425925926" cy="251.272045667547" r="2" fill="orange"></circle><circle cx="430.4726080246914" cy="155.57467836755563" r="2" fill="orange"></circle><circle cx="445.7588734567901" cy="193.4548862571356" r="2" fill="orange"></circle><circle cx="461.0451388888889" cy="262.5696515293516" r="2" fill="orange"></circle><circle cx="476.33140432098764" cy="215.38553293005026" r="2" fill="orange"></circle><circle cx="491.61766975308643" cy="222.03118343699416" r="2" fill="orange"></circle><circle cx="506.90817901234567" cy="311.74746528073587" r="2" fill="orange"></circle><circle cx="522.1944444444445" cy="347.6339780182331" r="2" fill="orange"></circle><circle cx="537.4849537037037" cy="192.79032120644138" r="2" fill="orange"></circle><circle cx="552.7712191358024" cy="266.55704183351764" r="2" fill="orange"></circle><circle cx="568.0617283950617" cy="255.25943597171346" r="2" fill="orange"></circle><circle cx="583.3479938271605" cy="148.92902786061165" r="2" fill="orange"></circle><circle cx="598.3838734567902" cy="81.14339268978462" r="2" fill="orange"></circle><circle cx="613.6701388888889" cy="192.12575615574661" r="2" fill="orange"></circle><circle cx="628.9564043209876" cy="160.22663372241635" r="2" fill="orange"></circle><circle cx="644.2426697530864" cy="162.8848939251938" r="2" fill="orange"></circle><circle cx="659.5289351851851" cy="178.16989009116497" r="2" fill="orange"></circle><circle cx="674.815200617284" cy="222.69574848768843" r="2" fill="orange"></circle><circle cx="690.1014660493827" cy="233.3287892987988" r="2" fill="orange"></circle><circle cx="705.3919753086419" cy="178.83445514185877" r="2" fill="orange"></circle><circle cx="720.6782407407408" cy="272.5381272897673" r="2" fill="orange"></circle><circle cx="735.9645061728395" cy="146.9353327085289" r="2" fill="orange"></circle><circle cx="751.2507716049382" cy="238.6453097043538" r="2" fill="orange"></circle><circle cx="766.5370370370371" cy="179.4990201925535" r="2" fill="orange"></circle><circle cx="781.8233024691358" cy="218.04379313282766" r="2" fill="orange"></circle><circle cx="797.1095679012345" cy="214.72096787935604" r="2" fill="orange"></circle><circle cx="812.3958333333334" cy="183.48641049671943" r="2" fill="orange"></circle><circle cx="827.6820987654321" cy="205.41705716963455" r="2" fill="orange"></circle><circle cx="842.9683641975308" cy="210.06901252449524" r="2" fill="orange"></circle><circle cx="858.2588734567902" cy="242.63270000852032" r="2" fill="orange"></circle><circle cx="873.5451388888889" cy="263.23421658004594" r="2" fill="orange"></circle><circle cx="888.8314043209876" cy="256.58856607310247" r="2" fill="orange"></circle><circle cx="904.121913580247" cy="301.11442446962593" r="2" fill="orange"></circle><circle cx="919.4081790123457" cy="374.2165800460084" r="2" fill="orange"></circle><circle cx="934.6986882716049" cy="290.48138365851594" r="2" fill="orange"></circle><circle cx="949.9891975308642" cy="145.60620260713947" r="2" fill="orange"></circle><circle cx="965.2754629629629" cy="95.76382380506107" r="2" fill="orange"></circle><circle cx="980.5659722222223" cy="15.35145267104034" r="2" fill="orange"></circle><circle cx="995.852237654321" cy="112.3779500724206" r="2" fill="orange"></circle><circle cx="1010.8838734567902" cy="196.11314645991308" r="2" fill="orange"></circle><circle cx="1026.170138888889" cy="124.3401209849191" r="2" fill="orange"></circle><circle cx="1041.4564043209875" cy="137.6314219988075" r="2" fill="orange"></circle><circle cx="1056.7426697530864" cy="190.7966260543581" r="2" fill="orange"></circle><circle cx="1072.0289351851852" cy="241.3035699071313" r="2" fill="orange"></circle><circle cx="1087.3152006172838" cy="214.05640282866128" r="2" fill="orange"></circle></g></g></svg>
