<svg width="1200" height="500" xmlns="http://www.w3.org/2000/svg" xmlns:xlink="http://www.w3.org/1999/xlink"><g transform="translate(50,50)"><g transform="translate(0,390)" fill="none" font-size="10" font-family="sans-serif" text-anchor="middle"><path class="domain" stroke="currentColor" d="M0.5,6V0.5H1100.5V6"></path><g class="tick" opacity="1" transform="translate(0.5,0)"><line stroke="currentColor" y2="6"></line><text fill="currentColor" y="9" dy="0.71em" transform="rotate(-90)" style="text-anchor: end;">00:00</text></g><g class="tick" opacity="1" transform="translate(31.055555555555554,0)"><line stroke="currentColor" y2="6"></line><text fill="currentColor" y="9" dy="0.71em" transform="rotate(-90)" style="text-anchor: end;">02:00</text></g><g class="tick" opacity="1" transform="translate(61.61111111111111,0)"><line stroke="currentColor" y2="6"></line><text fill="currentColor" y="9" dy="0.71em" transform="rotate(-90)" style="text-anchor: end;">04:00</text></g><g class="tick" opacity="1" transform="translate(92.16666666666666,0)"><line stroke="currentColor" y2="6"></line><text fill="currentColor" y="9" dy="0.71em" transform="rotate(-90)" style="text-anchor: end;">06:00</text></g><g class="tick" opacity="1" transform="translate(122.72222222222221,0)"><line stroke="currentColor" y2="6"></line><text fill="currentColor" y="9" dy="0.71em" transform="rotate(-90)" style="text-anchor: end;">08:00</text></g><g class="tick" opacity="1" transform="translate(153.27777777777777,0)"><line stroke="currentColor" y2="6"></line><text fill="currentColor" y="9" dy="0.71em" transform="rotate(-90)" style="text-anchor: end;">10:00</text></g><g class="tick" opacity="1" transform="translate(183.83333333333331,0)"><line stroke="currentColor" y2="6"></line><text fill="currentColor" y="9" dy="0.71em" transform="rotate(-90)" style="text-anchor: end;">12:00</text></g><g class="tick" opacity="1" transform="translate(214.38888888888889,0)"><line stroke="currentColor" y2="6"></line><text fill="currentColor" y="9" dy="0.71em" transform="rotate(-90)" style="text-anchor: end;">14:00</text></g><g class="tick" opacity="1" transform="translate(244.94444444444443,0)"><line stroke="currentColor" y2="6"></line><text fill="currentColor" y="9" dy="0.71em" transform="rotate(-90)" style="text-anchor: end;">16:00</text></g><g class="tick" opacity="1" transform="translate(275.5,0)"><line stroke="currentColor" y2="6"></line><text fill="currentColor" y="9" dy="0.71em" transform="rotate(-90)" style="text-anchor: end;">18:00</text></g><g class="tick" opacity="1" transform="translate(306.05555555555554,0)"><line stroke="currentColor" y2="6"></line><text fill="currentColor" y="9" dy="0.71em" transform="rotate(-90)" style="text-anchor: end;">20:00</text></g><g class="tick" opacity="1" transform="translate(336.61111111111114,0)"><line stroke="currentColor" y2="6"></line><text fill="currentColor" y="9" dy="0.71em" transform="rotate(-90)" style="text-anchor: end;">22:00</text></g><g class="tick" opacity="1" transform="translate(367.16666666666663,0)"><line stroke="currentColor" y2="6"></line><text fill="currentColor" y="9" dy="0.71em" transform="rotate(-90)" style="text-anchor: end;">00:00</text></g><g class="tick" opacity="1" transform="translate(397.72222222222223,0)"><line stroke="currentColor" y2="6"></line><text fill="currentColor" y="9" dy="0.71em" transform="rotate(-90)" style="text-anchor: end;">02:00</text></g><g class="tick" opacity="1" transform="translate(428.27777777777777,0)"><line stroke="currentColor" y2="6"></line><text fill="currentColor" y="9" dy="0.71em" transform="rotate(-90)" style="text-anchor: end;">04:00</text></g><g class="tick" opacity="1" transform="translate(458.83333333333337,0)"><line stroke="currentColor" y2="6"></line><text fill="currentColor" y="9" dy="0.71em" transform="rotate(-90)" style="text-anchor: end;">06:00</text></g><g class="tick" opacity="1" transform="translate(489.38888888888886,0)"><line stroke="currentColor" y2="6"></line><text fill="currentColor" y="9" dy="0.71em" transform="rotate(-90)" style="text-anchor: end;">08:00</text></g><g class="tick" opacity="1" transform="translate(519.9444444444445,0)"><line stroke="currentColor" y2="6"></line><text fill="currentColor" y="9" dy="0.71em" transform="rotate(-90)" style="text-anchor: end;">10:00</text></g><g class="tick" opacity="1" transform="translate(550.5,0)"><line stroke="currentColor" y2="6"></line><text fill="currentColor" y="9" dy="0.71em" transform="rotate(-90)" style="text-anchor: end;">12:00</text></g><g class="tick" opacity="1" transform="translate(581.0555555555555,0)"><line stroke="currentColor" y2="6"></line><text fill="currentColor" y="9" dy="0.71em" transform="rotate(-90)" style="text-anchor: end;">14:00</text></g><g class="tick" opacity="1" transform="translate(611.6111111111111,0)"><line stroke="currentColor" y2="6"></line><text fill="currentColor" y="9" dy="0.71em" transform="rotate(-90)" style="text-anchor: end;">16:00</text></g><g class="tick" opacity="1" transform="translate(642.1666666666667,0)"><line stroke="currentColor" y2="6"></line><text fill="currentColor" y="9" dy="0.71em" transform="rotate(-90)" style="text-anchor: end;">18:00</text></g><g class="tick" opacity="1" transform="translate(672.7222222222223,0)"><line stroke="currentColor" y2="6"></line><text fill="currentColor" y="9" dy="0.71em" transform="rotate(-90)" style="text-anchor: end;">20:00</text></g><g class="tick" opacity="1" transform="translate(703.2777777777777,0)"><line stroke="currentColor" y2="6"></line><text fill="currentColor" y="9" dy="0.71em" transform="rotate(-90)" style="text-anchor: end;">22:00</text></g><g class="tick" opacity="1" transform="translate(733.8333333333333,0)"><line stroke="currentColor" y2="6"></line><text fill="currentColor" y="9" dy="0.71em" transform="rotate(-90)" style="text-anchor: end;">00:00</text></g><g class="tick" opacity="1" transform="translate(764.3888888888889,0)"><line stroke="currentColor" y2="6"></line><text fill="currentColor" y="9" dy="0.71em" transform="rotate(-90)" style="text-anchor: end;">02:00</text></g><g class="tick" opacity="1" transform="translate(794.9444444444445,0)"><line stroke="currentColor" y2="6"></line><text fill="currentColor" y="9" dy="0.71em" transform="rotate(-90)" style="text-anchor: end;">04:00</text></g><g class="tick" opacity="1" transform="translate(825.5,0)"><line stroke="currentColor" y2="6"></line><text fill="currentColor" y="9" dy="0.71em" transform="rotate(-90)" style="text-anchor: end;">06:00</text></g><g class="tick" opacity="1" transform="translate(856.0555555555555,0)"><line stroke="currentColor" y2="6"></line><text fill="currentColor" y="9" dy="0.71em" transform="rotate(-90)" style="text-anchor: end;">08:00</text></g><g class="tick" opacity="1" transform="translate(886.6111111111111,0)"><line stroke="currentColor" y2="6"></line><text fill="currentColor" y="9" dy="0.71em" transform="rotate(-90)" style="text-anchor: end;">10:00</text></g><g class="tick" opacity="1" transform="translate(917.1666666666667,0)"><line stroke="currentColor" y2="6"></line><text fill="currentColor" y="9" dy="0.71em" transform="rotate(-90)" style="text-anchor: end;">12:00</text></g><g class="tick" opacity="1" transform="translate(947.7222222222223,0)"><line stroke="currentColor" y2="6"></line><text fill="currentColor" y="9" dy="0.71em" transform="rotate(-90)" style="text-anchor: end;">14:00</text></g><g class="tick" opacity="1" transform="translate(978.2777777777777,0)"><line stroke="currentColor" y2="6"></line><text fill="currentColor" y="9" dy="0.71em" transform="rotate(-90)" style="text-anchor: end;">16:00</text></g><g class="tick" opacity="1" transform="translate(1008.8333333333333,0)"><line stroke="currentColor" y2="6"></line><text fill="currentColor" y="9" dy="0.71em" transform="rotate(-90)" style="text-anchor: end;">18:00</text></g><g class="tick" opacity="1" transform="translate(1039.388888888889,0)"><line stroke="currentColor" y2="6"></line><text fill="currentColor" y="9" dy="0.71em" transform="rotate(-90)" style="text-anchor: end;">20:00</text></g><g class="tick" opacity="1" transform="translate(1069.9444444444443,0)"><line stroke="currentColor" y2="6"></line><text fill="currentColor" y="9" dy="0.71em" transform="rotate(-90)" style="text-anchor: end;">22:00</text></g><g class="tick" opacity="1" transform="translate(1100.5,0)"><line stroke="currentColor" y2="6"></line><text fill="currentColor" y="9" dy="0.71em" transform="rotate(-90)" style="text-anchor: end;">00:00</text></g></g><g fill="none" font-size="10" font-family="sans-serif" text-anchor="end"><path class="domain" stroke="currentColor" d="M-6,390.5H0.5V0.5H-6"></path><g class="tick" opacity="1" transform="translate(0,390.5)"><line stroke="currentColor" x2="-6"></line><text fill="currentColor" x="-9" dy="0.32em">0.0</text></g><g class="tick" opacity="1" transform="translate(0,351.5)"><line stroke="currentColor" x2="-6"></line><text fill="currentColor" x="-9" dy="0.32em">0.1</text></g><g class="tick" opacity="1" transform="translate(0,312.5)"><line stroke="currentColor" x2="-6"></line><text fill="currentColor" x="-9" dy="0.32em">0.2</text></g><g class="tick" opacity="1" transform="translate(0,273.5)"><line stroke="currentColor" x2="-6"></line><text fill="currentColor" x="-9" dy="0.32em">0.3</text></g><g class="tick" opacity="1" transform="translate(0,234.5)"><line stroke="currentColor" x2="-6"></line><text fill="currentColor" x="-9" dy="0.32em">0.4</text></g><g class="tick" opacity="1" transform="translate(0,195.5)"><line stroke="currentColor" x2="-6"></line><text fill="currentColor" x="-9" dy="0.32em">0.5</text></g><g class="tick" opacity="1" transform="translate(0,156.5)"><line stroke="currentColor" x2="-6"></line><text fill="currentColor" x="-9" dy="0.32em">0.6</text></g><g class="tick" opacity="1" transform="translate(0,117.50000000000001)"><line stroke="currentColor" x2="-6"></line><text fill="currentColor" x="-9" dy="0.32em">0.7</text></g><g class="tick" opacity="1" transform="translate(0,78.49999999999999)"><line stroke="currentColor" x2="-6"></line><text fill="currentColor" x="-9" dy="0.32em">0.8</text></g><g class="tick" opacity="1" transform="translate(0,39.49999999999999)"><line stroke="currentColor" x2="-6"></line><text fill="currentColor" x="-9" dy="0.32em">0.9</text></g><g class="tick" opacity="1" transform="translate(0,0.5)"><line stroke="currentColor" x2="-6"></line><text fill="currentColor" x="-9" dy="0.32em">1.0</text></g></g><path fill="none" stroke="steelblue" stroke-width="1" d="M2.695,297.77L17.981,335.98L33.267,361.014L48.554,364.307L63.84,349.155L79.126,349.814L94.412,363.649L109.699,366.943L124.985,368.919L140.271,346.52L155.562,315.557L170.848,301.723L185.884,279.324L201.17,273.395L216.461,252.973L231.747,274.713L247.037,340.591L262.324,358.378L277.61,367.601L292.896,371.554L308.182,390L323.469,375.507L338.755,349.814L354.041,353.108L369.328,358.378L384.614,375.507L399.9,364.307L415.186,349.155L430.473,343.885L445.759,339.274L461.045,334.003L476.331,320.828L491.618,316.216L506.908,284.595L522.194,243.091L537.485,239.139L552.771,206.199L568.062,174.578L583.348,198.294L598.384,233.868L613.67,238.48L628.956,254.949L644.243,249.679L659.529,262.196L674.815,258.243L690.101,229.916L705.392,218.716L720.678,218.716L735.965,240.456L751.251,247.044L766.537,235.845L781.823,240.456L797.11,259.561L812.396,240.456L827.682,228.598L842.968,229.916L858.259,214.105L873.545,192.365L888.831,171.284L904.122,127.804L919.408,42.821L934.699,0L949.989,28.328L965.275,75.76L980.566,158.108L995.852,198.953L1010.884,202.905L1026.17,231.233L1041.456,264.831L1056.743,268.125L1072.029,258.243L1087.315,259.561"></path><g><circle cx="2.6948302469135803" cy="297.77027027027026" r="2" fill="steelblue"></circle><circle cx="17.98109567901235" cy="335.9797297297297" r="2" fill="steelblue"></circle><circle cx="33.26736111111111" cy="361.01351351351354" r="2" fill="steelblue"></circle><circle cx="48.55362654320988" cy="364.3074324324324" r="2" fill="steelblue"></circle><circle cx="63.83989197530864" cy="349.1554054054055" r="2" fill="steelblue"></circle><circle cx="79.1261574074074" cy="349.8141891891892" r="2" fill="steelblue"></circle><circle cx="94.41242283950618" cy="363.6486486486486" r="2" fill="steelblue"></circle><circle cx="109.69868827160494" cy="366.94256756756755" r="2" fill="steelblue"></circle><circle cx="124.98495370370371" cy="368.9189189189189" r="2" fill="steelblue"></circle><circle cx="140.27121913580245" cy="346.52027027027026" r="2" fill="steelblue"></circle><circle cx="155.56172839506172" cy="315.5574324324324" r="2" fill="steelblue"></circle><circle cx="170.84799382716048" cy="301.72297297297297" r="2" fill="steelblue"></circle><circle cx="185.88387345679013" cy="279.32432432432427" r="2" fill="steelblue"></circle><circle cx="201.17013888888889" cy="273.39527027027015" r="2" fill="steelblue"></circle><circle cx="216.46064814814815" cy="252.972972972973" r="2" fill="steelblue"></circle><circle cx="231.7469135802469" cy="274.7128378378379" r="2" fill="steelblue"></circle><circle cx="247.03742283950618" cy="340.5912162162162" r="2" fill="steelblue"></circle><circle cx="262.32368827160496" cy="358.37837837837833" r="2" fill="steelblue"></circle><circle cx="277.6099537037037" cy="367.60135135135135" r="2" fill="steelblue"></circle><circle cx="292.8962191358025" cy="371.5540540540541" r="2" fill="steelblue"></circle><circle cx="308.1824845679012" cy="390" r="2" fill="steelblue"></circle><circle cx="323.46875" cy="375.5067567567567" r="2" fill="steelblue"></circle><circle cx="338.7550154320988" cy="349.8141891891892" r="2" fill="steelblue"></circle><circle cx="354.0412808641975" cy="353.10810810810807" r="2" fill="steelblue"></circle><circle cx="369.3275462962963" cy="358.37837837837833" r="2" fill="steelblue"></circle><circle cx="384.6138117283951" cy="375.5067567567567" r="2" fill="steelblue"></circle><circle cx="399.9000771604938" cy="364.3074324324324" r="2" fill="steelblue"></circle><circle cx="415.1863425925926" cy="349.1554054054055" r="2" fill="steelblue"></circle><circle cx="430.4726080246914" cy="343.8851351351352" r="2" fill="steelblue"></circle><circle cx="445.7588734567901" cy="339.27364864864865" r="2" fill="steelblue"></circle><circle cx="461.0451388888889" cy="334.0033783783784" r="2" fill="steelblue"></circle><circle cx="476.33140432098764" cy="320.82770270270265" r="2" fill="steelblue"></circle><circle cx="491.61766975308643" cy="316.21621621621625" r="2" fill="steelblue"></circle><circle cx="506.90817901234567" cy="284.59459459459464" r="2" fill="steelblue"></circle><circle cx="522.1944444444445" cy="243.09121621621628" r="2" fill="steelblue"></circle><circle cx="537.4849537037037" cy="239.13851351351343" r="2" fill="steelblue"></circle><circle cx="552.7712191358024" cy="206.19932432432424" r="2" fill="steelblue"></circle><circle cx="568.0617283950617" cy="174.5777027027026" r="2" fill="steelblue"></circle><circle cx="583.3479938271605" cy="198.29391891891905" r="2" fill="steelblue"></circle><circle cx="598.3838734567902" cy="233.86824324324328" r="2" fill="steelblue"></circle><circle cx="613.6701388888889" cy="238.4797297297298" r="2" fill="steelblue"></circle><circle cx="628.9564043209876" cy="254.9493243243244" r="2" fill="steelblue"></circle><circle cx="644.2426697530864" cy="249.67905405405403" r="2" fill="steelblue"></circle><circle cx="659.5289351851851" cy="262.195945945946" r="2" fill="steelblue"></circle><circle cx="674.815200617284" cy="258.2432432432434" r="2" fill="steelblue"></circle><circle cx="690.1014660493827" cy="229.91554054054043" r="2" fill="steelblue"></circle><circle cx="705.3919753086419" cy="218.71621621621622" r="2" fill="steelblue"></circle><circle cx="720.6782407407408" cy="218.71621621621622" r="2" fill="steelblue"></circle><circle cx="735.9645061728395" cy="240.456081081081" r="2" fill="steelblue"></circle><circle cx="751.2507716049382" cy="247.0439189189189" r="2" fill="steelblue"></circle><circle cx="766.5370370370371" cy="235.84459459459447" r="2" fill="steelblue"></circle><circle cx="781.8233024691358" cy="240.456081081081" r="2" fill="steelblue"></circle><circle cx="797.1095679012345" cy="259.5608108108109" r="2" fill="steelblue"></circle><circle cx="812.3958333333334" cy="240.456081081081" r="2" fill="steelblue"></circle><circle cx="827.6820987654321" cy="228.5979729729729" r="2" fill="steelblue"></circle><circle cx="842.9683641975308" cy="229.91554054054043" r="2" fill="steelblue"></circle><circle cx="858.2588734567902" cy="214.10472972972974" r="2" fill="steelblue"></circle><circle cx="873.5451388888889" cy="192.36486486486498" r="2" fill="steelblue"></circle><circle cx="888.8314043209876" cy="171.2837837837839" r="2" fill="steelblue"></circle><circle cx="904.121913580247" cy="127.80405405405416" r="2" fill="steelblue"></circle><circle cx="919.4081790123457" cy="42.820945945945844" r="2" fill="steelblue"></circle><circle cx="934.6986882716049" cy="0" r="2" fill="steelblue"></circle><circle cx="949.9891975308642" cy="28.327702702702684" r="2" fill="steelblue"></circle><circle cx="965.2754629629629" cy="75.76013513513502" r="2" fill="steelblue"></circle><circle cx="980.5659722222223" cy="158.108108108108" r="2" fill="steelblue"></circle><circle cx="995.852237654321" cy="198.95270270270268" r="2" fill="steelblue"></circle><circle cx="1010.8838734567902" cy="202.90540540540528" r="2" fill="steelblue"></circle><circle cx="1026.170138888889" cy="231.2331081081082" r="2" fill="steelblue"></circle><circle cx="1041.4564043209875" cy="264.83108108108104" r="2" fill="steelblue"></circle><circle cx="1056.7426697530864" cy="268.125" r="2" fill="steelblue"></circle><circle cx="1072.0289351851852" cy="258.2432432432434" r="2" fill="steelblue"></circle><circle cx="1087.3152006172838" cy="259.5608108108109" r="2" fill="steelblue"></circle></g><path fill="none" stroke="orange" stroke-width="1" d="M2.695,187.142L17.981,169.963L33.267,148.763L48.554,161.19L63.84,163.018L79.126,154.246L94.412,161.556L109.699,139.625L124.985,129.391L140.271,153.88L155.562,214.92L170.848,267.188L185.884,312.877L201.17,344.311L216.461,389.634L231.747,390L247.037,337.001L262.324,266.457L277.61,262.802L292.896,216.017L308.182,172.887L323.469,179.466L338.755,203.59L354.041,183.852L369.328,165.942L384.614,142.549L399.9,164.48L415.186,185.679L430.473,154.246L445.759,143.646L461.045,171.059L476.331,172.521L491.618,177.638L506.908,232.099L522.194,306.298L537.485,295.333L552.771,324.939L568.062,348.332L583.348,313.243L598.384,240.872L613.67,229.541L628.956,200.665L644.243,173.252L659.529,154.246L674.815,159.728L690.101,171.059L705.392,152.418L720.678,185.314L735.965,149.128L751.251,163.383L766.537,145.108L781.823,148.032L797.11,149.128L812.396,133.046L827.682,129.025L842.968,127.563L858.259,144.011L873.545,171.79L888.831,195.914L904.122,244.527L919.408,333.346L934.699,376.111L949.989,339.194L965.275,274.864L980.566,166.307L995.852,111.115L1010.884,101.978L1026.17,53.365L1041.456,12.062L1056.743,0L1072.029,15.717L1087.315,16.448"></path><g><circle cx="2.6948302469135803" cy="187.14151827553889" r="2" fill="orange"></circle><circle cx="17.98109567901235" cy="169.96251171508908" r="2" fill="orange"></circle><circle cx="33.26736111111111" cy="148.76288659793795" r="2" fill="orange"></circle><circle cx="48.55362654320988" cy="161.1902530459231" r="2" fill="orange"></circle><circle cx="63.83989197530864" cy="163.01780693533257" r="2" fill="orange"></circle><circle cx="79.1261574074074" cy="154.24554826616688" r="2" fill="orange"></circle><circle cx="94.41242283950618" cy="161.55576382380497" r="2" fill="orange"></circle><circle cx="109.69868827160494" cy="139.62511715089016" r="2" fill="orange"></circle><circle cx="124.98495370370371" cy="129.39081537019686" r="2" fill="orange"></circle><circle cx="140.27121913580245" cy="153.88003748828476" r="2" fill="orange"></circle><circle cx="155.56172839506172" cy="214.92033739456414" r="2" fill="orange"></circle><circle cx="170.84799382716048" cy="267.18837863167755" r="2" fill="orange"></circle><circle cx="185.88387345679013" cy="312.87722586691655" r="2" fill="orange"></circle><circle cx="201.17013888888889" cy="344.31115276476095" r="2" fill="orange"></circle><circle cx="216.46064814814815" cy="389.6344892221182" r="2" fill="orange"></circle><circle cx="231.7469135802469" cy="390" r="2" fill="orange"></circle><circle cx="247.03742283950618" cy="337.0009372071229" r="2" fill="orange"></circle><circle cx="262.32368827160496" cy="266.4573570759139" r="2" fill="orange"></circle><circle cx="277.6099537037037" cy="262.8022492970947" r="2" fill="orange"></circle><circle cx="292.8962191358025" cy="216.0168697282099" r="2" fill="orange"></circle><circle cx="308.1824845679012" cy="172.88659793814432" r="2" fill="orange"></circle><circle cx="323.46875" cy="179.46579194001873" r="2" fill="orange"></circle><circle cx="338.7550154320988" cy="203.5895032802248" r="2" fill="orange"></circle><circle cx="354.0412808641975" cy="183.85192127460155" r="2" fill="orange"></circle><circle cx="369.3275462962963" cy="165.94189315838804" r="2" fill="orange"></circle><circle cx="384.6138117283951" cy="142.5492033739457" r="2" fill="orange"></circle><circle cx="399.9000771604938" cy="164.47985004686043" r="2" fill="orange"></circle><circle cx="415.1863425925926" cy="185.67947516401128" r="2" fill="orange"></circle><circle cx="430.4726080246914" cy="154.24554826616688" r="2" fill="orange"></circle><circle cx="445.7588734567901" cy="143.64573570759146" r="2" fill="orange"></circle><circle cx="461.0451388888889" cy="171.05904404873482" r="2" fill="orange"></circle><circle cx="476.33140432098764" cy="172.52108716026245" r="2" fill="orange"></circle><circle cx="491.61766975308643" cy="177.63823805060923" r="2" fill="orange"></circle><circle cx="506.90817901234567" cy="232.09934395501398" r="2" fill="orange"></circle><circle cx="522.1944444444445" cy="306.29803186504216" r="2" fill="orange"></circle><circle cx="537.4849537037037" cy="295.33270852858493" r="2" fill="orange"></circle><circle cx="552.7712191358024" cy="324.9390815370196" r="2" fill="orange"></circle><circle cx="568.0617283950617" cy="348.331771321462" r="2" fill="orange"></circle><circle cx="583.3479938271605" cy="313.2427366447984" r="2" fill="orange"></circle><circle cx="598.3838734567902" cy="240.87160262417993" r="2" fill="orange"></circle><circle cx="613.6701388888889" cy="229.5407685098406" r="2" fill="orange"></circle><circle cx="628.9564043209876" cy="200.66541705716958" r="2" fill="orange"></circle><circle cx="644.2426697530864" cy="173.25210871602613" r="2" fill="orange"></circle><circle cx="659.5289351851851" cy="154.24554826616688" r="2" fill="orange"></circle><circle cx="674.815200617284" cy="159.72820993439552" r="2" fill="orange"></circle><circle cx="690.1014660493827" cy="171.05904404873482" r="2" fill="orange"></circle><circle cx="705.3919753086419" cy="152.41799437675715" r="2" fill="orange"></circle><circle cx="720.6782407407408" cy="185.3139643861292" r="2" fill="orange"></circle><circle cx="735.9645061728395" cy="149.12839737582007" r="2" fill="orange"></circle><circle cx="751.2507716049382" cy="163.38331771321467" r="2" fill="orange"></circle><circle cx="766.5370370370371" cy="145.10777881911906" r="2" fill="orange"></circle><circle cx="781.8233024691358" cy="148.03186504217427" r="2" fill="orange"></circle><circle cx="797.1095679012345" cy="149.12839737582007" r="2" fill="orange"></circle><circle cx="812.3958333333334" cy="133.04592314901575" r="2" fill="orange"></circle><circle cx="827.6820987654321" cy="129.02530459231474" r="2" fill="orange"></circle><circle cx="842.9683641975308" cy="127.56326148078712" r="2" fill="orange"></circle><circle cx="858.2588734567902" cy="144.01124648547327" r="2" fill="orange"></circle><circle cx="873.5451388888889" cy="171.79006560449852" r="2" fill="orange"></circle><circle cx="888.8314043209876" cy="195.91377694470484" r="2" fill="orange"></circle><circle cx="904.121913580247" cy="244.5267104029991" r="2" fill="orange"></circle><circle cx="919.4081790123457" cy="333.3458294283037" r="2" fill="orange"></circle><circle cx="934.6986882716049" cy="376.1105904404875" r="2" fill="orange"></circle><circle cx="949.9891975308642" cy="339.1940018744142" r="2" fill="orange"></circle><circle cx="965.2754629629629" cy="274.86410496719776" r="2" fill="orange"></circle><circle cx="980.5659722222223" cy="166.3074039362699" r="2" fill="orange"></circle><circle cx="995.852237654321" cy="111.11527647610123" r="2" fill="orange"></circle><circle cx="1010.8838734567902" cy="101.97750702905343" r="2" fill="orange"></circle><circle cx="1026.170138888889" cy="53.364573570758935" r="2" fill="orange"></circle><circle cx="1041.4564043209875" cy="12.06185567010305" r="2" fill="orange"></circle><circle cx="1056.7426697530864" cy="0" r="2" fill="orange"></circle><circle cx="1072.0289351851852" cy="15.716963448922204" r="2" fill="orange"></circle><circle cx="1087.3152006172838" cy="16.447985004685886" r="2" fill="orange"></circle></g></g></svg>
