<svg width="1200" height="500" xmlns="http://www.w3.org/2000/svg" xmlns:xlink="http://www.w3.org/1999/xlink"><g transform="translate(50,50)"><g transform="translate(0,390)" fill="none" font-size="10" font-family="sans-serif" text-anchor="middle"><path class="domain" stroke="currentColor" d="M0.5,6V0.5H1100.5V6"></path><g class="tick" opacity="1" transform="translate(0.5,0)"><line stroke="currentColor" y2="6"></line><text fill="currentColor" y="9" dy="0.71em" transform="rotate(-90)" style="text-anchor: end;">00:00</text></g><g class="tick" opacity="1" transform="translate(31.055555555555554,0)"><line stroke="currentColor" y2="6"></line><text fill="currentColor" y="9" dy="0.71em" transform="rotate(-90)" style="text-anchor: end;">02:00</text></g><g class="tick" opacity="1" transform="translate(61.61111111111111,0)"><line stroke="currentColor" y2="6"></line><text fill="currentColor" y="9" dy="0.71em" transform="rotate(-90)" style="text-anchor: end;">04:00</text></g><g class="tick" opacity="1" transform="translate(92.16666666666666,0)"><line stroke="currentColor" y2="6"></line><text fill="currentColor" y="9" dy="0.71em" transform="rotate(-90)" style="text-anchor: end;">06:00</text></g><g class="tick" opacity="1" transform="translate(122.72222222222221,0)"><line stroke="currentColor" y2="6"></line><text fill="currentColor" y="9" dy="0.71em" transform="rotate(-90)" style="text-anchor: end;">08:00</text></g><g class="tick" opacity="1" transform="translate(153.27777777777777,0)"><line stroke="currentColor" y2="6"></line><text fill="currentColor" y="9" dy="0.71em" transform="rotate(-90)" style="text-anchor: end;">10:00</text></g><g class="tick" opacity="1" transform="translate(183.83333333333331,0)"><line stroke="currentColor" y2="6"></line><text fill="currentColor" y="9" dy="0.71em" transform="rotate(-90)" style="text-anchor: end;">12:00</text></g><g class="tick" opacity="1" transform="translate(214.38888888888889,0)"><line stroke="currentColor" y2="6"></line><text fill="currentColor" y="9" dy="0.71em" transform="rotate(-90)" style="text-anchor: end;">14:00</text></g><g class="tick" opacity="1" transform="translate(244.94444444444443,0)"><line stroke="currentColor" y2="6"></line><text fill="currentColor" y="9" dy="0.71em" transform="rotate(-90)" style="text-anchor: end;">16:00</text></g><g class="tick" opacity="1" transform="translate(275.5,0)"><line stroke="currentColor" y2="6"></line><text fill="currentColor" y="9" dy="0.71em" transform="rotate(-90)" style="text-anchor: end;">18:00</text></g><g class="tick" opacity="1" transform="translate(306.05555555555554,0)"><line stroke="currentColor" y2="6"></line><text fill="currentColor" y="9" dy="0.71em" transform="rotate(-90)" style="text-anchor: end;">20:00</text></g><g class="tick" opacity="1" transform="translate(336.61111111111114,0)"><line stroke="currentColor" y2="6"></line><text fill="currentColor" y="9" dy="0.71em" transform="rotate(-90)" style="text-anchor: end;">22:00</text></g><g class="tick" opacity="1" transform="translate(367.16666666666663,0)"><line stroke="currentColor" y2="6"></line><text fill="currentColor" y="9" dy="0.71em" transform="rotate(-90)" style="text-anchor: end;">00:00</text></g><g class="tick" opacity="1" transform="translate(397.72222222222223,0)"><line stroke="currentColor" y2="6"></line><text fill="currentColor" y="9" dy="0.71em" transform="rotate(-90)" style="text-anchor: end;">02:00</text></g><g class="tick" opacity="1" transform="translate(428.27777777777777,0)"><line stroke="currentColor" y2="6"></line><text fill="currentColor" y="9" dy="0.71em" transform="rotate(-90)" style="text-anchor: end;">04:00</text></g><g class="tick" opacity="1" transform="translate(458.83333333333337,0)"><line stroke="currentColor" y2="6"></line><text fill="currentColor" y="9" dy="0.71em" transform="rotate(-90)" style="text-anchor: end;">06:00</text></g><g class="tick" opacity="1" transform="translate(489.38888888888886,0)"><line stroke="currentColor" y2="6"></line><text fill="currentColor" y="9" dy="0.71em" transform="rotate(-90)" style="text-anchor: end;">08:00</text></g><g class="tick" opacity="1" transform="translate(519.9444444444445,0)"><line stroke="currentColor" y2="6"></line><text fill="currentColor" y="9" dy="0.71em" transform="rotate(-90)" style="text-anchor: end;">10:00</text></g><g class="tick" opacity="1" transform="translate(550.5,0)"><line stroke="currentColor" y2="6"></line><text fill="currentColor" y="9" dy="0.71em" transform="rotate(-90)" style="text-anchor: end;">12:00</text></g><g class="tick" opacity="1" transform="translate(581.0555555555555,0)"><line stroke="currentColor" y2="6"></line><text fill="currentColor" y="9" dy="0.71em" transform="rotate(-90)" style="text-anchor: end;">14:00</text></g><g class="tick" opacity="1" transform="translate(611.6111111111111,0)"><line stroke="currentColor" y2="6"></line><text fill="currentColor" y="9" dy="0.71em" transform="rotate(-90)" style="text-anchor: end;">16:00</text></g><g class="tick" opacity="1" transform="translate(642.1666666666667,0)"><line stroke="currentColor" y2="6"></line><text fill="currentColor" y="9" dy="0.71em" transform="rotate(-90)" style="text-anchor: end;">18:00</text></g><g class="tick" opacity="1" transform="translate(672.7222222222223,0)"><line stroke="currentColor" y2="6"></line><text fill="currentColor" y="9" dy="0.71em" transform="rotate(-90)" style="text-anchor: end;">20:00</text></g><g class="tick" opacity="1" transform="translate(703.2777777777777,0)"><line stroke="currentColor" y2="6"></line><text fill="currentColor" y="9" dy="0.71em" transform="rotate(-90)" style="text-anchor: end;">22:00</text></g><g class="tick" opacity="1" transform="translate(733.8333333333333,0)"><line stroke="currentColor" y2="6"></line><text fill="currentColor" y="9" dy="0.71em" transform="rotate(-90)" style="text-anchor: end;">00:00</text></g><g class="tick" opacity="1" transform="translate(764.3888888888889,0)"><line stroke="currentColor" y2="6"></line><text fill="currentColor" y="9" dy="0.71em" transform="rotate(-90)" style="text-anchor: end;">02:00</text></g><g class="tick" opacity="1" transform="translate(794.9444444444445,0)"><line stroke="currentColor" y2="6"></line><text fill="currentColor" y="9" dy="0.71em" transform="rotate(-90)" style="text-anchor: end;">04:00</text></g><g class="tick" opacity="1" transform="translate(825.5,0)"><line stroke="currentColor" y2="6"></line><text fill="currentColor" y="9" dy="0.71em" transform="rotate(-90)" style="text-anchor: end;">06:00</text></g><g class="tick" opacity="1" transform="translate(856.0555555555555,0)"><line stroke="currentColor" y2="6"></line><text fill="currentColor" y="9" dy="0.71em" transform="rotate(-90)" style="text-anchor: end;">08:00</text></g><g class="tick" opacity="1" transform="translate(886.6111111111111,0)"><line stroke="currentColor" y2="6"></line><text fill="currentColor" y="9" dy="0.71em" transform="rotate(-90)" style="text-anchor: end;">10:00</text></g><g class="tick" opacity="1" transform="translate(917.1666666666667,0)"><line stroke="currentColor" y2="6"></line><text fill="currentColor" y="9" dy="0.71em" transform="rotate(-90)" style="text-anchor: end;">12:00</text></g><g class="tick" opacity="1" transform="translate(947.7222222222223,0)"><line stroke="currentColor" y2="6"></line><text fill="currentColor" y="9" dy="0.71em" transform="rotate(-90)" style="text-anchor: end;">14:00</text></g><g class="tick" opacity="1" transform="translate(978.2777777777777,0)"><line stroke="currentColor" y2="6"></line><text fill="currentColor" y="9" dy="0.71em" transform="rotate(-90)" style="text-anchor: end;">16:00</text></g><g class="tick" opacity="1" transform="translate(1008.8333333333333,0)"><line stroke="currentColor" y2="6"></line><text fill="currentColor" y="9" dy="0.71em" transform="rotate(-90)" style="text-anchor: end;">18:00</text></g><g class="tick" opacity="1" transform="translate(1039.388888888889,0)"><line stroke="currentColor" y2="6"></line><text fill="currentColor" y="9" dy="0.71em" transform="rotate(-90)" style="text-anchor: end;">20:00</text></g><g class="tick" opacity="1" transform="translate(1069.9444444444443,0)"><line stroke="currentColor" y2="6"></line><text fill="currentColor" y="9" dy="0.71em" transform="rotate(-90)" style="text-anchor: end;">22:00</text></g><g class="tick" opacity="1" transform="translate(1100.5,0)"><line stroke="currentColor" y2="6"></line><text fill="currentColor" y="9" dy="0.71em" transform="rotate(-90)" style="text-anchor: end;">00:00</text></g></g><g fill="none" font-size="10" font-family="sans-serif" text-anchor="end"><path class="domain" stroke="currentColor" d="M-6,390.5H0.5V0.5H-6"></path><g class="tick" opacity="1" transform="translate(0,390.5)"><line stroke="currentColor" x2="-6"></line><text fill="currentColor" x="-9" dy="0.32em">−0.5</text></g><g class="tick" opacity="1" transform="translate(0,351.5)"><line stroke="currentColor" x2="-6"></line><text fill="currentColor" x="-9" dy="0.32em">−0.4</text></g><g class="tick" opacity="1" transform="translate(0,312.5)"><line stroke="currentColor" x2="-6"></line><text fill="currentColor" x="-9" dy="0.32em">−0.3</text></g><g class="tick" opacity="1" transform="translate(0,273.5)"><line stroke="currentColor" x2="-6"></line><text fill="currentColor" x="-9" dy="0.32em">−0.2</text></g><g class="tick" opacity="1" transform="translate(0,234.5)"><line stroke="currentColor" x2="-6"></line><text fill="currentColor" x="-9" dy="0.32em">−0.1</text></g><g class="tick" opacity="1" transform="translate(0,195.5)"><line stroke="currentColor" x2="-6"></line><text fill="currentColor" x="-9" dy="0.32em">0.0</text></g><g class="tick" opacity="1" transform="translate(0,156.5)"><line stroke="currentColor" x2="-6"></line><text fill="currentColor" x="-9" dy="0.32em">0.1</text></g><g class="tick" opacity="1" transform="translate(0,117.50000000000001)"><line stroke="currentColor" x2="-6"></line><text fill="currentColor" x="-9" dy="0.32em">0.2</text></g><g class="tick" opacity="1" transform="translate(0,78.49999999999999)"><line stroke="currentColor" x2="-6"></line><text fill="currentColor" x="-9" dy="0.32em">0.3</text></g><g class="tick" opacity="1" transform="translate(0,39.49999999999999)"><line stroke="currentColor" x2="-6"></line><text fill="currentColor" x="-9" dy="0.32em">0.4</text></g><g class="tick" opacity="1" transform="translate(0,0.5)"><line stroke="currentColor" x2="-6"></line><text fill="currentColor" x="-9" dy="0.32em">0.5</text></g></g><path fill="none" stroke="steelblue" stroke-width="1" d="M17.981,194.994L33.267,195.006L48.554,195L63.84,195L79.126,195L94.412,194.994L109.699,194.732L124.985,159.035L140.271,27.794L155.562,192.609L170.848,95.56L185.884,191.978L201.17,202.23L216.461,301.41L231.747,249.715L247.037,324.298L262.324,205.644L277.61,195L292.896,194.994L308.182,195.006L323.469,194.994L338.755,195.006L354.041,195L369.328,195L384.614,195L399.9,194.994L415.186,195.006L430.473,194.994L445.759,195.006L461.045,195L476.331,194.765L491.618,156.015L506.908,56.016L522.194,170.345L537.485,105.908L552.771,188.211L568.062,103.739L583.348,368.461L598.384,359.833L613.67,243.032L628.956,198.666L644.243,195.008L659.529,195L674.815,195L690.101,195L705.392,195L720.678,195L735.965,194.992L751.251,195.008L766.537,195L781.823,195L797.11,195L812.396,195L827.682,195L842.968,194.516L858.259,146.794L873.545,121.935L888.831,174.888L904.122,84.418L919.408,99.749L934.699,231.616L949.989,296.201L965.275,272.734L980.566,319.201L995.852,202.946L1010.884,195L1026.17,195L1041.456,195L1056.743,194.994L1072.029,195.006L1087.315,194.994"></path><g><circle cx="17.98109567901235" cy="194.99440799470358" r="2" fill="steelblue"></circle><circle cx="33.26736111111111" cy="195.00559200529642" r="2" fill="steelblue"></circle><circle cx="48.55362654320988" cy="195" r="2" fill="steelblue"></circle><circle cx="63.83989197530864" cy="195" r="2" fill="steelblue"></circle><circle cx="79.1261574074074" cy="195" r="2" fill="steelblue"></circle><circle cx="94.41242283950618" cy="194.99440799470358" r="2" fill="steelblue"></circle><circle cx="109.69868827160494" cy="194.73158404913875" r="2" fill="steelblue"></circle><circle cx="124.98495370370371" cy="159.03505919397367" r="2" fill="steelblue"></circle><circle cx="140.27121913580245" cy="27.793629589029972" r="2" fill="steelblue"></circle><circle cx="155.56172839506172" cy="192.6094338141846" r="2" fill="steelblue"></circle><circle cx="170.84799382716048" cy="95.5602625905078" r="2" fill="steelblue"></circle><circle cx="185.88387345679013" cy="191.97752253277923" r="2" fill="steelblue"></circle><circle cx="201.17013888888889" cy="202.23044840802567" r="2" fill="steelblue"></circle><circle cx="216.46064814814815" cy="301.4101587240259" r="2" fill="steelblue"></circle><circle cx="231.7469135802469" cy="249.71491351125803" r="2" fill="steelblue"></circle><circle cx="247.03742283950618" cy="324.29820922060134" r="2" fill="steelblue"></circle><circle cx="262.32368827160496" cy="205.64437037177143" r="2" fill="steelblue"></circle><circle cx="277.6099537037037" cy="195" r="2" fill="steelblue"></circle><circle cx="292.8962191358025" cy="194.99440799470358" r="2" fill="steelblue"></circle><circle cx="308.1824845679012" cy="195.00559200529642" r="2" fill="steelblue"></circle><circle cx="323.46875" cy="194.99440799470358" r="2" fill="steelblue"></circle><circle cx="338.7550154320988" cy="195.00559200529642" r="2" fill="steelblue"></circle><circle cx="354.0412808641975" cy="195" r="2" fill="steelblue"></circle><circle cx="369.3275462962963" cy="195" r="2" fill="steelblue"></circle><circle cx="384.6138117283951" cy="195" r="2" fill="steelblue"></circle><circle cx="399.9000771604938" cy="194.99440799470358" r="2" fill="steelblue"></circle><circle cx="415.1863425925926" cy="195.00559200529642" r="2" fill="steelblue"></circle><circle cx="430.4726080246914" cy="194.99440799470358" r="2" fill="steelblue"></circle><circle cx="445.7588734567901" cy="195.00559200529642" r="2" fill="steelblue"></circle><circle cx="461.0451388888889" cy="195" r="2" fill="steelblue"></circle><circle cx="476.33140432098764" cy="194.76513602024397" r="2" fill="steelblue"></circle><circle cx="491.61766975308643" cy="156.01537687997643" r="2" fill="steelblue"></circle><circle cx="506.90817901234567" cy="56.01645410914191" r="2" fill="steelblue"></circle><circle cx="522.1944444444445" cy="170.34486648609087" r="2" fill="steelblue"></circle><circle cx="537.4849537037037" cy="105.90827549025913" r="2" fill="steelblue"></circle><circle cx="552.7712191358024" cy="188.21130702632706" r="2" fill="steelblue"></circle><circle cx="568.0617283950617" cy="103.73858398796061" r="2" fill="steelblue"></circle><circle cx="583.3479938271605" cy="368.4610300945159" r="2" fill="steelblue"></circle><circle cx="598.3838734567902" cy="359.83255002579483" r="2" fill="steelblue"></circle><circle cx="613.6701388888889" cy="243.03247658640473" r="2" fill="steelblue"></circle><circle cx="628.9564043209876" cy="198.66555528534" r="2" fill="steelblue"></circle><circle cx="644.2426697530864" cy="195.00838800794457" r="2" fill="steelblue"></circle><circle cx="659.5289351851851" cy="195" r="2" fill="steelblue"></circle><circle cx="674.815200617284" cy="195" r="2" fill="steelblue"></circle><circle cx="690.1014660493827" cy="195" r="2" fill="steelblue"></circle><circle cx="705.3919753086419" cy="195" r="2" fill="steelblue"></circle><circle cx="720.6782407407408" cy="195" r="2" fill="steelblue"></circle><circle cx="735.9645061728395" cy="194.9916119920554" r="2" fill="steelblue"></circle><circle cx="751.2507716049382" cy="195.00838800794457" r="2" fill="steelblue"></circle><circle cx="766.5370370370371" cy="195" r="2" fill="steelblue"></circle><circle cx="781.8233024691358" cy="195" r="2" fill="steelblue"></circle><circle cx="797.1095679012345" cy="195" r="2" fill="steelblue"></circle><circle cx="812.3958333333334" cy="195" r="2" fill="steelblue"></circle><circle cx="827.6820987654321" cy="195" r="2" fill="steelblue"></circle><circle cx="842.9683641975308" cy="194.51629208792014" r="2" fill="steelblue"></circle><circle cx="858.2588734567902" cy="146.79417143142646" r="2" fill="steelblue"></circle><circle cx="873.5451388888889" cy="121.93493500276631" r="2" fill="steelblue"></circle><circle cx="888.8314043209876" cy="174.88837837356465" r="2" fill="steelblue"></circle><circle cx="904.121913580247" cy="84.41821964373278" r="2" fill="steelblue"></circle><circle cx="919.4081790123457" cy="99.74869069658008" r="2" fill="steelblue"></circle><circle cx="934.6986882716049" cy="231.6164101511352" r="2" fill="steelblue"></circle><circle cx="949.9891975308642" cy="296.2012075499519" r="2" fill="steelblue"></circle><circle cx="965.2754629629629" cy="272.7343706110385" r="2" fill="steelblue"></circle><circle cx="980.5659722222223" cy="319.2010932986001" r="2" fill="steelblue"></circle><circle cx="995.852237654321" cy="202.94623115328395" r="2" fill="steelblue"></circle><circle cx="1010.8838734567902" cy="195" r="2" fill="steelblue"></circle><circle cx="1026.170138888889" cy="195" r="2" fill="steelblue"></circle><circle cx="1041.4564043209875" cy="195" r="2" fill="steelblue"></circle><circle cx="1056.7426697530864" cy="194.99440799470358" r="2" fill="steelblue"></circle><circle cx="1072.0289351851852" cy="195.00559200529642" r="2" fill="steelblue"></circle><circle cx="1087.3152006172838" cy="194.99440799470358" r="2" fill="steelblue"></circle></g><path fill="none" stroke="orange" stroke-width="1" d="M17.981,177.821L33.267,173.8L48.554,207.427L63.84,196.828L79.126,186.228L94.412,202.31L109.699,173.069L124.985,184.766L140.271,219.489L155.562,256.04L170.848,247.268L185.884,240.689L201.17,226.434L216.461,240.323L231.747,195.366L247.037,142.001L262.324,124.456L277.61,191.345L292.896,148.215L308.182,151.87L323.469,201.579L338.755,219.124L354.041,175.262L369.328,177.09L384.614,171.607L399.9,216.931L415.186,216.2L430.473,163.566L445.759,184.4L461.045,222.413L476.331,196.462L491.618,200.117L506.908,249.461L522.194,269.199L537.485,184.035L552.771,224.606L568.062,218.393L583.348,159.911L598.384,122.629L613.67,183.669L628.956,166.125L644.243,167.587L659.529,175.993L674.815,200.483L690.101,206.331L705.392,176.359L720.678,227.896L735.965,158.814L751.251,209.255L766.537,176.724L781.823,197.924L797.11,196.097L812.396,178.918L827.682,190.979L842.968,193.538L858.259,211.448L873.545,222.779L888.831,219.124L904.122,243.613L919.408,283.819L934.699,237.765L949.989,158.083L965.275,130.67L980.566,86.443L995.852,139.808L1010.884,185.862L1026.17,146.387L1041.456,153.697L1056.743,182.938L1072.029,210.717L1087.315,195.731"></path><g><circle cx="17.98109567901235" cy="177.82099343955016" r="2" fill="orange"></circle><circle cx="33.26736111111111" cy="173.8003748828489" r="2" fill="orange"></circle><circle cx="48.55362654320988" cy="207.42736644798512" r="2" fill="orange"></circle><circle cx="63.83989197530864" cy="196.8275538894095" r="2" fill="orange"></circle><circle cx="79.1261574074074" cy="186.22774133083428" r="2" fill="orange"></circle><circle cx="94.41242283950618" cy="202.3102155576381" r="2" fill="orange"></circle><circle cx="109.69868827160494" cy="173.06935332708522" r="2" fill="orange"></circle><circle cx="124.98495370370371" cy="184.7656982193067" r="2" fill="orange"></circle><circle cx="140.27121913580245" cy="219.48922211808787" r="2" fill="orange"></circle><circle cx="155.56172839506172" cy="256.0402999062794" r="2" fill="orange"></circle><circle cx="170.84799382716048" cy="247.26804123711338" r="2" fill="orange"></circle><circle cx="185.88387345679013" cy="240.688847235239" r="2" fill="orange"></circle><circle cx="201.17013888888889" cy="226.4339268978444" r="2" fill="orange"></circle><circle cx="216.46064814814815" cy="240.32333645735716" r="2" fill="orange"></circle><circle cx="231.7469135802469" cy="195.36551077788187" r="2" fill="orange"></circle><circle cx="247.03742283950618" cy="142.0009372071229" r="2" fill="orange"></circle><circle cx="262.32368827160496" cy="124.45641986879097" r="2" fill="orange"></circle><circle cx="277.6099537037037" cy="191.34489222118086" r="2" fill="orange"></circle><circle cx="292.8962191358025" cy="148.2146204311152" r="2" fill="orange"></circle><circle cx="308.1824845679012" cy="151.8697282099344" r="2" fill="orange"></circle><circle cx="323.46875" cy="201.5791940018744" r="2" fill="orange"></circle><circle cx="338.7550154320988" cy="219.12371134020606" r="2" fill="orange"></circle><circle cx="354.0412808641975" cy="175.2624179943768" r="2" fill="orange"></circle><circle cx="369.3275462962963" cy="177.0899718837865" r="2" fill="orange"></circle><circle cx="384.6138117283951" cy="171.60731021555762" r="2" fill="orange"></circle><circle cx="399.9000771604938" cy="216.93064667291475" r="2" fill="orange"></circle><circle cx="415.1863425925926" cy="216.19962511715084" r="2" fill="orange"></circle><circle cx="430.4726080246914" cy="163.5660731021556" r="2" fill="orange"></circle><circle cx="445.7588734567901" cy="184.40018744142458" r="2" fill="orange"></circle><circle cx="461.0451388888889" cy="222.4133083411434" r="2" fill="orange"></circle><circle cx="476.33140432098764" cy="196.46204311152763" r="2" fill="orange"></circle><circle cx="491.61766975308643" cy="200.11715089034678" r="2" fill="orange"></circle><circle cx="506.90817901234567" cy="249.46110590440475" r="2" fill="orange"></circle><circle cx="522.1944444444445" cy="269.19868791002824" r="2" fill="orange"></circle><circle cx="537.4849537037037" cy="184.03467666354277" r="2" fill="orange"></circle><circle cx="552.7712191358024" cy="224.6063730084347" r="2" fill="orange"></circle><circle cx="568.0617283950617" cy="218.39268978444238" r="2" fill="orange"></circle><circle cx="583.3479938271605" cy="159.9109653233364" r="2" fill="orange"></circle><circle cx="598.3838734567902" cy="122.62886597938153" r="2" fill="orange"></circle><circle cx="613.6701388888889" cy="183.66916588566065" r="2" fill="orange"></circle><circle cx="628.9564043209876" cy="166.12464854732897" r="2" fill="orange"></circle><circle cx="644.2426697530864" cy="167.5866916588566" r="2" fill="orange"></circle><circle cx="659.5289351851851" cy="175.99343955014072" r="2" fill="orange"></circle><circle cx="674.815200617284" cy="200.48266166822864" r="2" fill="orange"></circle><circle cx="690.1014660493827" cy="206.33083411433932" r="2" fill="orange"></circle><circle cx="705.3919753086419" cy="176.35895032802233" r="2" fill="orange"></circle><circle cx="720.6782407407408" cy="227.89597000937204" r="2" fill="orange"></circle><circle cx="735.9645061728395" cy="158.81443298969089" r="2" fill="orange"></circle><circle cx="751.2507716049382" cy="209.25492033739457" r="2" fill="orange"></circle><circle cx="766.5370370370371" cy="176.7244611059044" r="2" fill="orange"></circle><circle cx="781.8233024691358" cy="197.9240862230552" r="2" fill="orange"></circle><circle cx="797.1095679012345" cy="196.0965323336458" r="2" fill="orange"></circle><circle cx="812.3958333333334" cy="178.91752577319568" r="2" fill="orange"></circle><circle cx="827.6820987654321" cy="190.979381443299" r="2" fill="orange"></circle><circle cx="842.9683641975308" cy="193.53795688847237" r="2" fill="orange"></circle><circle cx="858.2588734567902" cy="211.44798500468616" r="2" fill="orange"></circle><circle cx="873.5451388888889" cy="222.77881911902526" r="2" fill="orange"></circle><circle cx="888.8314043209876" cy="219.12371134020637" r="2" fill="orange"></circle><circle cx="904.121913580247" cy="243.61293345829424" r="2" fill="orange"></circle><circle cx="919.4081790123457" cy="283.81911902530464" r="2" fill="orange"></circle><circle cx="934.6986882716049" cy="237.76476101218378" r="2" fill="orange"></circle><circle cx="949.9891975308642" cy="158.0834114339267" r="2" fill="orange"></circle><circle cx="965.2754629629629" cy="130.67010309278356" r="2" fill="orange"></circle><circle cx="980.5659722222223" cy="86.44329896907216" r="2" fill="orange"></circle><circle cx="995.852237654321" cy="139.80787253983132" r="2" fill="orange"></circle><circle cx="1010.8838734567902" cy="185.8622305529522" r="2" fill="orange"></circle><circle cx="1026.170138888889" cy="146.3870665417055" r="2" fill="orange"></circle><circle cx="1041.4564043209875" cy="153.6972820993441" r="2" fill="orange"></circle><circle cx="1056.7426697530864" cy="182.93814432989694" r="2" fill="orange"></circle><circle cx="1072.0289351851852" cy="210.7169634489222" r="2" fill="orange"></circle><circle cx="1087.3152006172838" cy="195.73102155576368" r="2" fill="orange"></circle></g></g></svg>
